<?xml version="1.0"?>
<svg width="500" height="500" xmlns="http://www.w3.org/2000/svg" xmlns:svg="http://www.w3.org/2000/svg" enable-background="new 0 0 1200 1200" version="1.1" xml:space="preserve">
 <g class="layer">
  <title>Layer 1</title>
  <g id="svg_153">
   <g id="svg_154">
    <path d="m364.08,52.15c19.19,3.19 36.76,19.17 51.16,30.36c30.36,27.18 51.14,62.35 46.35,103.91c-3.19,17.59 -11.19,36.76 -7.98,55.95c1.59,14.38 19.17,36.76 15.98,49.56c-4.79,19.17 -33.57,4.79 -43.16,-1.6c-19.19,-14.38 -25.59,-33.57 -31.97,-54.35c-12.8,-36.76 -12.8,-84.73 -41.57,-111.91l11.19,-71.92z" fill="#A86B29" id="svg_155"/>
    <path d="m363.38,54.69c14.7,2.73 27.1,11.65 38.63,20.68c10.87,8.5 20.89,17.42 29.77,28.02c18.01,21.45 28.91,48.05 27.73,76.26c-0.65,15.41 -6.99,30.19 -8.84,45.51c-1.53,12.78 1.15,23.91 6.42,35.39c4.16,9.07 12.6,21.37 9.64,31.8c-2.94,10.29 -16.84,6.09 -23.8,3.51c-33.1,-12.24 -43.58,-48.03 -51.33,-79.25c-8.06,-32.47 -11.44,-69.88 -36.84,-94.38c-2.44,-2.39 -6.19,1.36 -3.74,3.72c18.87,18.22 24.94,44.69 30.38,69.4c5.35,24.37 10.68,49.92 22.31,72.23c9.55,18.26 27.02,32.45 47.53,36.11c7.58,1.37 15.6,-0.06 19.52,-7.31c4.58,-8.46 -0.08,-18.75 -3.57,-26.68c-3.76,-8.5 -8.65,-16.71 -10.69,-25.86c-2.98,-13.41 0.65,-27.5 3.91,-40.49c2.85,-11.31 4.87,-21.92 4.41,-33.63c-0.44,-10.9 -2.85,-21.68 -6.61,-31.89c-7.43,-20.22 -20.82,-37.77 -36.19,-52.63c-8.06,-7.77 -17.28,-14.67 -26.39,-21.18c-9.26,-6.65 -19.52,-12.32 -30.84,-14.42c-3.34,-0.61 -4.76,4.49 -1.41,5.1l0,0z" fill="#231F20" id="svg_156"/>
   </g>
   <g id="svg_157">
    <path d="m178.65,47.36c-19.17,3.19 -36.76,9.59 -54.35,20.78c-17.59,12.78 -33.57,27.18 -39.97,47.95c-4.79,19.17 -1.59,41.56 -11.19,59.14c-9.59,20.78 -30.36,30.36 -47.95,43.16c-14.38,11.19 -20.78,20.78 -3.19,30.38c33.57,22.36 86.32,14.38 116.68,-9.61c41.57,-30.36 57.56,-81.53 59.16,-131.08l-19.19,-60.73z" fill="#A86B29" id="svg_158"/>
    <path d="m177.94,44.8c-28.84,4.97 -54.9,17.78 -75.8,38.35c-9.2,9.07 -16.39,19.9 -20.36,32.24c-4.39,13.65 -2.92,29.07 -5.61,43.08c-2.71,14.13 -10.39,26.18 -21.1,35.58c-9.78,8.61 -21.56,14.44 -31.76,22.48c-6.91,5.46 -17.82,14.13 -13.65,24.27c1.95,4.77 6.72,7.81 11,10.26c5.35,3.06 10.47,5.96 16.27,8.12c40.47,15.14 87.25,-0.71 117.18,-29.6c32.43,-31.28 44.82,-77.69 46.37,-121.46c0.11,-3.42 -5.18,-3.42 -5.29,0c-1.89,53.22 -21.27,108.83 -69.72,136.74c-22.38,12.89 -50.44,17.63 -75.74,12.47c-6.03,-1.24 -11.94,-3.21 -17.51,-5.81c-5.82,-2.69 -13.54,-6.4 -17.19,-11.78c-6.72,-9.85 17.09,-22.99 23.11,-26.97c14.23,-9.41 28.53,-19.17 36.59,-34.72c9.47,-18.26 7.64,-38.29 11.42,-57.92c3.63,-18.98 18.81,-33.67 33.36,-45.11c17.24,-13.54 38.39,-21.41 59.85,-25.11c3.36,-0.57 1.93,-5.67 -1.41,-5.1l0,0z" fill="#231F20" id="svg_159"/>
   </g>
   <g id="svg_160">
    <path d="m114.71,299.92c-11.19,-19.17 4.79,-59.14 7.98,-78.32c8,-30.38 12.8,-60.75 17.59,-91.13c3.21,-23.97 3.21,-57.54 23.99,-75.13c19.17,-17.59 52.75,-12.78 76.73,-11.19c30.36,1.6 59.14,1.6 89.51,1.6c22.38,0 39.97,1.6 49.56,23.99c12.8,28.76 9.59,63.94 9.59,94.3c-1.59,47.97 11.19,100.72 1.6,148.67l-276.55,-12.8z" fill="#A86B29" id="svg_161"/>
    <path d="m116.98,298.58c-5.39,-9.8 -3.74,-22.29 -1.95,-32.83c1.99,-11.48 5.31,-22.65 8.14,-33.92c7.68,-30.56 13.44,-61.45 18.39,-92.56c3.84,-24.2 2.69,-51.7 16.48,-72.99c15.2,-23.47 45.72,-22.21 70.28,-20.43c31.95,2.33 63.98,2.54 96,2.54c11.9,0.02 24.31,-0.59 35.62,3.72c12.59,4.79 18.12,17.84 21.79,29.81c8.75,28.63 5.37,60.14 5.16,89.62c-0.25,32.47 4.89,64.72 5.31,97.17c0.19,14.51 -0.73,29.03 -3.49,43.29c-0.63,3.34 4.47,4.76 5.12,1.41c6.11,-31.61 3.23,-63.8 0.69,-95.62c-1.28,-16.02 -2.44,-32.05 -2.33,-48.12c0.11,-14.8 0.65,-29.58 0.42,-44.38c-0.21,-14.49 -1.49,-29.07 -5.27,-43.1c-2.98,-11.02 -7.73,-23.05 -17.09,-30.17c-8.17,-6.24 -18.22,-8.02 -28.24,-8.65c-15.32,-0.97 -30.8,-0.23 -46.14,-0.34c-16.92,-0.13 -33.82,-0.52 -50.72,-1.3c-12.72,-0.61 -25.38,-2.1 -38.14,-2.02c-11.88,0.08 -23.89,1.72 -34.66,6.93c-10.33,4.98 -18.14,14.28 -23.03,24.46c-5.12,10.62 -7.28,22.52 -8.77,34.13c-1.76,13.62 -3.19,27.19 -5.37,40.75c-4.83,30.02 -10.69,59.89 -18.35,89.34c-3.04,11.69 -6.32,23.39 -7.85,35.41c-1.3,10.22 -1.66,21.26 3.46,30.54c1.64,3 6.23,0.32 4.56,-2.67l0,0z" fill="#231F20" id="svg_162"/>
   </g>
   <g id="svg_163">
    <path d="m130.7,267.95c-43.16,43.16 -17.59,89.53 30.36,118.29c54.35,31.97 129.5,38.37 190.23,15.98c62.35,-23.97 75.15,-86.32 35.18,-139.07c-18.39,-24.77 -44.82,-41.29 -71.56,-55.74c-13.83,-7.51 -27.94,-14.48 -41.84,-21.87c-35.81,-19.02 -53.8,12.01 -78.28,32.56c-20.41,17.15 -45.26,31.01 -64.09,49.84z" fill="#FFFFFF" id="svg_164"/>
    <path d="m128.83,266.08c-17.34,17.65 -27.44,40.52 -20.28,65.16c7.01,24.12 27.71,42.45 48.2,55.46c46.67,29.64 107.36,37.22 161.07,27.42c24.9,-4.53 49.9,-12.99 68.79,-30.44c15.3,-14.13 24.14,-33.73 25.3,-54.43c1.28,-22.8 -7.54,-45.16 -20.36,-63.61c-16.42,-23.62 -39.87,-40.41 -64.53,-54.54c-10.08,-5.79 -20.41,-11.15 -30.75,-16.48c-10.31,-5.33 -20.55,-11.76 -31.57,-15.53c-15.41,-5.27 -29.87,0.29 -42.11,9.84c-6.49,5.06 -12.3,11.02 -18.18,16.77c-7.45,7.26 -15.32,13.86 -23.64,20.09c-17.59,13.1 -36.27,24.83 -51.94,40.3c-2.43,2.41 1.32,6.15 3.74,3.74c21.05,-20.78 47.63,-34.62 69.4,-54.52c15.97,-14.57 32.6,-37.12 57.06,-32.26c7.2,1.41 13.56,5.25 19.98,8.61c7.89,4.11 15.81,8.15 23.7,12.26c13.52,7.05 26.91,14.4 39.68,22.74c23.85,15.62 44.59,36.09 56.37,62.39c9.19,20.51 10.92,44.52 2.1,65.45c-9.36,22.17 -29.7,37.7 -51.85,45.76c-53.87,19.59 -117.03,16.37 -169.12,-7.2c-24.54,-11.1 -48.77,-28.05 -61.76,-52.29c-5.73,-10.71 -8.1,-23.01 -6.09,-35.01c2.35,-14 10.79,-26.03 20.53,-35.94c2.39,-2.43 -1.36,-6.19 -3.74,-3.74z" fill="#231F20" id="svg_165"/>
   </g>
   <g id="svg_166">
    <path d="m292.09,225.28c18.56,21.66 -16.82,40.1 -34.15,42.49c-77.11,10.66 -18.98,-104.42 34.15,-42.49z" fill="#333333" id="svg_167"/>
    <path d="m290.22,227.16c15.98,19.56 -16.52,35.2 -32.08,37.93c-11.61,2.04 -28.87,1.22 -33.65,-11.9c-3.72,-10.2 1.34,-22.11 7.79,-30.04c7.7,-9.47 19.57,-15.35 31.87,-13.1c10.58,1.93 19.21,9.24 26.07,17.11c2.25,2.58 5.98,-1.18 3.74,-3.74c-9.82,-11.25 -23.26,-20.53 -38.84,-18.98c-12.03,1.2 -22.27,8.71 -29.14,18.31c-6.19,8.63 -9.82,20.24 -6.95,30.75c3.27,11.88 14.99,16.79 26.32,17.55c14.57,0.97 29.39,-3.99 41.19,-12.39c5.67,-4.03 10.62,-9.28 12.74,-16c2.23,-7.01 -0.92,-13.86 -5.31,-19.23c-2.16,-2.64 -5.88,1.13 -3.74,3.74z" fill="#231F20" id="svg_168"/>
   </g>
   <path d="m318.29,144.87c0,3.42 0.52,6.21 1.95,9.32c1.15,2.48 4.93,1.15 4.93,-1.34c0,-3.19 0,-6.38 0,-9.59c0,-2.98 -4.41,-3.61 -5.19,-0.71c-1.36,5.08 1.15,7.49 3.48,11.63c0.92,1.66 3.67,1.8 4.56,0c1.85,-3.74 1.57,-6.09 0.27,-10.03c-0.92,-2.75 -5.31,-2.39 -5.19,0.71c0.13,3.97 1.72,6 3.55,9.32c0.97,1.78 3.57,1.66 4.56,0c3.74,-6.11 1.36,-10.96 -4.14,-14.8c-1.36,-0.97 -3.53,0 -3.88,1.59c-1.85,8.21 0.55,18.85 10.54,19.33c1.11,0.06 2.31,-0.84 2.56,-1.95c1.83,-8.57 -2.98,-15.64 -11.46,-17.65c-1.22,-0.29 -2.29,0.21 -2.98,1.22c-5.42,7.93 -1.95,21.01 8.67,21.56c0.86,0.06 1.93,-0.52 2.29,-1.3c3.27,-7.18 2.44,-14.74 -4.14,-19.61c-0.88,-0.65 -2.5,-0.42 -3.21,0.42c-3.19,3.8 -3.36,7.96 0,11.73c2.27,2.56 6.02,-1.2 3.74,-3.72c-1.24,-1.39 -1.49,-2.5 0,-4.26c-1.07,0.13 -2.14,0.27 -3.21,0.42c4.09,3 4.2,8.04 2.25,12.36c0.76,-0.44 1.53,-0.88 2.27,-1.3c-6.72,-0.36 -7.05,-9.3 -4.11,-13.62c-0.99,0.4 -1.99,0.82 -2.98,1.22c5.54,1.3 8.99,5.31 7.73,11.13c0.86,-0.65 1.7,-1.3 2.56,-1.95c-6.15,-0.31 -6.47,-8.06 -5.44,-12.64c-1.3,0.53 -2.6,1.07 -3.9,1.59c3.15,2.22 4.39,4.07 2.25,7.58c1.53,0 3.06,0 4.56,0c-1.3,-2.41 -2.73,-3.78 -2.83,-6.66c-1.74,0.23 -3.46,0.48 -5.19,0.71c0.8,2.41 1.41,3.65 0.27,5.96c1.53,0 3.04,0 4.56,0c-1.45,-2.62 -3.8,-4.32 -2.92,-7.56c-1.74,-0.23 -3.48,-0.46 -5.19,-0.71c0,3.21 0,6.4 0,9.61c1.64,-0.46 3.28,-0.9 4.93,-1.34c-1.05,-2.25 -1.22,-4.22 -1.24,-6.66c-0.02,-3.42 -5.31,-3.42 -5.29,0l0,0z" fill="#231F20" id="svg_169"/>
   <path d="m199.58,138.76c-4.16,-0.88 -7.81,0.42 -10.12,4.05c-2.56,4.01 -1.8,9.24 0.06,13.29c1.6,3.53 4.91,6.13 8.88,5.23c4.28,-0.95 6.55,-6.09 7.83,-9.74c1.11,-3.15 2.41,-6.95 1.09,-10.26c-1.03,-2.56 -3.4,-3.99 -6.15,-3.48c-6.86,1.3 -8.61,10.54 -8.14,16.23c0.13,1.43 1.13,2.64 2.65,2.64c1.07,0 2.14,0 3.19,0c0.88,0 1.89,-0.48 2.29,-1.3c1.41,-2.96 2.58,-6.15 1.66,-9.43c-0.84,-3.02 -3.69,-4.66 -6.44,-5.65c-1.13,-0.4 -2.41,0.27 -3,1.22c-3.27,5.27 -2.16,10.08 2.02,14.4c0.94,0.95 2.83,1.09 3.74,0c2.35,-2.83 2.37,-6.36 2.37,-9.87c0,-3.4 -5.29,-3.4 -5.29,0c0,1.76 0.4,4.68 -0.82,6.13c1.24,0 2.48,0 3.74,0c-2.58,-2.65 -3.21,-4.74 -1.2,-7.98c-0.99,0.4 -1.99,0.8 -2.98,1.22c3.78,1.34 3.13,4.11 1.62,7.3c0.74,-0.44 1.51,-0.88 2.27,-1.32c-1.07,0 -2.12,0 -3.19,0c0.88,0.9 1.76,1.78 2.64,2.65c-0.29,-3.4 -0.11,-8.35 2.98,-10.6c0.31,-0.21 0.99,-0.48 0.84,-0.46c0.29,-0.04 0.19,0.02 0.13,-0.04c-0.11,-0.11 0.19,0.29 0.25,0.71c0.1,0.9 -0.02,1.78 -0.19,2.65c-0.4,2.06 -3.48,12.45 -6.87,9.22c-3.15,-3.04 -3.72,-13.06 2.71,-11.73c3.34,0.69 4.76,-4.41 1.41,-5.1l0,0z" fill="#231F20" id="svg_170"/>
   <g id="svg_171">
    <path d="m293.75,346.28c-3.95,19.38 -1.93,48.11 -30.15,49.39c-22.57,1.03 -29.41,-32.77 -28.76,-50.74c16.1,-1.13 26.55,-18.47 25.34,-33.32c1.59,22.29 13.6,31.19 33.57,36.28l0,-1.6z" fill="#FF5C7F" id="svg_172"/>
    <path d="m291.19,345.58c-3.53,17.95 -2.27,44.97 -26.16,47.36c-22.94,2.29 -28.02,-31.51 -27.54,-48.03c-0.88,0.9 -1.76,1.78 -2.65,2.65c17.65,-1.76 28.97,-19 28,-35.96c-1.76,0 -3.53,0 -5.29,0c0.8,9.7 3.48,18.81 10.26,26.05c6.55,6.99 16.23,10.41 25.25,12.78c3.3,0.86 4.72,-4.24 1.41,-5.1c-8,-2.1 -15.93,-4.93 -22.11,-10.64c-6.44,-5.94 -8.8,-14.65 -9.51,-23.11c-0.29,-3.34 -5.48,-3.42 -5.29,0c0.78,13.83 -7.87,29.22 -22.69,30.69c-1.47,0.13 -2.62,1.09 -2.65,2.64c-0.55,19.33 5.61,52.59 30.23,53.43c12.05,0.42 22.13,-6.42 26.85,-17.26c4.68,-10.71 4.79,-22.76 7.03,-34.09c0.65,-3.34 -4.45,-4.76 -5.12,-1.41l0,0z" fill="#231F20" id="svg_173"/>
   </g>
   <path d="m197.15,320.45c6.4,11.32 13.9,23.01 26.85,27.33c9.4,3.11 19.84,0.23 26.64,-6.74c7.72,-7.89 10.47,-19.9 12.18,-30.38c2.5,-15.12 2.65,-30.61 2.67,-45.89c-1.76,0 -3.53,0 -5.29,0c0,14.51 -0.23,29.07 1.59,43.5c1.41,11.38 4.3,22.95 11.76,31.95c6.44,7.75 16.96,11.38 26.72,8.99c11.67,-2.86 18.91,-14.28 23.18,-24.6c1.32,-3.15 -3.8,-4.51 -5.1,-1.41c-4.03,9.74 -10.73,19.31 -21.69,21.39c-9.87,1.87 -18.6,-5.67 -23.09,-13.64c-5.12,-9.07 -6.45,-20.26 -7.3,-30.44c-0.99,-11.88 -0.78,-23.85 -0.78,-35.75c0,-3.42 -5.29,-3.42 -5.29,0c-0.02,13.16 -0.27,26.33 -1.78,39.44c-1.18,10.18 -3.28,20.93 -8.86,29.7c-4.98,7.83 -13.96,11.21 -22.94,9.11c-12.15,-2.83 -19.27,-15.22 -24.92,-25.23c-1.68,-2.98 -6.24,-0.31 -4.56,2.67l0,0z" fill="#231F20" id="svg_174"/>
  </g>
  <g id="svg_248">
   <g id="svg_249">
    <path d="m519.97,970.8c-7.18,-19.95 25.12,-25.66 36.14,-14.08c2.92,3.06 5.59,7.07 7.63,10.77c2.33,4.2 2.34,8.52 2.92,13.16c0.55,4.42 1.82,8.58 -1.07,12.51c-2.09,2.82 -4.98,4.51 -8.45,4.37c-9.3,-0.38 -19.91,-3.61 -27.21,-9.38c-5.99,-4.73 -8.34,-10.77 -10.21,-17.84l0.25,0.49z" fill="#B8824E" id="svg_250"/>
    <path d="m390.28,1025.71c-10.24,0.09 -22.98,-0.3 -27.58,-11.24c-1.97,-4.69 -1.8,-10.1 -0.57,-15.37c0.41,-1.76 0.94,-3.5 1.55,-5.2c4.24,-9.93 9.45,-24.09 22.13,-23.34c14.9,1.49 24.59,19.38 16.5,32.41c-0.95,2.04 -2.05,4.07 -3.19,6.07c-3.47,6.01 -7.44,11.84 -10.33,17.42l1.49,-0.75z" fill="#B8824E" id="svg_251"/>
    <path d="m395.49,1098.76c-11.64,-29.08 -16.83,-57.59 -6.48,-88.13c10.29,-30.32 36.46,-48.16 67.42,-53.19c27.23,-4.42 62.49,4.96 83.75,22.92c5.01,4.23 11.13,11.08 16.28,18.79c1.7,2.58 3.28,5.25 4.72,8.01c6.49,11.1 8.73,24.51 7.98,37.93c0,4.47 -4.47,6.71 -8.2,5.96c-10.43,-1.49 -21.61,-5.21 -31.9,-2.55c-2.41,0.3 -4.82,0.58 -7.24,0.84c-19.36,2.13 -38.9,3.32 -58.02,7.29c-22.73,4.73 -44.79,12.43 -67.6,16.7c-3.21,0.59 -6.43,1.1 -9.65,1.57l8.94,23.86z" fill="#D39B6A" id="svg_252"/>
    <path d="m396.99,1098.76c-7.24,-10.11 -15.79,-23.52 -5.69,-33.99c9.62,-9.98 22.2,-12.84 35.64,-13.76c7.39,-0.51 14.31,1.24 21.49,2.75c3.2,-14.45 16.28,-16.15 28.78,-17.62c14.3,-1.67 20.12,2.41 30.67,11.1c12.43,-9.16 28.42,-13.72 43.84,-13.32c33.98,0.9 21.33,47.29 6.88,63.22c-10.7,6.68 -18.8,16.45 -29.34,23.18c-10.95,6.98 -24.36,9.04 -36.97,11.03c-27.54,4.35 -49.89,2.71 -74.06,-11.54c-11.67,-6.88 -19.43,-14.72 -26.46,-26.27l5.22,5.22z" fill="#FFE9D9" id="svg_253"/>
    <path d="m520.44,968.87c-4.47,-9.66 9.79,-14.81 16.7,-16.48c3.56,-0.85 7.67,-1.55 11.21,-0.34c3.5,1.21 6.33,4.16 8.61,6.96c7.21,8.85 16.81,36.78 -2.36,38c-2.38,0.15 -2.4,3.88 0,3.73c23.99,-1.53 13.82,-33.97 4.15,-45.39c-2.76,-3.26 -6.32,-5.98 -10.44,-7.22c-4.71,-1.41 -10.7,0.16 -15.24,1.5c-9.24,2.73 -21,9.99 -15.85,21.12c1.01,2.18 4.22,0.28 3.22,-1.88l0,0z" fill="#231F20" id="svg_254"/>
    <path d="m404.17,978.07c-3.74,-1.39 -6.81,-4.53 -10.16,-6.65c-3.92,-2.48 -8.18,-3.61 -12.78,-2.95c-9.84,1.42 -15.12,11.41 -17.78,19.88c-2.67,8.53 -4.82,20.27 -1.61,28.89c3.32,8.91 13.42,10.28 21.71,10.33c2.41,0.01 2.41,-3.71 0,-3.73c-7.51,-0.04 -16.12,-0.96 -18.68,-9.26c-2.36,-7.6 -0.01,-17.85 2.17,-25.24c2.42,-8.19 7.71,-17.36 17.38,-17.41c7.4,-0.04 12.27,7.32 18.76,9.73c2.26,0.84 3.22,-2.76 0.99,-3.59l0,0z" fill="#231F20" id="svg_255"/>
    <path d="m454.55,1045.79c9.59,-9.82 23.24,-11.69 35.94,-7.47c11.21,3.72 21.86,12.66 24.76,24.44c3.5,14.22 -8.38,25.76 -19.9,31.69c-13.71,7.06 -34.13,10.21 -45.86,-2.09c-12.27,-12.86 -5.64,-35.05 5.06,-46.57c1.63,-1.76 -1,-4.4 -2.64,-2.64c-10.33,11.12 -16.48,29.36 -10.14,43.94c6.53,15 22.71,18.78 37.6,16.48c14.13,-2.19 29.04,-9.91 36.49,-22.49c5.97,-10.07 4.07,-22.04 -2.75,-31.12c-14.08,-18.77 -44.02,-24.4 -61.2,-6.81c-1.68,1.72 0.96,4.36 2.64,2.64z" fill="#231F20" id="svg_256"/>
    <path d="m444.39,1050.6c-7.45,1.55 -13.18,-5.3 -11.04,-12.46c3.14,-10.48 19.03,-7.02 19.6,3.24c0.13,2.39 3.86,2.41 3.72,0c-0.76,-13.83 -19.64,-18.43 -26.21,-5.94c-2.32,4.42 -1.47,9.99 1.34,13.96c3.14,4.44 8.43,5.86 13.58,4.79c2.36,-0.49 1.36,-4.08 -0.99,-3.59l0,0z" fill="#231F20" id="svg_257"/>
    <path d="m499.45,1036.88c0,-4.64 -0.44,-11.79 5.01,-13.43c3.42,-1.03 6.58,0.84 8.47,3.62c4.33,6.37 1.77,15.07 -6.4,15.78c-2.38,0.2 -2.4,3.93 0,3.73c5.44,-0.47 9.84,-3.11 11.62,-8.44c1.53,-4.58 0.16,-10.09 -2.66,-13.87c-3.02,-4.05 -7.81,-5.68 -12.64,-4.22c-7.02,2.11 -7.12,10.83 -7.13,16.84c0,2.4 3.73,2.4 3.73,-0.01l0,0z" fill="#231F20" id="svg_258"/>
    <path d="m384.06,1016.46c-8.97,-1.35 -8.82,-12.01 -6.93,-18.88c1.8,-6.57 14.35,-19.8 18.8,-8.64c0.88,2.2 4.49,1.24 3.6,-0.99c-5.41,-13.57 -20.74,-4.04 -24.88,5.53c-3.87,8.96 -3.86,24.72 8.42,26.58c2.35,0.35 3.36,-3.24 0.99,-3.6l0,0z" fill="#231F20" id="svg_259"/>
    <path d="m527.99,973.37c3.45,-2.86 4.03,-7.27 8.21,-9.6c4.36,-2.43 10.2,-1.59 13.77,1.76c3.34,3.13 4.85,7.97 5.06,12.42c0.1,2.15 -0.22,4.58 -1.26,6.5c-0.81,1.49 -3.8,5.87 -6.03,4.62c-2.1,-1.17 -3.98,2.05 -1.88,3.22c4.83,2.7 9.41,-2.79 11.49,-6.63c2.98,-5.49 1.22,-13.23 -1.49,-18.41c-3.12,-5.98 -9.03,-9.01 -15.68,-8.43c-2.84,0.25 -5.76,1.35 -8.01,3.1c-3.1,2.43 -3.9,6.4 -6.81,8.81c-1.86,1.53 0.8,4.15 2.63,2.64l0,0z" fill="#231F20" id="svg_260"/>
    <path d="m442.53,1035.57c-0.45,-0.41 -0.86,-0.71 -1.37,-1.03c-1.2,-0.75 -2.83,0.22 -2.81,1.61c0.05,2.76 0.53,6.01 1.87,8.46c1.77,3.25 5.42,1.02 5.81,-1.89c0.37,-2.76 -0.06,-8.48 -3.9,-8.43c-3.76,0.04 -3.5,6.56 -2.71,8.94c0.53,1.63 1.6,3.04 3.23,3.65c2.13,0.81 3.45,-1.65 3.83,-3.28c0.78,-3.31 -0.63,-9.18 -4.77,-9.47c-6.19,-0.45 -4.72,12.66 -0.45,14.49c4.67,2 5.94,-4.89 5.93,-8.04c-0.01,-1.74 -0.67,-3.25 -1.7,-4.64c-1.13,-1.52 -3.47,-2.72 -4.65,-0.49c-1.12,2.13 2.1,4.01 3.22,1.89c-1.04,1.97 -2.42,-0.37 -1.54,0.82c0.28,0.38 0.57,0.83 0.76,1.27c0.3,0.73 0.19,1.63 0.15,2.38c-0.06,0.98 -0.27,2.04 -0.67,2.94c-0.3,0.69 -0.4,0.31 0.13,0.54c-0.27,-0.11 -0.39,-0.33 -0.55,-0.57c-0.97,-1.52 -1.03,-3.66 -0.9,-5.4c0.03,-0.44 0.12,-1.2 0.41,-1.57c-0.16,0.2 -0.68,-0.05 -0.19,0.23c0.56,0.3 0.83,1.22 1.01,1.77c0.39,1.17 0.35,2.31 0.07,3.49c0.91,0.24 1.14,0.16 0.69,-0.24c-0.16,-0.24 -0.3,-0.5 -0.42,-0.76c-0.2,-0.47 -0.2,-0.9 -0.22,-1.41c-0.03,-1.01 -0.08,-2.04 0.15,-3.03c-1.15,-0.39 -1.5,-0.31 -1.07,0.26c0.09,0.23 0.17,0.46 0.23,0.7c0.17,0.57 0.24,1.17 0.29,1.77c0.04,0.57 0.2,1.61 -0.18,2.1c0.26,-0.34 1.54,0.68 1.09,-0.15c-0.2,-0.36 -0.3,-0.78 -0.41,-1.17c-0.48,-1.65 -0.78,-3.44 -0.81,-5.16c-0.94,0.53 -1.87,1.07 -2.81,1.61c0.21,0.15 0.41,0.3 0.62,0.45c1.76,1.63 4.41,-1 2.64,-2.64l0,0z" fill="#231F20" id="svg_261"/>
    <path d="m507.41,1029.74c-0.08,-0.17 -0.16,-0.33 -0.24,-0.5c-0.29,-0.57 -0.99,-0.92 -1.61,-0.92c-0.09,0 -0.17,0 -0.25,0c-0.79,0 -1.63,0.56 -1.8,1.37c-0.5,2.46 -1.37,5.76 0.32,7.94c1.94,2.5 4.64,0.51 5.32,-1.78c0.67,-2.26 0.57,-5.23 -0.26,-7.44c-0.91,-2.47 -3.65,-3.32 -5.35,-0.99c-1.58,2.16 -1.1,5.63 -0.55,8.05c0.5,2.17 2.42,5.88 5.25,4.27c2.23,-1.27 2.37,-4.88 2.34,-7.12c-0.03,-2.55 -0.78,-5.76 -3.78,-6.04c-1.01,-0.09 -1.86,0.92 -1.86,1.86c0,0.25 0,0.5 0,0.75c0,2.4 3.72,2.4 3.72,0c0,-0.25 0,-0.5 0,-0.75c-0.62,0.63 -1.24,1.25 -1.86,1.87c-0.31,-0.03 -0.64,-0.48 -0.37,-0.04c0.13,0.2 0.17,0.46 0.23,0.68c0.18,0.67 0.19,1.37 0.2,2.06c0.02,1.17 -0.06,2.6 -0.64,3.65c0.26,-0.47 0.92,-0.38 1.25,-0.11c-0.18,-0.15 -0.24,-0.31 -0.35,-0.51c-0.33,-0.59 -0.47,-1.3 -0.62,-1.95c-0.31,-1.37 -0.4,-2.92 -0.03,-4.29c0.22,-0.79 -0.35,0.45 -1.11,-0.31c-0.01,-0.01 0.2,0.72 0.25,0.96c0.26,1.13 0.28,2.42 0.12,3.56c-0.06,0.44 -0.14,0.92 -0.34,1.31c0.52,-1.01 1.33,0.7 1.22,-0.61c-0.1,-1.35 0.23,-2.72 0.5,-4.03c-0.6,0.45 -1.2,0.91 -1.8,1.37c0.08,0 0.16,0 0.25,0c-0.54,-0.31 -1.08,-0.62 -1.61,-0.93c0.08,0.17 0.16,0.33 0.25,0.5c1.07,2.15 4.29,0.26 3.21,-1.88l0,0z" fill="#231F20" id="svg_262"/>
    <path d="m406.28,1108.6c-22.85,-22.69 -26.4,-60.02 -18.92,-89.91c3.75,-14.98 10.94,-29.21 22.28,-39.85c10.34,-9.68 23.13,-16.34 36.88,-19.62c52.34,-12.46 114.19,26.29 122.63,80.06c2.27,14.45 -0.02,29.7 -5.88,43.05c-7.46,16.99 -21.67,30.11 -37.73,38.91c-33.66,18.42 -79.83,17.31 -111.06,-5.62c-2.9,-2.13 -5.62,-4.52 -8.2,-7.02c-1.73,-1.68 -4.37,0.95 -2.64,2.63c51.4,49.87 159.08,26.4 169.3,-49.79c7.45,-55.51 -43.3,-101.23 -95.09,-107.5c-27.13,-3.29 -54.85,5.53 -73.96,25.33c-21.35,22.12 -26.88,57.24 -22.13,86.57c2.72,16.76 9.71,33.31 21.88,45.39c1.71,1.69 4.34,-0.94 2.64,-2.63z" fill="#231F20" id="svg_263"/>
   </g>
   <path d="m465.81,1092.11c11.27,3.6 16.12,-11.09 16.27,-19.69c-1.06,0.44 -2.12,0.88 -3.18,1.32c6.54,6.38 14.24,10.45 22.63,4.76c1.97,-1.34 0.11,-4.57 -1.88,-3.22c-6.97,4.73 -12.78,1.03 -18.12,-4.18c-1.17,-1.14 -3.15,-0.31 -3.18,1.32c-0.1,6.08 -3.08,18.8 -11.55,16.09c-2.3,-0.73 -3.27,2.87 -0.99,3.6l0,0z" fill="#D39B6A" id="svg_264"/>
   <g id="svg_265">
    <path d="m488.7,1060.08c-2.28,8.01 -14.25,15.94 -19.77,6.8c-5.58,-9.23 3.13,-20.51 13.16,-18.02c6,1.49 8.34,5.11 6.61,11.22z" fill="#673213" id="svg_266"/>
    <path d="m486.9,1059.58c-1.39,4.32 -4.97,7.91 -9.31,9.25c-5.75,1.79 -9.1,-4.76 -8.42,-9.62c0.69,-4.99 5.18,-8.62 10.06,-8.83c5.82,-0.26 9.03,3.8 7.67,9.2c-0.59,2.33 3.01,3.32 3.6,0.99c1.81,-7.16 -1.82,-12.86 -9.37,-13.77c-7.44,-0.9 -13.99,4.2 -15.56,11.42c-1.46,6.71 3,14.36 10.17,14.61c6.75,0.23 12.85,-6.34 14.75,-12.26c0.74,-2.29 -2.86,-3.26 -3.59,-0.99z" fill="#231F20" id="svg_267"/>
   </g>
  </g>
  <g id="svg_268">
   <g id="svg_269">
    <path d="m704.65,973c-8.69,-2.92 -15.38,-7.92 -23.14,-12.58c-6.83,-4.09 -14.72,-5.23 -22.48,-6.48c-2.6,-0.42 -6.76,-1.47 -8.98,0.54c-2.4,2.17 -1.32,6.64 -0.77,9.34c1.6,7.8 4.07,16.26 7.84,23.32c3.88,7.25 9.65,12.75 16.98,16.39c1.46,-2.97 2.22,-5.98 3.99,-8.82c1.89,-3.02 3.87,-5.6 6.02,-8.43c3.64,-4.79 8.89,-7.68 14.3,-10.25c1.64,-0.78 5.26,-3.19 6.98,-2.53l-0.74,-0.5z" fill="#FFFFFF" id="svg_270"/>
    <path d="m674.27,1004.04l-0.34,-0.17c-7.49,-3.73 -13.26,-9.3 -17.14,-16.56c-3.31,-6.2 -5.96,-14.07 -7.87,-23.42l-0.09,-0.43c-0.58,-2.81 -1.47,-7.05 0.97,-9.25c2.1,-1.91 5.71,-1.27 8.35,-0.8c0.33,0.06 0.65,0.11 0.94,0.16l0.97,0.16c7.39,1.18 15.03,2.41 21.64,6.38c1.82,1.09 3.6,2.21 5.33,3.3c5.72,3.61 11.12,7.02 17.74,9.24l-0.13,0.37c0.33,-0.01 0.62,0.03 0.89,0.13l-0.27,0.7c-1.19,-0.46 -3.72,0.92 -5.39,1.83c-0.5,0.27 -0.94,0.52 -1.29,0.69c-4.9,2.33 -10.44,5.23 -14.17,10.14l-0.35,0.46c-1.99,2.62 -3.87,5.09 -5.65,7.94c-1.05,1.68 -1.73,3.39 -2.44,5.2c-0.47,1.18 -0.95,2.39 -1.54,3.59l-0.16,0.34zm-20.34,-50.38c-1.4,0 -2.71,0.27 -3.63,1.1c-2.12,1.91 -1.29,5.91 -0.74,8.55l0.09,0.44c1.9,9.27 4.52,17.08 7.8,23.21c3.75,7.01 9.29,12.41 16.48,16.07c0.5,-1.06 0.93,-2.14 1.34,-3.19c0.7,-1.77 1.42,-3.59 2.51,-5.33c1.79,-2.87 3.69,-5.36 5.69,-7.99l0.34,-0.46c3.84,-5.05 9.47,-8 14.45,-10.37c0.34,-0.16 0.77,-0.4 1.25,-0.66c1.31,-0.71 2.94,-1.61 4.33,-1.91c-6.38,-2.25 -11.65,-5.57 -17.21,-9.08c-1.72,-1.09 -3.5,-2.21 -5.31,-3.29c-6.49,-3.9 -14.06,-5.11 -21.38,-6.29l-0.96,-0.15c-0.31,-0.05 -0.63,-0.11 -0.96,-0.17c-1.24,-0.22 -2.71,-0.48 -4.09,-0.48z" fill="#231F20" id="svg_271"/>
   </g>
   <g id="svg_272">
    <path d="m813.72,1003.81c20.86,-5.43 26.52,-29.38 23.68,-48.24c-0.46,-3.05 -1.11,-7.31 -4.65,-8.13c-2.91,-0.67 -6.59,1.15 -9.41,1.73c-8.26,1.69 -14.68,2.38 -21.93,7.25c-7.04,4.74 -14.41,9.61 -16.48,18.27c4.86,1.6 11.23,4.59 14.9,8.37c4.07,4.21 5.91,9.87 8.99,14.67c1.3,2.02 2.52,4.08 3.41,6.33l1.49,-0.25z" fill="#FFFFFF" id="svg_273"/>
    <path d="m811.88,1004.2c-0.91,-2.33 -2.21,-4.47 -3.37,-6.27c-1.12,-1.75 -2.1,-3.64 -3.04,-5.46c-1.64,-3.2 -3.35,-6.5 -5.91,-9.15c-4.52,-4.66 -12.43,-7.51 -14.75,-8.27l-0.32,-0.11l0.08,-0.33c2.08,-8.72 9.37,-13.61 16.42,-18.35l0.21,-0.14c6.32,-4.25 12.09,-5.37 18.76,-6.66c1.07,-0.21 2.17,-0.42 3.3,-0.66c0.84,-0.17 1.75,-0.45 2.71,-0.75c2.22,-0.68 4.73,-1.46 6.87,-0.97c3.79,0.88 4.47,5.42 4.92,8.43c2.96,19.66 -3.27,43.28 -23.95,48.66l-0.19,-0.72c20.23,-5.27 26.32,-28.48 23.41,-47.82c-0.45,-2.98 -1.07,-7.06 -4.36,-7.82c-1.94,-0.45 -4.24,0.27 -6.48,0.96c-0.98,0.3 -1.91,0.59 -2.78,0.76c-1.13,0.24 -2.24,0.45 -3.31,0.66c-6.59,1.28 -12.29,2.38 -18.48,6.55l-0.22,0.14c-6.84,4.59 -13.91,9.34 -16.02,17.57c2.7,0.91 10.27,3.77 14.72,8.36c2.64,2.72 4.37,6.07 6.04,9.32c0.93,1.81 1.89,3.68 3,5.4c1.17,1.82 2.5,4.01 3.44,6.39l-0.7,0.28z" fill="#231F20" id="svg_274"/>
   </g>
   <g id="svg_275">
    <path d="m807.58,1085.55c-15.92,11.82 -38.31,14.09 -57.52,14.18c-20.03,0.1 -40.83,-0.72 -58.21,-11.89c-12.82,-8.25 -20.56,-20.86 -22.91,-35.83c-5.96,-38.01 9.69,-76.77 50.68,-82.73c29.07,-4.48 73.05,-1.5 89.45,26.83c8.19,15.65 10.43,35.03 11.18,52.17c0.74,14.16 0,27.58 -12.67,37.27z" fill="#FFFFFF" id="svg_276"/>
    <path d="m806.63,1083.94c-16.59,12.04 -37.95,13.86 -57.82,13.94c-21.14,0.07 -44.02,-1.31 -61.07,-15.36c-14.75,-12.16 -18.66,-31.18 -18.1,-49.42c0.49,-15.95 5.49,-32.12 16.13,-44.24c11.21,-12.76 26.95,-17.39 43.34,-18.85c15.98,-1.43 32.48,-0.43 47.83,4.45c7.59,2.41 14.85,6.08 20.97,11.22c7.11,5.97 11.22,13.69 14.17,22.37c3.47,10.2 4.96,21.01 5.8,31.71c0.73,9.18 1.53,18.81 -0.61,27.85c-1.6,6.8 -5.58,12.33 -11.01,16.62c-1.88,1.49 0.77,4.11 2.63,2.64c15.15,-11.98 14,-30.91 12.62,-48.35c-1.43,-18.07 -4.73,-38.75 -17.69,-52.4c-10.58,-11.13 -26.11,-16.39 -40.9,-18.79c-15.14,-2.45 -30.83,-2.06 -45.92,0.49c-15.42,2.61 -28.96,11.08 -38.09,23.72c-9.05,12.5 -12.73,28.3 -13.04,43.52c-0.35,17.25 3.68,34.47 16,47.12c14.07,14.44 35.04,18.38 54.35,19.22c24.12,1.06 51.96,0.51 72.3,-14.24c1.92,-1.4 0.06,-4.63 -1.89,-3.22z" fill="#231F20" id="svg_277"/>
   </g>
   <path d="m730.92,1080.88c-2.35,-4.29 2.97,-6.42 6.45,-6.71c3.38,-0.28 9.55,2.38 4.84,5.62c-3.03,2.07 -8.12,3.27 -11.21,0.73c-0.74,-0.6 0.52,-0.98 1.34,-1.22c1.47,-0.43 2.94,-0.03 3.38,1.53c0.6,-0.79 1.19,-1.57 1.79,-2.36c-1.99,0 -3.97,0 -5.96,0c0.17,1.22 0.33,2.44 0.5,3.66c2.76,-1.09 5.25,0.01 7.95,0.74c1.8,0.5 3.13,-1.79 1.81,-3.11c-1.32,-1.33 -2.56,-2.62 -3.25,-4.4c-0.76,0.77 -1.52,1.53 -2.29,2.3c1.67,0.7 2.57,2.3 3.17,3.91c0.83,2.23 4.44,1.27 3.6,-0.99c-1.12,-3 -2.78,-5.26 -5.78,-6.52c-1.26,-0.53 -2.77,1.05 -2.29,2.29c0.94,2.42 2.39,4.22 4.21,6.04c0.6,-1.03 1.21,-2.07 1.81,-3.11c-3.38,-0.92 -6.5,-2.1 -9.93,-0.75c-1.87,0.74 -1.74,3.66 0.49,3.66c1.99,0 3.98,0 5.96,0c1.21,0 2.13,-1.19 1.8,-2.35c-0.82,-2.94 -3.26,-4.48 -6.24,-4.4c-2.43,0.07 -5.56,1.47 -6.05,4.11c-0.59,3.21 3.05,5.11 5.6,5.83c3.42,0.97 7.47,-0.28 10.52,-1.81c2.54,-1.29 5.19,-3.9 4.61,-7.01c-0.69,-3.68 -4.58,-5.7 -8,-6.04c-6.9,-0.69 -16.44,4.22 -12.04,12.24c1.15,2.11 4.37,0.23 3.21,-1.88l0,0z" fill="#231F20" id="svg_278"/>
   <path d="m733.24,1076.49c-0.81,-0.43 -0.85,-0.37 -0.13,0.18c0.46,-0.52 1.24,-1 1.91,-1.23c0.53,-0.18 1.08,0.93 1.3,1.27c1.15,1.73 2.22,3.31 3.98,4.49c0.85,0.56 2.06,0.16 2.55,-0.67c1.89,-3.21 0.77,-5.89 -2.6,-7.21c0.14,1.13 0.29,2.27 0.44,3.4c1.9,-1 2.04,0.86 1.74,2.37c-0.48,2.35 3.11,3.35 3.59,0.99c0.99,-4.84 -2.18,-9.22 -7.21,-6.57c-1.56,0.82 -0.94,2.86 0.45,3.4c1.13,0.45 0.92,0.8 0.37,1.74c0.85,-0.23 1.7,-0.45 2.55,-0.67c-2.73,-1.82 -3.31,-6.37 -7.24,-6.28c-3.82,0.09 -8.61,5.84 -3.58,8.01c2.18,0.94 4.08,-2.27 1.88,-3.22l0,0z" fill="#231F20" id="svg_279"/>
   <path d="m774.61,1036.93c11.59,-10.65 23.18,15.57 9.16,16.76c-3.93,0.34 -7.89,-1.64 -10.51,-4.45c-3.67,-3.94 -1.99,-8.83 1.35,-12.31c1.66,-1.73 -0.98,-4.37 -2.64,-2.63c-4.83,5.04 -6.15,11.42 -1.71,17.15c3.6,4.63 10.48,6.94 16.12,5.56c7.36,-1.8 9.01,-10.65 6.49,-16.8c-3.49,-8.52 -13.75,-12.49 -20.9,-5.91c-1.77,1.62 0.87,4.25 2.64,2.63z" fill="#231F20" id="svg_280"/>
   <path d="m699.18,1036.93c11.59,-10.65 23.18,15.57 9.16,16.76c-3.92,0.34 -7.89,-1.64 -10.51,-4.45c-3.67,-3.94 -1.99,-8.83 1.35,-12.31c1.66,-1.73 -0.97,-4.37 -2.64,-2.63c-4.82,5.04 -6.15,11.42 -1.71,17.15c3.6,4.63 10.48,6.94 16.12,5.56c7.36,-1.8 9.01,-10.65 6.49,-16.8c-3.49,-8.52 -13.74,-12.49 -20.9,-5.91c-1.77,1.62 0.87,4.25 2.64,2.63z" fill="#231F20" id="svg_281"/>
   <path d="m779.08,1035.04c-0.83,-1.07 -1.45,-1.27 -2.81,-1.29c-0.79,-0.01 -1.62,0.57 -1.79,1.37c-0.68,3.13 -0.81,6.24 -0.82,9.44c0,0.83 0.57,1.56 1.37,1.79c5.52,1.6 11.59,-0.19 11.63,-6.8c0.04,-5.47 -5.19,-9.37 -10.3,-7.2c-6.51,2.76 -9.63,15.48 -3.18,19.76c2.21,1.47 5.65,0.11 6.29,-2.45c0.9,-3.6 -1.86,-5.8 -4.94,-6.9c-0.95,-0.34 -2.04,0.38 -2.29,1.3c-1.49,5.61 4.29,9.45 9.25,9.81c0.79,0.06 1.62,-0.6 1.8,-1.36c0.69,-3.06 -0.07,-5.5 -1.68,-8.15c-1.06,-1.74 -4.19,-0.59 -3.41,1.44c1,2.56 2.25,4.78 4.59,6.33c1.3,0.86 2.65,-0.32 2.8,-1.61c0.15,-1.26 0.6,-2.45 0.74,-3.73c-1.22,0.17 -2.44,0.33 -3.66,0.5c0.17,0.95 0.52,1.81 0.94,2.68c0.82,1.73 3.47,0.82 3.47,-0.94c0,-1.24 0,-2.49 0,-3.73c0,-1.62 -2.03,-2.47 -3.18,-1.32c-1,1 -1.99,1.99 -2.98,2.98c-1.09,1.09 -0.35,3.31 1.32,3.19c6.59,-0.49 6.38,-7.2 6.33,-12.3c-0.93,0.53 -1.87,1.07 -2.8,1.61c4.9,3.7 0.84,11.48 -4.03,12.99c-2.33,0.72 -1.35,3.99 0.99,3.59c1.02,-0.17 1.96,-0.57 2.98,-0.74c2.37,-0.41 1.36,-4 -0.99,-3.6c-1.02,0.18 -1.96,0.57 -2.98,0.75c0.33,1.2 0.66,2.4 0.99,3.59c8.25,-2.56 12.42,-14.14 4.92,-19.8c-1.16,-0.88 -2.82,0.32 -2.81,1.61c0.03,2.46 0.94,8.31 -2.61,8.57c0.44,1.06 0.88,2.12 1.32,3.18c1,-0.99 1.99,-1.99 2.98,-2.98c-1.06,-0.44 -2.12,-0.88 -3.18,-1.32c0,1.24 0,2.49 0,3.73c1.16,-0.31 2.32,-0.63 3.47,-0.94c-0.28,-0.59 -0.44,-1.15 -0.55,-1.79c-0.4,-2.25 -3.44,-1.41 -3.66,0.49c-0.15,1.27 -0.6,2.46 -0.75,3.73c0.94,-0.54 1.87,-1.07 2.81,-1.61c-1.48,-0.98 -2.25,-2.49 -2.87,-4.1c-1.14,0.48 -2.28,0.95 -3.41,1.43c1.05,1.74 1.78,3.14 1.3,5.28c0.6,-0.46 1.2,-0.92 1.8,-1.37c-2.39,-0.18 -6.48,-2.01 -5.66,-5.1c-0.76,0.44 -1.53,0.87 -2.29,1.3c0.8,0.29 2.28,0.78 2.42,1.86c0.07,0.54 -0.39,0.9 -0.9,0.68c-2.32,-0.99 -1.56,-5.2 -1.18,-7.01c0.58,-2.84 3.02,-7.93 6.81,-6.25c1.89,0.84 2.52,3.34 2.12,5.19c-0.68,3.18 -4.48,2.61 -6.79,1.94c0.46,0.6 0.91,1.2 1.37,1.8c0.01,-2.86 0.07,-5.64 0.68,-8.45c-0.6,0.45 -1.2,0.91 -1.8,1.37c-0.38,-0.01 -0.74,-0.97 0.18,0.2c1.48,1.88 4.09,-0.77 2.63,-2.64l0,0z" fill="#231F20" id="svg_282"/>
   <path d="m706.7,1033.81c-5.29,-0.96 -7.33,3.82 -7.27,8.53c0.04,3.19 2.84,4.96 5.8,4.36c6.86,-1.4 10.81,-9.71 3.41,-13.44c-2.15,-1.09 -3.87,1.87 -1.88,3.21c3.72,2.53 7.38,7.78 1.94,10.68c-6.23,3.32 -7.53,-6.23 -7.34,-10.05c0.08,-1.51 -2.17,-2.62 -3.18,-1.32c-4.21,5.45 -4.15,11.65 1.49,16.05c5.55,4.33 9.19,1.24 11.87,-4.1c0.61,-1.2 -0.11,-2.86 -1.6,-2.8c-2.51,0.1 -4.96,0.64 -7.46,0.74c0.17,1.22 0.33,2.44 0.5,3.66c3.19,-0.7 6.48,-0.8 9.39,-2.42c-0.92,-0.37 -1.83,-0.74 -2.74,-1.12c0.99,2.42 0.18,4.44 -2.43,5.16c-1.7,0.48 -1.86,3.22 0,3.6c3.34,0.68 6.58,-0.69 8.07,-3.84c1.02,-2.16 -1.89,-3.91 -3.22,-1.88c-0.8,1.22 -1.84,1.69 -3.05,2.31c-2.15,1.09 -0.26,4.31 1.88,3.22c1.85,-0.94 3.25,-1.91 4.39,-3.65c-1.07,-0.63 -2.14,-1.25 -3.22,-1.88c-0.74,1.57 -2.03,2.5 -3.86,2.12c0,1.2 0,2.4 0,3.6c4.38,-1.22 6.81,-5.41 5.03,-9.75c-0.45,-1.11 -1.59,-1.75 -2.73,-1.11c-2.56,1.43 -5.69,1.43 -8.5,2.05c-2.06,0.45 -1.6,3.74 0.49,3.66c2.5,-0.11 4.95,-0.65 7.45,-0.75c-0.53,-0.93 -1.07,-1.87 -1.6,-2.8c-0.54,1.07 -1.09,2.13 -1.72,3.16c-1.44,2.35 -3.55,0.77 -5.22,-0.53c-3.52,-2.75 -3.08,-6.83 -0.57,-10.06c-1.06,-0.44 -2.12,-0.88 -3.18,-1.32c-0.22,4.32 0.24,9.3 3.69,12.36c2.43,2.16 6.01,2.42 8.9,1.07c2.93,-1.37 4.8,-4.04 5.07,-7.25c0.36,-4.35 -3.42,-7.83 -6.66,-10.03c-0.63,1.08 -1.26,2.15 -1.88,3.22c3.52,1.78 2.38,4.24 -0.58,5.95c-0.74,0.44 -2.02,0.99 -2.85,0.53c-0.36,-0.2 -0.16,-1.51 -0.12,-1.76c0.2,-1.39 0.49,-4.15 2.5,-3.78c2.35,0.43 3.36,-3.17 0.99,-3.6l0,0z" fill="#231F20" id="svg_283"/>
   <path d="m782.43,1034.25c-4.03,-2.66 -7.65,3.6 -8.58,6.67c-0.64,2.07 -0.02,4.25 1.79,5.53c2.03,1.43 4.57,1.33 6.84,2.14c2.27,0.81 3.24,-2.79 0.99,-3.6c-1.32,-0.47 -6.51,-0.61 -6.13,-2.71c0.19,-1.03 2.36,-5.37 3.21,-4.81c2.01,1.33 3.88,-1.9 1.88,-3.22l0,0z" fill="#231F20" id="svg_284"/>
   <path d="m711.55,1045.3c0.05,0.94 0.45,1.82 0.5,2.73c0.06,1.34 1.56,2.42 2.8,1.61c3.49,-2.25 1.04,-7.75 -2.68,-7.94c-1.08,-0.06 -1.77,0.89 -1.86,1.86c-0.04,0.39 -0.21,0.83 -0.25,1.24c-0.1,1.02 0.92,1.87 1.86,1.87c1.09,0 1.77,-0.86 1.87,-1.87c0.03,-0.39 0.21,-0.82 0.25,-1.24c-0.63,0.62 -1.25,1.24 -1.87,1.86c-0.44,-0.02 0.26,0.12 -0.1,-0.04c0.04,0.01 0.45,0.33 0.21,0.12c0.3,0.26 0.26,0.26 0.47,0.69c-0.14,-0.29 0.06,0.25 0.06,0.26c-0.09,-0.35 0,0.14 0,0.21c0.01,-0.43 -0.12,0.24 0.06,-0.15c-0.15,0.33 0,-0.02 0.1,-0.09c0.94,0.54 1.87,1.08 2.8,1.61c-0.04,-0.93 -0.45,-1.82 -0.49,-2.73c-0.12,-2.39 -3.84,-2.4 -3.73,0l0,0z" fill="#231F20" id="svg_285"/>
   <path d="m779.75,1046.98c-0.66,0.23 -1.18,0.48 -1.72,0.92c-0.62,0.49 -0.87,1.37 -0.89,2.12c-0.03,1.02 0.87,1.86 1.86,1.86c1.04,0 1.84,-0.84 1.87,-1.86c0.01,-0.2 -0.01,-0.13 -0.04,0.22c0.05,-0.19 0.01,-0.11 -0.11,0.21c0.11,-0.25 -0.37,0.37 -0.06,0.08c-0.42,0.39 -0.2,0.16 -0.02,0.07c0.17,-0.08 0.11,-0.05 -0.19,0.08c0.1,-0.04 0.19,-0.07 0.29,-0.11c0.96,-0.32 1.58,-1.27 1.3,-2.29c-0.25,-0.93 -1.33,-1.62 -2.29,-1.3l0,0z" fill="#231F20" id="svg_286"/>
   <path d="m721.37,1099.34c10.03,-0.56 17.03,-8.58 17.01,-18.51c0,-2.4 -3.73,-2.41 -3.72,0c0.01,7.83 -5.27,14.33 -13.29,14.78c-2.39,0.13 -2.41,3.86 0,3.73l0,0z" fill="#231F20" id="svg_287"/>
   <path d="m749.19,1097.85c-3.62,-0.29 -6.39,-4 -8.09,-6.86c-0.97,-1.64 -2.71,-6.58 -1.03,-8.1c1.79,-1.61 -0.85,-4.24 -2.63,-2.63c-3.08,2.77 -1.43,8.63 0.05,11.86c2.06,4.52 6.57,9.05 11.7,9.45c2.4,0.19 2.38,-3.53 0,-3.72l0,0z" fill="#231F20" id="svg_288"/>
   <path d="m719.13,1095.43c-3.39,-0.5 -4.7,-4.34 -5.56,-7.22c-1.28,-4.32 0.51,-8.85 2.67,-12.55c4.86,-8.37 13.13,-12.98 22.73,-12.26c8.7,0.66 16.87,4.36 21.52,11.92c3.79,6.18 5.63,17.24 -0.44,22.58c-1.81,1.59 0.83,4.21 2.63,2.63c7.3,-6.41 5.44,-18.43 1.55,-26.15c-5.19,-10.29 -16.72,-14.42 -27.61,-14.84c-11.15,-0.43 -20.62,7.57 -25.19,17.26c-3.05,6.48 -2.73,20.82 6.71,22.22c2.35,0.35 3.36,-3.24 0.99,-3.59l0,0z" fill="#231F20" id="svg_289"/>
   <path d="m702.36,971.21c-3.06,0.58 -8.1,-4.38 -10.22,-6.07c-3.5,-2.81 -6.94,-5.48 -10.83,-7.76c-5.02,-2.92 -10.53,-4.66 -16.21,-5.72c-4.6,-0.85 -9.99,-2.54 -14.4,-0.3c-4.08,2.06 -2.94,7.97 -2.34,11.5c1.12,6.7 1.8,13.4 4.36,19.76c3.36,8.37 10.55,19.61 19.83,21.99c2.33,0.6 3.31,-2.99 0.99,-3.59c-8.72,-2.24 -15.29,-13.92 -18.14,-21.78c-1.86,-5.15 -2.43,-10.72 -3.25,-16.1c-0.34,-2.27 -1.57,-6.27 0.09,-8.3c1.71,-2.07 6.68,-0.49 8.83,-0.08c9.77,1.84 18.27,4.72 26.1,11.11c4.05,3.3 10.39,10.03 16.18,8.93c2.36,-0.45 1.36,-4.04 -0.99,-3.59l0,0z" fill="#231F20" id="svg_290"/>
   <path d="m787.94,975.04c-1.23,-1.91 4.56,-6.93 5.72,-8.07c2.29,-2.23 4.74,-4.3 7.23,-6.3c5,-4.01 11.46,-7.3 17.62,-8.98c5.73,-1.56 11.6,-1.47 16.84,-4.66c-0.85,-0.22 -1.7,-0.44 -2.55,-0.67c2.69,3.6 2,8.97 2.35,13.23c0.55,6.51 0.86,13.02 -1.33,19.31c-3.12,8.97 -10.59,19.97 -20.4,22.12c-2.35,0.51 -1.36,4.11 0.99,3.59c11.1,-2.43 18.73,-14.04 22.7,-23.9c2.67,-6.62 2.5,-14.16 1.77,-21.12c-0.51,-4.93 0.28,-10.89 -2.86,-15.11c-0.6,-0.8 -1.61,-1.24 -2.55,-0.66c-6.42,3.91 -14.55,3.31 -21.43,6.2c-5.32,2.23 -10.46,5.3 -14.93,8.95c-3.48,2.83 -6.87,5.85 -9.77,9.29c-1.86,2.2 -4.5,5.73 -2.61,8.66c1.29,2.02 4.52,0.15 3.21,-1.88l0,0z" fill="#231F20" id="svg_291"/>
   <path d="m798.26,981.95c-0.67,-7.52 7.97,-12.73 13.05,-16.85c7.64,-6.2 14.03,-13.58 23.97,-16.01c2.33,-0.58 1.34,-4.17 -1,-3.6c-10.52,2.58 -17.56,10.29 -25.6,16.97c-5.93,4.93 -14.94,10.62 -14.15,19.49c0.22,2.37 3.94,2.39 3.73,0l0,0z" fill="#231F20" id="svg_292"/>
   <path d="m689.18,980.63c-0.81,-1.13 -1.19,-2.5 -1.86,-3.72c-1.06,-1.93 -2.48,-3.68 -3.88,-5.38c-2.88,-3.51 -6.34,-6.67 -9.82,-9.58c-6.55,-5.47 -14.68,-9.2 -23.31,-9.07c-2.4,0.03 -2.41,3.76 0,3.72c8.15,-0.11 15.43,3.61 21.57,8.73c2.88,2.41 5.57,5.1 8.1,7.88c1.56,1.72 2.91,3.6 4.12,5.58c0.74,1.2 1.04,2.57 1.87,3.72c1.39,1.93 4.62,0.08 3.21,-1.88l0,0z" fill="#231F20" id="svg_293"/>
  </g>
  <g id="svg_294">
   <g id="svg_295">
    <path d="m1000.74,887.33c4.9,-0.98 9.8,-9.8 14.7,-13.72c9.81,-7.84 28.43,-17.65 41.18,-20.59c8.82,13.73 9.8,27.45 6.86,43.14c1.96,-0.98 3.92,-0.98 4.9,-1.96c0.98,7.84 -3.92,17.64 -4.9,25.48c-0.98,8.83 0,10.79 4.9,19.61c3.92,7.84 6.86,17.65 7.84,26.47c0.98,2.94 3.92,30.39 -4.9,18.63c1.96,22.54 2.94,43.13 -8.82,62.74c0,-0.98 -1.96,-2.94 -1.96,-4.9c0,17.64 -11.77,36.27 -22.55,49.99c-1.96,2.94 -4.9,7.85 -7.84,8.83c-4.91,0.98 -3.93,-4.91 -9.81,0c-6.86,6.86 -12.74,17.64 -18.62,25.49c-8.83,-10.79 -12.75,15.68 -13.73,21.56c-4.9,-6.86 -11.76,-25.49 -20.59,-28.43c-2.94,3.92 -5.88,5.89 -8.82,8.83c-12.74,-9.81 -26.47,-25.49 -33.33,-39.22c-1.96,-3.92 -3.92,-13.72 -6.86,-15.68c-4.9,-6.86 -6.86,3.92 -13.73,-2.94c-5.88,-4.91 -5.88,-14.71 -5.88,-21.57c0,-7.84 1.96,-11.76 -4.9,-12.74c-3.92,-0.98 -2.94,3.92 -6.86,-0.98c-0.98,-0.98 0,-8.83 0,-10.79c0,-6.86 2.94,-12.74 3.92,-19.61c-2.94,1.97 -5.88,4.91 -9.8,4.91c-4.91,-16.67 -2.94,-32.35 6.86,-47.06c-2.94,0.98 -4.9,0.98 -7.84,0.98c0.98,-11.76 11.76,-29.41 19.6,-37.25c-2.94,-0.98 -6.86,-0.98 -9.8,-0.98c1.96,-11.77 9.8,-20.59 11.76,-31.37c1.96,-11.77 2.94,-24.51 8.83,-34.32c7.84,-10.78 20.58,-2.94 30.39,0.98c5.88,1.97 11.76,2.95 15.68,6.87c4.9,3.92 7.84,9.8 12.75,13.72c8.82,6.86 21.56,-1.96 32.35,5.88c0,0 -0.98,0 -1.97,0l0.99,0z" fill="#F8AC89" id="svg_296"/>
   </g>
   <path d="m1001.23,889.64c4.61,-1.28 7.69,-5.73 10.63,-9.24c3.64,-4.36 7.88,-7.56 12.61,-10.61c9.97,-6.45 21.1,-12.11 32.64,-14.92c-0.7,-0.29 -1.4,-0.58 -2.1,-0.87c8.08,13.06 9.34,27.32 6.67,42.26c-0.22,1.23 0.85,2.93 2.29,2.32c1.78,-0.75 3.75,-1.05 5.35,-2.18c-0.93,-0.54 -1.87,-1.08 -2.8,-1.63c0.99,10.94 -5.54,21.07 -5.22,32.12c0.12,4.01 1.79,7.61 3.6,11.09c3.13,5.99 5.64,11.99 7.41,18.55c1.77,6.57 2.85,13.65 3.22,20.48c0.15,2.74 0.23,5.59 -0.24,8.31c-0.08,0.46 -0.21,1.7 -0.64,2.01c0.49,-0.35 0.29,-0.02 -0.37,-0.6c-0.63,-0.54 -1.14,-1.24 -1.64,-1.89c-0.99,-1.29 -3.31,-0.23 -3.18,1.33c1.83,21.54 2.61,43.34 -8.57,62.63c1.14,0.15 2.27,0.3 3.41,0.45c-0.45,-1.77 -1.69,-3.12 -1.96,-4.97c-0.32,-2.16 -3.64,-1.55 -3.67,0.51c-0.15,10.66 -4.07,20.64 -9.06,29.89c-2.44,4.5 -5.24,8.8 -8.17,12.99c-2.91,4.17 -5.81,8.56 -9,12.51c-1.1,1.35 -2.63,3.09 -4.47,2.11c-0.87,-0.46 -1.5,-1.24 -2.47,-1.54c-3.23,-0.99 -6.04,1.8 -8.04,3.98c-6.75,7.39 -11.47,16.48 -17.35,24.54c0.97,-0.12 1.95,-0.25 2.93,-0.38c-10.98,-12.9 -15.83,16.5 -16.84,22.69c1.13,-0.15 2.27,-0.3 3.4,-0.45c-3.59,-5.25 -6.11,-11.24 -9.31,-16.74c-2.98,-5.12 -6.68,-10.76 -12.39,-12.94c-0.55,-0.21 -1.44,0.01 -1.81,0.49c-2.61,3.35 -5.82,5.98 -8.82,8.94c0.87,0 1.75,0 2.63,0c-6.91,-5.45 -13.15,-11.67 -18.87,-18.38c-5.63,-6.6 -11.69,-14.32 -14.82,-22.55c-2.22,-5.82 -3.32,-11.35 -7.59,-16.01c-3.79,-4.14 -7.1,1.61 -10.82,-0.22c-7.2,-3.54 -7.13,-14.3 -7.15,-21.09c-0.02,-4.7 1.89,-11.5 -2.79,-14.53c-1.75,-1.13 -5.05,-1.85 -6.97,-0.83c-1.03,0.54 -1.83,1.19 -2.36,-0.61c-0.41,-1.42 -0.05,-3.36 0.04,-4.8c0.2,-3.58 0.28,-7.22 0.96,-10.74c0.88,-4.58 2.47,-8.96 3.21,-13.58c0.23,-1.46 -1.25,-3.18 -2.74,-2.13c-2.76,1.94 -5.35,4.45 -8.86,4.71c0.6,0.46 1.19,0.92 1.79,1.38c-4.54,-16.21 -2.43,-32.07 6.68,-46.23c0.9,-1.39 -0.58,-3.24 -2.11,-2.77c-2.45,0.75 -4.8,0.92 -7.34,0.92c0.62,0.63 1.24,1.26 1.86,1.89c0.69,-6.88 3.75,-13.41 6.98,-19.41c3.29,-6.11 7.26,-12.02 12.08,-17.01c0.99,-1.02 0.53,-2.76 -0.82,-3.15c-3.36,-0.98 -6.82,-1.06 -10.3,-1.06c0.6,0.79 1.2,1.59 1.8,2.39c1.34,-7.37 4.83,-13.83 7.93,-20.54c3.17,-6.88 4.23,-13.82 5.35,-21.26c1.16,-7.6 2.58,-15.27 5.97,-22.22c3.79,-7.78 11.25,-7.38 18.3,-4.92c6.11,2.13 11.88,4.87 18.07,6.85c7.98,2.55 12.06,8.84 17.3,14.92c4.08,4.74 8.8,6.69 14.94,6.72c7.47,0.03 14.51,-1.72 21.16,2.83c0.31,-1.17 0.63,-2.34 0.94,-3.52c-0.65,0 -1.31,0 -1.96,0c-2.4,0 -2.4,3.78 0,3.78c0.65,0 1.31,0 1.96,0c1.94,0 2.43,-2.5 0.94,-3.52c-6.12,-4.19 -12.88,-3.93 -19.95,-3.47c-3.65,0.23 -7.34,0.3 -10.7,-1.36c-3.5,-1.74 -6.06,-5.73 -8.43,-8.72c-4.88,-6.17 -10.04,-9.73 -17.48,-12.01c-6.99,-2.15 -13.45,-5.92 -20.6,-7.54c-5.88,-1.33 -11.49,0.07 -15.56,4.66c-4.83,5.44 -6.39,14.58 -7.66,21.5c-1.52,8.25 -1.98,16.54 -5.34,24.32c-3.21,7.46 -7.29,14.39 -8.77,22.49c-0.22,1.2 0.5,2.39 1.79,2.39c3.15,0.01 6.26,0.04 9.31,0.93c-0.27,-1.05 -0.55,-2.1 -0.82,-3.16c-9.71,10.05 -18.73,24.87 -20.15,39.09c-0.11,1.03 0.92,1.89 1.86,1.89c2.89,-0.01 5.56,-0.21 8.34,-1.06c-0.7,-0.93 -1.41,-1.85 -2.11,-2.78c-9.62,14.97 -11.85,32.02 -7.05,49.15c0.22,0.76 0.98,1.44 1.8,1.38c4.34,-0.32 7.29,-2.79 10.74,-5.22c-0.91,-0.71 -1.82,-1.42 -2.73,-2.14c-0.74,4.62 -2.21,9.04 -3.21,13.58c-0.73,3.3 -0.73,6.66 -0.98,10.01c-0.19,2.55 -0.63,5.45 0.1,7.95c0.51,1.71 3.34,4.59 5.36,3.81c0.73,-0.28 1.26,-0.66 1.89,-1.11c1.14,-0.82 3.94,0.46 4.56,1.5c1.39,2.32 0.05,7.77 0.05,10.36c0.01,6.7 0.11,14.74 4.49,20.22c3.76,4.72 7.41,5.99 12.69,3.43c2.09,-1.02 4.25,3.05 4.99,4.58c1.65,3.43 2.45,7.27 3.81,10.83c2.98,7.86 8.63,15.02 13.84,21.48c6.06,7.52 12.97,14.41 20.53,20.38c0.81,0.64 1.84,0.78 2.63,0c3.01,-2.96 6.22,-5.59 8.83,-8.94c-0.61,0.16 -1.21,0.32 -1.82,0.48c5.25,2.01 8.5,8.28 11.14,12.9c2.83,4.97 5.1,10.32 8.34,15.05c0.81,1.19 3.11,1.31 3.4,-0.46c0.78,-4.79 1.63,-9.57 2.95,-14.25c0.72,-2.52 1.6,-5.03 3.03,-7.24c1.55,-2.42 3.07,-1.36 4.63,0.47c0.86,1.01 2.27,0.52 2.93,-0.38c6.15,-8.44 11.07,-17.89 18.33,-25.45c2.71,-2.82 4.57,0.59 7.68,0.66c3.57,0.08 6.2,-4 8.01,-6.56c11.6,-16.46 24.75,-33.86 25.05,-55.04c-1.22,0.17 -2.44,0.33 -3.66,0.5c0.28,1.9 1.51,3.18 1.96,4.97c0.41,1.6 2.6,1.84 3.41,0.45c11.52,-19.89 10.97,-42.3 9.08,-64.54c-1.06,0.45 -2.13,0.89 -3.19,1.34c1.42,1.84 3.31,3.97 5.86,3.37c2.27,-0.53 2.91,-3.6 3.18,-5.54c0.83,-5.81 0.38,-12.43 -0.91,-18.16c-1.37,-6.03 -2.14,-11.98 -4.11,-17.89c-2.12,-6.35 -5.86,-11.85 -8.14,-18.08c-4.36,-11.91 5.47,-24.33 4.36,-36.44c-0.11,-1.29 -1.53,-2.52 -2.8,-1.63c-1.31,0.93 -2.99,1.18 -4.46,1.8c0.77,0.78 1.53,1.55 2.29,2.32c2.85,-15.91 1.58,-31.23 -7.05,-45.16c-0.45,-0.74 -1.26,-1.08 -2.1,-0.87c-11.19,2.73 -21.86,8.14 -31.67,14.13c-4.35,2.65 -8.82,5.53 -12.43,9.19c-3.49,3.54 -6.74,10.05 -11.78,11.45c-2.31,0.64 -1.33,4.28 0.99,3.64l0,0z" fill="#231F20" id="svg_297"/>
   <path d="m970.7,987.37c-1.28,2.73 -2.33,5.83 -0.98,8.74c1.15,2.49 3.28,3.97 5.75,4.99c5.38,2.21 11.11,-0.43 13.85,-5.28c2.44,-4.32 -0.24,-9.03 -4.2,-11.17c-4.86,-2.62 -9.97,-0.9 -13.6,2.8c-2.29,2.34 -4.95,5.74 -4.27,9.25c0.51,2.59 2.8,4.08 5.18,4.76c4.5,1.3 12.02,0.38 13.97,-4.57c1.81,-4.58 -4.75,-9.25 -8.56,-9.33c-5.67,-0.11 -8.48,7.43 -5.02,11.43c3.89,4.5 12.78,1.12 10.89,-5.11c-1.82,-6 -9.37,-7.93 -13.01,-2.59c-0.48,0.71 -0.25,1.67 0.29,2.26c3.01,3.26 8.84,4.51 12,0.66c3.07,-3.73 -1.73,-7.42 -5.35,-7.57c-3.36,-0.15 -5.55,2.6 -4.68,5.84c1.22,4.55 6.81,5.08 10.63,4.49c0.75,-0.12 1.44,-1.05 1.37,-1.8c-0.41,-4.01 -5,-7.47 -9.02,-6.74c-5.34,0.98 -4.91,7.24 -0.5,9.24c3.79,1.71 7.99,-0.83 7.46,-5.08c-0.48,-3.91 -4.54,-5.18 -6.32,-1.3c-0.99,2.17 2.22,4.06 3.22,1.88c0.52,-0.65 0.27,-0.91 -0.75,-0.78c0.19,0.3 0.18,0.74 0.19,1.07c0.03,1.36 -1.77,1.06 -2.57,0.7c-0.96,-0.38 -1.07,-1.05 -0.33,-2.02c0.68,-0.25 1.6,0.06 2.21,0.33c1.02,0.43 2.56,1.48 2.68,2.7c0.45,-0.6 0.91,-1.2 1.37,-1.8c-1.92,0.3 -4.11,0.3 -5.58,-1.14c-0.45,-0.44 -0.9,-1.43 -0.23,-1.83c0.74,-0.44 3.86,0.82 3.3,1.51c-1.76,2.14 -5.03,0.56 -6.46,-1c0.09,0.75 0.19,1.51 0.29,2.26c2.41,-3.53 7.96,1.23 6.13,3.35c-1.21,1.41 -4.14,0.76 -4.97,-0.73c-0.71,-1.29 0.35,-3.27 1.4,-4.02c2.09,-1.5 6.9,1.66 6.39,3.92c-0.37,1.66 -3.67,2.29 -5.15,2.45c-2.1,0.22 -4.97,0.16 -6.52,-1.5c-1.94,-2.07 2.8,-6.37 3.91,-7.55c3.35,-3.56 12.68,-1.79 11.25,4.18c-1.73,7.22 -15.21,5.94 -13.26,-1.95c0.21,-0.72 0.48,-1.41 0.82,-2.07c1.01,-2.16 -2.2,-4.06 -3.22,-1.88l0,0z" fill="#231F20" id="svg_298"/>
   <path d="m961.52,1019.58c4.92,0 10.29,0.44 14.04,-3.33c2.89,-2.89 3.32,-7.82 5.22,-11.32c-1.16,-0.31 -2.32,-0.62 -3.47,-0.94c-0.61,5.84 0.92,11.14 6.81,13.25c4.93,1.76 10.57,0.44 15.64,0.38c2.4,-0.02 2.4,-3.75 0,-3.72c-4.05,0.04 -8.06,0.66 -12.11,0.29c-5.85,-0.53 -7.16,-4.95 -6.62,-10.2c0.2,-1.88 -2.63,-2.49 -3.47,-0.94c-1.52,2.82 -2.26,5.87 -3.53,8.78c-2.13,4.85 -8.13,4.03 -12.51,4.03c-2.4,0 -2.4,3.72 0,3.72l0,0z" fill="#231F20" id="svg_299"/>
   <g id="svg_300">
    <path d="m1016.42,962.82c7.99,3 6.29,15.26 -0.57,18.19c-15.43,6.59 -18.26,-23.57 0.57,-18.19z" fill="#231F20" id="svg_301"/>
   </g>
   <g id="svg_302">
    <path d="m946.81,962.82c7.99,3 6.29,15.26 -0.57,18.19c-15.43,6.59 -18.26,-23.57 0.57,-18.19z" fill="#231F20" id="svg_303"/>
   </g>
   <path d="m1030.24,1047.13c-0.93,7.67 -3.38,15.15 -8.27,21.23c-1.5,1.85 1.12,4.51 2.63,2.63c5.58,-6.93 8.3,-15.11 9.37,-23.86c0.29,-2.38 -3.44,-2.35 -3.73,0l0,0z" fill="#231F20" id="svg_304"/>
   <path d="m994.95,1079.48c-0.18,3.99 -2.79,7.48 -3.85,11.27c-0.65,2.32 2.94,3.3 3.59,0.99c1.17,-4.19 3.79,-7.81 3.99,-12.26c0.11,-2.4 -3.62,-2.39 -3.73,0l0,0z" fill="#231F20" id="svg_305"/>
   <path d="m942.4,1078.34c9.15,2.12 13.4,10.84 15.37,19.28c0.54,2.34 4.14,1.35 3.59,-0.99c-2.26,-9.7 -7.56,-19.47 -17.97,-21.89c-2.34,-0.54 -3.33,3.05 -0.99,3.6l0,0z" fill="#231F20" id="svg_306"/>
   <path d="m1029,900.56c-5.43,-14.8 12.68,-31.76 26.15,-33.98c2.37,-0.39 1.36,-3.98 -0.99,-3.59c-15.4,2.53 -34.87,21.89 -28.75,38.56c0.82,2.24 4.42,1.28 3.59,-0.99l0,0z" fill="#231F20" id="svg_307"/>
   <path d="m951.62,895.18c1.16,-10.1 -6.01,-19.67 -13.48,-25.59c-5.84,-4.63 -15.12,-10.61 -22.65,-6.41c-2.1,1.17 -0.22,4.39 1.88,3.21c6.29,-3.5 14.96,3.21 19.59,7c6.19,5.07 11.89,13.44 10.94,21.79c-0.28,2.38 3.45,2.36 3.72,0l0,0z" fill="#231F20" id="svg_308"/>
   <path d="m1015.22,966.21c-1.54,0.06 -2.56,0.96 -2.71,2.5c-0.1,1.1 0.63,2.31 1.11,3.25c0.45,0.91 1.71,1.15 2.54,0.67c0.92,-0.54 1.13,-1.64 0.67,-2.55c-0.1,-0.22 -0.21,-0.44 -0.32,-0.65c-0.05,-0.11 -0.1,-0.21 -0.14,-0.32c0.16,0.37 -0.04,-0.09 -0.05,-0.15c-0.04,-0.09 -0.06,-0.18 -0.09,-0.27c-0.12,-0.43 0.01,0.41 0.01,0.02c0,0.34 -0.13,0.63 -0.38,0.89c-0.18,0.11 -0.37,0.22 -0.55,0.33c-0.29,0.02 -0.32,0.02 -0.09,0.01c1.02,-0.04 1.87,-0.82 1.87,-1.86c0,-0.99 -0.85,-1.91 -1.87,-1.87l0,0z" fill="#FFFFFF" id="svg_309"/>
   <path d="m943.51,967.34c0,0.98 0,1.96 0,2.94c0,1.9 2.5,2.48 3.48,0.94c0.68,-1.08 1.15,-2.43 0.7,-3.7c-0.34,-0.96 -1.03,-1.55 -1.73,-2.23c-1.73,-1.67 -4.37,0.96 -2.64,2.63c0.15,0.14 0.3,0.27 0.45,0.4c0.11,0.11 0.62,0.69 0.32,0.29c0.08,0.1 0.2,0.46 0.05,0.03c0.14,0.4 0.01,-0.4 0,0.08c0.01,-0.48 -0.09,0.17 0,-0.04c-0.1,0.23 -0.24,0.45 -0.37,0.66c1.15,0.31 2.31,0.63 3.47,0.94c0,-0.98 0,-1.96 0,-2.94c0,-2.4 -3.73,-2.4 -3.73,0l0,0z" fill="#FFFFFF" id="svg_310"/>
  </g>
  <g id="svg_311">
   <path d="m266.5,966.39c5.35,-4.26 11.55,-9.46 18.85,-7.89c4.98,1.07 15.45,6.99 18.59,10.97c5.72,7.25 -1.82,12.25 -6.23,17.79c-5.46,6.88 -9.8,12.5 -18.56,5.08c-7.69,-6.51 -5.65,-17.49 -12.65,-24.03l0,-1.92z" fill="#7A4A28" id="svg_312"/>
   <path d="m139.62,994.09c-1.68,-4.06 -7.5,-2.83 -11.05,-4.94c-3.5,-2.08 -5.82,-6.06 -7.59,-9.71c-1.96,-4.02 -3.21,-8.23 -5.06,-12.2c-1.67,-3.59 -4.92,-7.94 -4.23,-12.2c9.41,-3 23.16,-4.54 32.63,-1.9c6.65,1.86 25.96,10.64 27.41,16.74l-32.11,24.21z" fill="#7A4A28" id="svg_313"/>
   <g id="svg_314">
    <path d="m240.49,1073.22c-11.45,-18.61 -38.98,-19.99 -53.77,-4.68c-8.8,9.32 -8.55,25.09 -1.15,35.58c18.4,6.66 39.13,7.41 57.74,1.27c4.01,-10.4 3.08,-22.65 -2.82,-32.17z" fill="#383838" id="svg_315"/>
    <path d="m242.31,1072.16c-8.26,-12.9 -23.41,-18.19 -38.18,-15.38c-16.14,3.09 -27.55,16.62 -25.96,33.2c0.37,3.91 1.57,7.63 3.21,11.17c0.68,1.46 1.56,3.31 2.7,4.46c1.44,1.44 4.77,1.84 6.66,2.4c10.78,3.21 22.22,4.21 33.42,3.36c5.19,-0.4 10.34,-1.36 15.38,-2.66c1.57,-0.41 4.66,-0.68 5.58,-2.26c1.16,-1.98 1.57,-4.71 2.03,-6.93c1.91,-9.35 -0.02,-19.21 -4.84,-27.36c-1.38,-2.33 -5.02,-0.22 -3.63,2.12c5.55,9.38 6.32,20.35 2.6,30.55c0.49,-0.49 0.98,-0.98 1.47,-1.47c-14.64,4.68 -30.02,5.23 -45.04,2.08c-3.45,-0.73 -6.83,-1.73 -10.16,-2.84c-2.2,-0.74 -3.41,-5.51 -4.05,-7.43c-1.97,-5.97 -1.7,-12.45 0.42,-18.32c3.82,-10.65 16.32,-16.14 26.86,-16.67c11.12,-0.56 21.89,4.7 27.9,14.1c1.45,2.27 5.09,0.17 3.63,-2.12z" fill="#231F20" id="svg_316"/>
   </g>
   <g id="svg_317">
    <path d="m275.11,1063.1c-17.88,-13.51 -35.76,-27.02 -42.08,-48.17c-5.69,-19.23 -1.78,-38.43 -7.47,-57.66c-1.9,-7.05 -10.21,-8.36 -16.62,-7.1c-7.05,1.89 -9.64,8.92 -10.94,14.68c-6.5,25.59 -0.84,51.86 -11.81,76.15c-4.52,9.59 -17.34,12.74 -23.14,22.33c-4.39,7.4 -5.81,16 -5.67,24.78c3.2,2.38 6.53,4.66 9.92,6.9c5.68,3.73 11.83,6.78 18.27,9.11c-7.4,-10.49 -7.65,-26.26 1.16,-35.58c14.78,-15.32 42.31,-13.93 53.76,4.68c5.9,9.52 6.83,21.77 2.82,32.17c4.15,-1.37 8.2,-3.07 12.09,-5.14c14.27,-7.57 26.31,-19.81 33.81,-34.25c-5.25,0.21 -10.51,-0.31 -14.1,-2.9z" fill="#FFFFFF" id="svg_318"/>
    <path d="m276.17,1061.29c-18.26,-13.8 -36.93,-28.31 -42.35,-51.73c-3.11,-13.43 -2,-27.47 -3.79,-41.08c-1.23,-9.36 -2.82,-18.8 -13.46,-20.58c-23.11,-3.87 -23.37,29.1 -24.28,44.18c-0.77,12.86 -1.09,25.74 -4.48,38.26c-1.5,5.58 -3.43,11.05 -7.62,15.18c-3.48,3.42 -7.86,5.82 -11.65,8.87c-9.51,7.66 -12.81,18.94 -13.25,30.8c-0.11,3.03 -0.14,3.88 2.23,5.62c2.85,2.09 5.78,4.06 8.72,6.01c5.86,3.87 12.2,6.89 18.77,9.33c1.71,0.63 3.37,-1.61 2.37,-3.09c-5.95,-8.83 -7.14,-20.45 -1.65,-29.81c4.93,-8.41 15.76,-12.6 25.05,-13.07c9.45,-0.47 18.67,3.27 25.04,10.23c8.41,9.17 9.58,23.12 5.46,34.42c-0.53,1.48 1.13,3.08 2.59,2.58c20.34,-6.91 37.09,-21.38 47.15,-40.35c0.72,-1.36 -0.16,-3.21 -1.81,-3.16c-4.56,0.12 -9.1,-0.07 -13.04,-2.61c-2.29,-1.47 -4.4,2.17 -2.12,3.63c4.55,2.92 9.88,3.32 15.16,3.18c-0.6,-1.05 -1.21,-2.11 -1.81,-3.16c-9.55,17.99 -25.31,31.85 -44.65,38.42c0.86,0.86 1.72,1.72 2.59,2.58c4.65,-12.76 2.64,-27.03 -5.86,-37.7c-6.81,-8.54 -18.04,-12.5 -28.7,-12.26c-10.79,0.24 -21.66,5.42 -28.05,14.19c-7.38,10.14 -5.67,25.08 1.03,35.01c0.79,-1.03 1.58,-2.05 2.37,-3.08c-10.13,-3.76 -19.02,-9.44 -27.69,-15.8c0.34,0.61 0.69,1.21 1.03,1.82c-0.06,-12.61 3.02,-24.04 13.44,-31.81c3.45,-2.58 7.06,-4.9 10.25,-7.82c3.78,-3.46 5.64,-7.96 7.34,-12.68c8.46,-23.53 3.42,-49.45 10.29,-73.35c1.45,-5.03 4.54,-9.77 10.12,-10.49c4.96,-0.64 10.89,0.57 12.62,5.86c4.28,13.11 3.25,27.51 4.46,41.08c1.04,11.51 4.05,22.38 10.29,32.16c5.67,8.88 13.53,16.19 21.6,22.85c4.61,3.8 9.4,7.39 14.16,11c2.17,1.63 4.26,-2.02 2.13,-3.63z" fill="#231F20" id="svg_319"/>
   </g>
   <g id="svg_320">
    <path d="m243.5,952.22c-39.63,-16.8 -83.26,6.09 -104.52,41.23c-7.57,12.5 -12.19,26.59 -12.66,41.23c-0.74,23 11.69,38.44 28.16,51.24c0.95,0.74 1.92,1.47 2.89,2.2c-0.13,-8.79 1.29,-17.39 5.68,-24.79c5.8,-9.59 18.62,-12.74 23.14,-22.33c10.97,-24.29 5.31,-50.56 11.81,-76.15c1.3,-5.76 3.89,-12.79 10.94,-14.68c6.4,-1.26 14.72,0.05 16.62,7.1c5.69,19.23 1.78,38.43 7.47,57.66c6.32,21.15 24.2,34.66 42.07,48.18c3.6,2.58 8.86,3.1 14.11,2.89c2.07,-3.99 3.8,-8.15 5.14,-12.43c12.95,-39.01 -14.41,-85.85 -50.85,-101.35z" fill="#7A4A28" id="svg_321"/>
    <path d="m244.06,950.19c-37.52,-15.51 -78.19,3.32 -101.43,34.09c-12.97,17.17 -20.79,39.64 -17.75,61.24c2.69,19.09 16.64,33.39 31.43,44.41c1.32,0.98 3.17,-0.36 3.17,-1.82c-0.07,-12.6 3.01,-24.03 13.43,-31.8c3.45,-2.58 7.07,-4.91 10.26,-7.82c3.77,-3.46 5.64,-7.96 7.33,-12.68c8.47,-23.54 3.42,-49.45 10.3,-73.36c1.44,-5.03 4.53,-9.77 10.11,-10.48c4.96,-0.64 10.9,0.57 12.62,5.86c4.28,13.11 3.25,27.51 4.46,41.08c1.04,11.51 4.05,22.38 10.29,32.16c5.67,8.88 13.53,16.18 21.6,22.84c4.26,3.53 8.68,6.86 13.09,10.2c4.76,3.6 10.43,4.15 16.24,3.99c0.71,-0.02 1.48,-0.38 1.81,-1.04c11.06,-21.78 10.85,-45.37 1.32,-67.64c-9.09,-21.25 -26.5,-39.77 -47.78,-49.02c-2.45,-1.07 -4.59,2.55 -2.12,3.63c19.83,8.62 35.37,25 44.8,44.28c10.43,21.34 10.96,45.36 0.16,66.63c0.6,-0.35 1.21,-0.69 1.81,-1.04c-6.57,0.18 -11.05,-1.09 -16.26,-5.04c-4.81,-3.65 -9.57,-7.38 -14.14,-11.33c-8.31,-7.17 -15.72,-15.34 -20.67,-25.21c-6.07,-12.14 -6.26,-26.16 -6.9,-39.42c-0.29,-6.1 -0.78,-12.16 -1.79,-18.18c-0.82,-4.9 -1.67,-10.41 -5.62,-13.82c-5.77,-4.97 -15.68,-4.13 -21.29,0.41c-7.19,5.82 -8.05,18.8 -9.1,27.14c-1.58,12.51 -1.4,25.17 -2.86,37.7c-0.73,6.31 -2.11,12.52 -4.13,18.54c-2.04,6.1 -5,10.18 -10.11,14.01c-5.51,4.13 -11.28,7.65 -15.1,13.56c-4.84,7.52 -6.01,17.12 -5.96,25.85c1.05,-0.6 2.1,-1.21 3.16,-1.81c-14.24,-10.61 -26.52,-23.79 -29.5,-41.9c-3.45,-20.93 5.88,-43.25 18.48,-59.52c22.16,-28.62 60.67,-45.05 95.53,-30.64c2.5,1.04 3.58,-3.03 1.11,-4.05z" fill="#231F20" id="svg_322"/>
   </g>
   <path d="m166.41,961.64c-5.73,-2.72 -11.37,-5.61 -17.36,-7.71c-5.38,-1.88 -10.72,-1.95 -16.29,-2.54c-5.33,-0.57 -19.24,-4.07 -22.17,2.71c-1.45,3.35 0.32,7.55 1.56,10.67c1.66,4.15 3.8,8.09 5.78,12.08c3.82,7.7 9.42,18.05 19.13,18.69c2.71,0.17 2.69,-4.03 0,-4.2c-7.8,-0.52 -12.55,-10.51 -15.5,-16.61c-1.44,-2.96 -2.99,-5.85 -4.37,-8.84c-1.08,-2.31 -3.93,-7.46 -2.77,-10.14c0.89,-2.06 7.35,-1.21 9.02,-1.11c3.6,0.2 7.18,0.75 10.78,1.1c4.74,0.45 9.13,0.77 13.72,2.24c5.67,1.82 10.98,4.73 16.35,7.28c2.43,1.16 4.56,-2.46 2.12,-3.62l0,0z" fill="#231F20" id="svg_323"/>
   <path d="m266.42,969.05c5.79,-2.13 9.61,-7.97 16.12,-8.18c1.53,-0.05 2.69,-1.77 1.81,-3.16c-0.05,-0.09 -0.11,-0.18 -0.16,-0.27c-0.72,-1.14 -2.32,-1.4 -3.3,-0.42c-0.57,0.56 -0.8,1.06 -1.02,1.83c-0.74,2.61 3.31,3.71 4.05,1.11c-0.02,0.01 -0.04,0.02 -0.06,0.03c-1.1,-0.14 -2.2,-0.28 -3.3,-0.42c0.05,0.08 0.11,0.17 0.16,0.26c0.61,-1.06 1.21,-2.11 1.82,-3.16c-3.39,0.11 -6.31,1.14 -9.13,2.99c-2.71,1.78 -5.01,4.2 -8.11,5.34c-2.52,0.93 -1.43,4.99 1.12,4.05l0,0z" fill="#231F20" id="svg_324"/>
   <path d="m279.77,957.91c-2.2,2.37 -0.27,6.23 0.82,8.68c1.81,4.11 3.78,8.18 5.67,12.25c1.87,3.99 6,2.85 9.56,2.13c5.06,-1.03 10.27,-3.44 13.45,-7.61c0.72,-0.93 0.12,-2.32 -0.75,-2.87c-6.21,-3.91 -12.29,-8.28 -18.86,-11.56c-2.22,-1.11 -7.59,-4.83 -9.69,-2.02c-0.4,0.54 -0.39,1.58 0,2.12c0.04,0.05 0.08,0.1 0.12,0.15c1.58,2.17 5.22,0.07 3.62,-2.12c-0.03,-0.05 -0.07,-0.1 -0.11,-0.15c0,0.7 0,1.41 0,2.12c0.02,-0.03 0.03,-0.05 0.05,-0.07c-0.61,0.35 -1.21,0.69 -1.81,1.04c2.48,0.16 6.14,2.72 8.39,3.95c5.55,3.04 10.81,6.79 16.17,10.17c-0.25,-0.96 -0.5,-1.92 -0.76,-2.88c-2.32,3.04 -6.38,4.44 -9.91,5.43c-1.66,0.46 -3.51,0.84 -5.23,0.89c-0.62,0.03 -1.47,-3.11 -1.66,-3.56c-0.87,-2.08 -2,-4.06 -3.01,-6.07c-0.76,-1.52 -1.47,-3.06 -2.09,-4.64c-0.19,-0.51 -0.37,-1.02 -0.52,-1.55c-0.23,-0.74 0.12,-1.5 -0.48,-0.86c1.84,-1.98 -1.12,-4.95 -2.97,-2.97l0,0z" fill="#231F20" id="svg_325"/>
   <path d="m306.28,972.53c-1.93,4.11 -4.27,8.01 -6.86,11.75c-2.63,3.79 -6.12,8.45 -10.54,10.26c-2.47,1.01 -1.39,5.08 1.12,4.05c9.38,-3.83 15.81,-15.21 19.91,-23.94c1.14,-2.44 -2.48,-4.57 -3.63,-2.12l0,0z" fill="#231F20" id="svg_326"/>
   <g id="svg_327">
    <path d="m232.15,1078.31c-0.68,10.24 -16.71,15.95 -25.66,13.35c-5.39,-1.56 -9.49,-5.33 -11.78,-10.39c-8.74,-19.32 39.02,-18.24 37.44,-2.96z" fill="#212120" id="svg_328"/>
    <path d="m230.05,1078.31c-1.18,10.63 -17.72,14.05 -25.78,10.24c-6.2,-2.93 -12.5,-12.55 -4.76,-17.1c5.41,-3.17 13,-3.01 18.96,-1.92c4.45,0.81 11.98,3.04 11.58,8.78c-0.19,2.71 4.01,2.69 4.2,0c0.59,-8.44 -9.29,-11.97 -16.01,-13.07c-7.72,-1.27 -18.33,-0.95 -24.13,5.13c-8.2,8.58 3.74,20.7 11.82,23.32c10.64,3.45 27,-3.47 28.32,-15.38c0.3,-2.69 -3.91,-2.66 -4.2,0z" fill="#231F20" id="svg_329"/>
   </g>
   <path d="m259.77,1006.71c-0.09,3.61 -1.17,8.45 3.43,9.71c1.05,0.29 2.35,-0.34 2.59,-1.46c0.56,-2.71 0.1,-6.97 -2.43,-8.61c-3.67,-2.38 -5.34,4.03 -5.03,6.41c0.22,1.7 0.81,3.1 2.22,4.13c1.27,0.94 3.51,0.41 4.57,-0.64c1.98,-1.98 1.91,-5.47 1.25,-8c-0.76,-2.91 -3.86,-5.21 -6.63,-3.03c-2.7,2.13 -2.53,7.18 -1.63,10.12c0.68,2.2 2.58,4.54 5.01,4.71c2.15,0.14 3.43,-2.01 4.07,-3.72c1.27,-3.44 1.26,-9.45 -1.89,-11.95c-4.49,-3.55 -10.22,1.7 -9.78,6.58c0.35,3.92 3.98,10.14 8.68,9.27c5.88,-1.09 2.98,-12.14 1.26,-15.42c-1.17,-2.24 -3.68,-3.04 -5.7,-1.39c-1.55,1.28 -2.32,3.55 -2.75,5.44c-0.47,2.08 -0.65,4.5 0.39,6.44c1.28,2.39 4.14,2.08 6.14,0.91c2.34,-1.37 0.22,-5 -2.12,-3.63c-0.52,0.3 -0.51,0.3 -0.92,0.41c0.2,-0.05 0.35,0.05 0.33,0.04c0.4,0.23 0.13,0.03 0.22,0.24c-0.19,-0.46 -0.19,-0.82 -0.19,-0.84c-0.12,-1.56 0.34,-3.45 0.9,-4.65c0.16,-0.35 0.35,-0.68 0.56,-1c-0.07,0.11 0.46,-0.4 0.1,-0.14c0.33,-0.24 -0.35,0.05 -0.59,0c-0.42,-0.09 -0.29,-0.19 -0.11,0.09c1.38,2.17 1.96,6.11 1.6,8.62c-0.08,0.56 -0.11,0.66 -0.33,1.01c0.1,-0.15 0.22,-0.22 0.49,-0.25c0.13,-0.01 -0.39,-0.09 -0.28,-0.04c-0.52,-0.25 -0.65,-0.38 -0.99,-0.68c-1.37,-1.23 -2.44,-3.19 -2.53,-4.94c-0.08,-1.62 1.34,-3.05 2.78,-2.99c-0.38,-0.02 0.16,0.13 0.01,0.01c0.46,0.36 0.27,0.21 0.51,0.62c0.28,0.46 0.57,1.61 0.64,2.22c0.13,1.15 0.08,2.48 -0.09,3.39c-0.1,0.58 -0.26,1.15 -0.47,1.7c0.05,-0.13 -0.54,0.76 -0.36,0.57c-0.07,0.09 0.4,-0.17 0.57,-0.12c0.29,0.08 -0.11,-0.09 -0.41,-0.48c-1.2,-1.6 -1.29,-3.73 -0.92,-5.65c0.06,-0.33 0.15,-0.68 0.29,-0.98c0.3,-0.64 0.28,-0.19 0.03,-0.18c-0.5,0.01 -0.51,-0.33 -0.3,-0.02c0.18,0.26 0.27,0.53 0.36,0.83c0.3,0.98 0.44,3.17 -0.03,3.76c0.09,-0.05 0.17,-0.09 0.27,-0.12c-0.51,0.13 -0.47,0.21 0.1,0.25c0.26,0.12 -0.06,-0.39 -0.14,-0.69c-0.21,-0.83 -0.11,-1.74 0.27,-2.5c0.29,-0.58 -2,-0.77 -1.53,0.12c0.18,0.35 0.25,0.82 0.34,1.2c0.18,0.77 0.29,1.68 0.13,2.45c0.86,-0.49 1.73,-0.98 2.59,-1.47c-1.39,-0.38 -0.38,-4.55 -0.35,-5.66c0.07,-2.71 -4.14,-2.71 -4.2,0l0,0z" fill="#231F20" id="svg_330"/>
   <path d="m157.92,1009.96c-3.42,2.98 -3.07,13.27 3.01,12.67c6.36,-0.63 7.53,-9.8 4.11,-13.98c-2,-2.44 -4.95,-1.74 -7.11,0.03c-2.42,1.99 -2.38,6.53 -1.07,9.04c1.69,3.23 6.31,2.69 8,-0.17c1.58,-2.68 0.58,-6.68 -1.4,-8.86c-0.85,-0.93 -2.76,-0.79 -3.3,0.43c-1.21,2.69 -1.42,10.31 3.63,8.21c4.85,-2.01 1.51,-9.72 -3.31,-8.68c-4.29,0.92 -4.51,8.45 -0.61,9.92c2.14,0.81 4.15,-1.26 4.54,-3.15c0.43,-2.1 -0.2,-4.48 -1.6,-6.09c-0.73,-0.83 -2.23,-0.8 -2.97,0c-2.63,2.88 -2.62,6.49 -0.02,9.37c1.82,2.02 4.78,-0.96 2.97,-2.97c-1.03,-1.14 -1.01,-2.3 0.02,-3.43c-0.99,0 -1.98,0 -2.97,0c0.31,0.35 0.38,0.94 0.47,1.38c0.07,0.34 -0.23,1.16 0.17,0.86c0.33,-0.25 1.09,0.55 1,0.32c-0.11,-0.27 -0.13,-0.46 -0.14,-0.75c-0.02,-0.29 0,-0.57 0.06,-0.85c0.06,-0.31 0.47,-0.78 0.11,-0.52c0.16,-0.12 -0.14,-0.12 0,-0.05c0.13,0.07 0.28,0.4 0.32,0.48c0.09,0.16 0.08,0.39 0.09,0.56c-0.02,-0.57 1.38,-0.08 1.62,0.25c-0.12,-0.17 -0.05,-0.95 -0.03,-1.28c0.02,-0.42 0.27,-1.46 0.28,-1.46c-1.1,0.14 -2.2,0.28 -3.3,0.42c0.83,0.92 1.07,2.51 0.77,3.68c-0.31,1.18 -0.99,-0.17 -1.05,-0.61c-0.16,-1.4 0.11,-2.84 1.41,-3.53c0.11,-0.06 0.09,0.02 0.12,0.05c0.37,0.33 0.57,0.95 0.72,1.48c0.36,1.25 0.32,2.62 -0.03,3.86c-0.14,0.48 -0.34,0.76 -0.7,1.07c-0.21,0.19 -1.21,0.79 -0.95,0.83c-0.4,-0.06 -0.18,-0.09 -0.06,0.01c-0.2,-0.17 -0.26,-0.32 -0.41,-0.6c-0.24,-0.45 -0.32,-1.05 -0.36,-1.55c-0.11,-1.18 0.01,-2.6 0.94,-3.42c2.05,-1.78 -0.94,-4.74 -2.97,-2.97l0,0z" fill="#231F20" id="svg_331"/>
  </g>
 </g>
</svg>