<?xml version="1.0"?>
<svg width="500" height="500" xmlns="http://www.w3.org/2000/svg" xmlns:svg="http://www.w3.org/2000/svg" xmlns:xlink="http://www.w3.org/1999/xlink" enable-background="new 0 0 500 500" version="1.1" xml:space="preserve">
 <g class="layer">
  <title>Layer 1</title>
  <defs>
   <rect height="500" id="SVGID_1_" width="500"/>
  </defs>
  <clipPath id="SVGID_00000113353668062756173240000010632634535300792477_">
   <use id="svg_18" overflow="visible" xlink:href="#SVGID_1_"/>
  </clipPath>
  <g clip-path="url(#SVGID_00000113353668062756173240000010632634535300792477_)" id="svg_31">
   <path d="m85.45,241.65c-1.15,0.63 -16.97,-16.79 -17.62,-17.28c-0.65,-0.49 3.31,-5.05 1.43,-10.69c-1.88,-5.65 -12.45,-4.94 -8.5,7.58c0,0 -15.35,-2.62 -14.08,6.33c1.19,8.36 12.5,2.99 12.95,3.33c0.45,0.34 15.88,13.57 16.4,13.96c0.52,0.39 -3.55,3.29 -2.64,9.61c1.02,7.1 13.51,5.05 8.36,-5.34c0,0 6.72,5.42 13.63,1.12c6.57,-4.1 -0.21,-13.96 -9.93,-8.62z" fill="#FFF7F4" id="svg_32"/>
   <path d="m81.75,249.15c0,0 3.07,2.47 7.18,2.75c-5.31,-4.66 -10.48,-9.47 -15.3,-14.64c-4.87,-5.21 -12.95,-16.24 -12.88,-16c0,0 -15.35,-2.62 -14.07,6.33c1.19,8.36 12.5,2.99 12.95,3.33c0.45,0.34 15.88,13.57 16.4,13.96c0.52,0.39 -3.55,3.29 -2.64,9.61c1.02,7.1 13.51,5.05 8.36,-5.34z" fill="#FFF0EB" id="svg_33"/>
  </g>
  <g clip-path="url(#SVGID_00000113353668062756173240000010632634535300792477_)" id="svg_34">
   <g id="svg_35">
    <path d="m43.92,303.25c-4.79,-0.98 -4.97,5.55 -7.11,8.57c-2.15,3.02 -7.98,4.57 -6.82,8.92c1.17,4.35 18.14,14.26 25.29,5.36c5.79,-7.21 -4.04,-21.34 -11.36,-22.85z" fill="#6ADBC9" id="svg_36"/>
    <path d="m46.2,320.46c-3.23,-2.55 -6.37,-5.65 -9.1,-9.1c-0.1,0.16 -0.19,0.32 -0.29,0.46c-2.15,3.02 -7.98,4.57 -6.82,8.92c1.16,4.34 18.01,14.17 25.2,5.45c-3.15,-1.59 -6.17,-3.5 -8.99,-5.73z" fill="#6ADBC9" id="svg_37" opacity="0.35"/>
    <path d="m45.68,309.69c0.1,0.07 0.17,0.13 0.34,0.27c0.15,0.11 0.29,0.23 0.43,0.35c0.29,0.25 0.57,0.5 0.85,0.77c0.57,0.55 1.1,1.13 1.61,1.74c0.11,0.14 0.22,0.28 0.34,0.42c-0.09,-0.11 0.05,0.07 0.07,0.11c0.06,0.08 0.12,0.16 0.18,0.24c0.23,0.31 0.44,0.63 0.65,0.95c0.42,0.67 0.82,1.35 1.22,2.03c0.27,0.46 0.86,0.66 1.35,0.44c0.44,-0.19 0.82,-0.76 0.62,-1.27c-1.3,-3.23 -3.76,-5.94 -6.52,-8.01c-0.48,-0.35 -1.28,-0.09 -1.55,0.41c-0.31,0.6 -0.1,1.17 0.41,1.55l0,0z" fill="#C5F1EA" id="svg_38" opacity="0.85"/>
    <path d="m52.62,319.35c0.13,0.38 0.24,0.77 0.33,1.16c0.04,0.2 0.08,0.4 0.12,0.6c0.02,0.1 0.04,0.2 0.07,0.29c0.06,0.17 0.14,0.32 0.23,0.47c0.19,0.35 0.6,0.52 0.98,0.47c0.37,-0.05 0.74,-0.32 0.82,-0.7c0.04,-0.18 0.09,-0.37 0.09,-0.54c0.01,-0.18 -0.04,-0.39 -0.07,-0.57c-0.04,-0.2 -0.09,-0.4 -0.15,-0.59c-0.14,-0.48 -0.33,-0.94 -0.52,-1.39c-0.09,-0.22 -0.4,-0.43 -0.62,-0.48c-0.23,-0.05 -0.46,-0.04 -0.68,0.05c-0.45,0.19 -0.77,0.74 -0.6,1.23l0,0z" fill="#C5F1EA" id="svg_39" opacity="0.85"/>
   </g>
   <g id="svg_40">
    <path d="m59.77,311.24c1.34,3.46 10.36,2.53 9.08,-2.52c-1.27,-5.05 -10.42,-0.94 -9.08,2.52z" fill="#6ADBC9" id="svg_41"/>
    <path d="m63.17,310.56c0.24,-0.18 0.5,-0.33 0.78,-0.45c-0.09,0.04 -0.18,0.08 -0.27,0.11c0.3,-0.12 0.62,-0.21 0.95,-0.26c-0.1,0.02 -0.21,0.03 -0.31,0.05c0.15,-0.02 0.29,-0.04 0.43,-0.06c-0.1,0.01 -0.2,0.03 -0.3,0.04c0.2,-0.03 0.41,-0.03 0.61,-0.03c0.59,0.03 1.16,-0.53 1.13,-1.13c-0.01,-0.29 -0.11,-0.59 -0.33,-0.8c-0.23,-0.21 -0.48,-0.31 -0.8,-0.33c-0.54,-0.03 -1.1,0.04 -1.62,0.21c-0.29,0.1 -0.58,0.22 -0.85,0.37c-0.28,0.15 -0.52,0.34 -0.77,0.54c-0.2,0.16 -0.34,0.54 -0.32,0.79c0.01,0.25 0.08,0.47 0.23,0.67c0.15,0.18 0.35,0.34 0.58,0.4c0.27,0.06 0.62,0.06 0.86,-0.12l0,0z" fill="#C5F1EA" id="svg_42" opacity="0.85"/>
   </g>
   <g id="svg_43">
    <path d="m64.25,323.95c-0.7,3.6 7.32,7.56 8.91,2.67c1.59,-4.89 -8.22,-6.26 -8.91,-2.67z" fill="#6ADBC9" id="svg_44"/>
    <path d="m67.97,325.76c0.05,0 0.1,0.01 0.15,0.01c-0.1,-0.01 -0.2,-0.02 -0.3,-0.04c0.26,0.04 0.53,0.1 0.79,0.19c0.12,0.04 0.24,0.09 0.36,0.13c0.13,0.05 0.26,0.09 0.39,0.14c0.15,0.05 0.29,0.05 0.44,0.02c0.15,-0.01 0.28,-0.05 0.41,-0.13c0.07,-0.06 0.15,-0.12 0.22,-0.17c0.11,-0.1 0.19,-0.22 0.23,-0.36c0.05,-0.08 0.08,-0.17 0.08,-0.27c0.03,-0.15 0.02,-0.3 -0.02,-0.44c-0.04,-0.09 -0.08,-0.18 -0.11,-0.27c-0.1,-0.16 -0.23,-0.29 -0.4,-0.39c-0.12,-0.09 -0.25,-0.17 -0.38,-0.23c-0.22,-0.11 -0.46,-0.2 -0.69,-0.27c-0.38,-0.11 -0.77,-0.17 -1.17,-0.21c-0.16,0 -0.3,0.03 -0.44,0.1c-0.14,0.05 -0.26,0.13 -0.37,0.24c-0.19,0.2 -0.34,0.52 -0.33,0.8c0.01,0.3 0.11,0.61 0.33,0.81c0.08,0.06 0.16,0.12 0.23,0.18c0.18,0.1 0.37,0.16 0.58,0.16l0,0z" fill="#C5F1EA" id="svg_45" opacity="0.85"/>
   </g>
   <g id="svg_46">
    <path d="m55.68,333.12c-4.16,2.44 -1.07,13.82 5.15,11.12c6.21,-2.7 -0.99,-13.57 -5.15,-11.12z" fill="#6ADBC9" id="svg_47"/>
    <path d="m57.99,338.23c0.09,0.09 0.17,0.18 0.24,0.28c-0.06,-0.07 -0.11,-0.15 -0.17,-0.23c0.2,0.28 0.37,0.57 0.5,0.88c-0.03,-0.09 -0.07,-0.18 -0.11,-0.27c0.16,0.38 0.26,0.78 0.32,1.19c-0.01,-0.1 -0.03,-0.2 -0.04,-0.3c0.04,0.34 0.04,0.68 0.01,1.01c-0.03,0.25 0.14,0.61 0.31,0.78c0.18,0.16 0.39,0.26 0.63,0.3c0.49,0.06 1.11,-0.25 1.2,-0.79c0.13,-0.79 0.13,-1.6 -0.11,-2.38c-0.24,-0.77 -0.64,-1.47 -1.19,-2.07c-0.4,-0.43 -1.19,-0.43 -1.59,0c-0.43,0.47 -0.42,1.13 0,1.6l0,0z" fill="#C5F1EA" id="svg_48" opacity="0.85"/>
   </g>
   <g id="svg_49">
    <path d="m42.94,335.6c-3.71,-0.09 -6.32,8.61 -1.16,9.36c5.17,0.76 4.87,-9.27 1.16,-9.36z" fill="#6ADBC9" id="svg_50"/>
    <path d="m42,340.25c0,0.03 -0.01,0.06 -0.01,0.1c0.01,-0.1 0.03,-0.2 0.04,-0.29c-0.02,0.16 -0.06,0.33 -0.1,0.49c-0.02,0.08 -0.05,0.16 -0.07,0.23c-0.04,0.1 -0.04,0.22 -0.06,0.33c0,0.02 0,0.04 0,0.06c0,0.04 -0.01,0.09 -0.02,0.13c0.02,-0.09 0.03,-0.18 0.04,-0.27c0,0.01 0,0.02 0,0.04c-0.02,0.09 -0.03,0.18 -0.04,0.27c-0.01,0.14 0.02,0.27 0.09,0.39c0.02,0.09 0.07,0.16 0.13,0.23c0.07,0.11 0.17,0.2 0.29,0.26c0.08,0.04 0.16,0.07 0.24,0.1c0.09,0.02 0.18,0.03 0.27,0.04c0.14,0.01 0.28,-0.02 0.4,-0.09c0.12,-0.04 0.23,-0.11 0.33,-0.21c0.08,-0.1 0.16,-0.21 0.24,-0.32c0.09,-0.11 0.12,-0.2 0.18,-0.36c0.03,-0.09 0.06,-0.18 0.09,-0.28c0.08,-0.28 0.12,-0.56 0.15,-0.85c0.01,-0.15 -0.02,-0.29 -0.09,-0.43c-0.05,-0.13 -0.12,-0.25 -0.23,-0.35c-0.1,-0.1 -0.21,-0.18 -0.35,-0.22c-0.13,-0.07 -0.27,-0.1 -0.42,-0.1c-0.1,0.02 -0.2,0.03 -0.29,0.04c-0.19,0.05 -0.35,0.15 -0.48,0.28c-0.06,0.08 -0.12,0.15 -0.18,0.22c-0.1,0.17 -0.15,0.36 -0.15,0.56l0,0z" fill="#C5F1EA" id="svg_51" opacity="0.85"/>
   </g>
  </g>
  <g clip-path="url(#SVGID_00000113353668062756173240000010632634535300792477_)" id="svg_52">
   <g id="svg_53">
    <path d="m393.34,77.15c4.67,1.43 5.47,-5.05 7.89,-7.85c2.42,-2.8 8.36,-3.78 7.62,-8.22c-0.75,-4.44 -16.68,-15.89 -24.63,-7.72c-6.45,6.62 1.99,21.6 9.12,23.79z" fill="#FFD26C" id="svg_54"/>
    <path d="m392.71,59.83c2.97,2.84 5.8,6.21 8.19,9.9c0.11,-0.14 0.21,-0.29 0.33,-0.43c2.42,-2.8 8.36,-3.78 7.62,-8.22c-0.74,-4.42 -16.56,-15.8 -24.54,-7.81c2.98,1.89 5.81,4.07 8.4,6.56z" fill="#FFD26C" id="svg_55" opacity="0.57"/>
    <path d="m392.4,70.77c-1.16,-1.07 -2.19,-2.26 -3.08,-3.56c-0.85,-1.26 -1.49,-2.65 -2.13,-4.02c-0.22,-0.49 -0.8,-0.72 -1.3,-0.55c-0.46,0.16 -0.88,0.69 -0.73,1.21c0.96,3.22 3.06,6.14 5.53,8.39c0.45,0.41 1.09,0.55 1.59,0.12c0.42,-0.36 0.58,-1.18 0.12,-1.59l0,0z" fill="#FFEDC6" id="svg_56" opacity="0.85"/>
    <path d="m386.22,60.31c-0.1,-0.39 -0.17,-0.79 -0.22,-1.19c-0.02,-0.2 -0.04,-0.4 -0.06,-0.6c-0.02,-0.1 -0.02,-0.19 -0.04,-0.28c-0.03,-0.18 -0.12,-0.35 -0.19,-0.51c-0.16,-0.36 -0.56,-0.57 -0.94,-0.55c-0.38,0.02 -0.76,0.26 -0.88,0.64c-0.05,0.16 -0.13,0.35 -0.14,0.52c-0.01,0.17 0.01,0.35 0.03,0.52c0.01,0.21 0.05,0.42 0.09,0.62c0.08,0.41 0.18,0.81 0.31,1.21c0.02,0.14 0.07,0.26 0.15,0.37c0.07,0.12 0.16,0.22 0.28,0.29c0.2,0.15 0.52,0.23 0.77,0.17c0.26,-0.06 0.52,-0.19 0.67,-0.43c0.14,-0.22 0.23,-0.51 0.17,-0.78l0,0z" fill="#FFEDC6" id="svg_57" opacity="0.85"/>
   </g>
   <g id="svg_58">
    <path d="m378.34,67.71c-1,-3.57 -10.06,-3.5 -9.27,1.64c0.79,5.15 10.28,1.93 9.27,-1.64z" fill="#FFD26C" id="svg_59"/>
    <path d="m374.89,68.06c-0.25,0.16 -0.51,0.28 -0.78,0.37c0.09,-0.03 0.19,-0.06 0.28,-0.09c-0.31,0.1 -0.64,0.16 -0.97,0.18c0.1,-0.01 0.2,-0.01 0.3,-0.02c-0.26,0.01 -0.51,0.01 -0.77,-0.02c-0.58,-0.08 -1.2,0.43 -1.22,1.02c-0.02,0.3 0.06,0.61 0.26,0.84c0.21,0.22 0.46,0.34 0.76,0.39c0.54,0.09 1.1,0.06 1.63,-0.06c0.31,-0.07 0.61,-0.17 0.89,-0.29c0.3,-0.13 0.56,-0.3 0.82,-0.47c0.21,-0.14 0.37,-0.51 0.38,-0.75c0.01,-0.25 -0.04,-0.48 -0.18,-0.7c-0.13,-0.19 -0.32,-0.36 -0.54,-0.44c-0.27,-0.08 -0.61,-0.11 -0.86,0.04l0,0z" fill="#FFEDC6" id="svg_60" opacity="0.85"/>
   </g>
   <g id="svg_61">
    <path d="m375.1,54.65c1.03,-3.51 -6.57,-8.22 -8.61,-3.5c-2.05,4.71 7.57,7 8.61,3.5z" fill="#FFD26C" id="svg_62"/>
    <path d="m371.56,52.5c-0.04,-0.01 -0.07,-0.02 -0.1,-0.02c0.09,0.02 0.19,0.04 0.29,0.06c-0.38,-0.09 -0.75,-0.22 -1.09,-0.4c0.08,0.05 0.17,0.09 0.26,0.14c-0.16,-0.08 -0.31,-0.16 -0.47,-0.23c-0.08,-0.04 -0.15,-0.07 -0.22,-0.11c0.08,0.04 0.16,0.09 0.25,0.13c-0.01,0 -0.02,-0.01 -0.03,-0.01c-0.11,-0.09 -0.24,-0.14 -0.38,-0.16c-0.15,-0.05 -0.29,-0.05 -0.44,-0.02c-0.15,0.02 -0.28,0.08 -0.4,0.17c-0.12,0.07 -0.23,0.16 -0.3,0.29c-0.16,0.24 -0.25,0.53 -0.18,0.82c0.03,0.09 0.06,0.19 0.09,0.28c0.08,0.17 0.2,0.32 0.36,0.43c0.12,0.09 0.24,0.19 0.37,0.27c0.21,0.11 0.43,0.22 0.65,0.31c0.36,0.15 0.75,0.24 1.13,0.32c0.16,0.02 0.31,0 0.46,-0.06c0.14,-0.04 0.27,-0.11 0.39,-0.21c0.12,-0.1 0.2,-0.21 0.26,-0.35c0.08,-0.12 0.12,-0.26 0.13,-0.42c0.01,-0.3 -0.06,-0.61 -0.27,-0.84c-0.07,-0.06 -0.14,-0.13 -0.22,-0.19c-0.16,-0.12 -0.34,-0.18 -0.54,-0.2l0,0z" fill="#FFEDC6" id="svg_63" opacity="0.85"/>
   </g>
   <g id="svg_64">
    <path d="m384.48,46.34c4.36,-2.04 2.37,-13.65 -4.07,-11.54c-6.43,2.1 -0.3,13.58 4.07,11.54z" fill="#FFD26C" id="svg_65"/>
    <path d="m382.65,41.03c-0.06,-0.08 -0.11,-0.16 -0.17,-0.24c0.06,0.08 0.11,0.16 0.16,0.24c-0.19,-0.3 -0.34,-0.61 -0.45,-0.95c0.03,0.1 0.06,0.19 0.09,0.29c-0.12,-0.39 -0.19,-0.8 -0.21,-1.21c0,0.1 0.01,0.2 0.01,0.3c-0.01,-0.35 0.01,-0.7 0.09,-1.05c0.05,-0.24 -0.09,-0.62 -0.26,-0.8c-0.16,-0.18 -0.36,-0.29 -0.59,-0.35c-0.49,-0.11 -1.12,0.16 -1.26,0.68c-0.21,0.78 -0.28,1.58 -0.11,2.38c0.17,0.8 0.51,1.52 1,2.17c0.35,0.47 1.16,0.52 1.58,0.12c0.47,-0.44 0.5,-1.08 0.12,-1.58l0,0z" fill="#FFEDC6" id="svg_66" opacity="0.85"/>
   </g>
   <g id="svg_67">
    <path d="m397.38,45.08c3.68,0.44 7.1,-7.96 2.04,-9.2s-5.72,8.76 -2.04,9.2z" fill="#FFD26C" id="svg_68"/>
    <path d="m398.75,40.54c0.01,-0.02 0.01,-0.03 0.02,-0.05c-0.03,0.09 -0.05,0.19 -0.07,0.28c0.04,-0.17 0.09,-0.33 0.15,-0.5c0.03,-0.08 0.06,-0.16 0.09,-0.23c0.07,-0.16 0.09,-0.33 0.12,-0.5c-0.02,0.09 -0.03,0.18 -0.06,0.26c0.01,-0.02 0.01,-0.04 0.02,-0.06c0.02,-0.09 0.04,-0.17 0.06,-0.26c0.02,-0.14 0,-0.28 -0.06,-0.41c-0.01,-0.09 -0.05,-0.17 -0.11,-0.24c-0.06,-0.11 -0.15,-0.21 -0.27,-0.28c-0.08,-0.04 -0.15,-0.08 -0.23,-0.12c-0.09,-0.02 -0.17,-0.04 -0.26,-0.06c-0.14,-0.02 -0.28,0 -0.4,0.05c-0.14,0.03 -0.25,0.1 -0.36,0.19c-0.03,0.03 -0.06,0.07 -0.09,0.1c-0.07,0.08 -0.15,0.16 -0.22,0.25c-0.01,0 -0.02,0.01 -0.02,0.02c0,0.01 -0.01,0.01 -0.01,0.02c-0.04,0.08 -0.09,0.16 -0.13,0.24c-0.04,0.09 -0.08,0.19 -0.12,0.28c-0.1,0.27 -0.16,0.55 -0.22,0.83c-0.02,0.15 0,0.29 0.06,0.43c0.03,0.14 0.09,0.27 0.2,0.38c0.09,0.11 0.2,0.19 0.33,0.25c0.12,0.07 0.25,0.11 0.4,0.12c0.1,0 0.19,-0.01 0.29,-0.01c0.2,-0.04 0.37,-0.12 0.52,-0.25c0.06,-0.07 0.12,-0.14 0.18,-0.21c0.11,-0.15 0.18,-0.33 0.19,-0.52l0,0z" fill="#FFEDC6" id="svg_69" opacity="0.85"/>
   </g>
  </g>
  <g clip-path="url(#SVGID_00000113353668062756173240000010632634535300792477_)" id="svg_70">
   <path d="m229.12,143.23c-1.34,0.41 -13.59,-6.27 -17.84,-13.84c-4.26,-7.56 2.71,-11.22 7.11,-7.18c4.4,4.03 5.95,8.29 5.95,8.29s-0.4,-4.61 0.81,-10.82c1.08,-5.54 9.46,-5.42 9.99,1.16c0.8,9.97 -4.74,22 -6.02,22.39z" fill="#FA55A5" id="svg_71"/>
   <path d="m227.27,136.45c-6.16,-4.07 -10.98,-9.45 -14.5,-15.63c-2.55,0.9 -4.05,4.03 -1.49,8.57c4.25,7.57 16.5,14.25 17.84,13.84c0.45,-0.14 1.44,-1.74 2.5,-4.2c-1.49,-0.79 -2.93,-1.65 -4.35,-2.58z" fill="#FA55A5" id="svg_72" opacity="0.22"/>
   <path d="m232.23,123.04c0.04,1.33 -0.01,2.65 -0.14,3.97c-0.14,1.31 -0.46,2.57 -0.67,3.87c-0.08,0.53 0.68,0.98 0.95,0.4c0.6,-1.25 0.76,-2.71 0.9,-4.07c0.15,-1.38 0.21,-2.78 0.16,-4.17c-0.02,-0.77 -1.22,-0.77 -1.2,0l0,0z" fill="#FDB8D9" id="svg_73" opacity="0.96"/>
   <path d="m233.14,120.94c-0.08,-0.37 -0.21,-0.72 -0.36,-1.05c-0.07,-0.15 -0.15,-0.3 -0.24,-0.43c-0.06,-0.1 -0.13,-0.2 -0.21,-0.29c-0.07,-0.1 -0.18,-0.17 -0.29,-0.23c-0.18,-0.11 -0.42,-0.08 -0.58,0.04c-0.16,0.13 -0.24,0.34 -0.18,0.55c0.03,0.13 0.07,0.25 0.14,0.38c0.05,0.09 0.11,0.17 0.16,0.26c0.09,0.18 0.18,0.36 0.26,0.55c-0.02,-0.05 -0.04,-0.09 -0.06,-0.14c0.09,0.22 0.17,0.44 0.23,0.67c0.07,0.3 0.42,0.51 0.72,0.41c0.32,-0.1 0.49,-0.4 0.41,-0.72l0,0z" fill="#FDB8D9" id="svg_74" opacity="0.96"/>
  </g>
  <g clip-path="url(#SVGID_00000113353668062756173240000010632634535300792477_)" id="svg_75">
   <path d="m420.31,205.24c3.85,1.27 39.88,-17.34 52.74,-39.02c12.85,-21.69 -7.15,-32.78 -20.19,-21.35c-13.05,11.43 -17.85,23.71 -17.85,23.71s1.5,-13.38 -1.62,-31.5c-2.78,-16.15 -27.13,-16.37 -29.1,2.72c-2.98,28.91 12.32,64.22 16.02,65.44z" fill="#FA55A5" id="svg_76"/>
   <path d="m467.48,140.66c-14.25,20.28 -33.8,36.19 -55.75,47.99c3.43,9.54 7.03,16.08 8.58,16.59c3.85,1.27 39.88,-17.34 52.74,-39.02c8.33,-14.05 2.86,-23.65 -5.57,-25.56z" fill="#FA55A5" id="svg_77" opacity="0.22"/>
   <path d="m412.48,134.56c-0.54,0.89 -0.97,1.82 -1.35,2.79c-0.16,0.4 -0.3,0.81 -0.41,1.23c-0.16,0.58 -0.22,1.18 -0.28,1.77c-0.05,0.41 0.23,0.99 0.52,1.26c0.29,0.27 0.63,0.44 1.03,0.49c0.89,0.12 1.68,-0.42 1.95,-1.28c0.3,-0.93 0.63,-1.87 1.01,-2.78c-0.07,0.15 -0.13,0.31 -0.2,0.46c0.3,-0.69 0.64,-1.37 1.03,-2.01c0.51,-0.86 0.22,-2.14 -0.69,-2.62c-0.92,-0.49 -2.06,-0.23 -2.61,0.69l0,0z" fill="#FDB8D9" id="svg_78" opacity="0.96"/>
   <path d="m409.19,148.89c-0.72,6.05 -0.05,12.41 2.42,18.01c0.84,1.91 4.02,0.55 3.37,-1.42c-0.88,-2.7 -1.67,-5.44 -2.08,-8.26c-0.4,-2.75 -0.42,-5.56 -0.17,-8.33c0.09,-0.95 -0.87,-1.77 -1.77,-1.77c-1.05,0 -1.66,0.82 -1.77,1.77l0,0z" fill="#FDB8D9" id="svg_79" opacity="0.96"/>
  </g>
  <g id="svg_80">
   <g id="svg_81">
    <path d="m168.49,411.39c0,0 -18.39,-6.74 -23.51,-27.87c-5.12,-21.13 6.42,-36.17 1.25,-60.63c-5.71,-27.01 -23.67,-32.88 -26.94,-32.63c-3.26,0.24 0.92,12.29 0.92,12.29s-7.28,-4.11 -9.06,-2.05c-1.77,2.06 6.73,11.96 6.73,11.96s-6.66,-1.98 -8.56,0.23c-1.9,2.2 9.21,13.05 9.21,13.05s-8.67,-3.19 -9.36,0.06c-0.69,3.26 8.33,12.74 8.33,12.74s-9.14,-3.2 -10.28,0.02c-1.05,2.98 11.3,12.76 11.3,12.76s-10.54,-1.36 -10.33,1.52c0.22,2.88 10.29,10.07 10.29,10.07c0.02,0.39 -8.81,11.35 -7.12,12.8c1.69,1.46 10.43,-0.72 10.43,-0.72s-4.5,18.99 -2.88,20.39c1.62,1.39 10.53,-3.41 10.53,-3.41s-3.18,18.85 -0.11,21.5c2.47,2.12 10.86,-5.82 10.86,-5.82s1.62,15.34 4.69,15.9c1.89,0.35 5.78,-5.68 5.78,-5.68s5.09,11.54 19.68,14.12l-1.85,-20.6z" fill="#FFF0EB" id="svg_82"/>
    <path d="m168.49,411.39c0,0 -18.39,-6.74 -23.51,-27.87c-5.12,-21.13 6.42,-36.17 1.25,-60.63c-0.36,-1.73 -0.78,-3.37 -1.24,-4.93c0.56,14.72 -3.16,29.22 -6.17,43.56c-3.12,14.87 -6.36,33.55 -3.18,49.86c2.42,-1.73 4.55,-3.73 4.55,-3.73s1.62,15.34 4.68,15.9c1.9,0.35 5.79,-5.68 5.79,-5.68s5.09,11.54 19.68,14.12l-1.85,-20.6z" fill="#FFF0EB" id="svg_83"/>
    <path d="m124.28,297.83c3.81,3.42 7.06,7.32 9.96,11.52c0.38,0.56 1.1,0.82 1.72,0.45c0.58,-0.33 0.81,-1.14 0.45,-1.72c-2.79,-4.5 -6.38,-8.53 -10.34,-12.03c-0.51,-0.45 -1.28,-0.51 -1.79,0c-0.46,0.46 -0.5,1.32 0,1.78l0,0z" fill="#FFFAF8" id="svg_84"/>
    <path d="m136.77,313.82c0.36,1.24 0.7,2.49 1.13,3.71c0.11,0.31 0.28,0.58 0.57,0.75c0.27,0.16 0.67,0.22 0.97,0.13c0.66,-0.22 1.05,-0.87 0.88,-1.55c-0.32,-1.25 -0.73,-2.48 -1.1,-3.71c-0.2,-0.64 -0.9,-1.11 -1.57,-0.89c-0.64,0.21 -1.09,0.88 -0.88,1.56l0,0z" fill="#FFFAF8" id="svg_85"/>
    <path d="m114.52,317.17c0.61,0.89 1.21,1.78 1.82,2.67c0.65,0.95 1.3,1.88 2.07,2.75c0.38,0.43 1.08,0.42 1.51,0.09c0.46,-0.36 0.56,-0.97 0.29,-1.48c-0.24,-0.47 -0.49,-0.92 -0.77,-1.36c-0.29,-0.45 -0.6,-0.9 -0.9,-1.34c-0.6,-0.88 -1.2,-1.75 -1.8,-2.63c-0.38,-0.55 -1.15,-0.85 -1.76,-0.46c-0.55,0.36 -0.87,1.17 -0.46,1.76l0,0z" fill="#FFFAF8" id="svg_86"/>
    <path d="m112.5,342.82c0.59,0.9 1.25,1.76 1.97,2.55c0.72,0.81 1.52,1.51 2.38,2.17c0.23,0.17 0.71,0.21 0.98,0.12c0.26,-0.08 0.48,-0.23 0.65,-0.45c0.36,-0.46 0.4,-1.26 -0.09,-1.66c-0.74,-0.6 -1.45,-1.25 -2.1,-1.95c-0.32,-0.34 -0.62,-0.69 -0.92,-1.05c-0.03,-0.05 -0.07,-0.09 -0.11,-0.14c-0.12,-0.16 -0.02,-0.03 0.04,0.05c-0.08,-0.09 -0.15,-0.2 -0.22,-0.29c-0.15,-0.2 -0.29,-0.4 -0.42,-0.61c-0.37,-0.54 -1.12,-0.83 -1.71,-0.44c-0.54,0.35 -0.83,1.12 -0.45,1.7l0,0z" fill="#FFFAF8" id="svg_87"/>
    <path d="m122.53,380.94c-0.17,1.18 -0.34,2.36 -0.5,3.54c-0.09,0.65 -0.18,1.3 -0.25,1.95c-0.03,0.28 -0.09,0.58 -0.1,0.87c-0.01,0.36 0.05,0.73 0.11,1.08c0.15,0.9 1.6,1.08 1.98,0.26c0.15,-0.32 0.31,-0.66 0.4,-1.01c0.06,-0.26 0.08,-0.53 0.13,-0.79c0.09,-0.58 0.17,-1.16 0.25,-1.73c0.16,-1.16 0.32,-2.32 0.47,-3.48c0.05,-0.36 0.06,-0.67 -0.13,-1c-0.16,-0.27 -0.47,-0.52 -0.77,-0.59c-0.61,-0.14 -1.49,0.19 -1.59,0.9l0,0z" fill="#FFFAF8" id="svg_88"/>
   </g>
   <g id="svg_89">
    <path d="m427.75,382.12c-0.42,1.75 4.59,15.42 6.85,22.28c3.64,11.09 2.35,16.6 -0.93,22.52c-2.43,4.36 6.93,4.26 10.4,1.58c4.16,-3.2 8.72,-10.83 7.79,-21.18c-0.91,-10.14 -6.34,-26.32 -8.76,-28.74s-14.68,0.7 -15.35,3.54z" fill="#251637" id="svg_90"/>
    <path d="m438.51,404.99c0.66,1.57 1.14,3.21 1.42,4.89c0.28,1.67 0.13,3.39 0.46,5.05c0.21,1.09 1.76,0.93 2.06,0c0.55,-1.75 0.21,-3.85 -0.09,-5.62c-0.31,-1.83 -0.87,-3.57 -1.59,-5.28c-0.23,-0.56 -1.04,-0.72 -1.54,-0.5c-0.51,0.22 -0.96,0.88 -0.72,1.46l0,0z" fill="#B5B0BB" id="svg_91" opacity="0.75"/>
    <path d="m439.9,420.58c-0.13,0.96 -0.27,1.91 -0.37,2.87c-0.02,0.28 0.16,0.68 0.36,0.86c0.2,0.19 0.43,0.3 0.7,0.34c0.26,0.04 0.55,0 0.78,-0.15c0.25,-0.16 0.5,-0.42 0.56,-0.72c0.16,-0.95 0.27,-1.91 0.39,-2.87c0.03,-0.28 -0.16,-0.68 -0.36,-0.87c-0.2,-0.19 -0.43,-0.3 -0.71,-0.34c-0.26,-0.03 -0.55,0 -0.78,0.15c-0.25,0.16 -0.53,0.43 -0.57,0.73l0,0z" fill="#B5B0BB" id="svg_92" opacity="0.75"/>
   </g>
   <g id="svg_93">
    <path d="m402.78,375.67c-0.44,1.62 3.82,15.38 5.71,21.84c3.04,10.44 1.66,15.53 -1.59,20.94c-2.39,3.99 6.33,4.19 9.65,1.8c3.97,-2.85 8.46,-9.81 7.92,-19.48c-0.52,-9.47 -5.07,-24.72 -7.25,-27.05c-2.17,-2.33 -13.72,-0.67 -14.44,1.95z" fill="#251637" id="svg_94"/>
    <path d="m305.98,325.63c-16.14,26.48 -16.76,72.83 -3.09,86.5c13.67,13.66 98.24,-7.88 104.12,-11.06c2.67,-1.45 2.08,-27.55 -1.68,-27.56c-7.37,0 -22.32,2.9 -24.4,-2.55c-2.09,-5.44 6.38,-53.22 3.22,-56.38c-3.17,-3.16 -72.25,1.32 -78.17,11.05z" fill="#507FE1" id="svg_95"/>
    <path d="m305.98,325.63c-16.14,26.48 -16.76,72.83 -3.09,86.5c13.67,13.66 98.24,-7.88 104.12,-11.06c2.67,-1.45 2.08,-27.55 -1.68,-27.56c-7.37,0 -22.32,2.9 -24.4,-2.55c-2.09,-5.44 6.38,-53.22 3.22,-56.38c-3.17,-3.16 -72.25,1.32 -78.17,11.05z" fill="#507FE1" id="svg_96" opacity="0.4"/>
    <path d="m413.02,418.22c0.24,-0.32 0.48,-0.64 0.72,-0.97c0.24,-0.33 0.46,-0.66 0.69,-0.99c0.09,-0.14 0.13,-0.29 0.14,-0.46c0.04,-0.16 0.03,-0.32 -0.02,-0.49c-0.04,-0.09 -0.08,-0.19 -0.12,-0.29c-0.08,-0.14 -0.19,-0.26 -0.32,-0.34c-0.21,-0.16 -0.47,-0.28 -0.74,-0.27c-0.31,0.02 -0.67,0.12 -0.87,0.36c-0.32,0.39 -0.64,0.78 -0.94,1.18c-0.25,0.33 -0.5,0.65 -0.75,0.98c-0.09,0.15 -0.14,0.31 -0.15,0.48c-0.04,0.17 -0.03,0.34 0.02,0.51c0.09,0.29 0.31,0.61 0.59,0.76c0.3,0.16 0.66,0.23 0.98,0.13c0.11,-0.05 0.21,-0.09 0.31,-0.13c0.19,-0.12 0.35,-0.27 0.46,-0.46l0,0z" fill="#B5B0BB" id="svg_97" opacity="0.75"/>
   </g>
   <g id="svg_98">
    <path d="m395.04,333.28c0,6.15 -4.86,37.12 -15.11,56.01c0,0 46.31,-9.55 48.53,-9.55s7.88,14.89 5.99,16.78c-1.89,1.89 -37.74,30.51 -74.09,38.21c-36.35,7.69 -59.06,-3.71 -62.91,-26.42c-3.86,-22.71 10.4,-63.23 10.4,-63.23l87.19,-11.8z" fill="#507FE1" id="svg_99"/>
    <path d="m354.12,338.82l-46.26,6.26c0,0 -14.27,40.52 -10.41,63.23c3.63,21.37 23.96,32.72 56.64,27.57c-7.27,-31.56 -5.87,-64.92 0.03,-97.06z" fill="#507FE1" id="svg_100" opacity="0.12"/>
    <path d="m381.52,353.64c-0.98,5.19 -2.4,10.29 -4.17,15.26c-0.29,0.82 0.33,1.75 1.12,1.97c0.9,0.25 1.66,-0.31 1.97,-1.12c1.89,-4.94 3.28,-10.03 4.24,-15.23c0.16,-0.87 -0.24,-1.77 -1.15,-2.02c-0.8,-0.22 -1.85,0.27 -2.01,1.14l0,0z" fill="#9BB6EE" id="svg_101" opacity="0.75"/>
    <path d="m375.31,375.13c-0.25,0.81 -0.51,1.61 -0.77,2.41c-0.13,0.39 -0.25,0.78 -0.38,1.17c-0.16,0.52 -0.23,1.05 -0.27,1.6c-0.04,0.62 0.49,1.29 1.09,1.43c0.64,0.14 1.34,-0.1 1.68,-0.68c0.27,-0.48 0.49,-0.96 0.65,-1.49c0.11,-0.39 0.23,-0.78 0.34,-1.17c0.24,-0.81 0.48,-1.62 0.72,-2.43c0.24,-0.79 -0.28,-1.76 -1.11,-1.95c-0.86,-0.2 -1.67,0.26 -1.95,1.11l0,0z" fill="#9BB6EE" id="svg_102" opacity="0.75"/>
    <path d="m397.31,395.45c5.58,-1.58 11.17,-3.13 16.71,-4.81c2.04,-0.61 1.19,-3.74 -0.88,-3.19c-5.6,1.49 -11.16,3.11 -16.74,4.7c-2.11,0.6 -1.22,3.9 0.91,3.3l0,0z" fill="#9BB6EE" id="svg_103" opacity="0.75"/>
    <path d="m420.08,389.2c0.75,0 1.5,-0.09 2.23,-0.23c0.73,-0.14 1.43,-0.42 2.1,-0.74c0.33,-0.15 0.66,-0.62 0.74,-0.97c0.09,-0.36 0.07,-0.71 -0.08,-1.06c-0.3,-0.7 -1.15,-1.2 -1.92,-0.94c-0.82,0.28 -1.67,0.5 -2.53,0.62c0.14,-0.02 0.29,-0.04 0.44,-0.06c-0.33,0.05 -0.65,0.07 -0.98,0.09c-0.43,0.01 -0.86,0.17 -1.17,0.48c-0.28,0.28 -0.5,0.75 -0.48,1.16c0.04,0.89 0.72,1.66 1.65,1.65l0,0z" fill="#9BB6EE" id="svg_104" opacity="0.75"/>
   </g>
   <path d="m357.59,209.31c-8.18,0.78 -36.55,5.52 -40.85,13.67c-4.31,8.15 -3.69,24.9 0.34,28.92c4.02,4.03 39.25,-1.6 48.68,-11.03c9.42,-9.42 15.85,-26.64 13.47,-29.03c-2.39,-2.38 -15.21,-3.16 -21.64,-2.53z" fill="#E69D87" id="svg_105"/>
   <path d="m305.49,239.25c0,0 15.38,6.81 37.9,1.41c22.53,-5.39 27.28,-19.46 27.28,-31.23c0,-2.08 22.86,17.2 24.54,60.12c1.68,42.91 2.85,63.56 1.68,64.73c-1.17,1.17 -20.82,10.81 -46.66,14.32c-25.84,3.51 -46.76,4.56 -49.07,2.26c-2.3,-2.31 4.33,-111.61 4.33,-111.61z" fill="#5AD7C3" id="svg_106"/>
   <g id="svg_107">
    <path d="m191.88,251.6c-2.13,13.42 0.92,26.78 -1.5,29.25c-2.43,2.47 4.34,0.3 5.45,1.43c1.1,1.12 -9.12,8.38 -7.3,10.24c1.83,1.85 9.19,-1.88 10.49,-0.56c1.29,1.32 -2.91,9.92 -11.94,27.09c-9.02,17.17 -17.1,27.16 -16.59,31.65c0.33,2.91 8.34,1.68 8.34,1.68s-14.61,15.37 -14.61,19.39c0,3.31 8.44,2.54 8.44,2.54s-9.47,7.58 -13.23,29.67c-3.76,22.08 2.87,36.35 9.41,39.58c10.2,5.03 45.55,9.12 64.78,7.59c19.23,-1.53 32.25,-3.38 28.74,-13.33c0,0 18.38,-5.03 28.78,-7.47c10.41,-2.45 -7.88,-168.25 -11.56,-172c-3.68,-3.74 -84.7,-25.66 -87.7,-6.75z" fill="#FFF0EB" id="svg_108"/>
    <path d="m279.58,258.35c-0.62,-0.63 -3.46,-1.78 -7.75,-3.17c-3.23,16.23 -5.5,40.15 -6.71,56.68c-2.2,29.84 -1.01,130.91 -2.76,125.95c0,0 18.38,-5.02 28.78,-7.47c10.41,-2.44 -7.88,-168.24 -11.56,-171.99z" fill="#FFF0EB" id="svg_109"/>
    <path d="m201.94,368.16c10.31,-1.51 21.08,2.13 28.69,9.16c7.97,7.37 11.74,18.14 10.89,28.89c-0.49,6.13 -2.51,12.1 -5.93,17.22c-0.62,0.92 0.86,1.77 1.48,0.86c6.49,-9.58 8.03,-22.21 4.44,-33.17c-3.46,-10.54 -11.74,-18.77 -22.07,-22.65c-5.72,-2.15 -11.9,-2.83 -17.94,-1.93c-1.07,0.16 -0.62,1.78 0.44,1.62l0,0z" fill="#F2CEC3" id="svg_110" opacity="0.57"/>
    <path d="m234.7,429.97c4.49,-1.35 9.53,-0.2 13,2.94c0.8,0.72 1.36,1.64 2.11,2.37c0.75,0.72 1.5,0.45 2.37,0.17c2.35,-0.74 4.65,0.49 5.9,2.49c0.55,0.88 1.74,0.11 1.36,-0.8c-0.88,-2.09 -3.07,-3.41 -5.28,-3.62c-0.61,-0.06 -1.22,-0.03 -1.83,0.09c-0.39,0.07 -1.04,0.46 -1.39,0.31c-0.4,-0.17 -0.94,-1.18 -1.26,-1.51c-0.44,-0.46 -0.91,-0.89 -1.41,-1.29c-3.91,-3.12 -9.21,-4.25 -14.02,-2.8c-1.05,0.32 -0.61,1.97 0.45,1.65l0,0z" fill="#F2CEC3" id="svg_111" opacity="0.57"/>
    <path d="m209.85,377.95c4.48,-0.38 8.92,0.71 12.65,3.26c3.39,2.32 5.78,5.67 7.41,9.4c0.74,1.68 3.56,0.48 2.98,-1.26c-3.17,-9.59 -13.05,-15.74 -23.04,-14.8c-0.92,0.09 -1.7,0.72 -1.7,1.7c0,0.86 0.78,1.78 1.7,1.7l0,0z" fill="#FFFAF8" id="svg_112"/>
    <path d="m232.34,395.24c0.16,0.71 0.28,1.43 0.38,2.15c-0.02,-0.15 -0.04,-0.29 -0.06,-0.44c0.17,1.25 0.26,2.51 0.3,3.77c0.03,0.86 0.73,1.68 1.64,1.64c0.91,-0.04 1.6,-0.72 1.64,-1.64c0.07,-2.13 -0.22,-4.28 -0.71,-6.35c-0.21,-0.85 -1.21,-1.43 -2.04,-1.16c-0.89,0.29 -1.35,1.13 -1.15,2.03l0,0z" fill="#FFFAF8" id="svg_113"/>
    <path d="m164,406.41c-0.52,2.55 -0.85,5.14 -0.98,7.74c-0.13,2.59 -0.12,5.23 0.61,7.73c0.43,1.49 2.5,1.11 2.62,-0.36c0.18,-2.4 0.01,-4.81 0.1,-7.22c0.09,-2.36 0.36,-4.7 0.8,-7.02c0.17,-0.87 -0.24,-1.77 -1.14,-2.02c-0.81,-0.22 -1.84,0.28 -2.01,1.15l0,0z" fill="#FFFAF8" id="svg_114"/>
    <path d="m164.58,428.85c-0.23,2.4 0.59,4.88 2.27,6.62c0.59,0.61 1.69,0.63 2.27,0c0.28,-0.31 0.49,-0.71 0.47,-1.14c-0.02,-0.45 -0.19,-0.78 -0.47,-1.13c-0.1,-0.13 -0.07,-0.09 0.09,0.12c-0.03,-0.05 -0.07,-0.1 -0.1,-0.15c-0.05,-0.07 -0.1,-0.14 -0.15,-0.21c-0.11,-0.16 -0.22,-0.32 -0.32,-0.48c-0.21,-0.34 -0.39,-0.7 -0.55,-1.07c0.06,0.13 0.11,0.26 0.17,0.39c-0.3,-0.71 -0.53,-1.44 -0.63,-2.21c0.02,0.14 0.03,0.28 0.05,0.42c-0.05,-0.39 -0.07,-0.77 -0.06,-1.16c0.01,-0.8 -0.71,-1.56 -1.52,-1.52c-0.89,0.04 -1.44,0.67 -1.52,1.52l0,0z" fill="#FFFAF8" id="svg_115"/>
    <path d="m174.6,367.91c0.81,-0.8 1.62,-1.59 2.43,-2.38c0.4,-0.4 0.81,-0.78 1.2,-1.18c0.48,-0.49 0.88,-1.03 1.29,-1.57c0.06,-0.12 0.11,-0.24 0.16,-0.37c0.06,-0.2 0.07,-0.41 0.03,-0.61c-0.05,-0.33 -0.18,-0.66 -0.43,-0.89c-0.2,-0.18 -0.43,-0.32 -0.68,-0.4c-0.34,-0.11 -0.9,-0.06 -1.19,0.16c-0.54,0.39 -1.07,0.78 -1.56,1.23c-0.42,0.39 -0.83,0.8 -1.24,1.2c-0.82,0.79 -1.63,1.58 -2.45,2.37c-0.65,0.63 -0.68,1.81 0,2.44c0.7,0.63 1.75,0.67 2.44,0l0,0z" fill="#FFFAF8" id="svg_116"/>
    <path d="m180.66,344.71c0.58,-0.95 1.17,-1.9 1.75,-2.85c0.29,-0.46 0.6,-0.92 0.86,-1.4c0.24,-0.42 0.47,-0.89 0.48,-1.38c0.01,-0.51 -0.15,-0.99 -0.49,-1.38c0.1,0.17 0.2,0.34 0.29,0.51c0,-0.02 -0.01,-0.05 -0.02,-0.07c-0.17,-0.4 -0.53,-0.83 -1.02,-0.78c0.31,0.05 0.25,0.05 -0.17,-0.01c-0.15,0.01 -0.3,0.03 -0.44,0.06c-0.22,0.05 -0.43,0.14 -0.62,0.25c-0.39,0.24 -0.68,0.65 -0.93,1.03c-0.31,0.47 -0.58,0.97 -0.87,1.46c-0.57,0.96 -1.14,1.92 -1.7,2.88c-0.45,0.75 -0.2,1.86 0.59,2.28c0.82,0.43 1.8,0.19 2.29,-0.6l0,0z" fill="#FFFAF8" id="svg_117"/>
   </g>
   <g id="svg_118">
    <path d="m259.79,121.77c-2.08,-0.14 3.48,51.17 25.48,73.17c22.01,22 70.06,19.21 84.32,0.03c7.67,-10.34 9.44,-32.79 6.77,-53.33c-3.49,-26.82 -11.55,-38.06 -13.01,-39.51c-1.45,-1.46 -24.25,-9.21 -44.14,-2.84c-27.85,8.92 -38.93,23.83 -59.42,22.48z" fill="#251637" id="svg_119"/>
    <g id="svg_120" opacity="0.22">
     <path d="m321.91,159.51c-7.59,-17.78 -16.64,-34.87 -19.32,-53.51c-5.17,2.52 -9.73,5.08 -14.02,7.4c2.45,34.5 12.5,68.83 33.27,96.71c5.2,0.45 10.42,0.37 15.44,-0.18c-2.97,-17.33 -8.45,-34.23 -15.37,-50.42z" fill="#251637" id="svg_121"/>
     <path d="m372.84,153.53c1.71,6.31 3,12.67 3.96,19.05c1.13,-9.58 0.92,-20.51 -0.44,-30.94c-3.49,-26.82 -11.55,-38.06 -13.01,-39.51c-0.58,-0.59 -4.62,-2.19 -10.54,-3.48c8.21,17.72 14.99,36.29 20.03,54.88z" fill="#251637" id="svg_122"/>
     <path d="m355.93,156.2c-5.77,-20.26 -13.37,-40.34 -22.83,-59.3c-4.59,0.22 -9.32,0.93 -13.89,2.39c-0.25,0.08 -0.49,0.17 -0.73,0.25c1.05,20.94 14.16,41.28 21.72,60.01c6.04,14.99 10.8,30.56 13.64,46.46c2.98,-1.16 5.71,-2.55 8.15,-4.14c0.01,-15.39 -1.81,-30.74 -6.06,-45.67z" fill="#251637" id="svg_123"/>
     <path d="m272.17,120.55c-3.86,1.03 -7.89,1.51 -12.38,1.22c-2.08,-0.14 3.48,51.17 25.48,73.17c3.5,3.5 7.67,6.37 12.25,8.65c-14.49,-25.3 -22.47,-53.73 -25.35,-83.04z" fill="#251637" id="svg_124"/>
    </g>
    <path d="m315.41,108.07c9.91,-3.71 20.38,-4.8 30.88,-3.69c1.37,0.14 1.71,-2.23 0.33,-2.43c-10.71,-1.53 -21.78,-0.17 -31.9,3.63c-1.53,0.58 -0.87,3.07 0.69,2.49l0,0z" fill="#B9B4BF" id="svg_125" opacity="0.75"/>
    <path d="m351.14,105.58c2.14,0.51 4.26,1.14 6.36,1.83c0.59,0.2 1.32,-0.22 1.46,-0.83c0.15,-0.67 -0.2,-1.24 -0.83,-1.46c-2.08,-0.76 -4.21,-1.34 -6.37,-1.81c-0.6,-0.12 -1.3,0.18 -1.44,0.82c-0.14,0.61 0.18,1.29 0.82,1.45l0,0z" fill="#B9B4BF" id="svg_126" opacity="0.75"/>
    <path d="m264.47,129.13c2.38,-0.25 4.75,-0.63 7.08,-1.19c1.13,-0.27 2.25,-0.58 3.35,-0.93c1.16,-0.37 2.36,-0.76 3.35,-1.46c0.38,-0.26 0.6,-0.69 0.47,-1.16c-0.1,-0.39 -0.55,-0.8 -0.98,-0.75c-2.26,0.29 -4.42,1.25 -6.62,1.8c-2.19,0.55 -4.41,0.95 -6.65,1.19c-0.67,0.07 -1.25,0.52 -1.25,1.25c0,0.62 0.58,1.32 1.25,1.25l0,0z" fill="#B9B4BF" id="svg_127" opacity="0.75"/>
    <path d="m281.5,124.59c0.5,-0.08 0.99,-0.17 1.48,-0.28c0.23,-0.05 0.47,-0.1 0.7,-0.17c0.33,-0.09 0.64,-0.25 0.95,-0.4c0.08,-0.06 0.15,-0.12 0.23,-0.18c0.11,-0.1 0.19,-0.22 0.24,-0.37c0.09,-0.23 0.13,-0.5 0.06,-0.75c-0.06,-0.18 -0.16,-0.36 -0.3,-0.5c-0.17,-0.19 -0.55,-0.37 -0.81,-0.34c-0.34,0.04 -0.69,0.07 -1.02,0.15c-0.24,0.06 -0.47,0.13 -0.7,0.19c-0.49,0.12 -0.98,0.22 -1.47,0.31c-0.28,0.06 -0.58,0.32 -0.73,0.56c-0.15,0.26 -0.21,0.64 -0.12,0.94c0.1,0.29 0.28,0.57 0.56,0.72c0.1,0.04 0.19,0.08 0.29,0.12c0.21,0.06 0.43,0.06 0.64,0l0,0z" fill="#B9B4BF" id="svg_128" opacity="0.75"/>
   </g>
   <g id="svg_129">
    <path d="m304.48,258.64c8.06,27.26 7.55,65.81 9.29,89.85c1.74,24.04 -1.56,74.68 -1.56,77.57c0,0 9.1,2.88 9.1,6.71c0,3.6 -5.15,4.37 -5.15,4.37s2.85,4.05 1.59,5.57c-1.92,2.32 -13.27,-1.38 -13.27,-1.38s-4.39,3.96 -6.92,3.96c-2.52,0 -5.18,-4.29 -5.18,-4.29s-4.41,3.51 -7.32,3.51s-3.46,-5.71 -3.46,-5.71s-6.92,4.35 -8.84,2.43s2.77,-14.7 0.65,-31.9c-2.13,-17.2 -9.42,-91.52 -16.45,-123.97c-7.04,-32.45 43.59,-40.01 47.52,-26.72z" fill="#FFF0EB" id="svg_130"/>
    <path d="m304.32,388.77c0.32,4.54 0.49,9.09 0.48,13.64c-0.01,4.55 -0.29,9.09 -0.37,13.63c-0.04,2.12 2.96,1.99 3.2,0c1.11,-8.97 0.71,-18.27 0,-27.27c-0.16,-2.11 -3.46,-2.13 -3.31,0l0,0z" fill="#FFFAF8" id="svg_131"/>
    <path d="m307.67,381.05c0.06,-0.97 0.06,-1.94 0,-2.92c-0.04,-0.59 -0.1,-1.18 -0.19,-1.77c-0.03,-0.24 -0.07,-0.49 -0.13,-0.73c-0.05,-0.2 -0.12,-0.41 -0.23,-0.6c-0.1,-0.18 -0.28,-0.37 -0.42,-0.54c-0.33,-0.41 -0.99,-0.52 -1.47,-0.39c-0.52,0.14 -0.89,0.55 -1.05,1.05c-0.09,0.29 -0.16,0.58 -0.14,0.87c0.03,0.31 0.08,0.62 0.12,0.93c-0.02,-0.15 -0.04,-0.3 -0.06,-0.45c0.04,0.36 0.09,0.72 0.14,1.08c-0.02,-0.15 -0.04,-0.3 -0.06,-0.45c0.17,1.3 0.24,2.61 0.19,3.92c-0.03,0.86 0.78,1.69 1.65,1.65c0.94,-0.04 1.59,-0.72 1.65,-1.65l0,0z" fill="#FFFAF8" id="svg_132"/>
    <path d="m284.54,436.47c0.04,0.58 0.11,1.17 0.22,1.74c0.06,0.34 0.13,0.65 0.27,0.97c0.1,0.22 0.21,0.43 0.33,0.63c0.24,0.41 0.78,0.66 1.25,0.51c0.18,-0.06 0.34,-0.15 0.48,-0.28c0.19,-0.17 0.35,-0.52 0.33,-0.78c-0.04,-0.47 -0.08,-0.92 -0.18,-1.38c-0.09,-0.37 -0.15,-0.74 -0.2,-1.11c0.01,0.11 0.03,0.22 0.04,0.33c-0.03,-0.21 -0.05,-0.42 -0.07,-0.63c-0.03,-0.33 -0.12,-0.63 -0.36,-0.88c-0.21,-0.21 -0.57,-0.37 -0.87,-0.36c-0.32,0.02 -0.66,0.12 -0.88,0.36c-0.21,0.24 -0.38,0.55 -0.36,0.88l0,0z" fill="#FFFAF8" id="svg_133"/>
    <path d="m308.85,439.56c0.02,0 0.04,0 0.05,0.01c-0.11,-0.02 -0.22,-0.03 -0.34,-0.05c0.46,0.06 0.91,0.15 1.36,0.27c0.22,0.06 0.45,0.11 0.67,0.16c0.4,0.09 0.79,0.04 1.18,-0.02c0.34,-0.05 0.64,-0.41 0.72,-0.73c0.11,-0.37 -0.02,-0.72 -0.26,-1.01c-0.14,-0.15 -0.28,-0.25 -0.45,-0.38c-0.04,-0.04 -0.09,-0.07 -0.13,-0.11c-0.13,-0.09 -0.28,-0.14 -0.43,-0.2c-0.22,-0.08 -0.44,-0.15 -0.66,-0.21c-0.56,-0.13 -1.13,-0.22 -1.71,-0.28c-0.3,-0.04 -0.7,0.17 -0.9,0.37c-0.22,0.22 -0.39,0.59 -0.37,0.9c0.01,0.33 0.12,0.68 0.37,0.91c0.09,0.06 0.17,0.13 0.26,0.2c0.2,0.11 0.41,0.17 0.64,0.17l0,0z" fill="#FFFAF8" id="svg_134"/>
    <path d="m295.29,439.6c0.02,0.16 0.06,0.31 0.12,0.46c0.1,0.24 0.2,0.49 0.34,0.7c0.1,0.15 0.21,0.29 0.32,0.42c0.05,0.07 0.11,0.12 0.17,0.17c0.2,0.16 0.4,0.32 0.64,0.43c0.14,0.09 0.29,0.14 0.45,0.15c0.15,0.03 0.31,0.03 0.47,-0.02c0.1,-0.04 0.19,-0.08 0.29,-0.12c0.14,-0.08 0.25,-0.18 0.33,-0.31c0.08,-0.08 0.13,-0.16 0.16,-0.27c0.07,-0.14 0.11,-0.29 0.1,-0.46c-0.01,-0.1 -0.03,-0.21 -0.04,-0.32c-0.06,-0.2 -0.16,-0.37 -0.31,-0.52c-0.14,-0.11 -0.26,-0.23 -0.36,-0.37c0.06,0.08 0.13,0.17 0.19,0.25c-0.11,-0.14 -0.22,-0.28 -0.34,-0.43c0.07,0.09 0.14,0.17 0.2,0.26c-0.11,-0.15 -0.21,-0.32 -0.28,-0.49c0.04,0.1 0.08,0.2 0.13,0.3c-0.07,-0.16 -0.12,-0.33 -0.14,-0.5c-0.04,-0.16 -0.12,-0.31 -0.23,-0.43c-0.09,-0.14 -0.21,-0.24 -0.36,-0.32c-0.14,-0.1 -0.3,-0.15 -0.47,-0.15c-0.16,-0.04 -0.33,-0.03 -0.5,0.02c-0.31,0.1 -0.6,0.29 -0.76,0.58c-0.04,0.1 -0.08,0.2 -0.13,0.3c-0.05,0.22 -0.05,0.45 0.01,0.67l0,0z" fill="#FFFAF8" id="svg_135"/>
    <path d="m312.63,431.11c0.15,0.05 0.29,0.11 0.43,0.17c-0.1,-0.05 -0.2,-0.09 -0.31,-0.13c0.95,0.4 1.86,0.9 2.73,1.44c0.55,0.34 1.39,0.14 1.7,-0.45c0.15,-0.29 0.23,-0.64 0.13,-0.95c-0.11,-0.33 -0.3,-0.55 -0.58,-0.75c-1.04,-0.76 -2.22,-1.31 -3.42,-1.78c-0.29,-0.11 -0.72,-0.02 -0.98,0.13c-0.26,0.16 -0.51,0.46 -0.58,0.76c-0.08,0.32 -0.06,0.69 0.13,0.97c0.06,0.09 0.13,0.17 0.19,0.26c0.16,0.16 0.35,0.27 0.56,0.33l0,0z" fill="#FFFAF8" id="svg_136"/>
   </g>
   <path d="m282.75,151.49c-0.05,-0.22 -0.09,-0.45 -0.12,-0.68c0.01,0.11 0.03,0.23 0.05,0.34c-0.05,-0.37 -0.07,-0.75 -0.09,-1.12c-0.01,-0.23 -0.02,-0.45 -0.05,-0.67c-0.04,-0.32 -0.19,-0.57 -0.32,-0.86c0.04,0.08 0.07,0.17 0.11,0.25c-0.07,-0.22 -0.15,-0.43 -0.24,-0.63c-0.21,-0.46 -0.97,-0.54 -1.27,-0.17c-0.1,0.11 -0.19,0.23 -0.27,0.35c-0.05,0.08 -0.09,0.17 -0.14,0.25c0.05,-0.07 0.11,-0.14 0.17,-0.22c-0.12,0.14 -0.25,0.29 -0.32,0.45c-0.07,0.13 -0.13,0.27 -0.17,0.41c-0.03,0.11 -0.05,0.32 -0.06,0.46c-0.03,0.25 -0.01,0.5 0.01,0.75c0.05,0.59 0.14,1.18 0.28,1.76c0.16,0.64 0.91,1.09 1.55,0.88c0.68,-0.22 1.02,-0.85 0.88,-1.55l0,0z" fill="#EEBDAF" id="svg_137" opacity="0.75"/>
   <path d="m257.68,169.31c0,0 4.97,-3.93 2.54,-6.36c-2.43,-2.42 -27.11,-4.93 -38.4,10.22c-13.07,17.55 -5.89,91.16 -2.79,92.25c3.09,1.09 9.77,-8.76 9.77,-8.76s-0.56,14.08 2.06,14.73c2.98,0.75 9.63,-7.69 9.63,-7.69s5.11,13.78 7.95,14.11c4.75,0.55 7.42,-8.51 7.42,-8.51s4.07,9.79 11.68,10.12c5.75,0.24 8.5,-7.8 8.5,-7.8s7.26,9.29 13.67,7.65c6.79,-1.74 7.67,-11.25 7.67,-11.25s12.5,3.73 16.74,0.21c3.38,-2.82 1.71,-18.03 1.71,-18.03c0.3,-0.15 10.9,3.11 14.14,-0.71c2.17,-2.56 -1.29,-13.67 -1.29,-13.67s0.8,-2.93 -0.18,-8.19c-0.84,-4.52 -5.6,-7.64 -5.6,-9.14c0,-1.51 4.17,-6.77 4.17,-9.28s-13.19,-2.64 -11.9,-5.79c1.29,-3.16 9.23,-2.49 8.16,-5.4c-1.08,-2.9 -17.04,-4.22 -17.04,-6.13c0,-1.92 7.5,-5.81 7.5,-8.04c0,-2.24 -22.43,-1.6 -22.43,-3.1c0,-1.5 3.89,-7.12 1.63,-9.38c-2.25,-2.25 -21.98,2.63 -21.98,1.18c0,0 2.95,-5.04 0.03,-7.02c-2.4,-1.64 -13.36,3.78 -13.36,3.78z" fill="#F2D9C8" id="svg_138" opacity="0.87"/>
   <g id="svg_139">
    <path d="m257.67,165.81c0,0 4.97,-3.92 2.54,-6.35c-2.43,-2.43 -27.11,-4.94 -38.4,10.22c-13.07,17.54 -5.89,91.15 -2.8,92.25c3.1,1.09 9.78,-8.76 9.78,-8.76s-0.57,14.07 2.06,14.73c2.98,0.75 9.62,-7.7 9.62,-7.7s5.12,13.79 7.96,14.12c4.74,0.55 7.41,-8.51 7.41,-8.51s4.08,9.79 11.69,10.12c5.75,0.24 8.5,-7.81 8.5,-7.81s7.26,9.3 13.67,7.66c6.79,-1.74 7.67,-11.26 7.67,-11.26s12.5,3.74 16.74,0.22c3.38,-2.82 1.71,-18.03 1.71,-18.03c0.29,-0.16 10.9,3.1 14.14,-0.71c2.17,-2.56 -1.29,-13.67 -1.29,-13.67s0.8,-2.94 -0.18,-8.19c-0.85,-4.52 -5.61,-7.65 -5.61,-9.15c0,-1.5 4.17,-6.76 4.17,-9.28c0,-2.51 -13.19,-2.63 -11.89,-5.79c1.29,-3.15 9.22,-2.48 8.15,-5.39c-1.07,-2.91 -17.03,-4.22 -17.03,-6.14c0,-1.91 7.5,-5.8 7.5,-8.04c0,-2.23 -22.44,-1.59 -22.44,-3.09c0,-1.5 3.89,-7.13 1.64,-9.38c-2.25,-2.25 -21.98,2.63 -21.98,1.18c0,0 2.95,-5.04 0.03,-7.03c-2.4,-1.63 -13.36,3.78 -13.36,3.78z" fill="#FFF0EB" id="svg_140"/>
    <g id="svg_141">
     <path d="m257.67,165.81c0,0 4.97,-3.92 2.54,-6.35c-2.43,-2.43 -27.11,-4.94 -38.4,10.22c-13.07,17.54 -5.89,91.15 -2.8,92.25c3.1,1.09 9.78,-8.76 9.78,-8.76s-0.57,14.07 2.06,14.73c2.98,0.75 9.62,-7.7 9.62,-7.7s5.12,13.79 7.96,14.12c4.74,0.55 7.41,-8.51 7.41,-8.51s4.08,9.79 11.69,10.12c5.75,0.24 8.5,-7.81 8.5,-7.81s7.26,9.3 13.67,7.66c6.79,-1.74 7.67,-11.26 7.67,-11.26s12.5,3.74 16.74,0.22c3.38,-2.82 1.71,-18.03 1.71,-18.03c0.29,-0.16 10.9,3.1 14.14,-0.71c2.17,-2.56 -1.29,-13.67 -1.29,-13.67s0.8,-2.94 -0.18,-8.19c-0.85,-4.52 -5.61,-7.65 -5.61,-9.15c0,-1.5 4.17,-6.76 4.17,-9.28c0,-2.51 -13.19,-2.63 -11.89,-5.79c1.29,-3.15 9.22,-2.48 8.15,-5.39c-1.07,-2.91 -17.03,-4.22 -17.03,-6.14c0,-1.91 7.5,-5.8 7.5,-8.04c0,-2.23 -22.44,-1.59 -22.44,-3.09c0,-1.5 3.89,-7.13 1.64,-9.38c-2.25,-2.25 -21.98,2.63 -21.98,1.18c0,0 2.95,-5.04 0.03,-7.03c-2.4,-1.63 -13.36,3.78 -13.36,3.78z" fill="#FFF0EB" id="svg_142" opacity="0.7"/>
     <path d="m236.45,166.31c1.38,-0.68 2.82,-1.23 4.29,-1.67c0.75,-0.22 1.51,-0.4 2.27,-0.57c0.79,-0.16 1.59,-0.3 2.34,-0.59c1.16,-0.45 0.94,-1.99 -0.29,-2.13c-0.88,-0.1 -1.78,0.07 -2.65,0.24c-0.82,0.17 -1.63,0.4 -2.42,0.64c-1.65,0.51 -3.25,1.17 -4.78,1.95c-0.6,0.3 -0.77,1.14 -0.45,1.69c0.36,0.61 1.09,0.74 1.69,0.44l0,0z" fill="#FFFEFE" id="svg_143"/>
     <path d="m249.49,163.19c0.37,-0.02 0.73,-0.04 1.1,-0.06c0.27,-0.02 0.57,-0.04 0.83,-0.1c0.18,-0.04 0.35,-0.09 0.52,-0.13c0.24,-0.07 0.45,-0.22 0.59,-0.41c0.15,-0.19 0.26,-0.44 0.25,-0.69c-0.01,-0.2 -0.06,-0.4 -0.16,-0.58c-0.07,-0.13 -0.17,-0.23 -0.29,-0.31c-0.11,-0.1 -0.24,-0.17 -0.39,-0.21c-0.17,-0.02 -0.34,-0.05 -0.52,-0.07c-0.21,-0.03 -0.36,-0.05 -0.56,-0.04c-0.09,0 -0.18,0 -0.27,0c-0.37,0.03 -0.73,0.05 -1.1,0.07c-0.34,0.02 -0.65,0.13 -0.9,0.37c-0.22,0.22 -0.38,0.58 -0.37,0.9c0.02,0.32 0.12,0.66 0.37,0.89c0.24,0.22 0.56,0.39 0.9,0.37l0,0z" fill="#FFFEFE" id="svg_144"/>
     <path d="m263.41,168.95c0.53,-0.23 1.06,-0.46 1.59,-0.69c0.26,-0.11 0.52,-0.22 0.77,-0.36c0.25,-0.14 0.5,-0.29 0.75,-0.44c0.51,-0.29 0.7,-0.93 0.48,-1.45c-0.21,-0.51 -0.82,-0.86 -1.37,-0.68c-0.28,0.09 -0.56,0.18 -0.83,0.27c-0.36,0.12 -0.71,0.3 -1.05,0.45c-0.54,0.25 -1.07,0.49 -1.6,0.74c-0.27,0.12 -0.5,0.47 -0.58,0.74c-0.08,0.31 -0.04,0.7 0.13,0.97c0.17,0.27 0.43,0.5 0.75,0.58c0.11,0.01 0.22,0.03 0.33,0.04c0.23,0 0.44,-0.05 0.63,-0.17l0,0z" fill="#FFFEFE" id="svg_145"/>
     <path d="m244.45,260.26c0.2,1.36 0.55,2.68 1.04,3.96c0.52,1.38 1.13,2.83 2.2,3.87c0.37,0.35 0.94,0.43 1.38,0.18c0.41,-0.24 0.7,-0.82 0.52,-1.29c-0.26,-0.7 -0.6,-1.34 -0.94,-2.01c-0.13,-0.27 -0.27,-0.53 -0.4,-0.8c-0.07,-0.16 -0.14,-0.31 -0.21,-0.47c-0.06,-0.14 -0.07,-0.15 -0.02,-0.04c-0.03,-0.08 -0.07,-0.16 -0.1,-0.24c-0.49,-1.23 -0.84,-2.51 -1.06,-3.82c-0.11,-0.65 -0.94,-1.07 -1.54,-0.87c-0.71,0.23 -0.98,0.84 -0.87,1.53l0,0z" fill="#FFFEFE" id="svg_146"/>
     <path d="m230.95,258.78c0.06,0.85 0.09,1.71 0.21,2.55c0.03,0.18 0.05,0.36 0.08,0.54c0.05,0.25 0.18,0.47 0.29,0.7c0.16,0.33 0.34,0.71 0.61,0.97c0.22,0.21 0.67,0.27 0.88,0c0.1,-0.14 0.19,-0.25 0.26,-0.42c0.03,-0.07 0.06,-0.14 0.09,-0.22c0.07,-0.17 0.13,-0.35 0.19,-0.53c0.07,-0.23 0.14,-0.46 0.16,-0.71c0.02,-0.2 0.02,-0.4 0.01,-0.59c-0.01,-0.76 -0.1,-1.53 -0.15,-2.29c-0.03,-0.35 -0.13,-0.67 -0.39,-0.93c-0.23,-0.22 -0.6,-0.39 -0.93,-0.38c-0.66,0.03 -1.36,0.58 -1.31,1.31l0,0z" fill="#FFFEFE" id="svg_147"/>
     <path d="m260.37,266.18c0.97,2.78 3.12,5.11 5.95,6.02c0.59,0.19 1.23,-0.17 1.46,-0.71c0.22,-0.52 0.06,-1.29 -0.51,-1.55c-0.53,-0.24 -1.06,-0.53 -1.55,-0.87c-0.13,-0.08 -0.25,-0.17 -0.38,-0.26c-0.06,-0.05 -0.12,-0.1 -0.19,-0.14c0.32,0.22 0.09,0.06 0.03,0.01c-0.23,-0.19 -0.45,-0.39 -0.66,-0.6c-0.21,-0.21 -0.41,-0.44 -0.6,-0.67c-0.02,-0.02 -0.03,-0.04 -0.05,-0.06c-0.08,-0.1 -0.06,-0.08 0.06,0.08c-0.03,-0.06 -0.1,-0.13 -0.14,-0.19c-0.08,-0.11 -0.16,-0.23 -0.24,-0.35c-0.16,-0.25 -0.31,-0.51 -0.44,-0.78c-0.06,-0.12 -0.11,-0.3 -0.2,-0.42c0.06,0.08 0.11,0.25 0.03,0.06c-0.03,-0.09 -0.07,-0.17 -0.1,-0.26c-0.23,-0.62 -0.88,-1.12 -1.58,-0.89c-0.62,0.2 -1.13,0.9 -0.89,1.58l0,0z" fill="#FFFEFE" id="svg_148"/>
     <path d="m279.43,267.59c1.63,1.81 3.7,3.19 6.01,3.96c0.64,0.21 1.43,-0.24 1.57,-0.89c0.17,-0.73 -0.22,-1.31 -0.89,-1.57c-0.05,-0.02 -0.11,-0.04 -0.17,-0.07c-0.01,0 -0.29,-0.12 -0.09,-0.04c0.17,0.08 -0.03,-0.01 -0.06,-0.02c-0.07,-0.03 -0.14,-0.06 -0.2,-0.09c-0.24,-0.11 -0.47,-0.23 -0.7,-0.34c-0.48,-0.24 -0.96,-0.51 -1.41,-0.81c-0.22,-0.14 -0.43,-0.29 -0.63,-0.44c-0.04,-0.02 -0.24,-0.18 -0.09,-0.06c0.14,0.11 -0.02,-0.02 -0.05,-0.04c-0.1,-0.09 -0.21,-0.17 -0.31,-0.26c-0.42,-0.35 -0.81,-0.73 -1.18,-1.13c-0.45,-0.49 -1.34,-0.49 -1.8,0c-0.48,0.53 -0.47,1.27 0,1.8l0,0z" fill="#FFFEFE" id="svg_149"/>
     <path d="m289.58,271.96c0.45,-0.11 0.87,-0.27 1.29,-0.46c0.41,-0.19 0.76,-0.47 1.07,-0.81c0.19,-0.22 0.35,-0.52 0.34,-0.82c-0.02,-0.11 -0.03,-0.21 -0.05,-0.31c-0.03,-0.15 -0.1,-0.28 -0.2,-0.4c-0.15,-0.19 -0.36,-0.36 -0.61,-0.41c-0.1,-0.02 -0.2,-0.03 -0.3,-0.04c-0.21,0 -0.41,0.05 -0.59,0.15c-0.06,0.03 -0.12,0.06 -0.18,0.08c0.1,-0.04 0.19,-0.08 0.29,-0.12c-0.25,0.11 -0.51,0.2 -0.75,0.32c-0.16,0.08 -0.32,0.16 -0.49,0.23c0.1,-0.04 0.21,-0.09 0.31,-0.13c-0.26,0.11 -0.53,0.2 -0.8,0.26c-0.31,0.07 -0.61,0.32 -0.76,0.59c-0.1,0.14 -0.15,0.3 -0.15,0.47c-0.04,0.17 -0.03,0.34 0.02,0.51c0.1,0.3 0.29,0.6 0.58,0.76c0.31,0.16 0.64,0.2 0.98,0.13l0,0z" fill="#FFFEFE" id="svg_150"/>
     <path d="m302.59,263.14c0.95,0.14 1.9,0.23 2.86,0.22c0.42,-0.01 0.84,-0.03 1.26,-0.09c0.54,-0.06 1.03,-0.18 1.55,-0.35c0.54,-0.17 0.89,-0.67 0.81,-1.24c-0.07,-0.52 -0.54,-1.01 -1.11,-0.98c-0.42,0.03 -0.83,0.03 -1.25,0.07c-0.41,0.03 -0.81,0.06 -1.22,0.07c-0.4,0.01 -0.81,0.01 -1.21,-0.01c-0.2,-0.02 -0.39,-0.03 -0.59,-0.05c-0.09,-0.01 -0.19,-0.02 -0.29,-0.03c-0.06,0 -0.13,-0.01 -0.19,-0.02c0.17,0.02 0.19,0.02 0.04,0c-0.34,-0.05 -0.64,-0.05 -0.96,0.13c-0.26,0.15 -0.51,0.45 -0.57,0.75c-0.14,0.59 0.18,1.43 0.87,1.53l0,0z" fill="#FFFEFE" id="svg_151"/>
     <path d="m319.76,245.26c1.8,0.15 3.61,0.05 5.39,-0.29c0.67,-0.13 1.12,-0.98 0.91,-1.61c-0.1,-0.32 -0.3,-0.62 -0.6,-0.78c-0.33,-0.18 -0.64,-0.19 -1.01,-0.13c-0.11,0.01 -0.22,0.03 -0.33,0.05c-0.05,0 -0.1,0.01 -0.15,0.02c0.18,-0.02 0.21,-0.03 0.11,-0.02c-0.21,0.03 -0.42,0.05 -0.63,0.07c-0.4,0.05 -0.8,0.08 -1.21,0.1c-0.83,0.04 -1.65,0.02 -2.48,-0.04c-0.69,-0.06 -1.35,0.64 -1.32,1.31c0.04,0.77 0.58,1.26 1.32,1.32l0,0z" fill="#FFFEFE" id="svg_152"/>
    </g>
    <g id="svg_153">
     <path d="m236.47,233.89c2.29,6.09 19.13,-4.51 16.04,-8.76c-3.08,-4.26 -18.41,2.47 -16.04,8.76z" fill="#FA55A5" id="svg_154" opacity="0.42"/>
     <path d="m283.38,207.04c1.92,4.6 11.66,-1.57 10.02,-4.81c-1.63,-3.23 -11.23,1.93 -10.02,4.81z" fill="#FA55A5" id="svg_155" opacity="0.42"/>
     <path d="m251.73,220.55c-0.35,0 -0.68,-0.17 -0.87,-0.49c-1.87,-3.21 -7.69,-13.86 -3.92,-16.32c3.81,-2.48 10.67,7.38 12.69,10.47c0.3,0.46 0.17,1.08 -0.29,1.38c-0.47,0.3 -1.09,0.17 -1.39,-0.29c-0.02,-0.03 -2.01,-3.07 -4.36,-5.79c-3.36,-3.91 -5.07,-4.41 -5.56,-4.1c-1.45,0.95 1.24,7.95 4.56,13.64c0.28,0.47 0.12,1.09 -0.36,1.37c-0.16,0.09 -0.33,0.13 -0.5,0.13z" fill="#6B323C" id="svg_156"/>
     <path d="m272.55,206.32c-0.33,0 -0.66,-0.17 -0.85,-0.47c-0.51,-0.82 -4.92,-8.07 -4.11,-11.39c0.18,-0.71 0.57,-1.26 1.13,-1.59c1.11,-0.65 4.05,-0.39 11.38,8.73c0.35,0.43 0.28,1.06 -0.15,1.41c-0.43,0.35 -1.06,0.28 -1.4,-0.15c-3.66,-4.56 -7.78,-8.42 -8.86,-8.25c0.01,0.01 -0.09,0.06 -0.15,0.33c-0.47,1.89 2.12,7.05 3.86,9.85c0.29,0.47 0.15,1.09 -0.32,1.38c-0.17,0.1 -0.35,0.15 -0.53,0.15z" fill="#6B323C" id="svg_157"/>
    </g>
    <g id="svg_158">
     <path d="m271.42,246.75c3.98,10.44 40.12,-10.93 34.44,-20.42c-5.68,-9.48 -39.24,7.8 -34.44,20.42z" fill="#6B323C" id="svg_159"/>
     <path d="m271.6,240.98c-0.74,1.96 -0.88,3.91 -0.18,5.76c3.94,10.33 39.25,-10.41 34.62,-20.06c-10.49,6.73 -22.27,11.32 -34.44,14.3z" fill="#6B323C" id="svg_160" opacity="0.2"/>
     <path d="m289.97,229.88c1.35,-0.72 2.78,-1.27 4.27,-1.64c1.49,-0.38 3,-0.53 4.52,-0.64c1.03,-0.07 1.04,-1.53 0,-1.6c-3.32,-0.2 -6.76,0.83 -9.67,2.38c-0.98,0.52 -0.11,2.02 0.88,1.5l0,0z" fill="#C4ADB1" id="svg_161" opacity="0.75"/>
     <path d="m286.28,229.96c-1.08,0.29 -2.1,0.85 -2.88,1.66c-0.3,0.32 -0.34,0.88 0,1.2c0.36,0.32 0.85,0.31 1.2,0c0.12,-0.11 0.24,-0.2 0.36,-0.3c-0.06,0.05 -0.12,0.09 -0.18,0.14c0.13,-0.1 0.25,-0.19 0.38,-0.29c-0.06,0.04 -0.12,0.09 -0.18,0.13c0.41,-0.31 0.85,-0.57 1.33,-0.77c-0.07,0.03 -0.14,0.05 -0.21,0.08c0.21,-0.08 0.42,-0.16 0.63,-0.22c0.43,-0.13 0.74,-0.6 0.59,-1.04c-0.14,-0.44 -0.58,-0.72 -1.04,-0.59l0,0z" fill="#C4ADB1" id="svg_162" opacity="0.75"/>
    </g>
   </g>
   <g id="svg_163">
    <path d="m279.54,143.78c-4.46,2.87 -1.7,19.29 4.71,36.18c6.41,16.88 18.08,34.53 44.49,41.31c0,0 6.61,1.55 17.55,-1.48c10.94,-3.04 15.31,-9.29 15.31,-9.29s5.39,-17.17 6.25,-44.78c0,0 15.39,-7.33 8.82,-19.42c-5.39,-9.9 -13.68,-3.28 -13.68,-3.28s-2.86,-6.92 -4.63,-17.03c-0.25,-1.44 -6.77,-1.64 -18.41,-0.53c-11.01,1.06 -36.59,3.01 -60.41,18.32z" fill="#E69D87" id="svg_164"/>
    <path d="m288.87,182.04c1.45,4.5 11.78,0.77 10.91,-3.34c-0.87,-4.1 -12.1,-0.37 -10.91,3.34z" fill="#FA55A5" id="svg_165" opacity="0.32"/>
    <path d="m338.59,165.67c2.19,6.02 19.18,-0.74 17.96,-6.07c-1.49,-6.53 -20.16,0 -17.96,6.07z" fill="#FA55A5" id="svg_166" opacity="0.32"/>
    <path d="m328.64,166.44c-0.53,0 -1,-0.36 -1.12,-0.89c-0.24,-1.04 -2.27,-10.22 -0.06,-13.71c0.49,-0.78 1.18,-1.29 1.99,-1.47c0.84,-0.19 1.7,-0.02 2.49,0.49c3.42,2.17 5.41,10.75 5.62,11.72c0.14,0.62 -0.25,1.24 -0.87,1.37c-0.63,0.14 -1.24,-0.25 -1.38,-0.87c-0.73,-3.31 -2.63,-9.03 -4.6,-10.28c-0.37,-0.23 -0.61,-0.22 -0.76,-0.18c-0.14,0.03 -0.34,0.11 -0.55,0.45c-1.28,2.03 -0.46,8.41 0.36,11.96c0.14,0.62 -0.25,1.24 -0.87,1.38c-0.08,0.02 -0.17,0.03 -0.25,0.03z" fill="#6B323C" id="svg_167"/>
    <g id="svg_168">
     <path d="m365.36,156.31c-0.45,0 -0.83,-0.35 -0.85,-0.8c-0.01,-0.14 -0.15,-3.3 1.94,-5.54c1.27,-1.37 3.08,-2.08 5.35,-2.11c0.01,0 0.01,0 0.02,0c0.46,0 0.84,0.37 0.85,0.83c0,0.47 -0.37,0.86 -0.84,0.87c-1.8,0.02 -3.19,0.55 -4.14,1.57c-1.6,1.72 -1.49,4.26 -1.49,4.29c0.03,0.47 -0.33,0.87 -0.8,0.89c-0.01,0 -0.03,0 -0.04,0z" fill="#6C313D" id="svg_169"/>
     <path d="m369.59,153.94c-0.46,0 -0.83,-0.36 -0.85,-0.81c-0.02,-0.4 -0.2,-1.68 -1.66,-1.68c-0.02,0 -0.04,0 -0.06,0c-0.46,0 -0.84,-0.37 -0.85,-0.83c-0.01,-0.47 0.37,-0.86 0.84,-0.87c0.02,0 0.05,0 0.07,0c2.38,0 3.31,1.98 3.36,3.32c0.01,0.47 -0.35,0.86 -0.82,0.87c-0.01,0 -0.02,0 -0.03,0z" fill="#6C313D" id="svg_170"/>
    </g>
    <path d="m299.21,176.27c-0.44,0 -0.86,-0.25 -1.05,-0.67c-0.39,-0.85 -3.73,-8.4 -2.44,-11.83c0.3,-0.78 0.82,-1.37 1.52,-1.68c0.72,-0.32 1.52,-0.33 2.32,-0.02c3.36,1.28 6.62,8.43 6.98,9.24c0.26,0.58 0,1.26 -0.58,1.51c-0.58,0.26 -1.26,0 -1.52,-0.58c-1.21,-2.72 -3.84,-7.31 -5.71,-8.02c-0.29,-0.11 -0.44,-0.08 -0.55,-0.03c-0.05,0.03 -0.19,0.09 -0.31,0.4c-0.72,1.91 1.08,7.18 2.38,10.06c0.26,0.57 0.01,1.26 -0.57,1.52c-0.15,0.07 -0.32,0.1 -0.47,0.1z" fill="#6B323C" id="svg_171"/>
    <path d="m324.82,198.32c-8.29,0 -13.13,-7.21 -13.19,-7.29c-0.35,-0.53 -0.2,-1.25 0.33,-1.59c0.53,-0.35 1.24,-0.21 1.59,0.32c0.23,0.36 5.82,8.57 15.23,5.63c4.06,-1.27 6.53,-3.92 7.35,-7.86c0.63,-3.02 0.03,-5.65 0.02,-5.68c-0.14,-0.62 0.24,-1.24 0.86,-1.38c0.62,-0.15 1.24,0.24 1.38,0.86c0.03,0.12 2.79,12.59 -8.93,16.25c-1.65,0.52 -3.2,0.74 -4.64,0.74z" fill="#6B323C" id="svg_172"/>
    <path d="m315.48,136.55c3.75,-0.8 7.52,-1.5 11.31,-2.08c3.76,-0.57 7.66,-0.74 11.35,-1.63c1.19,-0.29 0.87,-2 -0.27,-2.06c-3.83,-0.21 -7.78,0.58 -11.55,1.15c-3.87,0.59 -7.71,1.3 -11.53,2.12c-1.63,0.36 -0.94,2.85 0.69,2.5l0,0z" fill="#EEBDAF" id="svg_173" opacity="0.75"/>
    <path d="m342.69,132.58c0.92,-0.05 1.84,-0.11 2.76,-0.16c0.33,-0.02 0.64,-0.13 0.88,-0.37c0.22,-0.22 0.38,-0.57 0.37,-0.89c-0.01,-0.32 -0.12,-0.66 -0.37,-0.88c-0.23,-0.22 -0.55,-0.39 -0.88,-0.37c-0.92,0.06 -1.84,0.12 -2.76,0.18c-0.33,0.03 -0.64,0.13 -0.88,0.37c-0.21,0.21 -0.37,0.57 -0.36,0.88c0.01,0.32 0.12,0.65 0.36,0.87c0.24,0.22 0.55,0.39 0.88,0.37l0,0z" fill="#EEBDAF" id="svg_174" opacity="0.75"/>
    <path d="m366.1,147.17c0.59,-0.25 1.21,-0.42 1.85,-0.51c-0.11,0.02 -0.22,0.03 -0.33,0.05c0.75,-0.1 1.53,-0.12 2.28,-0.05c0.27,0.03 0.66,-0.15 0.84,-0.35c0.18,-0.19 0.29,-0.41 0.32,-0.67c0.08,-0.56 -0.27,-1.15 -0.84,-1.29c-0.81,-0.2 -1.63,-0.29 -2.46,-0.18c-0.92,0.11 -1.76,0.35 -2.62,0.72c-0.26,0.11 -0.52,0.48 -0.58,0.74c-0.06,0.28 -0.05,0.55 0.07,0.82c0.1,0.24 0.27,0.47 0.51,0.59c0.27,0.15 0.66,0.25 0.96,0.13l0,0z" fill="#EEBDAF" id="svg_175" opacity="0.75"/>
    <path d="m281.39,157.12c0.26,2.51 0.68,4.99 1.3,7.44c0.6,2.38 1.26,4.96 2.49,7.1c0.67,1.16 2.51,0.39 2.16,-0.92c-0.31,-1.16 -0.79,-2.26 -1.18,-3.4c-0.37,-1.1 -0.7,-2.21 -1,-3.33c-0.59,-2.26 -1.03,-4.56 -1.28,-6.89c-0.08,-0.66 -0.52,-1.24 -1.25,-1.24c-0.61,0 -1.31,0.57 -1.24,1.24l0,0z" fill="#EEBDAF" id="svg_176" opacity="0.75"/>
   </g>
   <path d="m263.37,301.86c-2.11,-0.07 -8.81,25.53 -7.31,27.03c1.5,1.49 48.74,15.02 97.14,5.46c23.93,-4.73 38.87,-12.79 43.92,-17.83c0,0 -0.26,-27.74 -1.21,-42.18c-1.89,-28.57 0.72,-63.4 -21.98,-63.4c0,0 13.44,45.27 -9.69,72.78c-16.8,19.98 -56.11,19.52 -100.87,18.14z" fill="#EAAC99" id="svg_177" opacity="0.22"/>
   <g id="svg_178">
    <path d="m263.56,301.76c-3.15,-3.44 -10.79,-14.61 -13.73,-13.12c-2.93,1.48 1.65,8.69 -0.43,9.94c-1.61,0.98 -18.47,-4.23 -19.15,-0.58c-0.66,3.56 11.3,6.31 11.24,7.75c-0.07,1.44 -15.07,0.49 -15.22,4.06c-0.18,4.02 15.38,3.24 15.32,4.54c-0.05,1.3 -10.38,4.56 -8.28,6.85c2.11,2.3 20.77,0.03 24.43,-0.56c3.66,-0.6 7.24,-17.33 5.82,-18.88z" fill="#E69D87" id="svg_179"/>
    <path d="m260.37,297.89c-9.13,6.55 -18.94,11.36 -29.3,14.78c4.51,0.87 10.56,0.87 10.53,1.68c-0.06,1.3 -10.39,4.56 -8.28,6.86c2.1,2.29 20.76,0.02 24.42,-0.57c3.66,-0.6 7.24,-17.33 5.82,-18.88c-0.81,-0.89 -1.93,-2.3 -3.19,-3.87z" fill="#E69D87" id="svg_180" opacity="0.23"/>
    <path d="m263.37,297.08c-2.11,-0.06 -8.81,25.53 -7.31,27.03c1.5,1.5 48.74,15.02 97.14,5.47c48.39,-9.56 61.93,-42.37 60.04,-70.94c-1.89,-28.57 -19.87,-49.21 -42.57,-49.21c0,0 24.54,35.63 2.84,64.28c-19.29,25.47 -65.38,24.75 -110.14,23.37z" fill="#78DECE" id="svg_181"/>
    <path d="m402.52,263.09c0.75,5.84 0.43,11.76 -1.03,17.47c-1.47,5.75 -4.08,11 -7.37,15.91c-1.03,1.53 1.44,3.49 2.6,2c7.68,-9.82 10.84,-23.09 9.2,-35.38c-0.12,-0.92 -0.69,-1.69 -1.7,-1.7c-0.83,-0.01 -1.82,0.79 -1.7,1.7l0,0z" fill="#BAEEE6" id="svg_182" opacity="0.75"/>
    <path d="m389.3,301.5c-0.09,0.14 -0.19,0.28 -0.3,0.41c-0.17,0.24 0.18,-0.22 0.05,-0.06c-0.05,0.07 -0.11,0.13 -0.16,0.2c-0.21,0.26 -0.44,0.51 -0.68,0.75c-0.45,0.48 -0.95,0.91 -1.46,1.32c-0.09,0.07 -0.31,0.22 0.06,-0.05c-0.05,0.04 -0.11,0.09 -0.16,0.13c-0.14,0.1 -0.27,0.19 -0.41,0.29c-0.28,0.19 -0.57,0.37 -0.86,0.54c-0.59,0.33 -1.17,0.66 -1.79,0.93c-0.32,0.14 -0.64,0.6 -0.72,0.93c-0.08,0.35 -0.06,0.69 0.08,1.02c0.29,0.69 1.1,1.13 1.84,0.9c3.09,-0.94 5.61,-2.96 7.39,-5.63c0.48,-0.73 0.16,-1.87 -0.6,-2.28c-0.85,-0.45 -1.75,-0.16 -2.28,0.6l0,0z" fill="#BAEEE6" id="svg_183" opacity="0.75"/>
    <path d="m267.87,305.1c6.73,1.17 13.54,1.62 20.36,1.2c2.19,-0.14 2.22,-3.56 0,-3.44c-6.5,0.34 -13.04,0.04 -19.46,-1.05c-0.9,-0.15 -1.83,0.24 -2.09,1.19c-0.23,0.83 0.28,1.94 1.19,2.1l0,0z" fill="#BAEEE6" id="svg_184" opacity="0.75"/>
    <path d="m296.41,306.39c2.11,0.07 4.22,0.03 6.33,-0.21c0.44,-0.05 0.81,-0.15 1.14,-0.48c0.28,-0.28 0.49,-0.74 0.47,-1.14c-0.03,-0.84 -0.71,-1.67 -1.61,-1.62c-2.11,0.12 -4.22,0.21 -6.33,0.16c-0.86,-0.02 -1.69,0.77 -1.65,1.65c0.04,0.91 0.73,1.62 1.65,1.64l0,0z" fill="#BAEEE6" id="svg_185" opacity="0.75"/>
   </g>
   <g id="svg_186">
    <path d="m197.84,309.71c4.61,0.74 18.14,0.98 18.51,4.25s-8.16,3.41 -8.07,5.83c0.08,1.88 13.7,13.1 11.02,15.67c-2.61,2.51 -11.48,-5.96 -12.65,-5.12c-1.16,0.84 7.88,12.85 4.98,14.95c-3.26,2.35 -11.17,-11.07 -12.22,-10.31c-1.05,0.76 1.9,11.18 -1.17,10.69c-3.07,-0.5 -11.44,-17.33 -12.96,-20.72c-1.52,-3.38 10.49,-15.57 12.56,-15.24z" fill="#E69D87" id="svg_187"/>
    <path d="m197.59,309.72c-2.63,0.49 -13.77,11.97 -12.31,15.23c1.52,3.39 9.88,20.22 12.96,20.72c3.07,0.49 0.12,-9.93 1.17,-10.69c0.85,-0.61 6.18,8.03 9.91,10.13c-6.33,-10.73 -10.4,-23.04 -11.73,-35.39z" fill="#E69D87" id="svg_188" opacity="0.23"/>
    <path d="m175.51,240.15c-3.8,9.31 -10.26,28.15 -5.66,52.37c4.61,24.22 14.28,33.83 15.84,35.17c1.56,1.34 17.84,-17.26 17.84,-19.82s-5.69,-22.31 -5.69,-54.65c0,-32.34 -22.33,-13.07 -22.33,-13.07z" fill="#5AD7C3" id="svg_189"/>
    <path d="m194.95,319.52c4.35,-4.88 8.58,-10.35 8.58,-11.65c0,-2.56 -5.69,-22.31 -5.69,-54.65c0,-32.34 -22.33,-13.07 -22.33,-13.07c-1.53,3.76 -3.49,9.06 -4.99,15.63c4.77,22.24 12.91,44.07 24.43,63.74z" fill="#5AD7C3" id="svg_190" opacity="0.25"/>
    <path d="m173.91,294.77c0.64,2.34 1.33,4.67 2.09,6.98c0.78,2.35 1.56,4.73 2.67,6.95c0.81,1.61 3.37,0.48 2.89,-1.22c-0.65,-2.29 -1.54,-4.51 -2.3,-6.77c-0.75,-2.26 -1.45,-4.54 -2.08,-6.84c-0.59,-2.1 -3.85,-1.21 -3.27,0.9l0,0z" fill="#BAEEE6" id="svg_191" opacity="0.75"/>
    <path d="m180.89,313.8c-0.05,0.56 0.33,1.1 0.6,1.59c0.17,0.3 0.34,0.6 0.52,0.9c0.36,0.6 0.74,1.17 1.14,1.74c0.24,0.34 0.53,0.61 0.94,0.72c0.38,0.11 0.88,0.06 1.22,-0.16c0.33,-0.21 0.63,-0.54 0.72,-0.94c0.1,-0.43 0.04,-0.82 -0.16,-1.22c-0.31,-0.61 -0.64,-1.22 -0.99,-1.81c-0.17,-0.29 -0.35,-0.58 -0.53,-0.87c-0.3,-0.45 -0.59,-1.09 -1.1,-1.31c-0.25,-0.14 -0.51,-0.21 -0.8,-0.21c-0.28,0 -0.54,0.07 -0.79,0.21c-0.5,0.3 -0.73,0.79 -0.77,1.36l0,0z" fill="#BAEEE6" id="svg_192" opacity="0.75"/>
   </g>
   <g id="svg_193">
    <path d="m190.06,296.79c1.85,1.85 9.1,-4.59 9.1,-4.59s0.17,3.87 -2.58,9.58c1.8,2.51 4.28,5.84 5.93,8.44c9.83,-4.86 0.87,-22.04 0.08,-31.57c-0.91,-10.93 -2.55,-21.77 -4.2,-32.62c-3.37,1.21 -5.54,3.1 -5.99,5.87c-2.17,13.4 -3.66,24.24 -4.66,30.86c-0.52,3.45 8.16,-0.1 8.16,-0.1s-7.69,12.27 -5.84,14.13z" fill="#FFF0EB" id="svg_194"/>
    <path d="m191.95,271.49c-0.01,1.13 -0.09,2.27 -0.22,3.4c-0.11,0.92 -0.34,2.24 -0.43,3.36c-0.05,0.54 0.45,1.01 0.94,1.07c0.57,0.08 1,-0.26 1.2,-0.78c0.43,-1.15 0.6,-2.36 0.74,-3.59c0.13,-1.15 0.2,-2.31 0.21,-3.46c0,-0.64 -0.57,-1.25 -1.22,-1.22c-0.67,0.03 -1.21,0.53 -1.22,1.22l0,0z" fill="#FFFAF8" id="svg_195"/>
    <path d="m195.52,286.75c-1.19,2.07 -2.39,4.15 -3.55,6.24c-0.32,0.56 -0.16,1.37 0.44,1.69c0.59,0.31 1.35,0.16 1.69,-0.44c1.2,-2.08 2.36,-4.17 3.52,-6.26c0.31,-0.56 0.15,-1.35 -0.44,-1.66c-0.58,-0.31 -1.32,-0.15 -1.66,0.43l0,0z" fill="#FFFAF8" id="svg_196"/>
   </g>
   <path d="m163.14,217.87c0.34,1.88 11.39,2.8 11.39,2.8s-16.26,8.51 -16.35,11.87c-0.09,3.36 10.38,3.47 10.38,3.47s-10.22,12.93 -8.45,14.79c1.77,1.86 10.12,-1.79 10.12,-1.79s-2.13,17.18 0.76,18.47c2.58,1.16 9.54,-6.47 9.54,-6.47s3.75,10.44 6.42,10.51c2.67,0.06 7.83,-8.03 7.83,-8.03s7.29,6.13 9.47,5.31c3.89,-1.46 3.71,-16.1 3.71,-16.1s9.85,6.11 12.84,4.53c5.21,-2.76 3.91,-28.22 3.91,-28.22s7.88,2.58 9.37,1.17c2.62,-2.49 -2.61,-17.47 -2.61,-17.47s5.83,1.81 7.53,0.8c3.53,-2.1 1.42,-32.69 -10.13,-44.84c-4.41,-4.64 -38.65,5.71 -39.59,10.65c-0.68,3.53 8.55,3.01 8.55,3.01s-18.16,6.1 -18.23,9.03c-0.07,2.93 8.59,2.99 8.59,2.99s-16.65,7.39 -16.73,10.32s10.66,2.94 10.66,2.94s-19.71,6.3 -18.98,10.26z" fill="#FFF0EB" id="svg_197"/>
   <g id="svg_198">
    <path d="m158.79,215.76c0.35,1.87 11.39,2.8 11.39,2.8s-16.26,8.51 -16.35,11.87c-0.08,3.36 10.39,3.47 10.39,3.47s-10.23,12.92 -8.46,14.78c1.77,1.87 10.13,-1.79 10.13,-1.79s-2.13,17.18 0.75,18.48c2.58,1.15 9.54,-6.48 9.54,-6.48s3.75,10.44 6.42,10.51c2.67,0.07 7.83,-8.03 7.83,-8.03s7.29,6.13 9.47,5.31c3.89,-1.46 3.71,-16.1 3.71,-16.1s9.85,6.11 12.84,4.54c5.21,-2.76 3.91,-28.22 3.91,-28.22s7.88,2.57 9.37,1.16c2.62,-2.49 -2.61,-17.46 -2.61,-17.46s5.83,1.8 7.53,0.79c3.53,-2.1 1.42,-32.69 -10.13,-44.84c-4.41,-4.64 -38.65,5.71 -39.59,10.65c-0.68,3.53 8.55,3.01 8.55,3.01s-18.16,6.1 -18.23,9.03c-0.07,2.93 8.59,2.99 8.59,2.99s-16.65,7.4 -16.72,10.32c-0.08,2.93 10.65,2.94 10.65,2.94s-19.71,6.3 -18.98,10.27z" fill="#FFF0EB" id="svg_199"/>
    <path d="m223.64,177.29c1.73,4.63 2.92,9.46 3.52,14.36c0.09,0.7 0.54,1.3 1.3,1.3c0.64,0 1.38,-0.59 1.3,-1.3c-0.59,-5.15 -1.8,-10.19 -3.64,-15.05c-0.24,-0.65 -0.87,-1.09 -1.58,-0.9c-0.63,0.18 -1.15,0.93 -0.9,1.59l0,0z" fill="#FFFAF8" id="svg_200"/>
    <path d="m228.03,197.35c0.06,1.25 0.09,2.51 0.21,3.75c0.03,0.35 0.12,0.65 0.37,0.91c0.23,0.22 0.59,0.39 0.91,0.37c0.65,-0.03 1.31,-0.56 1.27,-1.28c-0.07,-1.25 -0.24,-2.5 -0.38,-3.75c-0.03,-0.32 -0.11,-0.6 -0.35,-0.84c-0.2,-0.21 -0.54,-0.36 -0.84,-0.35c-0.62,0.03 -1.23,0.52 -1.19,1.19l0,0z" fill="#FFFAF8" id="svg_201"/>
    <path d="m167.52,214.65c0.24,-0.11 0.49,-0.21 0.73,-0.32c-0.1,0.04 -0.2,0.09 -0.3,0.13c0.81,-0.34 1.65,-0.64 2.47,-0.96c0.3,-0.12 0.55,-0.27 0.72,-0.56c0.15,-0.26 0.22,-0.64 0.13,-0.94c-0.21,-0.63 -0.84,-1.01 -1.5,-0.84c-1.21,0.31 -2.38,0.81 -3.52,1.33c-0.26,0.12 -0.5,0.47 -0.57,0.75c-0.08,0.3 -0.05,0.7 0.12,0.96c0.18,0.27 0.43,0.5 0.75,0.58c0.11,0.01 0.23,0.03 0.34,0.04c0.22,0 0.43,-0.05 0.63,-0.17l0,0z" fill="#FFFAF8" id="svg_202"/>
    <path d="m173.81,212.21c1.74,-0.65 3.52,-1.2 5.29,-1.74c0.61,-0.19 1.06,-0.86 0.86,-1.5c-0.21,-0.64 -0.84,-1.02 -1.5,-0.85c-1.81,0.46 -3.56,1.08 -5.29,1.77c-0.3,0.12 -0.55,0.26 -0.72,0.55c-0.15,0.26 -0.21,0.64 -0.12,0.93c0.19,0.57 0.85,1.07 1.48,0.84l0,0z" fill="#FFFAF8" id="svg_203"/>
    <path d="m194.11,176.43c1.72,-0.49 3.43,-0.97 5.12,-1.54c0.6,-0.2 1.05,-0.84 0.85,-1.48c-0.21,-0.64 -0.83,-1 -1.49,-0.85c-1.73,0.42 -3.45,0.91 -5.16,1.4c-0.65,0.18 -1.11,0.91 -0.9,1.58c0.21,0.65 0.89,1.09 1.58,0.89l0,0z" fill="#FFFAF8" id="svg_204"/>
    <path d="m177.8,200.83c0.72,-0.36 1.45,-0.7 2.18,-1.02c0.24,-0.1 -0.26,0.11 0.04,-0.02c0.09,-0.03 0.18,-0.07 0.27,-0.11c0.18,-0.07 0.36,-0.14 0.54,-0.21c0.46,-0.18 0.9,-0.4 1.35,-0.6c0.25,-0.1 0.5,-0.46 0.56,-0.72c0.06,-0.27 0.05,-0.53 -0.06,-0.79c-0.23,-0.55 -0.84,-0.87 -1.43,-0.7c-1.65,0.46 -3.21,1.2 -4.73,1.98c-0.58,0.31 -0.81,1.18 -0.45,1.74c0.39,0.6 1.1,0.77 1.73,0.45l0,0z" fill="#FFFAF8" id="svg_205"/>
    <path d="m162.68,229.65c0.43,-0.3 0.87,-0.6 1.3,-0.91c0.15,-0.08 0.27,-0.18 0.36,-0.32c0.11,-0.12 0.18,-0.26 0.22,-0.43c0.05,-0.16 0.06,-0.33 0.02,-0.5c-0.01,-0.16 -0.05,-0.32 -0.15,-0.46c-0.17,-0.27 -0.43,-0.51 -0.75,-0.58c-0.11,-0.01 -0.22,-0.03 -0.33,-0.04c-0.22,0 -0.44,0.05 -0.63,0.17c-0.45,0.28 -0.9,0.57 -1.34,0.85c-0.28,0.18 -0.5,0.44 -0.59,0.77c-0.06,0.17 -0.07,0.34 -0.03,0.51c0.01,0.17 0.06,0.33 0.16,0.48c0.17,0.28 0.44,0.52 0.77,0.59c0.11,0.02 0.22,0.03 0.34,0.05c0.23,0 0.45,-0.06 0.65,-0.18l0,0z" fill="#FFFAF8" id="svg_206"/>
    <path d="m168.49,246c-0.27,1.21 -0.51,2.42 -0.72,3.64c-0.23,1.29 -0.45,2.57 -0.47,3.88c-0.03,1.3 1.96,1.59 2.28,0.31c0.28,-1.19 0.44,-2.39 0.64,-3.58c0.2,-1.21 0.42,-2.4 0.66,-3.59c0.13,-0.64 -0.18,-1.38 -0.86,-1.53c-0.63,-0.14 -1.38,0.19 -1.53,0.87l0,0z" fill="#FFFAF8" id="svg_207"/>
    <path d="m167.24,258.37c-0.07,0.78 -0.14,1.57 -0.17,2.35c-0.01,0.32 0.15,0.66 0.37,0.88c0.21,0.22 0.57,0.38 0.88,0.37c0.32,-0.01 0.66,-0.12 0.88,-0.37c0.07,-0.08 0.13,-0.16 0.2,-0.25c0.11,-0.19 0.17,-0.4 0.17,-0.63c0.07,-0.78 0.09,-1.57 0.13,-2.35c0.01,-0.31 -0.15,-0.66 -0.36,-0.87c-0.22,-0.21 -0.57,-0.37 -0.87,-0.36c-0.32,0.01 -0.65,0.12 -0.88,0.36c-0.06,0.08 -0.12,0.17 -0.19,0.25c-0.11,0.19 -0.16,0.4 -0.16,0.62l0,0z" fill="#FFFAF8" id="svg_208"/>
    <path d="m214.01,229.13c0.12,1.66 0.16,3.32 0.11,4.98c-0.05,1.66 -0.23,3.31 -0.32,4.97c-0.06,1.34 2.13,1.67 2.38,0.32c0.64,-3.34 0.53,-6.9 0.23,-10.27c-0.06,-0.64 -0.51,-1.2 -1.2,-1.2c-0.62,0 -1.25,0.55 -1.2,1.2l0,0z" fill="#FFFAF8" id="svg_209"/>
    <path d="m213.48,243.81c0.07,1.09 0,2.18 -0.11,3.26c-0.03,0.29 0.16,0.69 0.36,0.88c0.21,0.19 0.44,0.31 0.71,0.34c0.27,0.04 0.57,0.01 0.8,-0.14c0.25,-0.17 0.52,-0.43 0.57,-0.74c0.19,-1.2 0.22,-2.4 0.12,-3.6c-0.03,-0.33 -0.12,-0.63 -0.36,-0.87c-0.22,-0.21 -0.56,-0.37 -0.87,-0.36c-0.32,0.02 -0.64,0.12 -0.87,0.36c-0.21,0.23 -0.37,0.54 -0.35,0.87l0,0z" fill="#FFFAF8" id="svg_210"/>
   </g>
  </g>
  <g id="selectorGroup9">
   <path fill="none" id="selectedBox9" stroke="#22C" stroke-dasharray="5,5"/>
  </g>
 </g>
</svg>