<?xml version="1.0"?>
<svg width="500" height="500" xmlns="http://www.w3.org/2000/svg" xmlns:svg="http://www.w3.org/2000/svg" enable-background="new 0 0 499.999 500" version="1.1" xml:space="preserve">
 <g class="layer">
  <title>Layer 1</title>
  <g id="svg_233">
   <path d="m489.06,169.96c-4.43,28.11 -18.95,47.72 -18.95,47.72l-36.69,-19.74c0,0 11.96,-13.41 20.75,-33.07c10.85,4.3 22.57,6.25 34.9,5.09z" fill="#05bd00" id="svg_234" stroke="black" stroke-width="0" transform="matrix(1 0 0 1 0 0)"/>
   <path d="m486.85,129.05c4.17,14.85 4.2,29.02 2.22,41.5c-12.3,1.19 -24.05,-0.78 -34.9,-5.09c4.78,-10.7 8.63,-23.2 9.13,-36.44c0.87,-23.35 14.41,-32.41 23.55,0.03z" fill="#05bd00" id="svg_235" stroke="black" stroke-width="0"/>
   <path d="m336.63,438.92c0,0 8.74,-24.77 8.74,-33.53c0,-8.78 -4.36,-19.46 -9.92,-33.55c-1.19,-3.01 -2.96,-7.79 -4.86,-13.21c16.79,14.8 36.82,27.07 58.65,36.56c-1.56,20.06 -9.05,52.63 -29.41,63.33c-10.32,4.61 -16.44,0.58 -16.44,0.58s-8.34,4.58 -13.51,0c0,0 -11.14,-0.76 -9.16,-10.68c3.01,-14.98 15.92,-9.51 15.92,-9.51z" fill="#05bd00" id="svg_236" stroke="black" stroke-width="0"/>
   <path d="m389.51,385c0.16,2.81 0.08,6.53 -0.26,10.78c-21.83,-9.49 -41.86,-21.76 -58.65,-36.56c-1.19,-3.42 -2.43,-7.06 -3.64,-10.7c21.54,2.68 43.32,12.95 61.05,25.38c0.42,3.16 1.27,6.4 1.5,11.11z" fill="#05bd00" id="svg_237" stroke="black" stroke-width="0" transform="matrix(1 0 0 1 0 0)"/>
   <path d="m414.56,321.42c-2.14,4.71 -4.65,9.11 -7.55,13.11c-18.53,25.3 -20.01,32.36 -19.01,39.95c-17.74,-12.42 -39.52,-22.67 -61.03,-25.38c-3.01,-9.03 -5.73,-17.91 -6.47,-22.14c26.85,-13.16 64.25,-6.93 94.05,-5.54z" fill="#05bd00" id="svg_238" stroke="black" stroke-width="0"/>
   <g id="svg_239">
    <path d="m391.85,346.52c-3.04,-4.5 -5.49,-9.18 -7.52,-13.97c3.19,0.23 5.07,0.43 5.07,0.43s0.92,5.9 2.45,13.54z" fill="none" id="svg_240"/>
    <path d="m102.06,250.85c-13.83,11.66 -22.78,19.79 -29.41,27.4c4.46,-16.32 11.59,-29.15 17.95,-40.08c6.15,2.05 12.38,3.85 18.61,5.36c-2.27,2.71 -4.65,5.19 -7.15,7.31z" fill="#05bd00" id="svg_241" stroke="black" stroke-width="0" transform="matrix(1 0 0 1 0 0)"/>
    <path d="m109.29,186.64l25.95,-0.76c-5.65,20.77 -14.17,43.37 -26.61,58.25c-6.23,-1.52 -12.46,-3.31 -18.61,-5.36c5.49,-9.44 10.43,-17.48 12.51,-25.05c5.17,-18.67 6.76,-27.07 6.76,-27.07z" fill="#05bd00" id="svg_242" stroke="black" stroke-width="0" transform="matrix(1 0 0 1 0 0)"/>
    <path d="m452.51,388.17c0.11,17.81 -6.31,59.21 -29.75,71.53c-10.32,4.61 -16.44,0.58 -16.44,0.58s-8.34,4.58 -13.51,0c0,0 -11.14,-0.76 -9.13,-10.68c2.98,-14.98 15.89,-9.51 15.89,-9.51s8.74,-24.77 8.74,-33.55c0,-8.75 -4.36,-19.43 -9.92,-33.53c-2.93,-7.41 -5.41,-18.02 -7.1,-26.49c11.64,17.38 31.07,32.31 61.24,41.65z" fill="#05bd00" id="svg_243" stroke="black" stroke-width="0"/>
    <path d="m118.85,337.32c2.32,-4.45 8.08,5.74 15.97,10.37c-1,11.66 -4.12,46.76 -6.84,63.18c-3.93,24.06 -3.96,51.46 -21.46,54.88c-8.68,1.01 -11.93,-3.04 -11.93,-3.04s-2.45,2.58 -7.07,3.21c2.14,-1.9 4.09,-4.1 5.89,-6.63c25.45,-36.61 22.25,-79.3 25.45,-121.98z" fill="#05bd00" id="svg_244" stroke="black" stroke-width="0"/>
    <path d="m82.26,466.93c-7.95,-1.52 -7.42,-8 -7.42,-8s-10.64,3.82 -10.56,-12.95c1.27,-11.44 21.12,-8.38 21.12,-8.38s-3.54,-22.49 -7.13,-50.71c-3.56,-28.19 -15.1,-56.02 -9.13,-94.88c0.74,-4.86 1.74,-9.44 2.93,-13.76c6.63,-7.62 15.57,-15.74 29.41,-27.4c2.51,-2.13 4.88,-4.61 7.15,-7.31c24.94,6.05 50.5,7.72 75.12,4.78c16.6,29.58 61.74,51.39 74.25,69.83c6.81,10.07 9.66,24.52 10.77,36.87c-10.27,1.77 -19.69,2.07 -29.06,1.39c0,0 -4.78,25.15 -13.51,52.22c-8.76,27.05 -8.37,35.83 -13.15,47.64c-4.75,11.82 -18.27,18.29 -32.2,11.44c0,0 -10.72,4.17 -19.88,-3.44c0,0 -7.95,1.52 -8.34,-11.44c-0.4,-12.95 22.25,-12.95 22.25,-12.95s-1.19,-42.68 0.82,-63.64c1.98,-20.98 1.98,-27.07 1.98,-27.07s-15.49,0.76 -42.55,-4.2c0,0 -0.11,1.44 -0.32,3.9c-7.89,-4.61 -13.65,-14.83 -15.97,-10.37c-3.19,42.68 0,85.37 -25.45,121.96c-1.79,2.56 -3.75,4.76 -5.86,6.65c-1.53,0.2 -3.3,0.2 -5.28,-0.18z" fill="#05bd00" id="svg_245" stroke="black" stroke-width="0" transform="matrix(1 0 0 1 0 0)"/>
    <path d="m188.02,184.26c-7.73,16.55 -13.54,35.47 -10.14,51.16c1.03,4.68 2.85,9.16 5.28,13.49c-24.63,2.94 -50.18,1.27 -75.12,-4.78c12.43,-14.88 20.96,-37.47 26.61,-58.25l53.37,-1.62z" fill="#05bd00" id="svg_246" stroke="black" stroke-width="0"/>
    <path d="m287.28,197.67c11.75,1.87 24.84,3.06 38.54,2.68c6.65,24.9 13.81,49.52 26.63,71.66c28.32,48.91 86.95,39.7 133.14,15.56c-1.74,17.46 -7.02,34.34 -16.26,46.96c-26.24,35.83 -18.29,35.04 -17.5,51.06c0.05,0.78 0.05,1.67 0.08,2.58c-30.17,-9.34 -49.6,-24.26 -61.24,-41.62c-1.53,-7.67 -2.45,-13.56 -2.45,-13.56s-1.87,-0.2 -5.07,-0.43c-12.8,-0.94 -47.25,-2.15 -72.06,8.83c-17.18,7.59 -31.31,12.04 -44.08,14.22c-1.11,-12.37 -3.96,-26.8 -10.77,-36.87c-12.49,-18.45 -57.65,-40.26 -74.25,-69.83c39.67,-4.73 76.89,-21.43 105.29,-51.24z" fill="#05bd00" id="svg_247" stroke="black" stroke-width="0"/>
    <path d="m187.43,184.85l47.91,-1.42c0,0 21.72,9.87 52.53,14.83c-28.4,29.81 -65.62,46.51 -105.29,51.24c-2.43,-4.33 -4.25,-8.81 -5.28,-13.49c-3.41,-15.69 2.4,-34.61 10.14,-51.16z" fill="#05bd00" id="svg_248" stroke="black" stroke-width="0" transform="matrix(1 0 0 1 0 0)"/>
    <path d="m351.87,272.6c-12.83,-22.14 -19.98,-46.76 -26.63,-71.66c4.04,-0.13 8.16,-0.35 12.3,-0.76c19.35,-1.87 36.77,-3.92 52.53,-4.91c28.96,-1.82 52.21,-0.03 70.74,13.31c18.53,13.33 27.4,47.44 24.21,79.58c-46.19,24.14 -104.82,33.35 -133.14,-15.56z" fill="#05bd00" id="svg_249" stroke="black" stroke-width="0" transform="matrix(1 0 0 1 0 0)"/>
   </g>
   <path d="m171.06,43.12c0,0 -35.11,-0.18 -57.23,-7.19c-22.09,-6.98 -49.39,9.46 -41.31,56.93c8.08,47.47 12.59,62.6 30.09,72.87c17.53,10.27 29.7,-33.3 46.91,-56.02c17.21,-22.7 68.5,-62.04 21.54,-66.6z" fill="#05bd00" id="svg_250" stroke="black" stroke-width="0"/>
   <g id="svg_251" transform="matrix(1 0 0 1 0 0)">
    <path d="m57.49,87.66c3.77,0.08 6.55,0 8.63,-0.28c20.35,4.3 23.92,-5.06 37.98,-23.15c9.85,-12.63 24.47,-23.78 35.05,-30.94c11.43,-1.87 24.44,-1.16 40.49,2.33c-6.36,10.85 -18.27,27.91 -36.32,40.71c-28.61,20.32 -43.47,16.9 -36.56,37.68c6.89,20.75 31.81,40.58 17.76,61.41c-7.21,10.68 -15.15,19.99 -21.57,26.77c-14.33,-5.57 -28.11,-12.52 -42.95,-19.18c-38.59,-17.36 -36.77,-39.85 -37.38,-56.6c-0.61,-16.78 5.15,-39.4 34.84,-38.74z" fill="#05bd00" id="svg_252" stroke="black" stroke-width="0"/>
    <path d="m104.69,64.23c-14.07,18.09 -17.63,27.48 -37.98,23.15c11.17,-1.47 3.01,-8.7 25.84,-28.64c15.97,-13.94 29.88,-22.62 47.2,-25.45c-10.58,7.16 -25.21,18.32 -35.05,30.94z" fill="#05bd00" id="svg_253" stroke="black" stroke-width="0"/>
    <path d="m106.16,114c-6.89,-20.77 7.97,-17.36 36.59,-37.68c18.06,-12.83 29.96,-29.86 36.32,-40.71c0.92,0.2 1.79,0.38 2.75,0.58c42.21,9.82 55.99,45.87 57.2,44.15l8.53,98.6c0,0 -6.18,22.04 -65.91,32.08c-32.05,5.39 -56.33,0.05 -79.24,-8.86c6.39,-6.78 14.36,-16.09 21.54,-26.77c14.07,-20.85 -10.85,-40.66 -17.76,-61.41z" fill="#05bd00" id="svg_254" stroke="black" stroke-width="0"/>
   </g>
   <path d="m188.18,131.3c1.79,-26.19 -9.29,-79.75 16.81,-75.12c3.83,0.68 8.45,2.58 14.02,6.05c0,0 30.25,22.82 54.38,31.53c24.13,8.7 35.37,40.13 -6.7,74.03c-27.98,22.54 -44,34.28 -58.28,38.76c-7.15,2.25 -13.91,2.68 -21.46,1.7c-22.62,-2.99 -0.82,-46.94 1.24,-76.94z" fill="#05bd00" id="svg_255" stroke="black" stroke-width="0"/>
   <path d="m198.55,134.36c1.72,-26.19 -8.95,-79.75 16.18,-75.12c3.7,0.68 8.13,2.58 13.49,6.02c0,0 29.12,22.85 52.34,31.53c23.23,8.7 34.02,40.15 -6.44,74.06c-26.95,22.54 -42.37,34.28 -56.12,38.74c-6.89,2.25 -13.38,2.71 -20.64,1.7c-21.78,-2.96 -0.79,-46.91 1.19,-76.92z" fill="#05bd00" id="svg_256" stroke="black" stroke-width="0"/>
   <g id="svg_261">
    <path d="m47.63,87.86c15.44,-2.68 32.41,3.16 46.06,9.39c1.14,0.51 0.16,2.1 -0.98,1.59c-13.09,-5.95 -29.72,-11.74 -44.58,-9.18c-1.21,0.2 -1.74,-1.59 -0.5,-1.8l0,0z" fill="#05bd00" id="svg_262" stroke="black" stroke-width="0"/>
   </g>
   <path d="m124.17,111.52c-2.4,3.85 -1.66,8.5 1.64,10.37c3.3,1.87 7.89,0.28 10.29,-3.57c2.38,-3.87 1.66,-8.53 -1.64,-10.4c-3.3,-1.87 -7.92,-0.28 -10.29,3.59z" fill="#05bd00" id="svg_263" stroke="black" stroke-width="0"/>
   <g id="svg_264" opacity="0.2">
    <path d="m198.45,348.24c-31.52,7.24 -62.03,-1.06 -91.6,-11.06c-1.16,-0.38 -0.69,-2.07 0.53,-1.77c30.22,7.34 58.78,18.37 90.78,11.82c0.66,-0.15 0.95,0.83 0.29,1.01l0,0z" fill="#05bd00" id="svg_265" stroke="black" stroke-width="0"/>
   </g>
   <g id="svg_266">
    <path d="m185.01,459.78c-0.37,8.4 -8.97,11.31 -16.44,9.08c-4.12,-1.24 -8.37,-3.62 -10.74,-7.16c-2.32,-3.44 0.05,-9.16 1.53,-12.42c0.53,-1.24 2.59,-0.33 2.22,0.91c-0.71,2.43 -1.61,4.76 -1.9,7.29c-0.53,4.25 3.96,6.55 7.26,8.25c6.94,3.52 15.15,1.9 17.08,-6.07c0.13,-0.53 1.03,-0.43 1,0.13l0,0z" fill="#05bd00" id="svg_267" stroke="black" stroke-width="0"/>
   </g>
   <g id="svg_268">
    <path d="m161.2,464.31c-3.56,1.47 -6.73,-1.21 -8.45,-4.05c-1.95,-3.14 -2.16,-8.38 -0.13,-11.51c0.34,-0.53 1.37,-0.35 1.32,0.35c-0.16,2.5 -0.87,4.76 -0.48,7.31c0.58,3.62 3.33,7.11 7.44,6.88c0.55,-0.03 0.82,0.81 0.29,1.01l0,0z" fill="#05bd00" id="svg_269" stroke="black" stroke-width="0"/>
   </g>
   <g id="svg_270">
    <path d="m193.41,445.68c-9.9,-2.88 -21.22,-4.76 -31.23,-1.52c-0.77,0.25 -1.27,-0.89 -0.55,-1.24c9.16,-4.53 22.94,-1.62 31.99,2c0.48,0.18 0.32,0.89 -0.21,0.76l0,0z" fill="#05bd00" id="svg_271" stroke="black" stroke-width="0"/>
   </g>
   <g id="svg_272" transform="matrix(1 0 0 1 0 0)">
    <path d="m97.72,456.07c1,9.01 -8.61,13.79 -16.42,10.48c-7.34,-3.14 -9.98,-14.45 -3.91,-19.91c0.98,-0.89 2.45,0.23 1.82,1.34c-2.69,4.93 -3.75,10.53 0.74,14.83c6.12,5.84 16.74,1.54 16.42,-6.73c-0.03,-0.86 1.24,-0.81 1.35,0l0,0z" fill="#05bd00" id="svg_273" stroke="black" stroke-width="0"/>
   </g>
   <g id="svg_274">
    <path d="m98.49,440.47c-4.62,-0.81 -9.19,-1.87 -13.83,-2.38c-5.57,-0.58 -9.95,0.81 -14.99,2.81c-0.69,0.25 -1.19,-0.73 -0.71,-1.19c7.89,-7.26 20.83,-2.66 29.83,-0.28c0.71,0.2 0.42,1.16 -0.29,1.04l0,0z" fill="#05bd00" id="svg_275" stroke="black" stroke-width="0"/>
   </g>
   <g id="svg_276" opacity="0.2">
    <path d="m121.58,453.65c-2.59,5.01 -4.96,9.54 -10.24,12.27c-4.09,2.13 -9.92,1.42 -14.25,0.43c-0.87,-0.2 -0.66,-1.47 0.21,-1.49c4.12,-0.13 7.89,0.83 11.98,-0.2c5.91,-1.52 8.18,-7.21 11.48,-11.46c0.34,-0.48 1.08,-0.08 0.82,0.46l0,0z" fill="#05bd00" id="svg_277" stroke="black" stroke-width="0"/>
   </g>
   <g id="svg_278">
    <path d="m76.29,460.15c-3.38,0.83 -7.36,0.25 -9.5,-2.63c-2.93,-3.92 -2.64,-8.68 -1.61,-13.23c0.18,-0.73 1.24,-0.51 1.29,0.18c0.26,3.72 -1.16,7.06 0.53,10.68c1.82,3.92 5.31,4.07 9.16,4.1c0.53,0 0.66,0.76 0.13,0.91l0,0z" fill="#05bd00" id="svg_279" stroke="black" stroke-width="0"/>
   </g>
   <g id="svg_280">
    <path d="m180.71,467.49c4.83,3.87 16,1.72 21.01,-0.81c7.5,-3.8 9.13,-12.5 10.48,-19.66c0.26,-1.34 2.45,-1.01 2.45,0.3c-0.16,9.06 -4.43,18.17 -13.09,22.34c-5.57,2.71 -17.18,3.47 -21.72,-1.34c-0.5,-0.56 0.26,-1.29 0.87,-0.83l0,0z" fill="#05bd00" id="svg_281" stroke="black" stroke-width="0"/>
   </g>
   <g id="svg_282">
    <path d="m409.8,452.03c-0.55,2.76 -0.9,6.1 -2.8,8.38c-2.06,2.4 -4.99,2.68 -8.05,2.43c-3.06,-0.28 -6.94,-2.38 -8.02,-5.29c-1.58,-4.23 1.4,-7.67 3.41,-11.23c0.55,-0.99 2.3,-0.3 1.93,0.78c-0.87,2.38 -2.56,4.38 -3.38,6.78c-1.53,4.5 4.57,6.91 8.02,7.08c5.57,0.28 6.34,-5.31 7.87,-9.21c0.24,-0.61 1.16,-0.38 1.03,0.28l0,0z" fill="#05bd00" id="svg_283" stroke="black" stroke-width="0"/>
   </g>
   <g id="svg_284">
    <path d="m392.59,459.9c-2.85,-0.3 -5.52,-1.14 -7.73,-2.94c-2.14,-1.75 -2.82,-4.93 -1.06,-7.14c0.42,-0.51 1.4,-0.08 1.35,0.56c-0.18,2.25 -0.42,3.77 1.45,5.47c1.61,1.47 4.07,2.25 6.18,2.78c0.71,0.2 0.58,1.34 -0.18,1.27l0,0z" fill="#05bd00" id="svg_285" stroke="black" stroke-width="0"/>
   </g>
   <g id="svg_286">
    <path d="m405.93,459.29c3.48,2.53 11.64,0.78 15.42,-0.2c7.23,-1.9 11.93,-9.99 15.57,-15.61c0.53,-0.86 2.16,-0.3 1.74,0.71c-2.93,7.14 -8.95,14.45 -16.68,17.1c-4.14,1.44 -13.22,2.05 -16.66,-1.27c-0.4,-0.35 0.13,-1.06 0.61,-0.73l0,0z" fill="#05bd00" id="svg_287" stroke="black" stroke-width="0"/>
   </g>
   <g id="svg_288">
    <path d="m372.2,448.41c-4.78,5.92 -11.17,11.34 -18.95,12.88c-3.46,0.68 -11.17,2.15 -12.25,-2.58c-0.26,-1.16 1.43,-1.95 2.09,-0.83c1.98,3.39 8.9,1.37 11.96,0.73c6.15,-1.27 12.12,-6.88 16.34,-11.01c0.55,-0.53 1.27,0.25 0.82,0.81l0,0z" fill="#05bd00" id="svg_289" stroke="black" stroke-width="0"/>
   </g>
   <g id="svg_290">
    <path d="m347.22,454.06c-1.16,3.06 -1.82,5.69 -4.75,7.57c-2.69,1.75 -6.36,1.97 -9.4,1.24c-6.76,-1.62 -8.84,-8.1 -3.72,-12.88c0.66,-0.61 2.01,-0.03 1.61,0.89c-0.87,2.15 -2.85,4.58 -1.58,7.01c1.03,1.97 4.57,2.94 6.68,3.04c2.14,0.1 4.3,-0.53 6.15,-1.57c1.98,-1.11 2.72,-4.07 4.17,-5.74c0.32,-0.35 1,0.03 0.84,0.46l0,0z" fill="#05bd00" id="svg_291" stroke="black" stroke-width="0"/>
   </g>
   <g id="svg_292">
    <path d="m401.86,374.15c-17.53,-31.75 -23.2,-68.97 -14.91,-104.09c0.13,-0.53 0.9,-0.33 0.84,0.18c-3.3,36.99 -1,69.18 15.55,103.23c0.4,0.81 -1.03,1.47 -1.48,0.68l0,0z" fill="#05bd00" id="svg_293" stroke="black" stroke-width="0"/>
   </g>
   <g id="svg_294">
    <path d="m235.03,372.48c3.38,-17.08 7.73,-33.98 10.69,-51.16c3.62,-21.05 4.99,-39.14 2.59,-60.37c-0.08,-0.78 1.32,-0.96 1.45,-0.18c6.34,38.54 -4.91,74.52 -13.73,111.99c-0.13,0.63 -1.14,0.35 -1,-0.28l0,0z" fill="#05bd00" id="svg_295" stroke="black" stroke-width="0"/>
   </g>
  </g>
 </g>
</svg>