<?xml version="1.0"?>
<svg width="500" height="500" xmlns="http://www.w3.org/2000/svg" xmlns:svg="http://www.w3.org/2000/svg" data-name="Layer 1">
 <g class="layer">
  <title>Layer 1</title>
  <path d="m445.38,114.83l-7.38,0c-6.02,0 -11.46,-3.3 -14.18,-8.74c-9.33,-18.65 -27.98,-30.12 -48.77,-30.12l-26.81,0l0,-43.33c0,-10.3 -10.1,-17.49 -19.82,-14.18c-22.34,8.16 -38.47,29.73 -38.47,54.99l0,31.67l-18.65,55.18c-2.91,7.58 -10.3,12.82 -18.26,12.82l-99.09,0c-21.18,0 -40.8,6.99 -56.93,18.46c-11.66,-5.44 -40.22,-22.15 -40.22,-57.32c0,-10.69 -8.74,-19.43 -19.43,-19.43s-19.43,8.74 -19.43,19.43c0,47.99 31.09,74.41 52.27,87.04c-8.55,14.38 -13.41,31.09 -13.41,48.96l0,165.34c0,26.62 21.76,48.38 48.57,48.38s48.57,-21.76 48.57,-48.38l0,-68.2l116.58,0l0,68c0,26.81 21.76,48.57 48.57,48.57s48.57,-21.76 48.57,-48.57l0,-63.34c0,-7.77 0.78,-15.54 2.33,-23.32l40.02,-119.49c41.19,-1.75 74.22,-35.94 74.22,-77.52c0,-17.88 -13.6,-36.92 -38.86,-36.92z" fill="#05bd00" id="svg_1"/>
 </g>
</svg>