<?xml version="1.0"?>
<svg width="500" height="500" viewBox="0 0 1200 1200" xmlns="http://www.w3.org/2000/svg" xmlns:svg="http://www.w3.org/2000/svg" enable-background="new 0 0 1200 1200" version="1.1" xml:space="preserve">
 <g class="layer">
  <title>Layer 1</title>
  <g id="svg_175">
   <g id="svg_176">
    <path d="m202.72,79.28c-13.13,-12.84 -23.63,-5.14 -31.51,7.7c-18.39,23.13 -42.01,46.24 -55.14,71.92c-7.89,15.41 -13.13,28.25 -26.25,38.52c-10.52,7.72 -28.88,10.29 -36.77,23.13c-7.87,10.27 -2.63,30.82 -5.24,46.24c-5.26,20.54 -15.76,33.38 -26.27,51.36c-15.74,30.82 0,69.35 2.63,100.17c0,30.82 36.77,51.36 68.28,38.52c26.25,-10.27 31.49,-51.36 52.51,-69.35c34.14,-25.68 44.64,-56.5 52.51,-95.03c21.02,-77.06 18.39,-141.26 7.89,-218.32l-2.63,5.14z" fill="#FFFFFF" id="svg_177"/>
    <path d="m204.57,77.47c-8.53,-7.92 -18.25,-9.81 -27.52,-1.96c-4.92,4.16 -8.08,10.19 -12.11,15.1c-4.94,6.01 -10.06,11.88 -15.13,17.78c-9.55,11.08 -18.99,22.29 -27.2,34.4c-7.76,11.43 -12.86,24.22 -19.97,36c-3.31,5.51 -7.36,10.42 -12.16,14.75c-4.48,4.03 -10.18,6.38 -15.68,8.79c-10.21,4.44 -19.46,9.21 -25.31,18.91c-5.75,9.55 -3.52,23.13 -3.5,33.65c0.04,14.67 -5.88,27.55 -13.26,40.06c-7.07,11.99 -15.49,22.92 -18.78,36.62c-3.12,13.06 -2.01,26.75 -0.15,39.91c1.99,14.15 5.49,28.07 7.26,42.24c0.66,5.2 0.62,10.31 1.95,15.41c1.31,5 3.84,9.7 6.92,13.84c12.6,17.06 36.02,23.52 56.39,18.59c21.7,-5.24 31.34,-24.89 40.54,-42.85c4.86,-9.49 9.84,-19.22 17.36,-26.99c4.22,-4.35 9.44,-7.77 13.9,-11.88c4.6,-4.26 8.85,-8.94 12.67,-13.89c14.85,-19.19 22.38,-41.94 27.6,-65.2c3.44,-15.38 7.53,-30.6 10.38,-46.11c2.74,-14.89 4.63,-29.94 5.83,-45.02c2.4,-30.42 1.32,-60.98 -1.48,-91.33c-1.34,-14.75 -3.16,-29.46 -5.16,-44.15c-0.44,-3.22 -5.67,-3.27 -5.24,0c8.46,62.26 11.84,124.67 -0.45,186.68c-2.95,14.91 -6.79,29.7 -10.31,44.5c-2.84,11.95 -6.47,23.79 -11.63,35.01c-5.13,11.14 -12.05,21.37 -20.45,30.42c-8,8.62 -18.14,14.84 -25.23,24.27c-12.79,16.98 -17.67,39.61 -34.12,53.97c-17.72,15.49 -47.7,10.34 -63.23,-5.35c-3.78,-3.83 -6.62,-8.51 -8.47,-13.51c-2.14,-5.79 -1.95,-11.95 -2.7,-17.98c-1.7,-13.54 -4.92,-26.86 -7.02,-40.35c-2.25,-14.49 -3.01,-29.46 1.19,-43.68c4.03,-13.58 14.3,-25.26 20.98,-37.69c5.49,-10.18 9.53,-20.93 9.93,-32.47c0.4,-10.95 -2.38,-23.98 2.84,-34.14c4.8,-9.42 15.42,-13.6 24.67,-17.61c10.03,-4.38 17.59,-9.99 24.27,-18.61c7.13,-9.23 11.5,-20.24 16.97,-30.42c6.58,-12.25 15.28,-23.37 24.17,-34.08c8.8,-10.62 18.05,-20.89 26.77,-31.58c3.78,-4.64 6.6,-10.01 11.5,-13.69c6.53,-4.9 13.2,-1.63 18.5,3.27c2.44,2.28 6.17,-1.35 3.71,-3.63l0,0z" fill="#231F20" id="svg_178"/>
   </g>
   <g id="svg_179">
    <path d="m292,76.71c-5.26,-10.27 18.37,-5.14 26.25,-5.14c36.75,10.29 47.27,38.54 55.14,71.92c10.5,33.4 39.38,53.95 55.14,84.76c15.76,33.4 13.13,71.92 28.88,105.31c13.13,30.82 34.14,59.08 15.76,92.45c-21,33.4 -70.9,53.93 -105.04,30.82c-28.88,-17.98 -21,-61.65 -23.63,-92.45c-5.24,-38.54 -13.13,-77.06 -10.5,-115.58c0,-48.81 0,-128.42 -34.14,-169.51l-7.87,-2.57z" fill="#FFFFFF" id="svg_180"/>
    <path d="m294.25,75.41c-1.44,-3.18 5.05,-2.57 6.94,-2.55c4.43,0.06 8.83,0.65 13.24,1.05c11.07,1.02 21.81,7.14 29.92,14.39c8.21,7.35 13.79,17.06 17.88,27.07c4.45,10.86 6.22,22.44 10.23,33.4c9.04,24.64 28.79,43.28 43.77,64.37c8.64,12.16 14.34,25.14 18.16,39.46c3.88,14.45 5.96,29.33 8.91,43.98c2.89,14.43 7.3,27.96 13.24,41.44c5.86,13.3 12.98,26.09 17.55,39.91c4.79,14.45 4.99,29.33 -1.42,43.35c-5.07,11.06 -15.11,20.41 -25.03,27.38c-19.29,13.56 -45,20.07 -67.76,11.49c-10.93,-4.11 -19.77,-11.79 -24.87,-22.05c-4.99,-10.05 -6.13,-21.8 -6.75,-32.79c-0.61,-11.16 -0.28,-22.35 -0.7,-33.53c-0.53,-14.73 -3.65,-29.42 -5.79,-43.98c-2.48,-16.97 -4.6,-33.99 -5.41,-51.12c-0.64,-13.75 0.28,-27.48 0.23,-41.24c-0.19,-45.87 -1.25,-95.71 -21.9,-137.88c-3.52,-7.18 -7.89,-13.89 -12.98,-20.11c-2.1,-2.59 -5.79,1.07 -3.71,3.63c14.91,18.21 21.96,41.41 26.44,63.96c4.77,24.09 6.17,48.75 6.7,73.23c0.61,27.51 -1.04,54.86 1.85,82.32c1.72,16.23 4.27,32.36 6.7,48.51c1.91,12.91 2.8,25.44 2.91,38.48c0.17,20.52 -0.19,44.13 12.99,61.35c13.15,17.19 37.15,22.39 57.81,19.28c22.32,-3.33 43.73,-16.69 57.28,-34.21c8.17,-10.56 12.39,-22.98 12.3,-36.25c-0.08,-13.03 -4.97,-25.57 -10.21,-37.34c-6.07,-13.64 -13.34,-26.81 -18.16,-40.94c-4.84,-14.17 -7.23,-29.05 -9.91,-43.7c-2.7,-14.69 -5.79,-29.34 -11.44,-43.28c-4.96,-12.23 -12.94,-23.03 -21.09,-33.4c-8.13,-10.34 -16.72,-20.33 -23.98,-31.29c-7.51,-11.34 -11.54,-23.02 -15.02,-35.95c-5.43,-20.15 -14,-39.74 -31.63,-52.42c-5.9,-4.24 -12.67,-7.2 -19.6,-9.47c-4.84,-1.59 -10.44,-1.54 -15.53,-1.98c-6.94,-0.59 -21.62,-0.85 -16.68,9.99c1.38,3.02 5.9,0.41 4.52,-2.59l0,0z" fill="#231F20" id="svg_181"/>
   </g>
   <g id="svg_182">
    <path d="m144.95,390.06c-55.14,-48.81 -31.51,-120.72 0,-172.09c18.39,-30.82 26.25,-59.08 34.12,-92.45c5.26,-30.82 15.76,-59.08 49.9,-64.22c94.52,-15.41 118.16,102.72 128.66,166.94c8.15,49.84 11.24,122.24 -28.22,161.15c-42.82,42.22 -138.93,36.28 -184.46,0.67z" fill="#FFFFFF" id="svg_183"/>
    <path d="m146.81,388.24c-19.24,-17.28 -30.59,-39.8 -32.14,-65.33c-1.48,-23.98 5.32,-48.03 14.81,-69.92c10.42,-24.05 25.76,-45.51 35.43,-69.94c5.3,-13.4 9.29,-27.23 12.86,-41.13c3.16,-12.3 5.05,-24.94 8.76,-37.1c3.16,-10.42 8.04,-20.43 15.87,-28.25c8.47,-8.47 19.92,-12.01 31.66,-13.43c18.65,-2.26 37.17,1.35 52.94,11.47c31.15,19.98 45.7,58.91 55.1,92.44c10.5,37.41 17.42,77.19 17.97,115.99c0.66,45.48 -9.84,97.54 -54.89,120.13c-24.78,12.43 -54.29,14.84 -81.62,12.34c-26.94,-2.46 -55.27,-10.68 -76.76,-27.27c-2.63,-2.04 -6.36,1.57 -3.71,3.63c33.88,26.16 82.17,33.6 124.03,27.85c20.83,-2.85 41.33,-10.01 57.86,-22.96c17.65,-13.82 28.09,-34.64 33.88,-55.6c11.69,-42.41 6.13,-87.79 -1.57,-130.35c-6.45,-35.67 -15.3,-72.25 -33.99,-103.87c-8.64,-14.65 -19.96,-27.97 -34.5,-37.3c-15.09,-9.7 -33.16,-13.28 -51.01,-11.99c-10.84,0.8 -21.51,3.13 -30.79,8.79c-8.59,5.24 -14.94,13.27 -19.5,21.98c-5.05,9.64 -7.83,20.33 -9.93,30.92c-2.76,13.91 -6.3,27.7 -10.42,41.3c-3.59,11.9 -7.96,23.59 -13.22,34.89c-4.92,10.62 -11.08,20.52 -16.85,30.69c-9.99,17.61 -18.16,36.36 -23.21,55.91c-4.84,18.85 -6.22,38.63 -2.14,57.74c4.33,20.26 15.91,38.1 31.38,51.99c2.48,2.22 6.2,-1.39 3.71,-3.63z" fill="#231F20" id="svg_184"/>
   </g>
   <g id="svg_185">
    <path d="m249.97,292.46c17.84,20.33 -16.15,37.65 -32.78,39.91c-74.07,10.03 -18.23,-98.1 32.78,-39.91z" fill="#333333" id="svg_186"/>
    <path d="m248.12,294.25c15.53,18.59 -16.89,33.75 -32.08,35.69c-11.61,1.5 -27.6,0.39 -31.36,-12.75c-2.95,-10.21 2.93,-21.63 9.91,-28.92c8.63,-9.01 21.05,-12.8 33.14,-8.86c8.17,2.66 14.87,8.62 20.39,14.84c2.23,2.5 5.92,-1.13 3.71,-3.61c-9.65,-10.84 -23.04,-19.74 -38.38,-17.74c-11.82,1.55 -21.75,9.12 -28.15,18.71c-5.6,8.42 -8.8,19.96 -4.75,29.62c4.9,11.71 18.29,14.73 30.04,14.3c20.94,-0.74 61.97,-20.07 41.24,-44.89c-2.14,-2.57 -5.83,1.07 -3.71,3.61z" fill="#231F20" id="svg_187"/>
   </g>
   <path d="m292,217.97c-12.65,0.59 -13.37,14.52 -10.4,23.79c0.44,1.37 1.8,2.13 3.22,1.79c13.24,-3.07 17.06,-19.83 5.88,-27.81c-1.08,-0.76 -3.05,-0.26 -3.59,0.93c-2.8,6.09 -2.97,12.69 -2.99,19.28c0,2.09 2.95,3.57 4.48,1.81c2.53,-2.94 3.35,-5.7 3.39,-9.53c0.04,-3.29 -5.2,-3.29 -5.24,0c-0.02,2.39 -0.13,3.89 -1.85,5.9c1.49,0.59 2.99,1.2 4.48,1.81c0,-5.57 -0.11,-11.51 2.25,-16.69c-1.19,0.31 -2.38,0.61 -3.58,0.93c7.76,5.51 3.78,16.47 -4.63,18.43c1.08,0.59 2.16,1.18 3.23,1.79c-1.8,-5.59 -3.31,-16.91 5.35,-17.32c3.37,-0.15 3.37,-5.27 0,-5.13l0,0z" fill="#231F20" id="svg_188"/>
   <path d="m169.35,213.59c-4.75,4.81 -8.42,10.36 -8.64,17.23c-0.06,1.57 1.74,3.03 3.33,2.48c3.58,-1.28 6.66,-3.15 8.32,-6.62c1.63,-3.46 1.48,-7.55 1.48,-11.27c0,-1.39 -1.19,-2.55 -2.63,-2.55c-1.74,0 -3.5,0 -5.24,0c-0.87,0 -1.89,0.46 -2.27,1.26c-2.53,5.4 -2.97,10.84 -2.99,16.71c0,1.37 1.19,2.61 2.63,2.57c5.45,-0.19 10.01,-2.5 11.94,-7.64c1.99,-5.25 -1.25,-11.01 -4.84,-14.73c-0.95,-0.98 -2.74,-1 -3.69,0c-3.82,4.05 -5.81,9.21 -6.03,14.67c-0.13,3.29 5.11,3.29 5.24,0c0.17,-4.07 1.65,-8.03 4.48,-11.05c-1.23,0 -2.46,0 -3.69,0c4.88,5.05 5.5,13.32 -3.4,13.62c0.87,0.85 1.74,1.7 2.61,2.55c0.02,-4.87 0.15,-9.6 2.27,-14.12c-0.76,0.43 -1.51,0.85 -2.25,1.28c1.74,0 3.5,0 5.24,0c-0.87,-0.85 -1.74,-1.72 -2.61,-2.57c0,5.57 0.21,10.75 -5.96,12.93c1.12,0.83 2.21,1.67 3.31,2.48c0.19,-5.46 3.35,-9.81 7.11,-13.6c2.35,-2.37 -1.34,-5.99 -3.71,-3.63l0,0z" fill="#231F20" id="svg_189"/>
   <path d="m205.35,338.68c-0.13,18.06 -2.89,38.93 16.23,48.94c13.13,6.88 33.37,5.55 43.39,-6.03c2.16,-2.5 -1.53,-6.14 -3.71,-3.61c-8.72,10.08 -25.55,10.68 -37.04,5.22c-17.33,-8.23 -13.75,-29.07 -13.64,-44.5c0.02,-3.31 -5.22,-3.31 -5.24,-0.02l0,0z" fill="#231F20" id="svg_190"/>
   <g id="svg_191">
    <path d="m284.87,108.16c0,5.46 0,9.1 -1.87,13.65c-9.31,15.49 -26.08,8.21 -36.32,0.93c-8.38,-5.48 -8.38,-2.74 -15.83,3.64c-5.6,3.63 -11.18,8.2 -17.7,8.2c-7.43,-0.93 -38.17,-20.96 -25.14,-28.25c-13.96,-0.91 -26.07,-7.27 -25.14,-21.85c0,-10.03 8.38,-27.33 21.41,-21.87c0,-15.49 2.8,-32.79 21.43,-34.62c13.03,-1.81 27.94,13.67 37.24,5.48c6.53,-6.38 10.25,-15.49 21.41,-11.84c9.33,2.74 8.4,8.2 11.18,15.49c2.8,8.2 5.6,1.81 13.98,-1.83c5.58,-2.72 13.96,-3.64 19.56,0c12.11,6.38 7.43,27.33 2.78,37.36l0,-0.91c10.25,-2.74 18.63,12.75 15.83,20.94c-3.73,13.65 -26.99,15.49 -39.12,11.84c0,1.81 -1.85,4.55 -1.85,6.38l-1.85,-2.74z" fill="#FFFFFF" id="svg_192"/>
    <path d="m282.01,108.16c-0.02,7.86 -0.87,15.99 -9.42,19.26c-5.45,2.07 -11.75,-0.07 -16.7,-2.42c-4.82,-2.29 -8.81,-6.11 -13.96,-7.73c-4.18,-1.33 -7.6,2.13 -10.33,4.64c-4.05,3.77 -13.2,11.36 -19.31,9.6c-3.59,-1.04 -6.98,-3.26 -10.1,-5.25c-3.2,-2.02 -19.67,-13.21 -12.75,-17.5c2.52,-1.55 1.36,-4.98 -1.44,-5.2c-11.71,-0.94 -22.7,-6.11 -22.28,-19.08c0.28,-8.92 6.45,-23.31 17.8,-19.17c1.78,0.65 3.61,-1 3.61,-2.7c0.06,-8.31 0.61,-17.02 5.16,-24.27c5.45,-8.62 16.48,-8.62 25.1,-5.57c7.24,2.57 14.19,6.88 22.17,5.53c8.32,-1.41 10.44,-12.34 18.42,-14.56c5.05,-1.42 10.86,2.24 12.5,6.73c1.29,3.5 1.95,7.12 3.65,10.47c3.48,6.88 11.39,-0.41 15.3,-2.53c9.31,-5.03 21.37,-3.09 24.02,7.9c1.91,7.97 -0.78,17.6 -4.07,24.92c1.78,0.46 3.56,0.93 5.32,1.41c0,-0.31 0,-0.61 0,-0.93c-0.7,0.91 -1.4,1.81 -2.1,2.7c6.09,-1.2 10.12,4.9 11.88,9.73c1.97,5.37 0.42,10.77 -4.22,14.25c-8.15,6.11 -21.51,6.09 -30.93,3.44c-1.38,-0.39 -3.27,0.44 -3.52,1.94c-0.36,2.22 -1.49,4.16 -1.87,6.38c-0.57,3.52 4.94,5.01 5.5,1.48c0.36,-2.22 1.51,-4.16 1.87,-6.38c-1.17,0.65 -2.35,1.3 -3.52,1.96c13.07,3.66 31.72,2.55 40.42,-9.01c8.38,-11.14 -2.53,-32.06 -17.14,-29.18c-1.23,0.24 -2.1,1.52 -2.1,2.7c0,0.3 0,0.61 0,0.91c0,2.59 4.12,4.05 5.32,1.41c6.39,-14.21 10.54,-39.26 -10.29,-43.59c-4.71,-0.98 -10.27,-0.11 -14.62,1.83c-2.33,1.04 -4.52,2.18 -6.66,3.57c-2.42,1.55 -3.27,3.57 -4.46,0.52c-1.53,-4.01 -2.08,-8.36 -4.56,-11.99c-2.57,-3.74 -7.41,-5.4 -11.75,-6.18c-9.93,-1.79 -15.19,7.33 -21.05,13.28c-3.76,3.85 -11.14,0.28 -15.13,-1.33c-4.75,-1.91 -9.48,-4.14 -14.62,-4.83c-9.42,-1.22 -18.4,2.59 -23.81,10.18c-5.41,7.6 -5.88,18.19 -5.94,27.11c1.21,-0.89 2.4,-1.79 3.61,-2.68c-14.55,-5.31 -23.4,10.53 -24.91,22.39c-2.19,17.17 12.39,25.57 27.88,26.81c-0.47,-1.74 -0.96,-3.46 -1.44,-5.2c-9.78,6.07 -1.29,16.06 4.75,21.26c7.93,6.86 18.52,14.76 29.38,10.55c4.22,-1.65 7.87,-4.48 11.6,-6.94c3.03,-2.02 5.69,-7.38 9.82,-5.5c6.68,3.03 11.8,7.64 19.1,9.62c6.28,1.7 12.9,0.87 18.2,-2.87c7.49,-5.29 8.28,-13.54 8.3,-21.89c0.02,-3.61 -5.69,-3.61 -5.69,0l0,0z" fill="#231F20" id="svg_193"/>
   </g>
  </g>
 </g>
</svg>