<?xml version="1.0"?>
<svg width="500" height="500" viewBox="0 0 1200 1200" xmlns="http://www.w3.org/2000/svg" xmlns:svg="http://www.w3.org/2000/svg" enable-background="new 0 0 1200 1200" version="1.1" xml:space="preserve">
 <g class="layer">
  <title>Layer 1</title>
  <g id="svg_153">
   <g id="svg_154">
    <path d="m367.79,105.91c19.07,3.17 36.52,19.05 50.83,30.17c30.17,27 50.81,61.95 46.05,103.24c-3.17,17.47 -11.12,36.52 -7.93,55.59c1.57,14.29 19.05,36.52 15.88,49.24c-4.76,19.05 -33.36,4.76 -42.88,-1.59c-19.07,-14.29 -25.42,-33.36 -31.76,-54c-12.71,-36.52 -12.71,-84.19 -41.31,-111.19l11.12,-71.45z" fill="#A86B29" id="svg_155"/>
    <path d="m367.08,108.44c14.61,2.71 26.92,11.57 38.38,20.55c10.8,8.44 20.76,17.3 29.58,27.83c17.89,21.31 28.73,47.74 27.55,75.76c-0.65,15.31 -6.94,30 -8.78,45.21c-1.52,12.69 1.14,23.76 6.38,35.16c4.14,9.01 12.52,21.23 9.58,31.59c-2.92,10.23 -16.73,6.05 -23.64,3.49c-32.88,-12.16 -43.3,-47.72 -51,-78.74c-8.01,-32.26 -11.37,-69.42 -36.6,-93.77c-2.43,-2.37 -6.15,1.35 -3.72,3.7c18.75,18.1 24.78,44.4 30.19,68.95c5.31,24.21 10.61,49.6 22.16,71.76c9.49,18.14 26.85,32.24 47.23,35.88c7.53,1.37 15.5,-0.06 19.39,-7.27c4.55,-8.41 -0.08,-18.63 -3.55,-26.51c-3.74,-8.44 -8.6,-16.6 -10.63,-25.69c-2.96,-13.32 0.65,-27.32 3.89,-40.22c2.83,-11.23 4.84,-21.78 4.38,-33.41c-0.44,-10.83 -2.83,-21.54 -6.56,-31.69c-7.38,-20.09 -20.68,-37.53 -35.96,-52.29c-8.01,-7.72 -17.17,-14.57 -26.22,-21.04c-9.2,-6.6 -19.39,-12.24 -30.64,-14.33c-3.32,-0.61 -4.72,4.46 -1.4,5.07l0,0z" fill="#231F20" id="svg_156"/>
   </g>
   <g id="svg_157">
    <path d="m183.55,101.15c-19.05,3.17 -36.52,9.52 -54,20.64c-17.47,12.69 -33.36,27 -39.71,47.64c-4.76,19.05 -1.57,41.29 -11.12,58.76c-9.52,20.64 -30.17,30.17 -47.64,42.88c-14.29,11.12 -20.64,20.64 -3.17,30.19c33.36,22.22 85.76,14.29 115.93,-9.54c41.31,-30.17 57.19,-81 58.78,-130.24l-19.07,-60.34z" fill="#A86B29" id="svg_158"/>
    <path d="m182.85,98.61c-28.65,4.93 -54.55,17.66 -75.31,38.1c-9.15,9.01 -16.28,19.77 -20.23,32.03c-4.36,13.57 -2.9,28.88 -5.58,42.8c-2.69,14.04 -10.32,26.01 -20.97,35.35c-9.71,8.56 -21.42,14.34 -31.55,22.33c-6.87,5.43 -17.7,14.04 -13.57,24.12c1.94,4.74 6.68,7.76 10.93,10.19c5.31,3.04 10.4,5.92 16.17,8.06c40.21,15.05 86.69,-0.7 116.42,-29.41c32.22,-31.08 44.53,-77.18 46.07,-120.67c0.11,-3.4 -5.14,-3.4 -5.26,0c-1.88,52.88 -21.14,108.13 -69.27,135.85c-22.24,12.81 -50.11,17.51 -75.25,12.39c-6,-1.23 -11.86,-3.19 -17.4,-5.77c-5.79,-2.68 -13.45,-6.36 -17.08,-11.71c-6.68,-9.79 16.98,-22.84 22.96,-26.79c14.14,-9.35 28.35,-19.05 36.35,-34.49c9.41,-18.14 7.59,-38.04 11.35,-57.55c3.6,-18.86 18.69,-33.45 33.15,-44.82c17.13,-13.45 38.14,-21.27 59.46,-24.95c3.34,-0.57 1.92,-5.64 -1.4,-5.07l0,0z" fill="#231F20" id="svg_159"/>
   </g>
   <g id="svg_160">
    <path d="m120.03,352.08c-11.12,-19.05 4.76,-58.76 7.93,-77.81c7.95,-30.19 12.71,-60.36 17.47,-90.54c3.19,-23.81 3.19,-57.17 23.83,-74.64c19.05,-17.47 52.41,-12.69 76.24,-11.12c30.17,1.59 58.76,1.59 88.93,1.59c22.24,0 39.71,1.59 49.24,23.83c12.71,28.57 9.52,63.52 9.52,93.69c-1.57,47.66 11.12,100.07 1.59,147.71l-274.76,-12.71z" fill="#A86B29" id="svg_161"/>
    <path d="m122.28,350.75c-5.35,-9.73 -3.72,-22.14 -1.94,-32.62c1.97,-11.4 5.27,-22.5 8.08,-33.7c7.63,-30.36 13.36,-61.06 18.27,-91.97c3.81,-24.04 2.68,-51.36 16.37,-72.52c15.1,-23.32 45.42,-22.07 69.82,-20.3c31.74,2.31 63.56,2.52 95.38,2.52c11.82,0.02 24.15,-0.59 35.39,3.7c12.5,4.76 18.01,17.72 21.65,29.62c8.69,28.44 5.33,59.75 5.12,89.04c-0.25,32.26 4.86,64.3 5.27,96.54c0.19,14.42 -0.72,28.84 -3.47,43.01c-0.63,3.32 4.44,4.72 5.08,1.4c6.07,-31.4 3.21,-63.39 0.68,-95c-1.27,-15.92 -2.43,-31.84 -2.31,-47.81c0.11,-14.7 0.65,-29.39 0.42,-44.09c-0.21,-14.4 -1.48,-28.88 -5.24,-42.82c-2.96,-10.95 -7.68,-22.9 -16.98,-29.98c-8.12,-6.2 -18.1,-7.97 -28.06,-8.6c-15.22,-0.97 -30.6,-0.23 -45.84,-0.34c-16.81,-0.13 -33.6,-0.51 -50.39,-1.29c-12.64,-0.61 -25.22,-2.09 -37.89,-2.01c-11.8,0.08 -23.74,1.71 -34.44,6.89c-10.26,4.95 -18.02,14.19 -22.88,24.31c-5.08,10.55 -7.23,22.37 -8.71,33.91c-1.75,13.53 -3.17,27.02 -5.33,40.49c-4.8,29.83 -10.63,59.5 -18.23,88.76c-3.02,11.61 -6.28,23.24 -7.8,35.18c-1.29,10.15 -1.65,21.12 3.43,30.34c1.63,2.98 6.19,0.32 4.53,-2.66l0,0z" fill="#231F20" id="svg_162"/>
   </g>
   <g id="svg_163">
    <path d="m135.91,320.32c-42.88,42.88 -17.47,88.95 30.17,117.52c54,31.76 128.66,38.12 189,15.88c61.95,-23.81 74.66,-85.76 34.95,-138.17c-18.27,-24.61 -44.53,-41.02 -71.09,-55.38c-13.74,-7.46 -27.76,-14.38 -41.57,-21.72c-35.58,-18.9 -53.45,11.93 -77.77,32.35c-20.28,17.04 -44.97,30.81 -63.68,49.52z" fill="#FFFFFF" id="svg_164"/>
    <path d="m134.05,318.46c-17.23,17.53 -27.27,40.26 -20.15,64.74c6.96,23.96 27.53,42.18 47.89,55.1c46.37,29.45 106.67,36.98 160.02,27.25c24.74,-4.5 49.58,-12.9 68.34,-30.24c15.2,-14.04 23.98,-33.51 25.14,-54.07c1.27,-22.65 -7.49,-44.87 -20.23,-63.2c-16.32,-23.47 -39.62,-40.15 -64.11,-54.19c-10.02,-5.75 -20.28,-11.08 -30.55,-16.37c-10.25,-5.29 -20.42,-11.69 -31.36,-15.43c-15.31,-5.24 -29.67,0.28 -41.84,9.77c-6.45,5.03 -12.22,10.95 -18.06,16.66c-7.4,7.21 -15.22,13.77 -23.49,19.96c-17.47,13.02 -36.03,24.67 -51.61,40.03c-2.41,2.39 1.31,6.11 3.72,3.72c20.91,-20.64 47.32,-34.4 68.95,-54.17c15.86,-14.48 32.39,-36.88 56.69,-32.05c7.15,1.4 13.47,5.22 19.85,8.56c7.84,4.08 15.71,8.1 23.55,12.18c13.43,7 26.73,14.31 39.43,22.6c23.7,15.52 44.3,35.86 56.01,61.99c9.13,20.38 10.85,44.23 2.09,65.02c-9.3,22.03 -29.5,37.45 -51.51,45.46c-53.52,19.47 -116.27,16.26 -168.03,-7.15c-24.38,-11.02 -48.46,-27.87 -61.36,-51.95c-5.69,-10.64 -8.04,-22.86 -6.05,-34.78c2.33,-13.91 10.72,-25.86 20.4,-35.71c2.37,-2.41 -1.35,-6.15 -3.72,-3.72z" fill="#231F20" id="svg_165"/>
   </g>
   <g id="svg_166">
    <path d="m296.25,277.93c18.44,21.52 -16.72,39.84 -33.92,42.22c-76.62,10.59 -18.86,-103.75 33.92,-42.22z" fill="#333333" id="svg_167"/>
    <path d="m294.4,279.79c15.88,19.43 -16.41,34.97 -31.88,37.68c-11.54,2.03 -28.69,1.21 -33.43,-11.82c-3.7,-10.13 1.33,-21.97 7.74,-29.85c7.65,-9.41 19.45,-15.25 31.67,-13.02c10.51,1.92 19.09,9.18 25.9,17c2.24,2.56 5.94,-1.18 3.72,-3.72c-9.75,-11.18 -23.11,-20.4 -38.59,-18.86c-11.95,1.2 -22.12,8.65 -28.95,18.2c-6.15,8.58 -9.75,20.11 -6.91,30.55c3.24,11.8 14.89,16.68 26.15,17.44c14.48,0.97 29.2,-3.97 40.93,-12.31c5.64,-4 10.55,-9.22 12.66,-15.9c2.22,-6.96 -0.91,-13.77 -5.27,-19.11c-2.14,-2.62 -5.84,1.12 -3.72,3.72z" fill="#231F20" id="svg_168"/>
   </g>
   <path d="m322.29,198.03c0,3.4 0.51,6.17 1.94,9.26c1.14,2.47 4.9,1.14 4.9,-1.33c0,-3.17 0,-6.34 0,-9.52c0,-2.96 -4.38,-3.59 -5.16,-0.7c-1.35,5.05 1.14,7.44 3.45,11.55c0.91,1.65 3.64,1.78 4.53,0c1.84,-3.72 1.56,-6.05 0.27,-9.96c-0.91,-2.73 -5.27,-2.37 -5.16,0.7c0.13,3.95 1.71,5.96 3.53,9.26c0.97,1.76 3.55,1.65 4.53,0c3.72,-6.07 1.35,-10.89 -4.12,-14.7c-1.35,-0.97 -3.51,0 -3.85,1.57c-1.84,8.16 0.55,18.73 10.47,19.2c1.1,0.06 2.3,-0.83 2.54,-1.94c1.82,-8.52 -2.96,-15.54 -11.38,-17.53c-1.21,-0.28 -2.28,0.21 -2.96,1.21c-5.39,7.87 -1.94,20.87 8.61,21.42c0.85,0.06 1.92,-0.51 2.28,-1.29c3.24,-7.13 2.43,-14.65 -4.12,-19.49c-0.87,-0.65 -2.49,-0.42 -3.19,0.42c-3.17,3.78 -3.34,7.91 0,11.65c2.26,2.54 5.98,-1.2 3.72,-3.7c-1.23,-1.39 -1.48,-2.49 0,-4.23c-1.06,0.13 -2.13,0.27 -3.19,0.42c4.06,2.98 4.17,7.99 2.24,12.28c0.76,-0.44 1.52,-0.87 2.26,-1.29c-6.68,-0.36 -7,-9.24 -4.08,-13.53c-0.99,0.4 -1.97,0.82 -2.96,1.21c5.5,1.29 8.94,5.27 7.68,11.06c0.85,-0.65 1.69,-1.29 2.54,-1.94c-6.11,-0.3 -6.43,-8.01 -5.41,-12.56c-1.29,0.53 -2.58,1.06 -3.87,1.57c3.13,2.2 4.36,4.04 2.24,7.53c1.52,0 3.04,0 4.53,0c-1.29,-2.39 -2.71,-3.76 -2.81,-6.62c-1.73,0.23 -3.43,0.47 -5.16,0.7c0.8,2.39 1.4,3.62 0.27,5.92c1.52,0 3.02,0 4.53,0c-1.44,-2.6 -3.78,-4.29 -2.9,-7.51c-1.73,-0.23 -3.45,-0.46 -5.16,-0.7c0,3.19 0,6.36 0,9.54c1.63,-0.46 3.26,-0.89 4.9,-1.33c-1.04,-2.24 -1.21,-4.19 -1.23,-6.62c-0.02,-3.4 -5.27,-3.4 -5.26,0l0,0z" fill="#231F20" id="svg_169"/>
   <path d="m204.35,191.96c-4.14,-0.87 -7.76,0.42 -10.06,4.02c-2.54,3.98 -1.78,9.18 0.06,13.21c1.59,3.51 4.88,6.09 8.82,5.2c4.25,-0.95 6.51,-6.05 7.78,-9.68c1.1,-3.13 2.39,-6.91 1.08,-10.19c-1.02,-2.54 -3.38,-3.97 -6.11,-3.45c-6.81,1.29 -8.56,10.47 -8.08,16.13c0.13,1.42 1.12,2.62 2.64,2.62c1.06,0 2.13,0 3.17,0c0.87,0 1.88,-0.47 2.28,-1.29c1.4,-2.94 2.56,-6.11 1.65,-9.37c-0.83,-3 -3.66,-4.63 -6.39,-5.62c-1.12,-0.4 -2.39,0.27 -2.98,1.21c-3.24,5.24 -2.14,10.02 2.01,14.31c0.93,0.95 2.81,1.08 3.72,0c2.33,-2.81 2.35,-6.32 2.35,-9.81c0,-3.38 -5.26,-3.38 -5.26,0c0,1.75 0.4,4.65 -0.82,6.09c1.23,0 2.47,0 3.72,0c-2.56,-2.64 -3.19,-4.71 -1.2,-7.93c-0.99,0.4 -1.97,0.8 -2.96,1.21c3.76,1.33 3.11,4.08 1.61,7.25c0.74,-0.44 1.5,-0.87 2.26,-1.31c-1.06,0 -2.11,0 -3.17,0c0.87,0.89 1.75,1.76 2.62,2.64c-0.28,-3.38 -0.11,-8.29 2.96,-10.53c0.3,-0.21 0.99,-0.47 0.83,-0.46c0.28,-0.04 0.19,0.02 0.13,-0.04c-0.11,-0.11 0.19,0.28 0.25,0.7c0.09,0.89 -0.02,1.76 -0.19,2.64c-0.4,2.05 -3.45,12.37 -6.83,9.16c-3.13,-3.02 -3.7,-12.98 2.69,-11.65c3.32,0.68 4.72,-4.38 1.4,-5.07l0,0z" fill="#231F20" id="svg_170"/>
   <g id="svg_171">
    <path d="m297.91,398.15c-3.93,19.26 -1.92,47.79 -29.96,49.07c-22.43,1.02 -29.22,-32.56 -28.57,-50.41c15.99,-1.12 26.37,-18.35 25.18,-33.11c1.57,22.14 13.51,30.98 33.36,36.05l0,-1.59z" fill="#FF5C7F" id="svg_172"/>
    <path d="m295.36,397.44c-3.51,17.84 -2.26,44.68 -25.99,47.05c-22.79,2.28 -27.83,-31.31 -27.36,-47.72c-0.87,0.89 -1.75,1.76 -2.64,2.64c17.53,-1.75 28.78,-18.88 27.82,-35.73c-1.75,0 -3.51,0 -5.26,0c0.8,9.64 3.45,18.69 10.19,25.88c6.51,6.94 16.13,10.34 25.08,12.69c3.28,0.85 4.69,-4.21 1.4,-5.07c-7.95,-2.09 -15.82,-4.9 -21.97,-10.57c-6.39,-5.9 -8.75,-14.55 -9.45,-22.96c-0.28,-3.32 -5.45,-3.4 -5.26,0c0.78,13.74 -7.82,29.03 -22.54,30.49c-1.46,0.13 -2.6,1.08 -2.64,2.62c-0.55,19.2 5.58,52.25 30.04,53.09c11.97,0.42 21.99,-6.38 26.68,-17.15c4.65,-10.64 4.76,-22.62 6.98,-33.87c0.65,-3.32 -4.42,-4.72 -5.08,-1.4l0,0z" fill="#231F20" id="svg_173"/>
   </g>
   <path d="m201.94,372.47c6.36,11.25 13.81,22.86 26.68,27.15c9.34,3.09 19.71,0.23 26.47,-6.7c7.67,-7.84 10.4,-19.77 12.11,-30.19c2.49,-15.03 2.64,-30.41 2.66,-45.59c-1.75,0 -3.51,0 -5.26,0c0,14.42 -0.23,28.88 1.57,43.22c1.4,11.31 4.27,22.81 11.69,31.74c6.39,7.7 16.85,11.31 26.54,8.94c11.59,-2.85 18.78,-14.19 23.03,-24.44c1.31,-3.13 -3.78,-4.48 -5.07,-1.4c-4,9.68 -10.66,19.18 -21.55,21.25c-9.81,1.86 -18.48,-5.64 -22.94,-13.55c-5.08,-9.01 -6.41,-20.13 -7.25,-30.24c-0.99,-11.8 -0.78,-23.7 -0.78,-35.52c0,-3.4 -5.26,-3.4 -5.26,0c-0.02,13.07 -0.27,26.16 -1.76,39.18c-1.18,10.11 -3.26,20.8 -8.8,29.5c-4.95,7.78 -13.87,11.14 -22.79,9.05c-12.07,-2.81 -19.14,-15.12 -24.76,-25.06c-1.67,-2.96 -6.2,-0.3 -4.53,2.66l0,0z" fill="#231F20" id="svg_174"/>
  </g>
 </g>
</svg>