<?xml version="1.0"?>
<svg width="500" height="500" xmlns="http://www.w3.org/2000/svg" xmlns:svg="http://www.w3.org/2000/svg" enable-background="new 0 0 2122 2122" version="1.1" xml:space="preserve">
 <g class="layer">
  <title>Layer 1</title>
  <path d="m1060.66,1909.19c-2.45,0 -4.89,-0.07 -7.34,-0.09l0,-194c-133.99,-1.48 -258.31,-43.19 -361.44,-113.66l0,0c-0.01,0 -0.01,0 -0.01,0c-5.13,-3.51 -10.21,-7.1 -15.24,-10.75c-0.53,-0.38 -1.06,-0.77 -1.59,-1.16c-4.79,-3.5 -9.53,-7.05 -14.22,-10.68c-0.29,-0.22 -0.58,-0.44 -0.87,-0.66c-15.1,-11.71 -29.66,-24.07 -43.67,-37.03c-0.53,-0.49 -1.06,-0.98 -1.59,-1.48c-4.2,-3.91 -8.34,-7.87 -12.44,-11.89c-0.41,-0.4 -0.83,-0.8 -1.24,-1.21c-13.48,-13.3 -26.38,-27.17 -38.66,-41.59c-0.59,-0.69 -1.17,-1.38 -1.75,-2.07c-3.52,-4.16 -6.99,-8.37 -10.4,-12.62c-0.55,-0.68 -1.11,-1.36 -1.65,-2.05c-7.91,-9.91 -15.54,-20.05 -22.87,-30.43c-0.04,-0.06 -0.08,-0.11 -0.12,-0.17c-3.46,-4.91 -6.85,-9.88 -10.18,-14.89c-0.64,-0.95 -1.26,-1.92 -1.89,-2.87c-2.82,-4.28 -5.58,-8.59 -8.3,-12.94c-0.64,-1.03 -1.29,-2.06 -1.93,-3.1c-3.03,-4.91 -6,-9.85 -8.9,-14.84c-0.18,-0.31 -0.37,-0.62 -0.55,-0.93c-3.22,-5.56 -6.37,-11.18 -9.43,-16.84c-0.12,-0.23 -0.24,-0.47 -0.36,-0.7c-2.76,-5.11 -5.44,-10.27 -8.06,-15.47c-0.64,-1.27 -1.26,-2.54 -1.89,-3.81c-2.14,-4.31 -4.23,-8.64 -6.27,-13c-0.66,-1.4 -1.32,-2.8 -1.97,-4.2c-2.16,-4.71 -4.28,-9.45 -6.33,-14.22c-0.39,-0.89 -0.79,-1.78 -1.18,-2.68c-2.47,-5.8 -4.87,-11.64 -7.18,-17.53c-0.16,-0.41 -0.31,-0.82 -0.47,-1.23c-2.05,-5.27 -4.04,-10.58 -5.96,-15.92c-0.56,-1.57 -1.11,-3.15 -1.66,-4.73c-1.51,-4.29 -2.98,-8.61 -4.41,-12.95c-0.57,-1.75 -1.14,-3.49 -1.7,-5.24c-1.45,-4.55 -2.84,-9.11 -4.19,-13.7c-0.41,-1.38 -0.83,-2.76 -1.23,-4.14c-1.73,-6.02 -3.38,-12.06 -4.94,-18.14c-0.13,-0.49 -0.24,-0.99 -0.36,-1.48c-1.39,-5.48 -2.71,-10.98 -3.96,-16.51c-0.41,-1.83 -0.79,-3.66 -1.19,-5.49c-0.94,-4.31 -1.83,-8.63 -2.68,-12.97c-0.4,-2.03 -0.79,-4.05 -1.17,-6.08c-0.83,-4.45 -1.6,-8.92 -2.33,-13.4c-0.29,-1.75 -0.6,-3.49 -0.87,-5.24c-0.97,-6.21 -1.87,-12.43 -2.66,-18.69c-0.06,-0.41 -0.09,-0.83 -0.15,-1.24c-0.72,-5.81 -1.36,-11.64 -1.93,-17.5c-0.19,-1.98 -0.35,-3.96 -0.53,-5.95c-0.39,-4.38 -0.74,-8.78 -1.04,-13.2c-0.15,-2.19 -0.29,-4.39 -0.42,-6.6c-0.26,-4.46 -0.46,-8.93 -0.63,-13.42c-0.08,-1.97 -0.17,-3.93 -0.23,-5.9c-0.16,-5.79 -0.26,-11.6 -0.28,-17.44l-193.99,0c-0.01,-0.6 -0.03,-1.21 -0.03,-1.81c0,468.63 379.9,848.53 848.53,848.53z" fill="#92BAE4" id="svg_1"/>
  <path d="m1715.17,1058.84c0,0.61 0.02,1.21 0.02,1.82c0,361.49 -293.04,654.53 -654.53,654.53c-2.45,0 -4.89,-0.07 -7.34,-0.09l0,193.99c2.45,0.03 4.89,0.1 7.34,0.1c468.63,0 848.53,-379.9 848.53,-848.53c0,-0.61 -0.02,-1.21 -0.03,-1.82l-193.99,0z" fill="#65ACD9" id="svg_3"/>
  <path d="m1215.55,1097.73l10.89,13.56c8.47,-18.94 14.34,-39.11 17.37,-60.13c-0.39,0.88 -0.74,1.77 -1.15,2.64c-7.22,15.44 -16.31,30.21 -27.11,43.93z" fill="#334C99" id="svg_7"/>
  <path d="m414.36,396.99l-71.78,-89.32l-8.02,-9.99c7.95,-10.11 14.65,-20.98 19.96,-32.35c0.3,-0.65 0.56,-1.3 0.85,-1.95c9.91,-21.87 14.98,-45.47 14.98,-69.22c0,-18.36 -3.01,-36.82 -9.15,-54.57c-6.13,-17.75 -15.4,-34.79 -27.75,-50.15l0,0c-16.44,-20.46 -36.94,-36.2 -59.34,-46.69c-22.41,-10.49 -46.72,-15.82 -71.16,-15.82c-18.36,0 -36.82,3.01 -54.57,9.15c-17.75,6.13 -34.79,15.4 -50.15,27.75c-20.46,16.44 -36.2,36.93 -46.69,59.33c-7.02,15 -11.67,30.85 -14.02,47.02c-1.16,8 -1.8,16.06 -1.8,24.15c0,18.37 3.01,36.83 9.15,54.58c6.13,17.75 15.4,34.79 27.75,50.15c16.44,20.47 36.93,36.21 59.33,46.69c22.41,10.5 46.72,15.82 71.16,15.82c18.37,0 36.83,-3.01 54.58,-9.15c2.31,-0.8 4.62,-1.66 6.91,-2.56l81.79,101.77c15.08,18.77 42.53,21.76 61.3,6.67c0.96,-0.77 1.86,-1.61 2.75,-2.44c16.26,-15.46 18.24,-41.05 3.92,-58.86zm-138.81,-168.67c-1.61,3.45 -3.51,6.77 -5.62,9.98c-4.45,6.75 -9.99,12.95 -16.72,18.38c-7.48,6.01 -15.55,10.38 -24.01,13.31c-8.44,2.92 -17.27,4.36 -26.1,4.36c-11.75,0.01 -23.48,-2.57 -34.16,-7.58c-10.69,-5.02 -20.35,-12.4 -28.36,-22.34c-6,-7.48 -10.38,-15.55 -13.3,-24.01c-2.8,-8.11 -4.21,-16.57 -4.32,-25.04c-0.01,-0.35 -0.04,-0.7 -0.04,-1.05c0,-11.75 2.58,-23.48 7.58,-34.16c5.03,-10.69 12.4,-20.35 22.35,-28.35c7.48,-6.01 15.55,-10.38 24,-13.31c8.45,-2.92 17.27,-4.37 26.1,-4.37c11.75,0 23.48,2.58 34.16,7.58c10.7,5.03 20.36,12.41 28.36,22.35l0,0c6.01,7.48 10.38,15.55 13.31,24c2.92,8.45 4.37,17.27 4.37,26.1c0,11.75 -2.58,23.48 -7.59,34.16z" fill="#F2F2F2" id="svg_10"/>
 </g>
</svg>