<?xml version="1.0"?>
<svg width="500" height="500" xmlns="http://www.w3.org/2000/svg" xmlns:svg="http://www.w3.org/2000/svg" enable-background="new 0 0 500 500" version="1.1" xml:space="preserve">
 <g class="layer">
  <title>Layer 1</title>
  <g id="svg_120">
   <g id="XMLID_16_">
    <g id="svg_26">
     <path d="m291.05,322.82c13.08,6.63 25.85,28 20.88,60.39l0,0.02c-6.66,-0.14 -12.36,0.75 -17.25,2.37l0,-0.02c9.63,-25.15 2.16,-55.15 -3.63,-62.76z" fill="#ED2F4D" id="svg_27"/>
     <path d="m184.8,460.22c-10.83,0 -53.1,0 -69.45,0s-21.95,-11.04 -14.82,-24.33c3.92,-7.33 10.35,-12.28 17.54,-15.61c1.29,8.91 6.88,17.94 20.98,21.89c3.14,6.12 20.06,18.06 45.75,18.06z" fill="#ED8A47" id="svg_28"/>
     <path d="m173.76,459.45c-19.45,-2.72 -32.03,-12.1 -34.7,-17.29c-8.83,-2.48 -14.32,-6.94 -17.5,-12.11c-6.66,-1.01 -13.15,-0.36 -18.45,1.86c-0.93,1.25 -1.8,2.56 -2.57,3.97c-7.13,13.29 -1.53,24.33 14.82,24.33c12.86,0 41.72,0 58.74,0c-0.11,-0.26 -0.22,-0.52 -0.34,-0.77z" fill="#FADDCA" id="svg_29"/>
     <path d="m428.75,203.67c22.08,9.86 36.9,29.69 44.07,59.19c9.28,38.23 0.32,72.71 -2.43,84.31c-2.76,11.6 -0.66,18.46 3.09,35.03c3.76,16.58 -3.86,26.52 -9.95,36.13c-6.07,9.61 -15.13,11.94 -22.53,11.94c-7.4,0 -11.61,0 -21.21,0c-16.36,0 -15.46,-18.12 -9.17,-26.52c-7.29,-2.81 -12.16,-7.91 -15.27,-13.49c-23.91,7.64 -30.15,29.4 -44.07,48.96c-13.92,19.55 -38.02,20.98 -48.85,20.98c-10.82,0 -45.63,0 -61.99,0c-6.55,0 -11.39,-1.78 -14.35,-4.76c-4.45,-4.45 -4.73,-11.6 -0.45,-19.56c8.28,-15.45 27.61,-20.42 42.09,-21.65c2.67,-8.63 9.79,-23 26.94,-28.63c4.89,-1.63 10.6,-2.51 17.25,-2.37l0,-0.02c4.98,-32.39 -7.79,-53.77 -20.88,-60.39c-7.55,-24.39 -22.44,-42.49 -36.73,-50.79c24.46,-19.56 32.98,-63.52 57.82,-68.85c-0.56,-0.55 -1.13,-1.11 -1.69,-1.7c-13.27,-0.66 -26.88,-31.05 -22.22,-52.71c5.14,-23.87 16.07,-27.85 16.07,-27.85c3.14,-12.76 43.76,-43.41 82.39,-21.38c4.14,-4.31 30.65,-4.79 40.09,32.49c7.96,0.32 25.38,26.18 4.48,57.83c2.98,1.84 5.97,5.15 5.81,7.64c-0.17,2.48 -3.22,5.85 -8.33,6.16l0,0.01z" fill="#ED8A47" id="svg_30"/>
     <path d="m412.8,198.52l11.03,3.15l14.91,7.5c-3.15,-2.07 -6.47,-3.92 -9.99,-5.5l0,-0.01c5.12,-0.31 8.16,-3.68 8.32,-6.16c0.16,-2.48 -2.82,-5.8 -5.8,-7.63c20.88,-31.66 3.48,-57.51 -4.48,-57.84c-9.44,-37.29 -35.96,-36.79 -40.09,-32.49c-38.63,-22.03 -79.25,8.62 -82.39,21.38c0,0 -10.93,3.99 -16.09,27.85c-4.65,21.67 8.97,52.06 22.23,52.73c0.55,0.58 1.12,1.16 1.69,1.69c-0.01,0.01 -0.04,0.01 -0.05,0.02c12.15,12.26 30.8,12.1 35.06,10.58c4.4,-1.57 6.43,-7.94 1.35,-10.61c-5.08,-2.66 -7.96,-10.6 -6.86,-10.48c1.11,0.11 4.76,-1.54 5.64,-2.87c0.88,-1.33 -2.88,-5.64 -3.86,-14.92c-1.01,-9.28 4.09,-13.04 7.95,-16.69c0.22,1.89 0.99,5.19 5.85,2.32c0.22,-9.73 9.07,-15.03 19.45,-14.36c13.49,-6.41 28.95,1.99 31.82,10.16c12.59,6.63 10.83,25.19 9.49,31.16c-1.34,5.96 -5.19,11.02 -5.19,11.02z" fill="#FADDCA" id="svg_31"/>
     <path d="m428.73,404.52c-8.16,-1.81 -15.15,-0.6 -20.15,2.68c-4.22,9.09 -3.15,23.07 11.2,23.07c9.6,0 13.81,0 21.21,0c7.4,0 16.46,-2.32 22.53,-11.94c0.24,-0.37 0.48,-0.75 0.72,-1.12c-8.4,-11.34 -27.39,-14.45 -35.52,-12.69z" fill="#FADDCA" id="svg_32"/>
     <path d="m288.07,446.79c-2.99,-7.29 -12.11,-14.59 -29.02,-13.92c-11.38,-5.9 -23.07,-4.99 -31.05,-0.67c-0.86,1.17 -1.66,2.37 -2.36,3.69c-4.29,7.96 -4,15.12 0.45,19.56c2.96,2.99 7.79,4.77 14.35,4.77c14.76,0 44.5,0 58.14,0c-0.55,-6.24 -5.39,-13.07 -10.51,-13.43z" fill="#FADDCA" id="svg_33"/>
     <path d="m226.25,282.94c4.4,-7.99 9.78,-14.33 14.84,-15.77c4.16,0.55 8.66,2.21 13.23,4.86c14.27,8.3 29.18,26.41 36.73,50.79c5.79,7.61 13.25,37.61 3.63,62.78l0,0.01c-17.15,5.63 -24.27,20 -26.94,28.63c-14.48,1.23 -33.81,6.2 -42.11,21.65c-4.27,7.96 -3.99,15.12 0.46,19.56c0,0 -14.11,4.77 -41.3,4.77c-25.67,0 -42.59,-11.94 -45.75,-18.06c-14.09,-3.95 -19.67,-12.97 -20.97,-21.89c-1.17,-7.95 1.08,-15.81 3.74,-19.89c-10.66,-30.8 -4.73,-55.37 3.49,-71.33l-0.01,0c-5.74,-8.62 -12.04,-34.69 -3.75,-49.51c18.01,-3.97 43.63,7.63 43.63,7.63s28.26,-13.07 61.07,-4.22z" fill="#ED8A47" id="svg_34"/>
     <g id="svg_35">
      <g id="svg_36">
       <path d="m236.93,399.53c0,0 0.05,-0.07 0.12,-0.2c0.07,-0.14 0.21,-0.34 0.4,-0.57c0.19,-0.22 0.42,-0.55 0.7,-0.83c0.29,-0.3 0.61,-0.63 0.97,-0.98c0.36,-0.37 0.79,-0.68 1.24,-1.04c0.46,-0.36 0.92,-0.76 1.48,-1.06c0.52,-0.32 1.08,-0.67 1.66,-0.98c0.57,-0.32 1.18,-0.58 1.8,-0.83c0.62,-0.25 1.24,-0.5 1.85,-0.75c0.62,-0.2 1.27,-0.32 1.86,-0.48c0.61,-0.16 1.2,-0.26 1.76,-0.37c0.55,-0.15 1.11,-0.12 1.6,-0.17c2,-0.11 3.32,0 3.32,0c0.39,0.04 0.66,0.37 0.62,0.75c-0.02,0.24 -0.16,0.43 -0.36,0.55l-0.07,0.04c0,0 -1.17,0.62 -2.91,1.24c-0.43,0.16 -0.92,0.31 -1.4,0.53c-0.48,0.21 -0.98,0.46 -1.52,0.66c-1.07,0.39 -2.17,0.89 -3.27,1.4c-0.55,0.26 -1.13,0.43 -1.65,0.73c-0.52,0.27 -1.06,0.52 -1.58,0.75c-0.52,0.22 -0.99,0.51 -1.47,0.72c-0.46,0.25 -0.93,0.43 -1.34,0.65c-0.4,0.22 -0.78,0.41 -1.13,0.56c-0.34,0.17 -0.62,0.31 -0.86,0.43c-0.48,0.21 -0.79,0.39 -0.79,0.39c-0.39,0.2 -0.87,0.05 -1.07,-0.34c-0.14,-0.25 -0.11,-0.56 0.02,-0.78z" fill="#D96132" id="svg_37"/>
      </g>
      <g id="svg_38">
       <path d="m239.51,404.64c0,0 0.19,-0.26 0.63,-0.67c0.21,-0.2 0.48,-0.47 0.81,-0.71c0.31,-0.25 0.68,-0.52 1.09,-0.81c0.41,-0.31 0.88,-0.55 1.38,-0.83c0.48,-0.27 1.01,-0.58 1.59,-0.79c0.57,-0.24 1.17,-0.48 1.78,-0.7c0.61,-0.24 1.25,-0.4 1.9,-0.55c0.63,-0.15 1.28,-0.29 1.91,-0.43c0.65,-0.1 1.29,-0.12 1.9,-0.19c0.62,-0.05 1.22,-0.06 1.78,-0.09c0.56,-0.06 1.11,0.05 1.59,0.09c1.97,0.2 3.24,0.52 3.24,0.52c0.36,0.1 0.58,0.47 0.48,0.83c-0.06,0.24 -0.22,0.41 -0.43,0.48l-0.07,0.02c0,0 -1.24,0.42 -3.04,0.77c-0.45,0.09 -0.93,0.16 -1.44,0.31c-0.5,0.12 -1.03,0.29 -1.58,0.4c-1.11,0.21 -2.26,0.53 -3.4,0.86c-0.57,0.19 -1.17,0.25 -1.71,0.47c-0.56,0.19 -1.12,0.34 -1.66,0.48c-0.55,0.14 -1.04,0.34 -1.54,0.47c-0.5,0.15 -0.97,0.29 -1.4,0.42c-0.42,0.15 -0.83,0.26 -1.19,0.36c-0.35,0.11 -0.66,0.2 -0.91,0.29c-0.51,0.14 -0.83,0.25 -0.83,0.25c-0.42,0.14 -0.87,-0.09 -1.01,-0.5c-0.09,-0.25 -0.04,-0.51 0.1,-0.71l0.05,-0.06z" fill="#D96132" id="svg_39"/>
      </g>
      <g id="svg_40">
       <path d="m242.09,409.77c0,0 0.06,-0.05 0.19,-0.15c0.11,-0.1 0.3,-0.25 0.55,-0.41c0.25,-0.16 0.57,-0.4 0.92,-0.58c0.36,-0.2 0.77,-0.41 1.23,-0.63c0.45,-0.24 0.96,-0.4 1.5,-0.61c0.53,-0.19 1.11,-0.42 1.73,-0.53c0.61,-0.15 1.23,-0.31 1.89,-0.42c0.65,-0.14 1.3,-0.2 1.97,-0.24c0.67,-0.04 1.33,-0.09 1.99,-0.12c0.66,0 1.3,0.07 1.93,0.11c0.62,0.04 1.22,0.12 1.79,0.19c0.57,0.02 1.09,0.22 1.58,0.34c1.94,0.51 3.15,1.03 3.15,1.03c0.35,0.15 0.51,0.56 0.36,0.91c-0.1,0.21 -0.3,0.36 -0.51,0.4l-0.09,0.01c0,0 -1.3,0.22 -3.15,0.29c-0.46,0.02 -0.96,0 -1.49,0.07c-0.52,0.05 -1.08,0.12 -1.65,0.15c-1.14,0.04 -2.34,0.17 -3.54,0.32c-0.6,0.09 -1.2,0.06 -1.79,0.19c-0.58,0.1 -1.17,0.16 -1.74,0.22c-0.57,0.05 -1.09,0.17 -1.61,0.24c-0.52,0.09 -1.02,0.12 -1.48,0.2c-0.45,0.07 -0.87,0.14 -1.24,0.17c-0.37,0.05 -0.7,0.1 -0.96,0.14c-0.53,0.06 -0.87,0.12 -0.87,0.12c-0.43,0.07 -0.84,-0.21 -0.92,-0.65c-0.05,-0.29 0.06,-0.57 0.27,-0.75z" fill="#D96132" id="svg_41"/>
      </g>
     </g>
     <path d="m224.41,304.41c-1.19,4.02 -0.16,7.96 6.22,10.02c6.38,2.07 32.41,9.95 35.96,10.61c3.56,0.67 6.69,-1.18 4.81,-8.61c-6.3,-24.87 -23.77,-42.52 -29.09,-41.86c-5.3,0.66 -12.1,10.27 -17.9,29.83z" fill="#FADDCA" id="svg_42"/>
     <path d="m146.85,301.76c0.09,-2.32 -8.62,-10.36 -17.15,-14.76c-4.07,-2.1 -7.58,-2.86 -10.23,-2.61c-4.88,14.99 0.61,36.6 5.74,44.48c0.66,-0.84 1.25,-1.8 1.76,-2.87c5.34,-11.32 19.81,-21.94 19.89,-24.25z" fill="#FADDCA" id="svg_43"/>
     <path d="m142.13,396.12c0,4.73 -2.71,8.56 -6.05,8.56c-3.34,0 -6.05,-3.83 -6.05,-8.56c0,-4.72 2.71,-8.56 6.05,-8.56c3.34,0 6.05,3.84 6.05,8.56z" id="svg_44"/>
     <path d="m197.66,396.12c0,4.73 -2.71,8.56 -6.05,8.56s-6.05,-3.83 -6.05,-8.56c0,-4.72 2.71,-8.56 6.05,-8.56s6.05,3.84 6.05,8.56z" id="svg_45"/>
     <path d="m195.59,369.95c2.06,3.55 -2.84,10.25 -8.68,13.64c-5.83,3.38 -10.37,2.16 -12.43,-1.39c-2.06,-3.55 -0.86,-8.1 4.97,-11.48c5.84,-3.39 14.09,-4.32 16.15,-0.77z" fill="#FADDCA" id="svg_46"/>
     <path d="m143.45,369.49c-4.79,-3.22 -11.59,-4.1 -13.28,-0.73c-1.7,3.38 2.34,9.75 7.14,12.95c4.79,3.22 8.53,2.06 10.23,-1.32c1.7,-3.38 0.71,-7.7 -4.1,-10.91z" fill="#FADDCA" id="svg_47"/>
     <path d="m226.09,455.45c-3.64,-3.64 -4.48,-9.08 -2.34,-15.3c-4.71,-0.67 -8.02,-2.81 -10.38,-5.24c-3.86,-3.97 -6.63,-16.57 -27.19,-18.67c-20.54,-2.1 -31.93,4.53 -31.93,4.53s-9.17,-5.53 -19.23,-6.3c-8.52,-0.66 -13.05,2.24 -16.17,9.38c2.19,7.66 8,14.88 20.21,18.31c3.15,6.12 20.06,18.05 45.75,18.05c27.18,0.01 41.29,-4.76 41.29,-4.76z" fill="#FADDCA" id="svg_48"/>
     <path d="m148.58,413.39c-2.99,1.25 -4.14,3.83 -2.15,6.88c1.99,3.07 5.39,6.06 7.45,5.81c2.07,-0.25 8.41,-1.55 10.11,-5.32c1.7,-3.78 -0.29,-5.89 -3.07,-6.88c-2.31,-0.83 -9.19,-1.83 -12.35,-0.5z" id="svg_49"/>
     <g id="svg_50">
      <path d="m138.52,439.09c0.72,-0.12 1.27,-0.24 1.95,-0.39c0.66,-0.15 1.32,-0.3 1.97,-0.47c1.3,-0.31 2.58,-0.72 3.86,-1.12l1.88,-0.67c0.65,-0.2 1.22,-0.5 1.81,-0.75l0.89,-0.4c0.31,-0.11 0.56,-0.29 0.84,-0.43l1.64,-0.91l0.26,-0.12c1.04,-0.52 2.24,-0.41 3.14,0.19c0.67,0.45 1.3,0.94 2.02,1.35c0.7,0.43 1.4,0.87 2.15,1.25c1.45,0.82 2.97,1.54 4.51,2.21c0.77,0.35 1.57,0.63 2.35,0.94c0.78,0.32 1.58,0.57 2.38,0.84c0.79,0.29 1.6,0.5 2.41,0.73c0.82,0.24 1.64,0.42 2.46,0.6c0.82,0.21 1.64,0.36 2.47,0.48c0.83,0.14 1.65,0.27 2.48,0.34c0.83,0.07 1.68,0.19 2.5,0.19c0.83,0 1.68,0.09 2.5,0.01c0.83,-0.06 1.68,-0.04 2.48,-0.17c0.81,-0.14 1.65,-0.2 2.45,-0.37c0.79,-0.21 1.61,-0.37 2.4,-0.6l2.34,-0.82l0.19,-0.06c0.93,-0.34 1.95,0.16 2.27,1.08c0.31,0.89 -0.12,1.86 -0.98,2.24l-2.61,1.11c-0.89,0.32 -1.8,0.57 -2.71,0.86c-0.91,0.25 -1.84,0.4 -2.76,0.6c-0.92,0.2 -1.85,0.24 -2.78,0.37c-0.94,0.14 -1.86,0.1 -2.81,0.16c-0.93,0.05 -1.86,0 -2.79,-0.04c-0.93,-0.01 -1.85,-0.1 -2.78,-0.2c-0.92,-0.07 -1.84,-0.19 -2.76,-0.35c-0.92,-0.14 -1.83,-0.29 -2.73,-0.5c-0.91,-0.2 -1.81,-0.39 -2.7,-0.63c-0.89,-0.25 -1.79,-0.47 -2.67,-0.76c-0.88,-0.29 -1.76,-0.55 -2.63,-0.88c-1.74,-0.63 -3.47,-1.33 -5.14,-2.14c-0.86,-0.39 -1.69,-0.82 -2.52,-1.27c-0.83,-0.42 -1.64,-0.96 -2.47,-1.44l3.4,0.06l-2.09,1.14c-0.34,0.19 -0.68,0.4 -1.04,0.55l-1.06,0.46c-0.7,0.3 -1.4,0.65 -2.11,0.88l-2.14,0.76c-1.43,0.45 -2.84,0.89 -4.3,1.24c-0.71,0.2 -1.44,0.35 -2.16,0.51c-0.71,0.16 -1.54,0.32 -2.21,0.45c-1.69,0.3 -3.3,-0.82 -3.61,-2.51c-0.3,-1.69 0.82,-3.3 2.51,-3.6l0.04,-0.01z" id="svg_51"/>
     </g>
    </g>
    <g id="svg_52">
     <path d="m125.31,329.05c-8.21,15.96 -14.15,40.53 -3.49,71.33c-2.66,4.07 -4.91,11.94 -3.74,19.89c1.29,8.92 6.88,17.94 20.98,21.89c3.15,6.12 20.06,18.06 45.75,18.06c27.18,0 41.29,-4.77 41.29,-4.77" fill="none" id="svg_53" stroke="#000000" stroke-linecap="round" stroke-linejoin="round" stroke-miterlimit="10" stroke-width="5"/>
     <g id="svg_54">
      <path d="m137.41,314.51c0,0 -0.71,0.96 -1.79,2.4c-0.26,0.36 -0.57,0.75 -0.82,1.17c-0.26,0.41 -0.55,0.84 -0.83,1.29c-0.29,0.45 -0.58,0.92 -0.89,1.39c-0.31,0.45 -0.58,0.97 -0.86,1.48c-0.56,1.01 -1.12,2.01 -1.64,2.97c-0.29,0.46 -0.47,0.96 -0.7,1.39c-0.21,0.45 -0.4,0.88 -0.58,1.27c-0.73,1.57 -1.22,2.61 -1.22,2.61l-0.09,0.19c-0.73,1.55 -2.58,2.22 -4.15,1.5c-1.55,-0.73 -2.24,-2.58 -1.5,-4.15c0.06,-0.12 0.14,-0.26 0.21,-0.39c0,0 0.68,-1.03 1.69,-2.6c0.26,-0.39 0.53,-0.81 0.82,-1.25c0.3,-0.45 0.57,-0.93 0.94,-1.38c0.7,-0.93 1.44,-1.91 2.19,-2.91c0.37,-0.48 0.73,-0.98 1.16,-1.45c0.4,-0.46 0.79,-0.92 1.18,-1.37c0.39,-0.45 0.76,-0.87 1.11,-1.28c0.35,-0.42 0.7,-0.75 1.02,-1.07c1.27,-1.27 2.1,-2.11 2.1,-2.11c0.7,-0.7 1.81,-0.7 2.5,0c0.63,0.62 0.68,1.61 0.16,2.3z" id="svg_55"/>
     </g>
     <path d="m251.43,417.19c-10.35,3.03 -20.41,8.64 -25.8,18.69c-4.27,7.96 -3.99,15.12 0.46,19.56c2.96,2.99 7.79,4.77 14.35,4.77c16.36,0 51.16,0 61.99,0c10.83,0 34.92,-1.44 48.84,-20.99c13.92,-19.56 20.17,-41.32 44.08,-48.96l0.01,0" fill="none" id="svg_56" stroke="#000000" stroke-linecap="round" stroke-linejoin="round" stroke-miterlimit="10" stroke-width="5"/>
     <g id="svg_57">
      <path d="m276.2,401l-1.89,3.52c-0.35,0.58 -0.51,1.16 -0.77,1.74l-0.7,1.7c-0.11,0.29 -0.25,0.55 -0.35,0.86l-0.29,0.91l-0.58,1.8c-0.21,0.58 -0.32,1.2 -0.48,1.81l-0.43,1.81c-0.26,1.08 -1.13,1.86 -2.15,2.06l-0.56,0.11l0,0c-1.33,0.15 -2.66,0.27 -3.99,0.43l-1.97,0.3c-0.66,0.11 -1.33,0.19 -1.97,0.31c-1.3,0.27 -2.62,0.52 -3.91,0.79l-3.84,1.01l-0.19,0.04c-1.66,0.43 -3.35,-0.56 -3.79,-2.21c-0.42,-1.66 0.57,-3.35 2.22,-3.79l4.19,-1.09c1.4,-0.3 2.82,-0.57 4.22,-0.86c0.71,-0.14 1.42,-0.22 2.12,-0.34l2.12,-0.32c1.42,-0.16 2.83,-0.3 4.26,-0.46l0,0l-2.71,2.19l0.86,-1.94c0.3,-0.65 0.55,-1.29 0.91,-1.91l0.99,-1.85l0.48,-0.92c0.16,-0.3 0.39,-0.61 0.56,-0.91l1.17,-1.8c0.4,-0.57 0.75,-1.23 1.18,-1.71l2.47,-3.12c0.58,-0.73 1.64,-0.86 2.37,-0.27c0.65,0.51 0.81,1.4 0.43,2.11z" id="svg_58"/>
     </g>
     <g id="svg_59">
      <path d="m323.64,387.11c0,0 -0.66,-0.07 -1.84,-0.22c-1.11,-0.12 -2.73,-0.31 -4.63,-0.47c-0.94,-0.09 -1.97,-0.14 -3.03,-0.17c-0.52,-0.01 -1.07,-0.02 -1.6,0c-0.55,0.02 -1.12,0.05 -1.69,0.07c-1.3,0.05 -2.45,0.15 -3.66,0.24c-1.23,0.14 -2.48,0.26 -3.71,0.43c-2.48,0.35 -4.92,0.83 -7.17,1.42c-0.25,0.06 -0.5,0.12 -0.75,0.19c-0.3,0.09 -0.6,0.17 -0.88,0.26c-0.63,0.17 -1.01,0.35 -1.48,0.5c-0.91,0.35 -1.86,0.75 -2.71,1.13c-0.84,0.4 -1.64,0.77 -2.35,1.13c-0.72,0.36 -1.34,0.67 -1.85,0.92c-1.04,0.52 -1.66,0.81 -1.66,0.81c-0.89,0.41 -1.94,0.01 -2.35,-0.88c-0.3,-0.67 -0.16,-1.42 0.29,-1.93l0.01,-0.01c0,0 0.46,-0.51 1.32,-1.34c0.87,-0.83 2.15,-2.02 3.89,-3.28c0.88,-0.63 1.84,-1.27 3.02,-1.89c0.58,-0.3 1.25,-0.66 1.78,-0.88c0.27,-0.11 0.55,-0.24 0.83,-0.36l0.11,-0.05l0.05,-0.02l0.15,-0.05l0.24,-0.09l0.47,-0.16c1.27,-0.46 2.61,-0.87 3.97,-1.18c1.37,-0.34 2.78,-0.57 4.19,-0.77l2.11,-0.22c0.71,-0.04 1.4,-0.07 2.1,-0.11c1.42,-0.02 2.86,-0.04 4.06,0.05c0.31,0.02 0.62,0.04 0.93,0.06c0.45,0.01 0.71,0.06 1.07,0.1c0.67,0.07 1.29,0.19 1.91,0.29c1.23,0.21 2.35,0.52 3.37,0.82c2.04,0.6 3.64,1.28 4.77,1.79c0.57,0.25 0.96,0.48 1.25,0.62c0.27,0.15 0.42,0.24 0.42,0.24l0.02,0c0.78,0.42 1.08,1.42 0.66,2.2c-0.32,0.61 -0.98,0.92 -1.63,0.84z" id="svg_60"/>
     </g>
     <path d="m118.08,420.27c-7.19,3.33 -13.61,8.28 -17.54,15.61c-7.13,13.29 -1.53,24.33 14.82,24.33s58.61,0 69.45,0" fill="none" id="svg_61" stroke="#000000" stroke-linecap="round" stroke-linejoin="round" stroke-miterlimit="10" stroke-width="5"/>
     <path d="m125.3,329.05c-5.74,-8.62 -12.04,-34.69 -3.75,-49.51c18.01,-3.97 43.65,7.63 43.65,7.63s28.23,-13.07 61.06,-4.22" fill="none" id="svg_62" stroke="#000000" stroke-linecap="round" stroke-linejoin="round" stroke-miterlimit="10" stroke-width="5"/>
     <path d="m226.25,282.94c4.4,-7.99 9.78,-14.33 14.84,-15.77c4.16,0.55 8.66,2.21 13.23,4.86c14.27,8.3 29.18,26.41 36.73,50.79c5.79,7.61 13.25,37.61 3.63,62.78" fill="none" id="svg_63" stroke="#000000" stroke-linecap="round" stroke-linejoin="round" stroke-miterlimit="10" stroke-width="5"/>
     <g id="svg_64">
      <path d="m215.58,308.78c0,0 0.32,-1.71 0.79,-4.29c0.12,-0.65 0.25,-1.34 0.39,-2.07c0.14,-0.75 0.36,-1.53 0.55,-2.34c0.4,-1.64 0.82,-3.37 1.25,-5.1c0.53,-1.71 1.08,-3.42 1.59,-5.02c0.27,-0.79 0.46,-1.59 0.78,-2.3c0.3,-0.72 0.58,-1.4 0.83,-2.02c1.06,-2.52 1.76,-4.2 1.76,-4.2c0.66,-1.59 2.48,-2.34 4.07,-1.68c1.59,0.67 2.34,2.5 1.68,4.09c-0.05,0.1 -0.1,0.21 -0.16,0.31l-0.15,0.27c0,0 -0.83,1.45 -2.06,3.64c-0.31,0.55 -0.65,1.14 -1.01,1.78c-0.37,0.61 -0.65,1.34 -0.98,2.05c-0.67,1.45 -1.38,2.99 -2.09,4.55c-0.6,1.59 -1.2,3.18 -1.76,4.67c-0.27,0.76 -0.57,1.47 -0.79,2.19c-0.22,0.71 -0.43,1.39 -0.63,2.01c-0.78,2.5 -1.3,4.16 -1.3,4.16c-0.24,0.75 -1.04,1.17 -1.79,0.93c-0.7,-0.22 -1.11,-0.92 -0.97,-1.63z" id="svg_65"/>
     </g>
     <path d="m291.05,322.82c13.08,6.63 25.85,28 20.88,60.39" fill="none" id="svg_66" stroke="#000000" stroke-linecap="round" stroke-linejoin="round" stroke-miterlimit="10" stroke-width="5"/>
     <g id="svg_67">
      <path d="m427.58,206.56c0,0 -1.27,-0.6 -3.18,-1.49c-0.48,-0.22 -0.99,-0.46 -1.54,-0.72c-0.55,-0.24 -1.09,-0.42 -1.68,-0.66c-0.58,-0.22 -1.19,-0.45 -1.8,-0.68c-0.61,-0.24 -1.22,-0.5 -1.86,-0.71c-1.3,-0.4 -2.61,-0.81 -3.84,-1.18c-1.22,-0.41 -2.38,-0.65 -3.39,-0.89c-2,-0.47 -3.34,-0.79 -3.34,-0.79l-0.12,-0.02c-1.04,-0.25 -1.69,-1.29 -1.44,-2.34c0.24,-0.98 1.18,-1.6 2.15,-1.48c0,0 1.42,0.19 3.55,0.46c1.07,0.15 2.32,0.27 3.64,0.57c1.33,0.26 2.75,0.53 4.16,0.82c0.72,0.15 1.43,0.37 2.12,0.55c0.71,0.2 1.39,0.39 2.06,0.57c0.66,0.19 1.33,0.35 1.91,0.53c0.57,0.2 1.12,0.39 1.61,0.56c1.99,0.68 3.32,1.14 3.32,1.14c1.63,0.56 2.48,2.34 1.93,3.96c-0.57,1.61 -2.34,2.48 -3.96,1.91c-0.1,-0.02 -0.2,-0.07 -0.3,-0.11z" id="svg_68"/>
     </g>
     <path d="m395.35,390.26c3.11,5.58 7.97,10.69 15.27,13.49c-6.3,8.4 -7.19,26.52 9.15,26.52c9.61,0 13.82,0 21.21,0c7.42,0 16.47,-2.32 22.54,-11.94c6.09,-9.61 13.71,-19.55 9.95,-36.13c-3.75,-16.57 -5.85,-23.43 -3.09,-35.03c2.76,-11.6 11.71,-46.08 2.42,-84.3c-7.15,-29.51 -21.97,-49.34 -44.06,-59.2" fill="none" id="svg_69" stroke="#000000" stroke-linecap="round" stroke-linejoin="round" stroke-miterlimit="10" stroke-width="5"/>
     <g id="svg_70">
      <path d="m392.08,370.59c0,0 0.02,0.32 0.05,0.88c0.01,0.29 0.04,0.62 0.06,1.01c0.05,0.36 0.1,0.76 0.16,1.2c0.09,0.84 0.35,1.94 0.56,3.04c0.15,0.55 0.3,1.12 0.45,1.7c0.14,0.58 0.36,1.16 0.55,1.73c0.2,0.57 0.35,1.17 0.6,1.7c0.24,0.55 0.46,1.09 0.67,1.61c0.2,0.52 0.48,0.99 0.7,1.47c0.24,0.46 0.46,0.88 0.66,1.28c0.45,0.78 0.84,1.4 1.11,1.84c0.27,0.45 0.42,0.7 0.42,0.7l0.12,0.19c0.89,1.48 0.42,3.39 -1.06,4.3c-1.47,0.89 -3.39,0.42 -4.29,-1.04c-0.07,-0.12 -0.14,-0.27 -0.2,-0.4c0,0 -0.14,-0.32 -0.37,-0.89c-0.24,-0.56 -0.6,-1.35 -0.97,-2.32c-0.17,-0.5 -0.35,-1.03 -0.53,-1.59c-0.17,-0.56 -0.41,-1.14 -0.55,-1.78c-0.15,-0.62 -0.31,-1.27 -0.47,-1.93c-0.19,-0.65 -0.26,-1.33 -0.4,-1.99c-0.11,-0.67 -0.26,-1.34 -0.31,-2.01c-0.07,-0.66 -0.15,-1.3 -0.22,-1.94c-0.05,-1.29 -0.16,-2.43 -0.11,-3.5c0.01,-0.52 0.02,-1.01 0.02,-1.43c0.04,-0.4 0.07,-0.73 0.1,-1.02c0.05,-0.56 0.07,-0.88 0.07,-0.88c0.09,-0.87 0.86,-1.52 1.74,-1.43c0.79,0.07 1.4,0.72 1.44,1.49l0,0.01z" id="svg_71"/>
     </g>
     <path d="m374.26,178.11c-11.77,3.14 -9.95,19.55 -5.15,23.38c-2.09,7.43 -33.42,24.03 -56.96,1.69c-0.57,-0.53 -1.14,-1.11 -1.69,-1.69c-13.27,-0.67 -26.88,-31.05 -22.23,-52.73c5.15,-23.86 16.09,-27.85 16.09,-27.85c3.14,-12.76 43.76,-43.41 82.39,-21.38c4.14,-4.31 30.65,-4.79 40.09,32.49c7.96,0.34 25.36,26.18 4.48,57.84c2.98,1.83 5.96,5.14 5.8,7.63c-0.16,2.48 -3.2,5.85 -8.32,6.16" fill="none" id="svg_72" stroke="#000000" stroke-linecap="round" stroke-linejoin="round" stroke-miterlimit="10" stroke-width="5"/>
     <g id="svg_73">
      <path d="m387.6,194.62c0,0 0.21,-0.41 0.58,-1.11c0.25,-0.41 0.19,-0.66 0.31,-1.02c0.12,-0.3 0.11,-0.86 0.17,-1.37c0.05,-0.26 -0.02,-0.56 -0.04,-0.84c-0.04,-0.3 -0.01,-0.6 -0.1,-0.91c-0.15,-0.62 -0.29,-1.28 -0.58,-1.93c-0.21,-0.67 -0.65,-1.29 -0.99,-1.94c-0.45,-0.6 -0.87,-1.22 -1.43,-1.73c-0.48,-0.58 -1.12,-0.98 -1.68,-1.45c-0.63,-0.35 -1.2,-0.77 -1.84,-0.98c-0.32,-0.11 -0.61,-0.29 -0.92,-0.35c-0.31,-0.07 -0.61,-0.15 -0.91,-0.22c-0.29,-0.1 -0.58,-0.11 -0.86,-0.12c-0.29,-0.02 -0.56,-0.05 -0.82,-0.07c-0.51,-0.02 -0.99,0.09 -1.42,0.09c-0.42,0 -0.79,0.16 -1.09,0.21c-0.6,0.15 -0.94,0.22 -0.94,0.22l-0.42,0.1c-1.66,0.4 -3.34,-0.65 -3.74,-2.31c-0.39,-1.68 0.65,-3.35 2.32,-3.74c0.07,-0.02 0.16,-0.04 0.24,-0.05c0,0 0.55,-0.09 1.5,-0.24c0.48,-0.05 1.06,-0.2 1.74,-0.15c0.68,0.01 1.45,-0.04 2.29,0.09c0.41,0.06 0.84,0.14 1.29,0.22c0.45,0.07 0.91,0.16 1.35,0.34c0.45,0.16 0.91,0.32 1.38,0.48c0.48,0.16 0.91,0.43 1.37,0.67c0.94,0.43 1.76,1.11 2.62,1.74c0.77,0.72 1.6,1.42 2.24,2.29c0.7,0.81 1.23,1.73 1.75,2.62c0.43,0.96 0.92,1.86 1.16,2.84c0.32,0.93 0.46,1.91 0.57,2.82c0.07,0.46 0.02,0.92 0.04,1.37c-0.01,0.43 0.02,0.86 -0.07,1.27c-0.15,0.82 -0.21,1.53 -0.53,2.26c-0.26,0.67 -0.51,1.38 -0.73,1.64c-0.42,0.67 -0.66,1.04 -0.66,1.04c-0.55,0.84 -1.66,1.11 -2.51,0.56c-0.78,-0.5 -1.06,-1.53 -0.63,-2.35z" id="svg_74"/>
     </g>
     <path d="m312.16,203.18l-0.01,0c-24.85,5.33 -33.36,49.3 -57.83,68.85" fill="none" id="svg_75" stroke="#000000" stroke-linecap="round" stroke-linejoin="round" stroke-miterlimit="10" stroke-width="5"/>
     <g id="svg_76">
      <path d="m384.79,349.28c0,0 -0.09,-0.15 -0.22,-0.48c-0.15,-0.34 -0.35,-0.82 -0.56,-1.43c-0.22,-0.62 -0.47,-1.38 -0.71,-2.25c-0.24,-0.87 -0.5,-1.86 -0.68,-2.97c-0.1,-0.55 -0.22,-1.12 -0.31,-1.71c-0.06,-0.6 -0.14,-1.2 -0.21,-1.84c-0.15,-1.27 -0.2,-2.62 -0.25,-4.01c0.05,-1.4 -0.01,-2.84 0.16,-4.31c0.14,-1.47 0.29,-2.96 0.6,-4.42c0.14,-0.73 0.25,-1.48 0.42,-2.2c0.2,-0.73 0.39,-1.44 0.58,-2.16c0.35,-1.43 0.88,-2.78 1.38,-4.1c0.45,-1.33 1.12,-2.52 1.68,-3.69c0.29,-0.57 0.55,-1.13 0.86,-1.65c0.32,-0.51 0.65,-1.01 0.94,-1.48c0.6,-0.94 1.16,-1.8 1.71,-2.51c0.56,-0.71 1.09,-1.3 1.52,-1.8c0.86,-0.97 1.37,-1.49 1.37,-1.49c0.43,-0.45 1.16,-0.45 1.6,-0.01c0.31,0.31 0.41,0.77 0.27,1.16l-0.04,0.11c0,0 -0.24,0.68 -0.7,1.81c-0.22,0.57 -0.5,1.27 -0.84,2.02c-0.32,0.78 -0.57,1.71 -0.96,2.66c-0.17,0.48 -0.36,0.98 -0.55,1.49c-0.16,0.53 -0.32,1.08 -0.5,1.64c-0.35,1.12 -0.73,2.27 -1.01,3.52c-0.3,1.23 -0.7,2.47 -0.91,3.79c-0.29,1.29 -0.56,2.61 -0.75,3.94c-0.09,0.67 -0.24,1.33 -0.32,2c-0.07,0.66 -0.16,1.33 -0.24,1.99c-0.21,1.32 -0.25,2.62 -0.4,3.89c-0.05,0.63 -0.09,1.27 -0.12,1.88c-0.06,0.61 -0.12,1.2 -0.14,1.8c-0.05,1.17 -0.09,2.29 -0.14,3.3c-0.02,1.04 -0.05,1.99 -0.06,2.83c-0.01,0.84 -0.01,1.58 -0.02,2.19c0,1.22 0,1.91 0,1.91c0,0.72 -0.58,1.3 -1.3,1.3c-0.48,0 -0.91,-0.26 -1.13,-0.65l-0.04,-0.06z" fill="#D96132" id="svg_77"/>
     </g>
    </g>
   </g>
   <g id="svg_78">
    <path d="m126.39,460.55c0,0 -0.12,-0.21 -0.36,-0.57c-0.12,-0.21 -0.31,-0.5 -0.42,-0.75c-0.12,-0.27 -0.26,-0.57 -0.41,-0.89c-0.14,-0.32 -0.25,-0.68 -0.37,-1.04c-0.14,-0.37 -0.27,-0.77 -0.35,-1.18c-0.09,-0.41 -0.19,-0.82 -0.27,-1.25c-0.1,-0.42 -0.1,-0.87 -0.15,-1.29c-0.04,-0.43 -0.09,-0.86 -0.11,-1.28c0.01,-0.42 0.02,-0.83 0.05,-1.23c0.01,-0.4 0.02,-0.77 0.05,-1.13c0.01,-0.36 0.1,-0.68 0.15,-0.99c0.22,-1.2 0.37,-2 0.37,-2c0.11,-0.65 0.72,-1.06 1.35,-0.94c0.51,0.1 0.88,0.5 0.96,0.99l0.02,0.17c0,0 0.1,0.71 0.24,1.79c0.05,0.26 0.06,0.55 0.14,0.83c0.09,0.29 0.17,0.6 0.26,0.91c0.09,0.31 0.19,0.63 0.27,0.96c0.12,0.3 0.26,0.61 0.4,0.92c0.15,0.3 0.25,0.61 0.41,0.89c0.17,0.27 0.34,0.53 0.48,0.79c0.15,0.26 0.32,0.48 0.48,0.7c0.17,0.21 0.31,0.42 0.46,0.58c0.16,0.15 0.3,0.3 0.42,0.42c0.12,0.15 0.2,0.16 0.27,0.22c0.07,0.06 0.14,0.11 0.19,0.15c0.07,0.06 0.1,0.09 0.1,0.09l0.05,0.04c1.33,1.12 1.52,3.11 0.4,4.43c-1.11,1.34 -3.09,1.52 -4.43,0.41c-0.25,-0.22 -0.47,-0.48 -0.65,-0.75z" id="svg_79"/>
   </g>
   <g id="svg_80">
    <path d="m111.58,460.55c0,0 -0.12,-0.21 -0.36,-0.57c-0.12,-0.21 -0.31,-0.5 -0.42,-0.75c-0.12,-0.27 -0.26,-0.57 -0.41,-0.89c-0.14,-0.32 -0.25,-0.68 -0.37,-1.06c-0.14,-0.36 -0.27,-0.76 -0.35,-1.17c-0.09,-0.41 -0.19,-0.83 -0.27,-1.25c-0.1,-0.42 -0.1,-0.87 -0.15,-1.29c-0.04,-0.43 -0.09,-0.86 -0.11,-1.28c0.01,-0.42 0.02,-0.83 0.05,-1.23c0.01,-0.4 0.02,-0.77 0.05,-1.13c0.01,-0.36 0.1,-0.68 0.15,-0.99c0.22,-1.2 0.37,-2 0.37,-2c0.11,-0.65 0.72,-1.06 1.35,-0.94c0.51,0.1 0.88,0.5 0.96,0.99l0.02,0.17c0,0 0.09,0.71 0.24,1.79c0.05,0.26 0.06,0.55 0.14,0.83c0.09,0.29 0.17,0.6 0.26,0.91c0.09,0.31 0.19,0.63 0.27,0.96c0.12,0.3 0.26,0.61 0.4,0.92c0.15,0.3 0.25,0.61 0.41,0.89c0.17,0.27 0.34,0.53 0.48,0.79c0.15,0.26 0.32,0.48 0.48,0.7c0.17,0.21 0.31,0.42 0.46,0.58c0.16,0.15 0.3,0.3 0.42,0.42c0.12,0.15 0.2,0.16 0.27,0.22c0.07,0.06 0.14,0.12 0.19,0.15c0.07,0.06 0.1,0.09 0.1,0.09l0.05,0.04c1.33,1.12 1.52,3.11 0.4,4.43c-1.11,1.34 -3.09,1.52 -4.43,0.41c-0.25,-0.22 -0.47,-0.48 -0.65,-0.75z" id="svg_81"/>
   </g>
   <g id="svg_82">
    <path d="m252.46,460.55c0,0 -0.12,-0.21 -0.36,-0.57c-0.12,-0.21 -0.32,-0.5 -0.42,-0.75c-0.12,-0.27 -0.26,-0.57 -0.41,-0.89c-0.14,-0.32 -0.25,-0.68 -0.39,-1.06c-0.12,-0.36 -0.26,-0.76 -0.34,-1.17c-0.09,-0.41 -0.19,-0.83 -0.27,-1.25c-0.1,-0.42 -0.11,-0.87 -0.16,-1.29c-0.04,-0.43 -0.07,-0.86 -0.1,-1.28c0.01,-0.42 0.02,-0.83 0.04,-1.23c0.02,-0.4 0.04,-0.77 0.06,-1.13c0.01,-0.36 0.1,-0.68 0.15,-0.99c0.22,-1.2 0.37,-2 0.37,-2c0.11,-0.65 0.72,-1.06 1.35,-0.94c0.51,0.1 0.88,0.5 0.94,0.99l0.02,0.17c0,0 0.1,0.71 0.25,1.79c0.05,0.26 0.06,0.55 0.14,0.83c0.09,0.29 0.17,0.6 0.26,0.91c0.09,0.31 0.17,0.63 0.27,0.96c0.12,0.3 0.26,0.61 0.4,0.92c0.15,0.3 0.25,0.61 0.41,0.89c0.17,0.27 0.34,0.53 0.48,0.79c0.14,0.26 0.32,0.48 0.48,0.7c0.17,0.21 0.31,0.41 0.46,0.58c0.16,0.15 0.3,0.3 0.42,0.42c0.12,0.15 0.2,0.16 0.27,0.22c0.07,0.06 0.14,0.11 0.19,0.15c0.06,0.06 0.1,0.09 0.1,0.09l0.05,0.04c1.33,1.12 1.52,3.11 0.4,4.43c-1.11,1.34 -3.09,1.52 -4.43,0.41c-0.25,-0.22 -0.47,-0.48 -0.65,-0.75z" id="svg_83"/>
   </g>
   <g id="svg_84">
    <path d="m237.65,460.55c0,0 -0.12,-0.21 -0.36,-0.57c-0.12,-0.21 -0.32,-0.5 -0.42,-0.75c-0.12,-0.27 -0.26,-0.57 -0.41,-0.89c-0.14,-0.32 -0.25,-0.68 -0.39,-1.06c-0.12,-0.36 -0.26,-0.76 -0.34,-1.17c-0.09,-0.41 -0.19,-0.83 -0.27,-1.25c-0.1,-0.42 -0.11,-0.87 -0.16,-1.29c-0.04,-0.43 -0.07,-0.86 -0.1,-1.28c0.01,-0.42 0.02,-0.83 0.04,-1.23c0.02,-0.4 0.04,-0.77 0.06,-1.13c0.01,-0.36 0.1,-0.68 0.15,-0.99c0.22,-1.2 0.37,-2 0.37,-2c0.11,-0.65 0.72,-1.06 1.35,-0.94c0.51,0.1 0.88,0.5 0.94,0.99l0.02,0.17c0,0 0.1,0.71 0.25,1.79c0.05,0.26 0.06,0.55 0.14,0.83c0.09,0.29 0.17,0.6 0.26,0.91c0.09,0.31 0.17,0.63 0.27,0.96c0.12,0.3 0.26,0.61 0.4,0.92c0.15,0.3 0.25,0.61 0.41,0.89c0.17,0.27 0.34,0.53 0.48,0.79c0.14,0.26 0.32,0.48 0.48,0.7c0.17,0.21 0.31,0.41 0.46,0.58c0.16,0.15 0.3,0.3 0.42,0.42c0.12,0.15 0.2,0.16 0.27,0.22c0.07,0.06 0.14,0.11 0.19,0.15c0.06,0.06 0.1,0.09 0.1,0.09l0.05,0.04c1.33,1.12 1.52,3.11 0.4,4.43c-1.11,1.34 -3.09,1.52 -4.43,0.41c-0.25,-0.22 -0.47,-0.48 -0.65,-0.75z" id="svg_85"/>
   </g>
   <g id="svg_86">
    <path d="m433.82,431.44c0,0 -0.12,-0.2 -0.36,-0.57c-0.12,-0.2 -0.32,-0.5 -0.42,-0.75c-0.12,-0.26 -0.26,-0.56 -0.41,-0.88c-0.14,-0.32 -0.25,-0.68 -0.39,-1.06c-0.12,-0.37 -0.26,-0.76 -0.34,-1.17c-0.09,-0.41 -0.19,-0.83 -0.27,-1.25c-0.1,-0.43 -0.1,-0.87 -0.16,-1.3c-0.04,-0.43 -0.07,-0.86 -0.1,-1.28c0.01,-0.41 0.02,-0.83 0.05,-1.23c0.01,-0.39 0.02,-0.77 0.05,-1.13c0.01,-0.35 0.1,-0.68 0.15,-0.99c0.22,-1.2 0.37,-2 0.37,-2c0.11,-0.63 0.72,-1.06 1.35,-0.94c0.51,0.1 0.88,0.51 0.96,0.99l0.02,0.19c0,0 0.09,0.71 0.24,1.78c0.05,0.26 0.06,0.55 0.14,0.84c0.09,0.29 0.17,0.58 0.26,0.91c0.09,0.3 0.17,0.62 0.27,0.94c0.12,0.31 0.26,0.61 0.4,0.92c0.15,0.31 0.25,0.62 0.41,0.89c0.17,0.27 0.34,0.55 0.48,0.81c0.14,0.26 0.32,0.48 0.48,0.7c0.17,0.2 0.31,0.41 0.46,0.57c0.16,0.16 0.3,0.3 0.42,0.43c0.12,0.15 0.2,0.16 0.27,0.22c0.07,0.06 0.14,0.11 0.19,0.15c0.06,0.06 0.1,0.09 0.1,0.09l0.05,0.04c1.33,1.12 1.52,3.09 0.4,4.43c-1.12,1.33 -3.09,1.52 -4.43,0.4c-0.25,-0.21 -0.47,-0.47 -0.65,-0.75z" id="svg_87"/>
   </g>
   <g id="svg_88">
    <path d="m419.01,431.44c0,0 -0.12,-0.2 -0.36,-0.56c-0.12,-0.21 -0.32,-0.51 -0.42,-0.76c-0.12,-0.26 -0.26,-0.56 -0.41,-0.88c-0.14,-0.32 -0.25,-0.68 -0.39,-1.06c-0.12,-0.37 -0.26,-0.76 -0.34,-1.17c-0.09,-0.41 -0.19,-0.83 -0.27,-1.25c-0.1,-0.42 -0.11,-0.87 -0.16,-1.3c-0.04,-0.42 -0.07,-0.86 -0.1,-1.28c0.01,-0.41 0.02,-0.82 0.04,-1.22c0.02,-0.4 0.04,-0.78 0.06,-1.13c0.01,-0.36 0.1,-0.7 0.15,-1.01c0.22,-1.19 0.37,-2 0.37,-2c0.11,-0.63 0.72,-1.06 1.35,-0.93c0.51,0.09 0.88,0.5 0.94,0.98l0.02,0.19c0,0 0.1,0.71 0.25,1.78c0.05,0.26 0.06,0.55 0.14,0.84c0.09,0.29 0.17,0.58 0.26,0.91c0.09,0.3 0.17,0.62 0.27,0.94c0.12,0.31 0.26,0.62 0.4,0.93c0.15,0.3 0.25,0.61 0.41,0.88c0.17,0.27 0.34,0.55 0.48,0.81c0.15,0.26 0.32,0.48 0.48,0.7c0.17,0.21 0.31,0.41 0.46,0.58c0.16,0.15 0.3,0.3 0.42,0.42c0.12,0.15 0.2,0.16 0.27,0.22c0.07,0.06 0.14,0.11 0.19,0.15c0.07,0.06 0.1,0.09 0.1,0.09l0.05,0.04c1.34,1.12 1.52,3.09 0.4,4.43c-1.11,1.34 -3.09,1.52 -4.43,0.4c-0.25,-0.21 -0.47,-0.47 -0.65,-0.75z" id="svg_89"/>
   </g>
   <g id="svg_90">
    <circle cx="47.51" cy="426.09" fill="#97BA5F" id="svg_91" r="37.48"/>
    <path d="m80.15,407.66c-1.27,9.15 -8.21,15.84 -5.19,26.33c1.5,5.22 5.86,5.04 8.5,2.78" fill="none" id="svg_92" stroke="#FFFFFF" stroke-linecap="round" stroke-linejoin="round" stroke-miterlimit="10" stroke-width="4"/>
    <path d="m20.03,400.61c-1.02,5.5 1.4,12.43 16.66,16.21c15.25,3.78 21.21,12.62 20.99,23.34c-0.22,10.72 -8.53,22.82 -26.7,19.59" fill="none" id="svg_93" stroke="#FFFFFF" stroke-linecap="round" stroke-linejoin="round" stroke-miterlimit="10" stroke-width="4"/>
    <circle cx="47.51" cy="426.09" fill="none" id="svg_94" r="37.48" stroke="#000000" stroke-linecap="round" stroke-linejoin="round" stroke-miterlimit="10" stroke-width="4"/>
   </g>
  </g>
 </g>
</svg>