<?xml version="1.0"?>
<svg width="899.999" height="900" xmlns="http://www.w3.org/2000/svg" xmlns:svg="http://www.w3.org/2000/svg" enable-background="new 0 0 899.999 900" version="1.1" xml:space="preserve">
 <linearGradient id="SVGID_1_" x1="1" x2="0" y1="0.5" y2="0.5">
  <stop offset="0" stop-color="#FF5B33"/>
  <stop offset="0.41" stop-color="#FD5A33"/>
  <stop offset="0.55" stop-color="#F65831"/>
  <stop offset="0.66" stop-color="#EB532E"/>
  <stop offset="0.74" stop-color="#DA4D29"/>
  <stop offset="0.81" stop-color="#C44524"/>
  <stop offset="0.88" stop-color="#A83B1D"/>
  <stop offset="0.94" stop-color="#882F14"/>
  <stop offset="0.99" stop-color="#64210B"/>
  <stop offset="1" stop-color="#591D08"/>
 </linearGradient>
 <linearGradient id="SVGID_00000167384614486758814990000013444423662709934007_" x1="0" x2="1" y1="0.5" y2="0.5">
  <stop offset="0" stop-color="#FF5B33"/>
  <stop offset="0.41" stop-color="#FD5A33"/>
  <stop offset="0.55" stop-color="#F65831"/>
  <stop offset="0.66" stop-color="#EB532E"/>
  <stop offset="0.74" stop-color="#DA4D29"/>
  <stop offset="0.81" stop-color="#C44524"/>
  <stop offset="0.88" stop-color="#A83B1D"/>
  <stop offset="0.94" stop-color="#882F14"/>
  <stop offset="0.99" stop-color="#64210B"/>
  <stop offset="1" stop-color="#591D08"/>
 </linearGradient>
 <linearGradient id="SVGID_00000129184039554471412130000003332789303856267963_" x1="1" x2="0" y1="0.5" y2="0.5">
  <stop offset="0" stop-color="#702C00"/>
  <stop offset="1" stop-color="#D72C00"/>
 </linearGradient>
 <linearGradient id="SVGID_00000114765962282337161130000001064182307817940643_" x1="0" x2="1" y1="0.5" y2="0.5">
  <stop offset="0" stop-color="#702C00"/>
  <stop offset="1" stop-color="#D72C00"/>
 </linearGradient>
 <linearGradient id="SVGID_00000036220546424166828720000001424365061169537960_" x1="0.5" x2="0.5" y1="1" y2="0">
  <stop offset="0" stop-color="#EB3C00"/>
  <stop offset="1" stop-color="#EB2C00"/>
 </linearGradient>
 <g class="layer">
  <title>Layer 1</title>
  <g id="svg_271">
   <polygon fill="#C4C443" id="svg_104" points="857.6904489169319,607.2542765249896 503.6031621645743,368.95018723788644 28.0570068359375,646.4232924147404 382.14812958557013,884.7299259857505 "/>
   <g id="svg_105">
    <polygon fill="#807E89" id="svg_106" points="357.55496391298584,785.3054171854715 287.00635517153205,826.8575659537423 103.85672399001305,704.4072095103588 173.8127690095498,662.4613621646172 110.25064644795566,619.9677109223053 454.32441459934125,413.6601837629137 771.0730041617426,629.0898298707875 427.0120748583795,831.740555627865 "/>
    <path d="m454.14,420.17l306.69,208.58l-333.64,196.51l-69.45,-46.43l-70.54,41.56l-173.09,-115.73l69.95,-41.94l-63.55,-42.49l333.64,-200.05l0,0zm0.37,-13.02l-6.02,3.6l-333.64,200.06l-14.85,8.9l14.39,9.62l49.18,32.87l-55.11,33.04l-14.84,8.9l14.39,9.62l173.09,115.73l5.72,3.82l5.94,-3.49l64.61,-38.07l63.73,42.61l5.72,3.84l5.94,-3.5l333.64,-196.51l14.92,-8.79l-14.31,-9.74l-306.69,-208.58l-5.8,-3.95l0,0z" fill="#EAE3E1" id="svg_107"/>
   </g>
   <polygon fill="#382C36" id="svg_108" opacity="0.4" points="448.28451946133646,790.6565550984637 557.7815351063982,780.5507377059153 823.7442998884362,625.8998849939749 723.1705576188251,562.8623546311542 562.8389452280462,619.7907070480437 493.1676447205209,645.8717699493832 476.4293097538066,672.3414037175503 448.7911451014443,728.7823887663658 "/>
   <g id="svg_109">
    <polygon fill="#F4F5F7" id="svg_110" points="448.28451946133646,789.9254453321087 174.22449285993025,608.2047035641194 174.22449285993025,201.99764355042544 448.28451946133646,383.718424461244 "/>
    <polygon fill="#CAE2EF" id="svg_111" points="448.28451946133646,790.1448017477128 174.22449285993025,608.4240208368942 174.22449285993025,580.6742991209217 448.28451946133646,762.3988768861859 "/>
    <polygon fill="#382C36" id="svg_112" opacity="0.1" points="398.2913761178752,756.9617813199698 399.3892933379466,561.0423304954752 426.17320488285986,623.1589083696567 426.17320488285986,662.0919321413353 405.47283273066205,649.3464006239633 405.6087757769492,761.8973789567212 "/>
    <polygon fill="#BDCAD3" id="svg_113" points="448.28451946133646,397.24505113803434 174.22449285993025,215.14076835678725 174.22449285993025,201.99764355042544 448.28451946133646,383.718424461244 "/>
    <polygon fill="#BDCAD3" id="svg_114" points="448.2793917506933,789.9780532947375 724.5108863809801,629.0243830601362 724.5108863809801,222.81861475981032 448.2793917506933,383.7709932810435 "/>
    <polygon fill="#CACAC8" id="svg_115" points="389.067955527069,764.089377399589 398.990388764174,756.8566436803708 398.990388764174,603.6218611053523 389.067955527069,608.665179808439 "/>
    <polygon fill="#F99770" id="svg_116" points="724.5108863809801,222.81861475981032 450.4534627777248,41.096551921330956 174.37198304087178,201.99507969510387 448.4294653583711,383.7171327478759 "/>
    <g id="svg_117">
     <polygon fill="#CAE2EF" id="svg_118" points="448.28451946133646,440.2824745654948 174.22449285993025,258.56044108413744 174.22449285993025,230.81068022533555 448.28451946133646,412.534005420061 "/>
     <polygon fill="#4B7CA4" id="svg_119" points="448.2793917506933,440.3337908147555 724.5108863809801,279.3814122935223 724.5108863809801,251.63294314808854 448.2793917506933,412.58532166932173 "/>
     <polygon fill="#4B7CA4" id="svg_120" points="448.2793917506933,790.1960788541442 724.5108863809801,629.2424086195429 724.5108863809801,601.4952311874772 448.2793917506933,762.4514848488147 " stroke="#4B7CA4" stroke-miterlimit="10" stroke-width="0.86"/>
    </g>
    <polygon fill="#EBF2FA" id="svg_121" points="731.3652655118276,222.81603133307408 731.3652655118276,209.80117757844937 450.7946316782254,36.98186748714079 167.51631219665614,188.98147851101794 167.51631219665614,201.99635183705732 448.08954902840924,387.82795182766904 "/>
    <polygon fill="#CACAC8" id="svg_122" points="450.7946316782254,36.98186748714079 448.08954902840924,378.35957541087237 447.8176237930056,391.1999891465571 448.08954902840924,387.82795182766904 731.3652655118276,222.81603133307408 731.3652655118276,209.80117757844937 "/>
    <polygon fill="#FFFFFF" id="svg_123" points="731.3652655118276,209.80117757844937 450.7946316782254,23.966999053955078 167.51631219665614,188.98147851101794 448.08954902840924,374.81307850162966 "/>
    <polygon fill="#D4D4D4" id="svg_124" points="708.3971926848244,209.8050135757244 449.6594896274546,37.751449761880394 190.480568597799,188.97891465569637 449.22339936581193,361.03120143473325 "/>
    <polygon fill="#C7C7C7" id="svg_125" points="449.6594896274546,37.751449761880394 190.480568597799,188.97891465569637 207.53443391179826,199.74405386559602 449.6594896274546,58.27356057642419 "/>
    <polygon fill="#F4F5F7" id="svg_126" points="449.6594896274546,58.27356057642419 691.3446190841933,219.56071793126875 708.3971926848244,209.8050135757244 449.6594896274546,37.751449761880394 "/>
    <polygon fill="#7466A4" id="svg_127" opacity="0.1" points="219.51808939895636,637.9630395675163 219.51808939895636,442.04609388409926 246.30458437060588,504.161419187742 246.30458437060588,543.0957346727887 225.60417307557873,530.3463671581417 225.74011612186587,642.8986372042677 "/>
   </g>
   <g id="svg_128">
    <g id="svg_129">
     <g id="svg_130">
      <polygon fill="#435A5E" id="svg_131" points="235.86777521318436,646.2219417006313 235.86777521318436,495.98463871057584 369.07939572636315,583.7102561071229 369.07939572636315,734.0232221862866 "/>
      <g id="svg_132">
       <path d="m238.76,501.35l127.43,83.92l0,143.39l-127.43,-83.99l0,-143.32l0,0zm-5.78,-10.72l0,10.72l0,143.32l0,3.1l2.6,1.72l127.43,83.99l8.97,5.91l0,-10.74l0,-143.39l0,-3.12l-2.6,-1.72l-127.43,-83.91l-8.97,-5.9l0,0z" fill="#EAE3E1" id="svg_133"/>
      </g>
     </g>
    </g>
   </g>
   <polygon fill="#435A5E" id="svg_134" opacity="0.6" points="329.1113181185283,700.4785220154704 331.5790777940747,634.6730847617478 272.05469464990165,612.4655962515903 272.05469464990165,662.8217110514929 "/>
   <polygon fill="#382C36" id="svg_135" opacity="0.1" points="458.035076534823,355.98533844773965 214.79672046716587,194.4711428970336 190.30998414754868,188.83911604071955 449.1528639873468,361.086353681269 "/>
   <g id="svg_136">
    <g id="svg_137">
     <g id="svg_138">
      <g id="svg_139" opacity="0.8">
       <path d="m187.85,358.17l241.97,159.65l0,28.64l-241.97,-158.44l0,-29.85l0,0zm-5.09,-9.47l0,9.47l3.28,34.8l253.26,165.11l0,-103.82l-3.44,-7.86l-245.21,-92.49l-7.89,-5.21l0,0z" fill="#BDCAD3" id="svg_140"/>
      </g>
     </g>
    </g>
    <g id="svg_141">
     <g id="svg_142">
      <g id="svg_143">
       <polygon fill="#435A5E" id="svg_144" points="184.95626280782017,385.1331637419685 184.95626280782017,284.70303651319455 432.70950938251553,448.1668189646848 432.70950938251553,547.3655910681778 "/>
       <g id="svg_145">
        <path d="m187.85,290.07l241.97,159.65l0,92.3l-241.97,-158.44l0,-93.5l0,0zm-5.78,-10.74l0,10.74l0,93.5l0,3.12l2.62,1.72l241.97,158.44l8.95,5.86l0,-10.7l0,-92.3l0,-3.12l-2.6,-1.71l-241.97,-159.65l-8.97,-5.91l0,0z" fill="#EAE3E1" id="svg_146"/>
       </g>
      </g>
     </g>
    </g>
    <g id="svg_147">
     <polygon fill="#EAE3E1" id="svg_148" points="200.73007931684333,395.6545996964164 184.82030019011836,384.83556081051984 184.82030019011836,285.5636894732402 200.73007931684333,296.3826892163074 "/>
     <polygon fill="#EAE3E1" id="svg_149" points="277.72907404755824,446.1389855480561 261.8192753494186,435.31998580498885 261.8192753494186,336.0480948962945 277.72907404755824,346.86709463936177 "/>
     <polygon fill="#EAE3E1" id="svg_150" points="354.72932134881194,496.62337139969577 338.8182700801335,485.8043716566285 338.8182700801335,386.5337724613023 354.72932134881194,397.3515196338308 "/>
     <polygon fill="#EAE3E1" id="svg_151" points="431.72831607952685,547.1077963941648 415.8172256680191,536.2887966510975 415.8172256680191,437.0169057424032 431.72831607952685,447.83590548547045 "/>
    </g>
    <polygon fill="#BDCAD3" id="svg_152" points="216.63983887215363,383.5632231429231 200.73007931684333,392.0760448099468 200.73007931684333,298.60934863455304 216.63983887215363,309.18977283281174 "/>
    <polygon fill="#FFFFFF" id="svg_153" points="216.63983887215363,383.5632231429231 200.73007931684333,392.0760448099468 261.8154393521436,432.2070348734819 261.82185877615484,412.4109012217964 "/>
    <polygon fill="#BDCAD3" id="svg_154" points="293.63883360286854,434.26054598615565 277.73161833146514,442.7733676531793 277.73161833146514,349.3079631911537 293.63883360286854,359.88580396267616 "/>
    <polygon fill="#FFFFFF" id="svg_155" points="293.63883360286854,434.26054598615565 277.73161833146514,442.7733676531793 338.8144340828585,482.9017742899782 338.81956179350163,463.1094766355677 "/>
    <polygon fill="#BDCAD3" id="svg_156" points="370.5839286575865,485.0617538984484 354.6754608156443,493.5758672788402 354.6754608156443,400.10917110344644 370.5839286575865,410.688303588337 "/>
    <polygon fill="#FFFFFF" id="svg_157" points="370.5839286575865,485.0617538984484 354.6754608156443,493.5758672788402 415.75952913757646,533.7042739156391 415.76724027495584,513.9094319773217 "/>
    <g id="svg_158">
     <polygon fill="#EAE3E1" id="svg_159" points="263.0069862199889,667.7573086882444 257.2248857559971,664.0594856007851 257.2248857559971,588.768957942139 263.0069862199889,588.768957942139 "/>
     <polygon fill="#EAE3E1" id="svg_160" points="343.89235504707904,717.935206186176 338.1102545830872,714.2347996719805 338.1102545830872,626.7233326947357 343.89235504707904,626.7233326947357 "/>
     <polygon fill="#EAE3E1" id="svg_161" points="272.05469464990165,662.8217110514929 266.27259418590984,659.1213828229561 266.27259418590984,571.6099158457114 272.05469464990165,571.6099158457114 "/>
     <polygon fill="#EAE3E1" id="svg_162" points="334.29570757854526,703.674847173465 328.51489882792157,699.9757715154669 328.51489882792157,612.4655962515903 334.29570757854526,612.4655962515903 "/>
     <polygon fill="#EAE3E1" id="svg_163" points="240.21078955660414,398.5969270348437 234.4299416631511,394.8978122340163 234.4299416631511,319.6086154315676 240.21078955660414,319.6086154315676 "/>
     <polygon fill="#EAE3E1" id="svg_164" points="317.21232857122595,449.82396978749284 311.43022810723414,446.1248941294948 311.43022810723414,370.83436647084864 317.21232857122595,370.83436647084864 "/>
     <polygon fill="#EAE3E1" id="svg_165" points="395.16558633834575,501.0510516829713 389.38348587435394,497.3506451687758 389.38348587435394,422.0627009368659 395.16558633834575,422.0627009368659 "/>
    </g>
   </g>
   <g id="svg_166">
    <g id="svg_167">
     <g id="svg_168" opacity="0.8">
      <path d="m708.7,380.72l0,30.03l-241.97,137.52l0,-28.65l241.97,-138.9l0,0zm5.09,-9.08l-7.9,4.57l-241.97,138.91l-2.28,1.31l0,2.73l0,28.65l0,9.41l7.88,-4.44l241.97,-137.51l2.31,-1.31l0,-2.77l0,-30.04l0,-9.52l0,0z" fill="#ADA17C" id="svg_169" opacity="0.5"/>
     </g>
    </g>
    <g id="svg_170">
     <polygon fill="#303A3A" id="svg_171" points="463.8364352708486,449.6995738758601 711.5922652722802,307.07343747905225 711.5922652722802,408.09356457442163 463.8364352708486,548.9047654033643 "/>
     <path d="m708.7,312.24l0,94.03l-241.97,137.55l0,-92.31l241.97,-139.27l0,0zm5.78,-10.33l-8.97,5.19l-241.98,139.29l-2.59,1.49l0,3.12l0,92.29l0,10.7l8.95,-5.05l241.97,-137.52l2.62,-1.49l0,-3.16l0,-94.04l0,-10.81l0,0z" fill="#D1CAC8" id="svg_172"/>
    </g>
    <g id="svg_173">
     <polygon fill="#D1CAC8" id="svg_174" points="695.8171570498889,417.3053988877441 711.7256640346604,407.8049644937205 711.7256640346604,307.95203742634885 695.8171570498889,317.49098836444 "/>
     <polygon fill="#D1CAC8" id="svg_175" points="618.8168706058059,461.2984162078069 634.7266301611162,451.83387578828524 634.7266301611162,352.1592443085433 618.8168706058059,361.660970415935 "/>
     <polygon fill="#D1CAC8" id="svg_176" points="541.8165841617229,505.10671851622874 557.7289271437694,495.6819472113134 557.7289271437694,396.184319605833 541.8165841617229,405.6488600253547 "/>
     <polygon fill="#D1CAC8" id="svg_177" points="464.8202120005735,548.7367252370209 480.7274272719769,539.3491396199756 480.7274272719769,440.03109931549307 464.8202120005735,449.4545789070403 "/>
    </g>
    <polygon fill="#A4B1BA" id="svg_178" points="679.9060666383812,403.77364450031064 695.8171570498889,413.70891658543815 695.8171570498889,319.72917534592534 679.9060666383812,328.79739461841064 "/>
    <polygon fill="#E6E6E6" id="svg_179" points="679.9060666383812,403.77364450031064 695.8171570498889,413.70891658543815 634.7330495851274,448.7080860087558 634.7253775905774,428.83241412785765 "/>
    <polygon fill="#A4B1BA" id="svg_180" points="602.9058584799568,447.9808513825051 618.8168706058059,457.9212511782757 618.8168706058059,363.97227620262174 602.7942231306879,373.24701304268865 "/>
    <polygon fill="#E6E6E6" id="svg_181" points="602.9058584799568,447.9808513825051 618.8168706058059,457.9212511782757 557.7340939972419,492.77547470455875 557.7264220026918,472.933191657085 "/>
    <polygon fill="#A4B1BA" id="svg_182" points="525.9632685663164,492.11623117286626 541.8705229805491,502.0591752525438 541.8705229805491,408.2859515806126 525.9632685663164,417.5003693206713 "/>
    <polygon fill="#E6E6E6" id="svg_183" points="525.9632685663164,492.11623117286626 541.8705229805491,502.0591752525438 480.7877072291558,536.7684920246215 480.78128780514453,516.9646472355566 "/>
    <g id="svg_184">
     <polygon fill="#D1CAC8" id="svg_185" points="656.3364468101281,416.8385423622426 662.1172947035811,413.6242506455824 662.1172947035811,337.9810069517812 656.3364468101281,337.4897644436028 "/>
     <polygon fill="#D1CAC8" id="svg_186" points="579.3349077955063,461.5203169073179 585.1170082594981,458.3214083225871 585.1170082594981,382.8141468179024 579.3349077955063,382.3151931723446 "/>
     <polygon fill="#D1CAC8" id="svg_187" points="501.3829417417546,505.93529392763276 507.16504220574643,502.75051590429257 507.16504220574643,427.379197445895 501.3829417417546,426.8751160896941 "/>
    </g>
   </g>
   <polygon fill="#F4F5F7" id="svg_188" points="389.067955527069,764.089377399589 383.948973734874,760.8520305564493 383.948973734874,613.8354387070654 389.067955527069,610.9110387844744 "/>
   <g id="svg_189" opacity="0.1">
    <path d="m389.07,644.98l0,-36.31l3.32,-1.69l-0.77,-3.37l-9.13,1.1c0,0 -13.89,5.12 -15.73,5.48c-1.82,0.37 -19.01,8.41 -19.01,8.41l34,16.08l0,6.95l7.31,3.35z" fill="#7466A4" id="svg_190"/>
   </g>
   <g id="svg_191">
    <g id="svg_192">
     <g id="svg_193" opacity="0.8">
      <path d="m708.7,529.63l0,30.03l-241.97,137.52l0,-28.65l241.97,-138.9l0,0zm5.09,-9.08l-7.9,4.57l-241.97,138.9l-2.28,1.31l0,2.74l0,28.65l0,9.41l7.88,-4.45l241.97,-137.5l2.31,-1.32l0,-2.77l0,-30.03l0,-9.52l0,0z" fill="#ADA17C" id="svg_194" opacity="0.5"/>
     </g>
    </g>
    <g id="svg_195">
     <polygon fill="#303A3A" id="svg_196" points="463.8364352708486,598.6080560955857 711.5922652722802,455.9831722693166 711.5922652722802,557.0020076513179 463.8364352708486,697.8132084802605 "/>
     <path d="m708.7,461.14l0,94.04l-241.97,137.55l0,-92.31l241.97,-139.28l0,0zm5.78,-10.31l-8.97,5.19l-241.98,139.29l-2.59,1.49l0,3.1l0,92.3l0,10.7l8.95,-5.05l241.97,-137.52l2.62,-1.5l0,-3.14l0,-94.06l0,-10.8l0,0z" fill="#D1CAC8" id="svg_197"/>
    </g>
    <g id="svg_198">
     <polygon fill="#D1CAC8" id="svg_199" points="695.8171570498889,566.2138811074697 711.7256640346604,556.713446713446 711.7256640346604,456.8605196460744 695.8171570498889,466.39817887079744 "/>
     <polygon fill="#D1CAC8" id="svg_200" points="618.8168706058059,610.2056067141643 634.7266301611162,600.7410662946427 634.7266301611162,501.06643481490073 618.8168706058059,510.56686920892435 "/>
     <polygon fill="#D1CAC8" id="svg_201" points="541.8165841617229,654.0164533064931 557.7289271437694,644.5891377176708 557.7289271437694,545.0927626827292 541.8165841617229,554.5560505317121 "/>
     <polygon fill="#D1CAC8" id="svg_202" points="464.8202120005735,697.6426240300102 480.7274272719769,688.2537466995968 480.7274272719769,588.9382898218505 464.8202120005735,598.3617694133977 "/>
    </g>
    <polygon fill="#A4B1BA" id="svg_203" points="679.9060666383812,552.6808350066681 695.8171570498889,562.6161070917956 695.8171570498889,468.6376575656509 679.9060666383812,477.92644668144976 "/>
    <polygon fill="#E6E6E6" id="svg_204" points="679.9060666383812,552.6808350066681 695.8171570498889,562.6161070917956 634.7330495851274,597.6152765151132 634.7253775905774,577.7396046342151 "/>
    <polygon fill="#A4B1BA" id="svg_205" points="602.9058584799568,596.8880418888625 618.8168706058059,606.8284416846332 618.8168706058059,513.0154488980957 602.9058584799568,522.2683440393926 "/>
    <polygon fill="#E6E6E6" id="svg_206" points="602.9058584799568,596.8880418888625 618.8168706058059,606.8284416846332 557.7340939972419,641.6801209270093 557.7264220026918,621.8429264473493 "/>
    <polygon fill="#A4B1BA" id="svg_207" points="525.9632685663164,641.0247133925918 541.8705229805491,650.9676966150987 541.8705229805491,557.3214131387072 525.9632685663164,566.537122592134 "/>
    <polygon fill="#E6E6E6" id="svg_208" points="525.9632685663164,641.0247133925918 541.8705229805491,650.9676966150987 480.7877072291558,685.6757216738083 480.78128780514453,665.8731294552822 "/>
    <g id="svg_209">
     <polygon fill="#D1CAC8" id="svg_210" points="656.3364468101281,565.7457328686 662.1172947035811,562.5314411519398 662.1172947035811,486.88948917150674 656.3364468101281,486.39824666332834 "/>
     <polygon fill="#D1CAC8" id="svg_211" points="579.3349077955063,610.4275074136754 585.1170082594981,607.2285988289445 585.1170082594981,531.7226290376279 579.3349077955063,531.2236753920702 "/>
     <polygon fill="#D1CAC8" id="svg_212" points="501.3829417417546,654.8425235768195 507.16504220574643,651.6564538401112 507.16504220574643,576.2876796656205 501.3829417417546,575.7823065960515 "/>
    </g>
   </g>
   <polygon fill="#CACAC8" id="svg_213" points="210.29596052151828,643.995262710971 220.2196854719914,638.9545274346206 220.2196854719914,485.722289143509 210.29596052151828,490.7668995599638 "/>
   <polygon fill="#F4F5F7" id="svg_214" points="210.29596052151828,643.995262710971 205.1769787293233,640.7579158678313 205.1769787293233,495.93590588805137 210.29596052151828,493.0102142520923 "/>
   <g id="svg_215">
    <polygon fill="#CACAC8" id="svg_216" points="399.3892933379466,605.1520325897914 399.3892933379466,570.3657610152372 140.56052448812443,527.628445660303 322.3377297874322,648.8628301103349 "/>
    <polygon fill="#F4F5F7" id="svg_217" points="322.48651168174183,598.651661207467 140.56052448812443,492.8409215152101 140.56052448812443,527.628445660303 322.3377297874322,648.8628301103349 "/>
    <polygon fill="#DCDEE2" id="svg_218" points="399.3892933379466,570.3657610152372 215.4200700243564,448.0321676317658 138.37107032916356,491.74425686567747 322.3377297874322,614.075305965242 "/>
   </g>
   <g id="svg_219">
    <polygon fill="#EBF2FA" id="svg_220" points="401.5800392102756,569.0279765369892 401.5800392102756,561.4976398863223 216.43206873403324,452.2968963165117 138.2671656886887,484.73722070041595 138.2671656886887,492.26884906445093 323.41642787829915,614.4844659603009 "/>
    <polygon fill="#CACAC8" id="svg_221" points="216.43206873403324,453.39356096604433 323.41642787829915,608.0495022457985 323.1419192161593,615.407962732847 323.41642787829915,615.5811306098335 401.5800392102756,570.1246411865218 401.5800392102756,562.5930128224868 "/>
    <polygon fill="#FFFFFF" id="svg_222" points="401.5800392102756,561.4976398863223 216.43206873403324,439.28202299047234 138.2671656886887,484.73722070041595 323.41642787829915,606.9515850257271 "/>
    <polygon fill="#D4D4D4" id="svg_223" points="378.61321895381116,561.5014758835973 215.29951010999866,453.066483484105 161.23527765852123,484.73596812987716 324.55027821570184,593.1696688160014 "/>
    <polygon fill="#C7C7C7" id="svg_224" points="215.29951010999866,453.066483484105 161.23527765852123,484.73596812987716 168.71300634655927,489.9023910312285 215.29951010999866,462.61952584075743 "/>
    <polygon fill="#F4F5F7" id="svg_225" points="215.29951010999866,462.61952584075743 369.9657068110391,566.4011404030175 378.61321895381116,561.5014758835973 215.29951010999866,453.066483484105 "/>
   </g>
   <g id="svg_226">
    <path d="m171.43,532.9l-0.95,4.5l-3.01,-2.04l4.07,-17.25l3.82,2.6l3.85,22.57l-3.13,-2.12l-0.95,-5.77l-3.69,-2.5zm3.3,-1.14l-0.77,-4.76c-0.23,-1.35 -0.45,-2.98 -0.63,-4.28l-0.04,-0.03c-0.21,1.05 -0.4,2.42 -0.62,3.44l-0.8,3.69l2.85,1.94z" fill="#00A200" id="svg_227"/>
    <path d="m193.05,545.01c-0.04,-2.4 -0.06,-5.31 -0.03,-8.17l-0.06,-0.04c-0.42,2.24 -0.99,4.68 -1.51,6.66l-1.65,6.64l-2.27,-1.53l-1.3,-8.59c-0.4,-2.6 -0.81,-5.72 -1.09,-8.5l-0.04,-0.03c-0.1,2.62 -0.19,5.63 -0.31,8.03l-0.3,7.36l-2.69,-1.82l1,-19.24l3.89,2.64l1.19,7.45c0.38,2.57 0.76,5.3 1.03,7.81l0.05,0.04c0.38,-2.04 0.86,-4.35 1.3,-6.26l1.45,-5.63l3.82,2.6l0.47,20.16l-2.85,-1.91l-0.1,-7.68z" fill="#00A200" id="svg_228"/>
    <path d="m199.61,537.49c0.77,0.3 2.33,1.17 3.78,2.17c1.78,1.21 2.87,2.21 3.8,3.69c0.9,1.33 1.53,3.12 1.5,4.89c-0.03,1.74 -0.72,2.92 -2.19,2.74l0,0.06c1.48,1.6 2.53,4.03 2.5,6.55c-0.03,1.77 -0.59,2.81 -1.4,3.26c-0.96,0.5 -2.53,0.08 -5.09,-1.64c-1.42,-0.96 -2.49,-1.83 -3.14,-2.41l0.24,-19.32zm2.68,18.2c0.28,0.24 0.63,0.47 1.13,0.82c1.32,0.89 2.49,0.91 2.53,-1.15c0.03,-1.98 -1.13,-3.55 -2.58,-4.53l-1,-0.68l-0.08,5.54zm0.12,-8.71l0.96,0.64c1.53,1.04 2.36,0.64 2.39,-0.82c0.03,-1.48 -0.72,-2.77 -2.04,-3.67c-0.63,-0.44 -1,-0.62 -1.24,-0.73l-0.06,4.58z" fill="#00A200" id="svg_229"/>
    <path d="m215.26,547.88l-0.18,11.24c-0.05,3.36 0.76,5.63 2.24,6.64c1.53,1.03 2.4,-0.03 2.45,-3.46l0.21,-11.21l2.9,1.98l-0.19,10.92c-0.1,6 -2.15,7.5 -5.52,5.25c-3.25,-2.19 -5.12,-6.21 -5.02,-12.44l0.17,-10.9l2.94,2z" fill="#00A200" id="svg_230"/>
    <path d="m226.57,555.58l2.92,1.99l-0.3,15.71l5.1,3.46l-0.06,3.67l-8.04,-5.41l0.37,-19.42z" fill="#00A200" id="svg_231"/>
    <path d="m240.32,579.49l-1.03,4.34l-3.01,-2.03l4.36,-16.66l3.82,2.62l3.55,21.96l-3.13,-2.12l-0.89,-5.62l-3.68,-2.49zm3.33,-1.05l-0.71,-4.63c-0.21,-1.31 -0.4,-2.89 -0.56,-4.17l-0.04,-0.03c-0.22,1.01 -0.45,2.35 -0.68,3.32l-0.86,3.58l2.85,1.92z" fill="#00A200" id="svg_232"/>
    <path d="m250.88,591.63l0.47,-19.2l3.41,2.32l2.5,8.84c0.71,2.54 1.41,5.44 1.92,7.99l0.06,0.04c-0.13,-2.67 -0.12,-5.28 -0.04,-8.16l0.14,-5.59l2.68,1.83l-0.51,19.11l-3.05,-2.07l-2.55,-9.23c-0.72,-2.57 -1.5,-5.62 -2.07,-8.3l-0.06,0c0.01,2.58 -0.01,5.31 -0.09,8.44l-0.15,5.78l-2.67,-1.81z" fill="#00A200" id="svg_233"/>
    <path d="m274.65,607.11c-0.55,0.04 -1.76,-0.35 -3.32,-1.41c-4.45,-2.99 -6.62,-8.64 -6.46,-14.07c0.18,-6.52 3.42,-8 7.32,-5.35c1.51,1.03 2.66,2.26 3.16,3l-0.69,3.01c-0.58,-0.77 -1.4,-1.67 -2.42,-2.37c-2.32,-1.56 -4.18,-0.73 -4.3,3.51c-0.12,3.82 1.35,7.25 3.94,9c0.89,0.59 1.86,0.97 2.45,1.01l0.33,3.66z" fill="#00A200" id="svg_234"/>
    <path d="m285.6,606.87l-4.75,-3.21l-0.14,4.5l5.3,3.57l-0.12,3.5l-8.21,-5.53l0.59,-18.97l7.97,5.41l-0.12,3.51l-5.03,-3.42l-0.13,3.94l4.75,3.22l-0.12,3.48z" fill="#00A200" id="svg_235"/>
   </g>
   <polygon fill="#435A5E" id="svg_236" opacity="0.2" points="289.9935793352088,507.0473417090948 289.9935793352088,512.7409402359558 318.5077996509608,531.8739552158445 318.5077996509608,525.9815502587812 "/>
   <g id="svg_237">
    <g id="svg_238">
     <g id="svg_239" opacity="0.5">
      <polygon fill="#BDCAD3" id="svg_240" points="249.0827466827941,404.18922391938077 242.32970833709987,399.96935291705495 253.29874254501556,333.34301224647834 260.70209985731344,338.1413359807452 "/>
     </g>
    </g>
   </g>
   <g id="svg_241">
    <g id="svg_242">
     <g id="svg_243" opacity="0.5">
      <polygon fill="#BDCAD3" id="svg_244" points="332.37305094434487,458.94350530923884 319.1042189415675,450.4204282209289 330.0707088655763,383.79279583698417 338.88751374523054,389.7160062007356 338.8272337880517,419.58081069992886 "/>
     </g>
    </g>
   </g>
   <g id="svg_245">
    <g id="svg_246">
     <g id="svg_247" opacity="0.5">
      <polygon fill="#BDCAD3" id="svg_248" points="409.42461449485927,509.89478682920935 402.2662521513812,505.2811389637541 413.1942646741518,438.99600633650743 416.02632666233694,440.535180671694 415.96475499178996,470.3948574602441 "/>
     </g>
    </g>
   </g>
   <g id="svg_249">
    <g id="svg_250">
     <g id="svg_251" opacity="0.4">
      <polygon fill="#C6BA95" id="svg_252" points="333.7711153797718,587.7864729257822 282.23366999048085,554.5611782423553 289.1175628146484,550.6401627420169 297.305890426469,555.7065757144123 320.518958222292,544.3744917643967 307.57207599081084,536.0040325676714 317.594558299701,531.5802665673295 290.1770026334816,512.5703557857055 271.27997977166524,521.0177697849072 249.00450016694958,503.19815330058964 225.55285682631802,514.3621970842619 244.2959700831816,525.9123065936842 244.59482558516902,530.2963426222491 175.56740504882146,485.7902802380672 161.0595459262131,484.59614994348567 244.59482558516902,540.1251462115802 244.59482558516902,546.53959908351 253.34876708090815,553.7800439401076 265.7749322537202,553.9262815505103 324.47970369440736,593.2261127759052 "/>
     </g>
     <polygon fill="#008035" id="svg_253" points="291.67769956742995,500.13781033171153 266.97160683220864,483.8265627758924 266.97160683220864,453.98998025665105 241.41388355910385,436.27683226812997 228.63116635386177,444.44206561064175 242.3360886182818,467.9283503552365 218.4919601278889,451.6607079112987 205.55791674443026,459.5925325624744 216.74372394121383,489.889552183206 239.2000825602954,504.71681679320363 254.0362717353819,554.4534180331907 266.97160683220864,546.5203408114762 266.97160683220864,518.124136126175 278.7410727572351,541.1640751878408 291.67769956742995,533.2335813928626 "/>
     <g id="svg_254">
      <path d="m230.13,535.88l0,-27.9c0,-0.55 -0.28,-1.06 -0.73,-1.37l-22.19,-14.8l0,-29.14l20.36,13.58c0.28,0.19 0.59,0.28 0.91,0.28c0.27,0 0.54,-0.06 0.78,-0.19c0.53,-0.28 0.86,-0.85 0.86,-1.45l0,-27.54l22.28,15.43l0,28.97c0,0.56 0.27,1.08 0.73,1.37l23.97,15.83l0,29.15l-22.15,-14.62c-0.28,-0.19 -0.59,-0.28 -0.91,-0.28c-0.27,0 -0.54,0.06 -0.78,0.21c-0.53,0.28 -0.86,0.83 -0.86,1.45l0,26.45l-22.27,-15.43z" fill="#00B535" id="svg_255"/>
      <path d="m231.77,450.49l18.98,13.15l0,28.12c0,1.12 0.55,2.14 1.48,2.74l23.23,15.34l0,25.22l-19.61,-12.94c-0.54,-0.37 -1.18,-0.55 -1.81,-0.55c-0.54,0 -1.06,0.13 -1.55,0.4c-1.08,0.58 -1.73,1.68 -1.73,2.9l0,23.32l-18.98,-13.16l0,-27.04c0,-1.1 -0.55,-2.13 -1.46,-2.73l-21.46,-14.31l0,-25.19l17.8,11.88c0.55,0.37 1.18,0.56 1.82,0.56c0.54,0 1.06,-0.14 1.55,-0.4c1.08,-0.56 1.74,-1.68 1.74,-2.9l0,-24.4l0,0zm-3.3,-6.28l0,30.68l-22.91,-15.29l0,33.09l22.91,15.29l0,28.76l25.56,17.71l0,-29.59l24.7,16.3l0,-33.09l-24.7,-16.32l0,-29.83l-25.56,-17.71l0,0z" fill="#FFFFFF" id="svg_256"/>
     </g>
    </g>
    <polygon fill="#00B535" id="svg_257" points="278.7410727572351,508.0695958400579 287.0550879940565,503.6034772983735 262.3502869722033,487.29222974255435 254.0362717353819,491.75834828423876 "/>
    <polygon fill="#00B535" id="svg_258" points="254.2055644722641,461.8396832518779 266.97160683220864,453.98998025665105 241.41388355910385,436.27683226812997 228.63116635386177,444.44206561064175 "/>
    <polygon fill="#00B535" id="svg_259" points="228.57601410732605,475.5446055162979 228.51318986624028,458.4458433770492 218.4919601278889,451.6607079112987 205.4745425179426,459.62842653697635 "/>
   </g>
   <polygon fill="#FFFFFF" id="svg_260" opacity="0.4" points="460.9184547722689,448.00394565181386 714.4832763614468,301.91468657225096 710.0466715130824,298.8851098672317 460.71964834206665,442.50657012841884 "/>
   <polygon fill="#FFFFFF" id="svg_261" opacity="0.4" points="460.7824725831524,596.8880418888625 714.3472941723303,450.8000745226677 709.9094367534271,447.76920610428033 460.58237443958205,591.3893746520994 "/>
   <path d="m181.14,716.71c-0.12,0 -0.22,0 -0.33,-0.01l-29.36,-1.65c-3.19,-0.18 -5.63,-2.91 -5.45,-6.11c0.18,-3.19 2.95,-5.64 6.11,-5.45l29.36,1.65c3.19,0.18 5.63,2.91 5.45,6.11c-0.18,3.08 -2.73,5.46 -5.77,5.46z" fill="#382C36" id="svg_262" opacity="0.3"/>
   <path d="m309.74,802.71c-0.12,0 -0.22,0 -0.33,0l-29.36,-1.67c-3.19,-0.18 -5.63,-2.91 -5.45,-6.11c0.18,-3.19 2.9,-5.64 6.11,-5.45l29.36,1.65c3.19,0.18 5.63,2.91 5.45,6.11c-0.17,3.08 -2.73,5.46 -5.77,5.46z" fill="#382C36" id="svg_263" opacity="0.3"/>
   <path d="m155.54,648.54c1.31,-1.12 2.15,-2.74 2.15,-4.6c0,-3.35 -2.71,-6.07 -6.05,-6.07c-3.35,0 -6.07,2.72 -6.07,6.07c0,1.86 0.85,3.49 2.15,4.6c-2.58,1.4 -4.36,4.1 -4.36,7.25l0,52.1c0,4.57 3.71,6.89 8.27,6.89c4.57,0 8.27,-2.32 8.27,-6.89l0,-52.1c0,-3.14 -1.78,-5.85 -4.37,-7.25z" fill="#4C4949" id="svg_264"/>
   <path d="m284.92,734.91c1.31,-1.1 2.15,-2.74 2.15,-4.6c0,-3.35 -2.72,-6.07 -6.07,-6.07c-3.35,0 -6.07,2.72 -6.07,6.07c0,1.86 0.86,3.5 2.17,4.6c-2.59,1.4 -4.36,4.1 -4.36,7.25l0,52.1c0,4.57 3.71,6.89 8.27,6.89c4.57,0 8.26,-2.32 8.26,-6.89l0,-52.1c0,-3.14 -1.77,-5.85 -4.36,-7.25z" fill="#4C4949" id="svg_265"/>
   <path d="m478.34,207.92l36.7,24.24l-31.23,18.47l-36.91,-24.36l-43.57,25.42l-31.39,-20.61l43.66,-25.49l-36.25,-23.93l31.23,-18.47l36.47,24.06l43.66,-25.47l31.4,20.6l-43.76,25.54zm-30.92,-74.67c-65.08,0 -117.84,33.1 -117.84,73.94c0,40.83 52.75,73.93 117.84,73.93c65.08,0 117.84,-33.1 117.84,-73.93c0,-40.84 -52.75,-73.94 -117.84,-73.94z" fill="#00B535" id="svg_266"/>
   <polygon fill="#FFFFFF" id="svg_267" opacity="0.95" points="478.3378749694457,207.92468991145188 515.040383754189,232.156175840963 483.80190080224565,250.63376371501954 446.8980021605639,226.2688790231282 403.3269836835825,251.69451481863553 371.9345519838571,231.08389717410728 415.5992001086124,205.6056729873858 379.34816471744125,181.67047870454053 410.58539509884577,163.19159911711586 447.04165634423043,187.26019216234135 490.70630446898576,161.7806958336664 522.1000278820793,182.3900413362412 "/>
  </g>
 </g>
</svg>