<?xml version="1.0"?>
<svg width="500" height="500" xmlns="http://www.w3.org/2000/svg" xmlns:svg="http://www.w3.org/2000/svg" xmlns:xlink="http://www.w3.org/1999/xlink" enable-background="new 0 0 500 500" version="1.1" xml:space="preserve">
 <g class="layer">
  <title>Layer 1</title>
  <g id="svg_369">
   <g id="svg_92" opacity="0.15">
    <g id="svg_93">
     <defs>
      <polygon id="SVGID_00000161631160599971025370000009663618084133163156_" points="59.988,239.442 175.976,417.534         269.132,355.887 361.375,329.858 450.976,271.864 344.022,118.887 246.3,177.338 147.664,187.841       "/>
     </defs>
     <clipPath id="SVGID_00000039116518441236164560000009302330182487989907_">
      <use id="svg_94" overflow="visible" xlink:href="#SVGID_00000161631160599971025370000009663618084133163156_"/>
     </clipPath>
    </g>
    <g id="svg_95">
     <defs>
      <polygon id="SVGID_00000157997599486224234300000015744572613233534384_" points="59.988,239.442 175.976,417.534         269.132,355.887 361.375,329.858 450.976,271.864 344.022,118.887 246.3,177.338 147.664,187.841       "/>
     </defs>
     <clipPath id="SVGID_00000053517895827804940250000003254407771482974619_">
      <use id="svg_96" overflow="visible" xlink:href="#SVGID_00000157997599486224234300000015744572613233534384_"/>
     </clipPath>
     <polygon clip-path="url(#SVGID_00000053517895827804940250000003254407771482974619_)" id="svg_97" points="59.988,239.442        175.976,417.534 269.132,355.887 361.375,329.858 450.976,271.864 344.022,118.887 246.3,177.338 147.664,187.841      "/>
     <path clip-path="url(#SVGID_00000053517895827804940250000003254407771482974619_)" d="m179.72,333.34c-1.58,0 -3.19,-0.06 -4.85,-0.17c-25.63,-1.83 -42.74,-12.12 -50.85,-30.59c-6.58,-14.99 -6.08,-32.73 -5.59,-49.89c0.12,-4.38 0.25,-8.92 0.25,-13.25c0,-3.22 0,-13.04 -19.78,-21.26c-12.46,-5.17 -25.49,-6.5 -25.62,-6.51l2.71,-28.48c0.68,0.06 16.87,1.64 33.22,8.3c10.32,4.2 18.71,9.59 24.94,16.03c8.6,8.88 13.14,19.92 13.14,31.92c0,4.74 -0.13,9.48 -0.26,14.06c-1.05,36.96 1.04,49.07 29.87,51.13c16.27,1.16 25.28,-8.04 38.64,-23.15c7.88,-8.91 16.02,-18.12 27.04,-24.14c13.52,-7.38 28.17,-8.26 44.8,-2.69c31.96,10.7 59.13,11.07 72.68,0.99c8.14,-6.07 11.85,-16.29 11.36,-31.25c-0.54,-16.13 3.46,-30.34 11.88,-42.23c6.63,-9.35 15.87,-17.06 27.46,-22.88c18.68,-9.4 37.54,-10.77 38.34,-10.83l1.93,28.55l0.05,-0.01c-0.15,0.01 -14.56,1.16 -28.11,8.17c-16.02,8.3 -23.53,20.82 -22.96,38.28c1.02,30.74 -11.87,46.95 -22.86,55.14c-21.69,16.15 -56.79,17.29 -98.86,3.2c-18.34,-6.15 -26.34,1.72 -41.31,18.65c-13.04,14.75 -29.1,32.91 -57.26,32.91z" id="svg_98"/>
     <path clip-path="url(#SVGID_00000053517895827804940250000003254407771482974619_)" d="m154.97,169.12c0,0 14.4,29.99 7.31,54.8c-7.31,25.57 24.66,29.68 24.66,29.68s21.92,15.98 51.14,-19.64c29.23,-35.62 46.89,-10.04 81.28,-10.04c38.36,0 60.99,-53.08 50.94,-94.17c-10.05,-41.1 -56.42,-45.57 -56.42,-45.57l-158.91,84.94z" id="svg_99" opacity="0.5"/>
     <path clip-path="url(#SVGID_00000053517895827804940250000003254407771482974619_)" d="m190.3,161.79c0,0 8.62,17.96 4.38,32.81c-4.38,15.32 14.76,17.78 14.76,17.78s13.13,9.57 30.63,-11.76c17.5,-21.33 28.07,-6.02 48.67,-6.02c22.96,0 36.51,-31.77 30.5,-56.38c-6.02,-24.61 -33.78,-27.28 -33.78,-27.28l-95.16,50.85z" id="svg_100"/>
     <path clip-path="url(#SVGID_00000053517895827804940250000003254407771482974619_)" d="m216.16,139.44c0,0 -6.39,43.38 18.27,41.55c24.66,-1.83 59.36,1.83 62.1,-35.62c2.74,-37.44 -45.66,-34.43 -45.66,-34.43l-34.71,28.5z" id="svg_101"/>
     <path clip-path="url(#SVGID_00000053517895827804940250000003254407771482974619_)" d="m271.01,410.23c0,0 -167.4,32.58 -171.75,12.61c-24.61,-113.07 105.94,-28.14 116.93,-60.08c7.91,-23.02 27.37,-76.74 73.04,-54.82c45.66,21.92 51.14,49.15 38.35,67.95c-12.78,18.81 -56.57,34.34 -56.57,34.34z" id="svg_102" opacity="0.5"/>
     <path clip-path="url(#SVGID_00000053517895827804940250000003254407771482974619_)" d="m211.59,427.58c0,0 26,-49.8 27.54,-64.29c1.54,-14.48 16.84,-48.9 44.16,-35.79c27.32,13.12 30.6,29.41 22.95,40.66c-7.19,10.58 -84.71,53.92 -94.65,59.42z" id="svg_103"/>
     <path clip-path="url(#SVGID_00000053517895827804940250000003254407771482974619_)" d="m112.05,484.2c0,0 25.99,-49.8 27.53,-64.28c1.54,-14.48 16.84,-48.91 44.16,-35.79c27.32,13.11 30.6,29.4 22.95,40.65c-7.19,10.59 -84.71,53.93 -94.64,59.42z" id="svg_104"/>
     <path clip-path="url(#SVGID_00000053517895827804940250000003254407771482974619_)" d="m5.19,319.71c0,0 25.99,-49.8 27.53,-64.29c1.54,-14.48 16.84,-48.9 44.16,-35.79c27.33,13.12 30.61,29.41 22.96,40.66c-7.2,10.59 -84.72,53.92 -94.65,59.42z" id="svg_105"/>
     <path clip-path="url(#SVGID_00000053517895827804940250000003254407771482974619_)" d="m269.93,383.5c0,0 -22.39,-7.6 -21.4,-17.67c0.99,-10.07 10.83,-34.01 28.41,-24.89c17.58,9.12 19.69,20.45 14.77,28.28c-4.93,7.82 -21.78,14.28 -21.78,14.28z" id="svg_106"/>
     <path clip-path="url(#SVGID_00000053517895827804940250000003254407771482974619_)" d="m58.66,268.51c0,0 -22.39,-7.6 -21.39,-17.67c0.99,-10.07 10.83,-34.01 28.4,-24.89c17.58,9.12 19.69,20.45 14.77,28.27c-4.92,7.83 -21.78,14.29 -21.78,14.29z" id="svg_107"/>
     <path clip-path="url(#SVGID_00000053517895827804940250000003254407771482974619_)" d="m164.9,445.14c0,0 -22.39,-7.6 -21.4,-17.67c0.99,-10.07 10.84,-34.01 28.41,-24.89c17.58,9.12 19.69,20.45 14.77,28.27c-4.93,7.83 -21.78,14.29 -21.78,14.29z" id="svg_108"/>
     <path clip-path="url(#SVGID_00000053517895827804940250000003254407771482974619_)" d="m467.64,337.58c0,0 -125.43,13.65 -104.44,1.33c49.32,-28.93 41.92,-112.11 91.99,-104.48c50.07,7.63 63.27,32.07 56.53,53.79c-6.73,21.72 -44.08,49.36 -44.08,49.36z" id="svg_109" opacity="0.5"/>
     <path clip-path="url(#SVGID_00000053517895827804940250000003254407771482974619_)" d="m462.68,316.59c0,0 -51.06,16.74 -53.81,2.44s16.39,-68.72 46.36,-64.16c29.96,4.57 37.85,19.19 33.82,32.19c-4.03,13 -26.37,29.53 -26.37,29.53z" id="svg_110"/>
     <path clip-path="url(#SVGID_00000053517895827804940250000003254407771482974619_)" d="m459.37,302.61c0,0 -20.17,-0.16 -21.69,-8.06c-1.53,-7.91 1,-28.59 17.57,-26.06c16.57,2.52 20.93,10.6 18.7,17.79s-14.58,16.33 -14.58,16.33z" id="svg_111"/>
     <polyline clip-path="url(#SVGID_00000053517895827804940250000003254407771482974619_)" fill="none" id="svg_112" points="       59.988,257.708 154.971,198.344 255.482,189.508 375.074,114.321      " stroke="#000000" stroke-miterlimit="10" stroke-width="0.46"/>
     <polyline clip-path="url(#SVGID_00000053517895827804940250000003254407771482974619_)" fill="none" id="svg_113" points="       70.744,270.29 165.726,210.926 266.238,202.09 385.83,126.903      " stroke="#000000" stroke-miterlimit="10" stroke-width="0.46"/>
     <polyline clip-path="url(#SVGID_00000053517895827804940250000003254407771482974619_)" fill="none" id="svg_114" points="       79.201,282.823 174.183,223.459 274.695,214.623 394.287,139.436      " stroke="#000000" stroke-miterlimit="10" stroke-width="0.46"/>
     <polyline clip-path="url(#SVGID_00000053517895827804940250000003254407771482974619_)" fill="none" id="svg_115" points="       88.332,295.004 183.315,235.639 283.826,226.803 403.419,151.616      " stroke="#000000" stroke-miterlimit="10" stroke-width="0.46"/>
     <polyline clip-path="url(#SVGID_00000053517895827804940250000003254407771482974619_)" fill="none" id="svg_116" points="       99.088,307.586 194.071,248.222 294.582,239.386 414.174,164.199      " stroke="#000000" stroke-miterlimit="10" stroke-width="0.46"/>
     <polyline clip-path="url(#SVGID_00000053517895827804940250000003254407771482974619_)" fill="none" id="svg_117" points="       107.545,320.119 202.528,260.755 303.039,251.919 422.632,176.732      " stroke="#000000" stroke-miterlimit="10" stroke-width="0.46"/>
     <polyline clip-path="url(#SVGID_00000053517895827804940250000003254407771482974619_)" fill="none" id="svg_118" points="       116.677,334.771 211.659,275.406 312.171,266.57 431.763,191.383      " stroke="#000000" stroke-miterlimit="10" stroke-width="0.46"/>
     <polyline clip-path="url(#SVGID_00000053517895827804940250000003254407771482974619_)" fill="none" id="svg_119" points="       127.432,347.353 222.415,287.989 322.926,279.153 442.519,203.966      " stroke="#000000" stroke-miterlimit="10" stroke-width="0.46"/>
     <polyline clip-path="url(#SVGID_00000053517895827804940250000003254407771482974619_)" fill="none" id="svg_120" points="       135.889,359.886 230.872,300.522 331.383,291.686 450.976,216.499      " stroke="#000000" stroke-miterlimit="10" stroke-width="0.46"/>
     <polyline clip-path="url(#SVGID_00000053517895827804940250000003254407771482974619_)" fill="none" id="svg_121" points="       147.664,372.682 242.647,313.318 343.158,304.482 462.751,229.295      " stroke="#000000" stroke-miterlimit="10" stroke-width="0.46"/>
     <polyline clip-path="url(#SVGID_00000053517895827804940250000003254407771482974619_)" fill="none" id="svg_122" points="       153.338,390.162 253.402,325.901 353.914,317.065 473.506,241.878      " stroke="#000000" stroke-miterlimit="10" stroke-width="0.46"/>
     <polyline clip-path="url(#SVGID_00000053517895827804940250000003254407771482974619_)" fill="none" id="svg_123" points="       156.328,403.158 261.859,338.434 362.371,329.598 481.963,254.411      " stroke="#000000" stroke-miterlimit="10" stroke-width="0.46"/>
     <line clip-path="url(#SVGID_00000053517895827804940250000003254407771482974619_)" fill="none" id="svg_124" stroke="#000000" stroke-miterlimit="10" stroke-width="0.46" x1="68.21" x2="196.98" y1="223.92" y2="422.84"/>
     <line clip-path="url(#SVGID_00000053517895827804940250000003254407771482974619_)" fill="none" id="svg_125" stroke="#000000" stroke-miterlimit="10" stroke-width="0.46" x1="83.28" x2="212.05" y1="212.4" y2="411.33"/>
     <line clip-path="url(#SVGID_00000053517895827804940250000003254407771482974619_)" fill="none" id="svg_126" stroke="#000000" stroke-miterlimit="10" stroke-width="0.46" x1="95.49" x2="230.77" y1="200.19" y2="405.66"/>
     <line clip-path="url(#SVGID_00000053517895827804940250000003254407771482974619_)" fill="none" id="svg_127" stroke="#000000" stroke-miterlimit="10" stroke-width="0.46" x1="107.71" x2="241.73" y1="187.97" y2="390.13"/>
     <line clip-path="url(#SVGID_00000053517895827804940250000003254407771482974619_)" fill="none" id="svg_128" stroke="#000000" stroke-miterlimit="10" stroke-width="0.46" x1="119.93" x2="263.65" y1="175.75" y2="385.57"/>
     <line clip-path="url(#SVGID_00000053517895827804940250000003254407771482974619_)" fill="none" id="svg_129" stroke="#000000" stroke-miterlimit="10" stroke-width="0.46" x1="132.14" x2="277.35" y1="163.54" y2="367.76"/>
     <line clip-path="url(#SVGID_00000053517895827804940250000003254407771482974619_)" fill="none" id="svg_130" stroke="#000000" stroke-miterlimit="10" stroke-width="0.46" x1="147.66" x2="292.87" y1="164.5" y2="368.72"/>
     <line clip-path="url(#SVGID_00000053517895827804940250000003254407771482974619_)" fill="none" id="svg_131" stroke="#000000" stroke-miterlimit="10" stroke-width="0.46" x1="163.19" x2="308.39" y1="165.47" y2="369.69"/>
     <line clip-path="url(#SVGID_00000053517895827804940250000003254407771482974619_)" fill="none" id="svg_132" stroke="#000000" stroke-miterlimit="10" stroke-width="0.46" x1="178.71" x2="323.91" y1="166.43" y2="370.65"/>
     <line clip-path="url(#SVGID_00000053517895827804940250000003254407771482974619_)" fill="none" id="svg_133" stroke="#000000" stroke-miterlimit="10" stroke-width="0.46" x1="194.22" x2="339.43" y1="167.39" y2="371.62"/>
     <line clip-path="url(#SVGID_00000053517895827804940250000003254407771482974619_)" fill="none" id="svg_134" stroke="#000000" stroke-miterlimit="10" stroke-width="0.46" x1="209.75" x2="354.95" y1="168.36" y2="372.58"/>
     <line clip-path="url(#SVGID_00000053517895827804940250000003254407771482974619_)" fill="none" id="svg_135" stroke="#000000" stroke-miterlimit="10" stroke-width="0.46" x1="225.27" x2="370.47" y1="169.32" y2="373.55"/>
     <line clip-path="url(#SVGID_00000053517895827804940250000003254407771482974619_)" fill="none" id="svg_136" stroke="#000000" stroke-miterlimit="10" stroke-width="0.46" x1="240.79" x2="385.99" y1="170.29" y2="374.51"/>
     <line clip-path="url(#SVGID_00000053517895827804940250000003254407771482974619_)" fill="none" id="svg_137" stroke="#000000" stroke-miterlimit="10" stroke-width="0.46" x1="249.98" x2="395.19" y1="151.49" y2="355.71"/>
     <line clip-path="url(#SVGID_00000053517895827804940250000003254407771482974619_)" fill="none" id="svg_138" stroke="#000000" stroke-miterlimit="10" stroke-width="0.46" x1="264.87" x2="410.07" y1="140.81" y2="345.03"/>
     <line clip-path="url(#SVGID_00000053517895827804940250000003254407771482974619_)" fill="none" id="svg_139" stroke="#000000" stroke-miterlimit="10" stroke-width="0.46" x1="281.33" x2="426.54" y1="138.31" y2="342.53"/>
     <line clip-path="url(#SVGID_00000053517895827804940250000003254407771482974619_)" fill="none" id="svg_140" stroke="#000000" stroke-miterlimit="10" stroke-width="0.46" x1="296.21" x2="441.42" y1="127.63" y2="331.85"/>
     <line clip-path="url(#SVGID_00000053517895827804940250000003254407771482974619_)" fill="none" id="svg_141" stroke="#000000" stroke-miterlimit="10" stroke-width="0.46" x1="309" x2="454.2" y1="119.52" y2="323.75"/>
     <line clip-path="url(#SVGID_00000053517895827804940250000003254407771482974619_)" fill="none" id="svg_142" stroke="#000000" stroke-miterlimit="10" stroke-width="0.46" x1="323.88" x2="469.08" y1="108.84" y2="313.07"/>
    </g>
    <path d="m342.74,124.88l101.9,145.75l-85.13,55.1l-91.59,25.84l-0.68,0.19l-0.58,0.39l-89.39,59.16l-110.97,-170.38l82.8,-48.74l97.68,-10.4l0.97,-0.1l0.85,-0.51l94.14,-56.3m1.28,-5.99l-97.72,58.45l-98.64,10.5l-87.67,51.6l115.99,178.09l93.15,-61.64l92.25,-26.03l89.6,-58l-106.96,-152.97l0,0z" id="svg_143"/>
    <polygon id="svg_144" opacity="0.2" points="269.132,355.887 361.375,329.858 246.3,177.338 147.664,187.841     "/>
    <g id="svg_145">
     <defs>
      <polygon id="SVGID_00000042006280198257072610000017668705617439750278_" points="59.988,239.442 175.976,417.534         269.132,355.887 361.375,329.858 450.976,271.864 344.022,118.887 246.3,177.338 147.664,187.841       "/>
     </defs>
     <clipPath id="SVGID_00000029768277305760265220000007376464132766347402_">
      <use id="svg_146" overflow="visible" xlink:href="#SVGID_00000042006280198257072610000017668705617439750278_"/>
     </clipPath>
    </g>
   </g>
   <g id="svg_147">
    <g id="svg_148">
     <g id="svg_149">
      <g id="svg_150">
       <defs>
        <polygon id="SVGID_00000158728062689807745000000009995346749393033396_" points="55.127,234.581 171.116,412.674           264.272,351.026 356.515,324.998 446.115,267.003 339.162,114.027 241.439,172.477 142.804,182.98         "/>
       </defs>
       <clipPath id="SVGID_00000130621932475709080370000009876916086890164622_">
        <use id="svg_151" overflow="visible" xlink:href="#SVGID_00000158728062689807745000000009995346749393033396_"/>
       </clipPath>
      </g>
     </g>
    </g>
    <g id="svg_152">
     <g id="svg_153">
      <g id="svg_154">
       <defs>
        <polygon id="SVGID_00000049180457716878031600000006622136664134173360_" points="55.127,234.581 171.116,412.674           264.272,351.026 356.515,324.998 446.115,267.003 339.162,114.027 241.439,172.477 142.804,182.98         "/>
       </defs>
       <clipPath id="SVGID_00000000186068753224529690000012054351534581979048_">
        <use id="svg_155" overflow="visible" xlink:href="#SVGID_00000049180457716878031600000006622136664134173360_"/>
       </clipPath>
       <polygon clip-path="url(#SVGID_00000000186068753224529690000012054351534581979048_)" fill="#BDDB82" id="svg_156" points="         55.127,234.581 171.116,412.674 264.272,351.026 356.515,324.998 446.115,267.003 339.162,114.027 241.439,172.477          142.804,182.98        "/>
       <g clip-path="url(#SVGID_00000000186068753224529690000012054351534581979048_)" id="svg_157">
        <path d="m174.86,328.48c-1.58,0 -3.19,-0.05 -4.85,-0.17c-25.63,-1.83 -42.74,-12.12 -50.85,-30.59c-6.58,-14.98 -6.07,-32.73 -5.59,-49.88c0.12,-4.39 0.25,-8.93 0.25,-13.26c0,-3.22 0,-13.04 -19.77,-21.26c-12.47,-5.17 -25.5,-6.5 -25.63,-6.51l2.71,-28.48c0.68,0.06 16.87,1.64 33.22,8.3c10.32,4.2 18.71,9.59 24.94,16.03c8.6,8.88 13.14,19.92 13.14,31.92c0,4.74 -0.13,9.48 -0.26,14.06c-1.05,36.96 1.04,49.08 29.87,51.13c16.27,1.16 25.28,-8.04 38.64,-23.15c7.88,-8.91 16.02,-18.12 27.04,-24.14c13.52,-7.38 28.17,-8.26 44.8,-2.69c31.96,10.71 59.13,11.08 72.68,0.99c8.14,-6.07 11.85,-16.29 11.36,-31.25c-0.53,-16.13 3.47,-30.33 11.89,-42.23c6.62,-9.35 15.86,-17.05 27.45,-22.88c18.69,-9.4 37.54,-10.77 38.34,-10.83l1.93,28.55l0.05,-0.01c-0.14,0.02 -14.56,1.16 -28.11,8.17c-16.02,8.3 -23.53,20.82 -22.96,38.28c1.02,30.74 -11.87,46.95 -22.86,55.14c-21.68,16.15 -56.79,17.29 -98.86,3.2c-18.34,-6.15 -26.34,1.72 -41.31,18.65c-13.04,14.75 -29.11,32.91 -57.26,32.91z" fill="#80D6C5" id="svg_158"/>
       </g>
       <path clip-path="url(#SVGID_00000000186068753224529690000012054351534581979048_)" d="m150.11,164.26c0,0 14.39,29.99 7.31,54.8c-7.31,25.57 24.66,29.68 24.66,29.68s21.91,15.98 51.14,-19.64c29.23,-35.62 46.89,-10.04 81.28,-10.04c38.36,0 60.99,-53.07 50.94,-94.17c-10.05,-41.1 -56.42,-45.57 -56.42,-45.57l-158.91,84.94z" fill="#A7BF6D" id="svg_159" opacity="0.5"/>
       <path clip-path="url(#SVGID_00000000186068753224529690000012054351534581979048_)" d="m185.44,156.93c0,0 8.62,17.96 4.38,32.81c-4.38,15.31 14.76,17.77 14.76,17.77s13.13,9.57 30.62,-11.75c17.5,-21.33 28.08,-6.02 48.67,-6.02c22.97,0 36.52,-31.77 30.5,-56.38c-6.01,-24.61 -33.78,-27.29 -33.78,-27.29l-95.15,50.86z" fill="#A7BF6D" id="svg_160"/>
       <path clip-path="url(#SVGID_00000000186068753224529690000012054351534581979048_)" d="m211.3,134.58c0,0 -6.39,43.38 18.27,41.55c24.66,-1.83 59.36,1.83 62.1,-35.62s-45.66,-34.43 -45.66,-34.43l-34.71,28.5z" fill="#90A847" id="svg_161"/>
       <path clip-path="url(#SVGID_00000000186068753224529690000012054351534581979048_)" d="m266.15,405.37c0,0 -167.4,32.58 -171.75,12.61c-24.61,-113.07 105.94,-28.14 116.93,-60.08c7.91,-23.02 27.37,-76.74 73.03,-54.82c45.67,21.92 51.15,49.15 38.36,67.95c-12.78,18.81 -56.57,34.34 -56.57,34.34z" fill="#A7BF6D" id="svg_162" opacity="0.5"/>
       <path clip-path="url(#SVGID_00000000186068753224529690000012054351534581979048_)" d="m206.73,422.72c0,0 26,-49.81 27.54,-64.29c1.54,-14.48 16.84,-48.9 44.16,-35.79c27.32,13.11 30.6,29.41 22.95,40.66c-7.19,10.58 -84.72,53.92 -94.65,59.42z" fill="#A7BF6D" id="svg_163"/>
       <path clip-path="url(#SVGID_00000000186068753224529690000012054351534581979048_)" d="m107.19,479.34c0,0 25.99,-49.8 27.53,-64.28c1.54,-14.48 16.84,-48.91 44.16,-35.8c27.32,13.12 30.6,29.41 22.95,40.66c-7.19,10.59 -84.71,53.93 -94.64,59.42z" fill="#A7BF6D" id="svg_164"/>
       <path clip-path="url(#SVGID_00000000186068753224529690000012054351534581979048_)" d="m0.33,314.85c0,0 25.99,-49.8 27.53,-64.29c1.54,-14.48 16.84,-48.9 44.17,-35.79c27.32,13.12 30.6,29.41 22.95,40.66c-7.2,10.58 -84.72,53.92 -94.65,59.42z" fill="#A7BF6D" id="svg_165"/>
       <path clip-path="url(#SVGID_00000000186068753224529690000012054351534581979048_)" d="m265.07,378.64c0,0 -22.39,-7.6 -21.4,-17.67c0.99,-10.07 10.83,-34.01 28.41,-24.89c17.58,9.12 19.69,20.45 14.76,28.28c-4.92,7.82 -21.77,14.28 -21.77,14.28z" fill="#90A847" id="svg_166"/>
       <path clip-path="url(#SVGID_00000000186068753224529690000012054351534581979048_)" d="m53.8,263.65c0,0 -22.39,-7.6 -21.4,-17.67c0.99,-10.07 10.84,-34.01 28.41,-24.89c17.58,9.12 19.69,20.45 14.77,28.27c-4.92,7.83 -21.78,14.29 -21.78,14.29z" fill="#90A847" id="svg_167"/>
       <path clip-path="url(#SVGID_00000000186068753224529690000012054351534581979048_)" d="m160.04,440.28c0,0 -22.39,-7.6 -21.4,-17.67c0.99,-10.07 10.83,-34.01 28.41,-24.89c17.58,9.12 19.69,20.45 14.77,28.27c-4.92,7.83 -21.78,14.29 -21.78,14.29z" fill="#90A847" id="svg_168"/>
       <path clip-path="url(#SVGID_00000000186068753224529690000012054351534581979048_)" d="m462.78,332.72c0,0 -125.43,13.65 -104.44,1.33c49.32,-28.93 41.91,-112.11 91.99,-104.48c50.07,7.63 63.27,32.07 56.53,53.79c-6.73,21.72 -44.08,49.36 -44.08,49.36z" fill="#A7BF6D" id="svg_169" opacity="0.5"/>
       <path clip-path="url(#SVGID_00000000186068753224529690000012054351534581979048_)" d="m457.82,311.73c0,0 -51.06,16.74 -53.81,2.44c-2.76,-14.3 16.39,-68.72 46.36,-64.16c29.96,4.57 37.85,19.19 33.82,32.19c-4.03,12.99 -26.37,29.53 -26.37,29.53z" fill="#A7BF6D" id="svg_170"/>
       <path clip-path="url(#SVGID_00000000186068753224529690000012054351534581979048_)" d="m454.51,297.75c0,0 -20.17,-0.16 -21.69,-8.06c-1.53,-7.91 1,-28.59 17.57,-26.06c16.57,2.52 20.93,10.61 18.7,17.79c-2.22,7.19 -14.58,16.33 -14.58,16.33z" fill="#90A847" id="svg_171"/>
       <polyline clip-path="url(#SVGID_00000000186068753224529690000012054351534581979048_)" fill="none" id="svg_172" points="         55.127,252.847 150.11,193.483 250.621,184.647 370.214,109.46        " stroke="#FFFFFF" stroke-miterlimit="10" stroke-width="0.46"/>
       <polyline clip-path="url(#SVGID_00000000186068753224529690000012054351534581979048_)" fill="none" id="svg_173" points="         65.883,265.43 160.866,206.066 261.377,197.23 380.97,122.043        " stroke="#FFFFFF" stroke-miterlimit="10" stroke-width="0.46"/>
       <polyline clip-path="url(#SVGID_00000000186068753224529690000012054351534581979048_)" fill="none" id="svg_174" points="         74.34,277.963 169.323,218.599 269.834,209.763 389.427,134.576        " stroke="#FFFFFF" stroke-miterlimit="10" stroke-width="0.46"/>
       <polyline clip-path="url(#SVGID_00000000186068753224529690000012054351534581979048_)" fill="none" id="svg_175" points="         83.472,290.143 178.454,230.779 278.966,221.943 398.558,146.756        " stroke="#FFFFFF" stroke-miterlimit="10" stroke-width="0.46"/>
       <polyline clip-path="url(#SVGID_00000000186068753224529690000012054351534581979048_)" fill="none" id="svg_176" points="         94.228,302.725 189.21,243.361 289.721,234.525 409.314,159.338        " stroke="#FFFFFF" stroke-miterlimit="10" stroke-width="0.46"/>
       <polyline clip-path="url(#SVGID_00000000186068753224529690000012054351534581979048_)" fill="none" id="svg_177" points="         102.684,315.259 197.667,255.895 298.178,247.058 417.771,171.871        " stroke="#FFFFFF" stroke-miterlimit="10" stroke-width="0.46"/>
       <polyline clip-path="url(#SVGID_00000000186068753224529690000012054351534581979048_)" fill="none" id="svg_178" points="         111.816,329.91 206.799,270.546 307.31,261.71 426.903,186.523        " stroke="#FFFFFF" stroke-miterlimit="10" stroke-width="0.46"/>
       <polyline clip-path="url(#SVGID_00000000186068753224529690000012054351534581979048_)" fill="none" id="svg_179" points="         122.572,342.492 217.554,283.128 318.066,274.292 437.658,199.105        " stroke="#FFFFFF" stroke-miterlimit="10" stroke-width="0.46"/>
       <polyline clip-path="url(#SVGID_00000000186068753224529690000012054351534581979048_)" fill="none" id="svg_180" points="         131.029,355.026 226.011,295.662 326.523,286.826 446.115,211.639        " stroke="#FFFFFF" stroke-miterlimit="10" stroke-width="0.46"/>
       <polyline clip-path="url(#SVGID_00000000186068753224529690000012054351534581979048_)" fill="none" id="svg_181" points="         142.804,367.822 237.786,308.458 338.298,299.622 457.89,224.435        " stroke="#FFFFFF" stroke-miterlimit="10" stroke-width="0.46"/>
       <polyline clip-path="url(#SVGID_00000000186068753224529690000012054351534581979048_)" fill="none" id="svg_182" points="         148.478,385.302 248.542,321.04 349.053,312.204 468.646,237.017        " stroke="#FFFFFF" stroke-miterlimit="10" stroke-width="0.46"/>
       <polyline clip-path="url(#SVGID_00000000186068753224529690000012054351534581979048_)" fill="none" id="svg_183" points="         151.467,398.298 256.999,333.573 357.51,324.737 477.103,249.55        " stroke="#FFFFFF" stroke-miterlimit="10" stroke-width="0.46"/>
       <line clip-path="url(#SVGID_00000000186068753224529690000012054351534581979048_)" fill="none" id="svg_184" stroke="#FFFFFF" stroke-miterlimit="10" stroke-width="0.46" x1="63.35" x2="192.12" y1="219.06" y2="417.98"/>
       <line clip-path="url(#SVGID_00000000186068753224529690000012054351534581979048_)" fill="none" id="svg_185" stroke="#FFFFFF" stroke-miterlimit="10" stroke-width="0.46" x1="78.42" x2="207.19" y1="207.54" y2="406.47"/>
       <line clip-path="url(#SVGID_00000000186068753224529690000012054351534581979048_)" fill="none" id="svg_186" stroke="#FFFFFF" stroke-miterlimit="10" stroke-width="0.46" x1="90.63" x2="225.91" y1="195.33" y2="400.8"/>
       <line clip-path="url(#SVGID_00000000186068753224529690000012054351534581979048_)" fill="none" id="svg_187" stroke="#FFFFFF" stroke-miterlimit="10" stroke-width="0.46" x1="102.85" x2="236.87" y1="183.11" y2="385.27"/>
       <line clip-path="url(#SVGID_00000000186068753224529690000012054351534581979048_)" fill="none" id="svg_188" stroke="#FFFFFF" stroke-miterlimit="10" stroke-width="0.46" x1="115.07" x2="258.79" y1="170.89" y2="380.71"/>
       <line clip-path="url(#SVGID_00000000186068753224529690000012054351534581979048_)" fill="none" id="svg_189" stroke="#FFFFFF" stroke-miterlimit="10" stroke-width="0.46" x1="127.28" x2="272.49" y1="158.68" y2="362.9"/>
       <line clip-path="url(#SVGID_00000000186068753224529690000012054351534581979048_)" fill="none" id="svg_190" stroke="#FFFFFF" stroke-miterlimit="10" stroke-width="0.46" x1="142.8" x2="288.01" y1="159.64" y2="363.86"/>
       <line clip-path="url(#SVGID_00000000186068753224529690000012054351534581979048_)" fill="none" id="svg_191" stroke="#FFFFFF" stroke-miterlimit="10" stroke-width="0.46" x1="158.32" x2="303.53" y1="160.6" y2="364.83"/>
       <line clip-path="url(#SVGID_00000000186068753224529690000012054351534581979048_)" fill="none" id="svg_192" stroke="#FFFFFF" stroke-miterlimit="10" stroke-width="0.46" x1="173.84" x2="319.05" y1="161.57" y2="365.79"/>
       <line clip-path="url(#SVGID_00000000186068753224529690000012054351534581979048_)" fill="none" id="svg_193" stroke="#FFFFFF" stroke-miterlimit="10" stroke-width="0.46" x1="189.37" x2="334.57" y1="162.53" y2="366.76"/>
       <line clip-path="url(#SVGID_00000000186068753224529690000012054351534581979048_)" fill="none" id="svg_194" stroke="#FFFFFF" stroke-miterlimit="10" stroke-width="0.46" x1="204.88" x2="350.09" y1="163.5" y2="367.72"/>
       <line clip-path="url(#SVGID_00000000186068753224529690000012054351534581979048_)" fill="none" id="svg_195" stroke="#FFFFFF" stroke-miterlimit="10" stroke-width="0.46" x1="220.41" x2="365.61" y1="164.46" y2="368.69"/>
       <line clip-path="url(#SVGID_00000000186068753224529690000012054351534581979048_)" fill="none" id="svg_196" stroke="#FFFFFF" stroke-miterlimit="10" stroke-width="0.46" x1="235.93" x2="381.13" y1="165.43" y2="369.65"/>
       <line clip-path="url(#SVGID_00000000186068753224529690000012054351534581979048_)" fill="none" id="svg_197" stroke="#FFFFFF" stroke-miterlimit="10" stroke-width="0.46" x1="245.12" x2="390.33" y1="146.63" y2="350.85"/>
       <line clip-path="url(#SVGID_00000000186068753224529690000012054351534581979048_)" fill="none" id="svg_198" stroke="#FFFFFF" stroke-miterlimit="10" stroke-width="0.46" x1="260" x2="405.21" y1="135.95" y2="340.17"/>
       <line clip-path="url(#SVGID_00000000186068753224529690000012054351534581979048_)" fill="none" id="svg_199" stroke="#FFFFFF" stroke-miterlimit="10" stroke-width="0.46" x1="276.47" x2="421.68" y1="133.45" y2="337.67"/>
       <line clip-path="url(#SVGID_00000000186068753224529690000012054351534581979048_)" fill="none" id="svg_200" stroke="#FFFFFF" stroke-miterlimit="10" stroke-width="0.46" x1="291.35" x2="436.56" y1="122.77" y2="326.99"/>
       <line clip-path="url(#SVGID_00000000186068753224529690000012054351534581979048_)" fill="none" id="svg_201" stroke="#FFFFFF" stroke-miterlimit="10" stroke-width="0.46" x1="304.13" x2="449.34" y1="114.66" y2="318.89"/>
       <line clip-path="url(#SVGID_00000000186068753224529690000012054351534581979048_)" fill="none" id="svg_202" stroke="#FFFFFF" stroke-miterlimit="10" stroke-width="0.46" x1="319.02" x2="464.22" y1="103.98" y2="308.21"/>
      </g>
     </g>
     <g id="svg_203">
      <path d="m337.88,120.02l101.9,145.74l-85.13,55.11l-91.59,25.84l-0.68,0.19l-0.58,0.39l-89.39,59.15l-110.97,-170.38l82.8,-48.73l97.67,-10.4l0.98,-0.1l0.85,-0.51l94.14,-56.3m1.28,-5.99l-97.72,58.45l-98.64,10.5l-87.67,51.6l115.99,178.09l93.15,-61.64l92.24,-26.03l89.61,-58l-106.96,-152.97l0,0z" fill="#FFFFFF" id="svg_204"/>
     </g>
     <polygon id="svg_205" opacity="0.2" points="264.272,351.026 356.515,324.998 241.439,172.477 142.804,182.98      "/>
    </g>
    <g id="svg_206">
     <g id="svg_207">
      <g id="svg_208">
       <defs>
        <polygon id="SVGID_00000078028543212386361080000016165854401700691336_" points="55.127,234.581 171.116,412.674           264.272,351.026 356.515,324.998 446.115,267.003 339.162,114.027 241.439,172.477 142.804,182.98         "/>
       </defs>
       <clipPath id="SVGID_00000005950121475181465870000003047876756688154503_" transform="translate(-51.5625 105.938) translate(-47.8125 166.875) translate(-6.5625 229.688) translate(-34.6875 59.0625) translate(0 1.875) translate(-27.1875 51.5625) translate(-8.4375 29.0625) translate(-50.625 263.438) translate(-76.875 85.3125) translate(-18.75 56.25) translate(389.063 -37.5) translate(0.9375 0.9375) translate(-18.75 121.875) translate(-34.6875 67.5) translate(0.9375 0.9375) translate(0 0.9375) translate(-24.375 18.75) translate(0 1) translate(0 1) translate(0 1) translate(-19.6875 45.9375) translate(-23.4375 58.125) translate(0 40.3125) translate(0 44.0625) translate(47.8125 -206.25) translate(-22.5 66.5625) translate(-17.8125 59.0625) translate(1.875 0)">
        <use id="svg_209" overflow="visible" xlink:href="#SVGID_00000078028543212386361080000016165854401700691336_"/>
       </clipPath>
      </g>
     </g>
    </g>
   </g>
  </g>
  <g id="svg_214">
   <path d="m333.02,108.03c0,-48 -37.65,-86.91 -84.1,-86.91c-46.4,0 -84.05,38.9 -84.05,86.91c0,13.79 3.1,26.82 8.65,38.4l0,0l0.05,0.11c3.52,7.28 7.96,14.02 13.24,19.97l47.26,89.33l11.75,0l71.07,-96.18l-0.27,-0.17c10.31,-14.4 16.39,-32.22 16.39,-51.48z" fill="#7F343F" id="svg_215"/>
   <path d="m321.22,108.03c0,-48 -37.65,-86.91 -84.05,-86.91c-46.46,0 -84.1,38.9 -84.1,86.91c0,13.79 3.15,26.82 8.65,38.4l0,0l0.05,0.11c3.52,7.28 7.96,14.02 13.24,19.97l59.06,89.33l71.02,-96.18l-0.27,-0.17c10.31,-14.4 16.39,-32.22 16.39,-51.48z" fill="#BC5860" id="svg_216"/>
   <circle cx="237.15" cy="107.72" fill="#FFFFFF" id="svg_217" r="38.47"/>
  </g>
 </g>
</svg>