<?xml version="1.0" encoding="utf-8"?>
<!-- Generator: Adobe Illustrator 27.5.0, SVG Export Plug-In . SVG Version: 6.00 Build 0)  -->
<svg version="1.1" xmlns="http://www.w3.org/2000/svg" xmlns:xlink="http://www.w3.org/1999/xlink" x="0px" y="0px"
	 viewBox="0 0 500 500" style="enable-background:new 0 0 500 500;" xml:space="preserve">
<g id="BACKGROUND">
</g>
<g id="OBJECTS">
	<path style="fill:#F2F2F2;" d="M64.503,340.846c-11.128,3.577-21.742,9.992-27.486,20.559c-3.022,5.559-4.117,12.44-1.668,18.273
		c3.029,7.216,10.741,11.416,18.374,13.14c28.247,6.378,60.128,5.379,88.704,2.515c4.973-0.498,10.04-1.099,14.931-0.068
		c12.276,2.589,18.736,16.964,32.365,20.298c17.196,4.207,34.551,0.257,51.71-1.425c19.624-1.923,39.39-1.194,59.031,0.056
		c50.125,3.191,117.981,16.995,157.776-22.79c3.929-3.928,7.604-8.646,8.07-14.182c0.734-8.722-6.858-16.165-15.039-19.278
		c-21.72-8.264-52.888-3.494-76.082-4.72c-76.771-4.058-152.793-17.73-229.818-17.73C125.092,335.496,90.049,332.634,64.503,340.846
		z"/>
	<g>
		<g>
			<path style="fill:#157069;" d="M452.057,346.393c-10.057-23.269-38.777-21.39-57.534-21.39
				c-0.777,11.808-104.806,9.609-105.575-2.202c-18.758,0-47.477-1.875-57.539,21.393c-4.011,9.274-3.417,16.921,4.117,23.181
				c15.283,12.699,37.884,15.443,56.432,17.758c12.762,1.593,25.636,2.075,38.467,1.462c3.193,0.634,6.456,1.061,9.732,1.359
				c3.352,0.313,6.739,0.51,10.045,0.708c1.496,0.093,2.993,0.162,4.477,0.22c12.284,0.499,24.614-0.023,36.829-1.543
				c18.548-2.32,41.155-5.069,56.432-17.759C455.479,363.317,456.07,355.673,452.057,346.393z"/>
			<path style="fill:#7FA0C9;" d="M343.929,366.614c-9.685,0.062-21.659,1.616-30.592,6.558c-5.829,3.225-10.497,9.557-7.673,16.214
				c1.071,2.524,2.211,4.459,5.015,4.902c3.797,0.599,6.772-0.849,10.261-2.2c4.464-1.729,9.183-3.805,13.934-4.404
				c2.069-0.261,4.134-0.228,6.226-0.226c1.278,0.002,2.913,0.49,4.107-0.095c3.537-1.733,2.493-10.397,1.87-13.442
				C346.554,371.366,345.694,369.044,343.929,366.614z"/>
			<path style="fill:#157069;" d="M354.679,388.882c-1.485-0.058-2.981-0.128-4.477-0.22c-3.306-0.197-6.693-0.394-10.045-0.708
				c-0.163-0.441-0.313-0.858-0.441-1.195c-1.775-4.872-2.227-9.546-1.508-14.604c0.418-3.028,2.018-6.217,2.111-9.21
				c-0.684-0.708,0.812-0.951,1.392-1.125c1.566-0.476,3.132-0.8,4.767-1.056c3.283-0.534,4.965-1.229,5.66,1.705
				c0.719,3.039,0.603,6.125,0.916,9.187c0.302,2.958,0.916,5.881,1.172,8.839C354.458,383.291,354.667,386.087,354.679,388.882z"/>
			<path style="fill:#7FA0C9;" d="M344.432,354.868c0.488,0.255,1.581-0.261,2.143-0.443c4.268-1.382,8.67-3.098,13.232-2.933
				c4.457,0.161,8.128,2.779,12.628,2.89c3.321,0.082,6.608-0.994,9.9-0.67c1.655,0.163,5.32,1.527,4.809,3.845
				c-3.608,1.452-7.595,2.334-11.342,3.515c-3.792,1.195-7.455,2.192-11.368,2.925c-1.757,0.329-3.462,0.812-5.248,0.924
				c-1.614,0.101-3.121,0.105-4.722,0.384c-2.134,0.373-4.516,0.087-6.557,0.544c-0.647-2.313-1.481-4.674-2.17-7.008
				c-0.278-0.94-0.712-1.851-0.814-2.814C344.874,355.556,344.933,355.009,344.432,354.868z"/>
			<path style="fill:#10665E;" d="M414.279,341.106c-18.897,18.065-48.839,22.954-73.928,24.734c-1.277,0.091-1.309,2.036,0,2.012
				c14.738-0.268,29.616-3.048,43.59-7.676c11.2-3.71,23.964-8.529,30.95-18.597C415.15,341.205,414.589,340.809,414.279,341.106z"
				/>
			<path style="fill:#10665E;" d="M346.734,355.016c-0.239-0.644-0.812-1.01-1.507-0.855c-9.991,2.233-20.635,1.921-30.771,0.946
				c-9.755-0.938-17.746-2.827-26.142-7.91c-0.684-0.414-1.286,0.495-0.813,1.053c5.589,6.593,15.548,8.063,23.623,9.097
				c11.38,1.458,22.299,1.243,33.549-0.633c0.873,2.979,1.453,5.934,1.624,9.077c0.09,1.647,2.66,1.659,2.574,0
				C348.673,361.997,348.064,358.601,346.734,355.016z"/>
		</g>
		<g>
			<path style="fill:#937876;" d="M309.039,288.981c-0.464-1.341-0.61-2.68-0.338-4.077c0.086-0.445-0.57-0.804-0.787-0.332
				c-0.727,1.583-0.722,3.301,0.065,4.855C308.272,290.008,309.255,289.605,309.039,288.981z"/>
			<path style="fill:#937876;" d="M312.751,285.193c-0.083-0.197-0.259-0.281-0.459-0.187c-0.642,0.301-0.829,1.273-0.939,1.914
				c-0.143,0.835-0.153,1.69,0.133,2.495c0.235,0.664,1.361,0.619,1.308-0.177c-0.047-0.715-0.152-1.422-0.126-2.14
				C312.69,286.494,312.99,285.763,312.751,285.193z"/>
			<path style="fill:#937876;" d="M316.503,289.169c-0.342-1.072-0.567-2.312-0.241-3.412c0.103-0.348-0.428-0.587-0.596-0.251
				c-0.693,1.382-0.904,2.68-0.272,4.131C315.668,290.268,316.71,289.819,316.503,289.169z"/>
			<path style="fill:#937876;" d="M333.796,303.662c-0.313-0.359-0.919,0.022-0.788,0.458c0.465,1.542,0.885,3.006,0.839,4.635
				c-0.025,0.885,1.261,0.845,1.35,0C335.389,306.941,335.016,305.063,333.796,303.662z"/>
			<path style="fill:#937876;" d="M338.534,305.997c-0.271-0.736-0.748-1.656-1.604-1.742c-0.254-0.026-0.526,0.252-0.503,0.503
				c0.055,0.601,0.52,1.049,0.676,1.633c0.167,0.624,0.098,1.247,0.019,1.879c-0.087,0.696,1.049,0.989,1.334,0.361
				C338.837,307.79,338.855,306.868,338.534,305.997z"/>
			<path style="fill:#937876;" d="M341.002,305.067c-0.172-0.16-0.447-0.045-0.456,0.189c-0.04,1.008,0.101,2.005-0.005,3.018
				c-0.07,0.674,0.999,0.792,1.166,0.158C342.009,307.286,341.919,305.915,341.002,305.067z"/>
			<path style="fill:#937876;" d="M337.425,323.363c-0.095-0.648-0.203-1.757-0.887-2.068c-0.424-0.193-0.966,0.35-0.544,0.704
				c0.366,0.307,0.155,1.633,0.112,2.03c-0.066,0.619-0.223,1.213-0.214,1.838c0.009,0.616,0.829,0.832,1.148,0.311
				C337.555,325.34,337.564,324.314,337.425,323.363z"/>
			<path style="fill:#937876;" d="M339.982,321.262c-0.235-0.198-0.735-0.178-0.788,0.208c-0.081,0.592,0.056,1.185,0.017,1.785
				c-0.045,0.675-0.272,1.268-0.482,1.903c-0.284,0.857,0.902,1.223,1.367,0.576C340.895,324.622,341.144,322.241,339.982,321.262z"
				/>
			<path style="fill:#937876;" d="M342.956,320.285c-0.301-0.377-0.77,0.105-0.612,0.472c0.48,1.116,0.407,2.467,0.018,3.59
				c-0.242,0.699,0.898,1.196,1.209,0.51C344.305,323.237,344.05,321.656,342.956,320.285z"/>
			<path style="fill:#937876;" d="M310.607,323.449c-0.057-0.55-0.882-0.578-0.879,0c0.007,1.328-0.653,2.738-1.455,3.768
				c-0.511,0.656,0.345,1.59,0.942,0.942C310.465,326.802,310.793,325.239,310.607,323.449z"/>
			<path style="fill:#937876;" d="M313.347,323.24c-0.153-0.41-0.849-0.392-0.819,0.111c0.094,1.536-0.661,2.909-0.975,4.356
				c-0.15,0.691,0.652,1.177,1.181,0.688c0.702-0.648,0.966-1.561,1.086-2.485C313.952,324.886,313.695,324.172,313.347,323.24z"/>
			<path style="fill:#937876;" d="M317.13,321.832c-0.148-0.162-0.493-0.045-0.464,0.192c0.101,0.824,0.191,1.711,0.049,2.534
				c-0.141,0.814-0.503,1.553-0.772,2.329c-0.211,0.608,0.584,0.941,1,0.582C318.516,326.109,318.48,323.312,317.13,321.832z"/>
			<path style="fill:#937876;" d="M276.137,321.487c-1.776,1.34-3.127,3.168-2.808,5.504c0.078,0.569,1.028,0.547,1.127,0
				c0.32-1.76,0.796-3.58,2.268-4.743C277.151,321.911,276.576,321.155,276.137,321.487z"/>
			<path style="fill:#937876;" d="M279.022,323.852c-0.078-0.496-0.712-0.429-0.945-0.123c-0.197,0.257-0.619,0.447-0.853,0.695
				c-0.268,0.285-0.514,0.599-0.726,0.928c-0.454,0.702-0.666,1.435-0.77,2.257c-0.106,0.847,1.332,1.041,1.495,0.202
				c0.157-0.804,0.415-1.613,0.861-2.305C278.43,324.971,279.129,324.541,279.022,323.852z"/>
			<path style="fill:#937876;" d="M282.256,325.146c-1.843,0.713-3.039,2.46-2.62,4.445c0.131,0.624,1.205,0.497,1.13-0.153
				c-0.153-1.343,0.417-2.875,1.733-3.41C283.035,325.811,282.81,324.932,282.256,325.146z"/>
			<path style="fill:#937876;" d="M329.194,341.939c-0.305-1.271-1.3-2.941-2.743-3.071c-0.27-0.024-0.416,0.308-0.297,0.518
				c0.275,0.488,0.713,0.864,1.037,1.321c0.339,0.477,0.586,1.018,0.754,1.577C328.184,343.082,329.389,342.752,329.194,341.939z"/>
			<path style="fill:#937876;" d="M331.113,339.212c-0.349-0.448-1.461-1.591-1.892-0.585c-0.093,0.216-0.033,0.485,0.225,0.552
				c-0.132-0.035,0.091,0.083,0.124,0.118c0.087,0.092,0.169,0.187,0.247,0.289c0.2,0.262,0.367,0.536,0.508,0.835
				c0.257,0.543,0.355,1.138,0.644,1.668c0.22,0.405,0.828,0.292,0.952-0.124C332.21,340.999,331.698,339.963,331.113,339.212z"/>
			<path style="fill:#937876;" d="M273.437,346.11c-0.923,1.674-1.284,3.355-0.769,5.23c0.192,0.698,1.216,0.402,1.075-0.296
				c-0.294-1.458-0.198-3.126,0.508-4.458C274.534,346.051,273.731,345.577,273.437,346.11z"/>
			<path style="fill:#937876;" d="M275.933,347.8c-0.915,1.279-1.165,2.696-0.747,4.216c0.196,0.714,1.193,0.399,1.083-0.299
				c-0.185-1.181-0.047-2.501,0.367-3.62C276.799,347.66,276.169,347.47,275.933,347.8z"/>
			<path style="fill:#937876;" d="M278.809,352.685c-0.513-0.719-0.635-1.777-0.028-2.471c0.293-0.336-0.15-0.774-0.487-0.487
				c-1.08,0.92-1.411,2.415-0.643,3.635C278.115,354.098,279.306,353.381,278.809,352.685z"/>
		</g>
		<g>
			<path style="fill:#73BACA;" d="M397.597,342.785c0,0-28.999,13.919-80.037-4.64l2.703-14.987
				c-2.042,4.025-4.791,9.117-8.294,11.82c-5.081,3.921-11.483,2.981-17.214,1.612c-8.665-2.076-12.11-9.465-14.209-17.782
				c-2.714-10.788-0.789-21.772,1.264-32.63c2.714-14.383,4.802-30.739,10.683-44.264c4.338-9.987,10.88-18.814,20.09-24.463
				c5.231-3.213,11.715-5.243,17.968-6.507c3.561-0.742,7.064-1.23,10.208-1.554c0,0,24.927,0,45.18,6.67
				c3.271,1.067,6.426,2.32,9.338,3.77c0,0,2.32,47.558-2.32,92.796C392.957,312.627,409.197,338.146,397.597,342.785z"/>
			<path style="fill:#F5C4C7;" d="M385.939,216.061c-7.969,6.971-17.341,11.495-28.442,11.507
				c-7.83,0.012-15.335-1.554-20.983-7.169c-2.494-2.471-4.686-5.858-5.962-9.454c3.561-0.742,7.064-1.23,10.208-1.554
				C340.759,209.391,365.687,209.391,385.939,216.061z"/>
		</g>
		<g>
			<path style="fill:#282F39;" d="M326.906,139.007c0,3.26-0.146,11.232-0.006,15.947c0.197,6.647,2.178,13.501,6.59,18.66
				c6.758,7.901,17.905,8.407,27.572,9.602c7.084,0.876,13.747,0.237,20.351-2.458c10.774-4.396,12.886-16.804,14.409-26.912
				c1.035-6.868,1.298-14.279-3.623-19.803c-6.404-7.188-15.419-9.575-24.677-10.273c-9.622-0.726-18.904,0.271-27.614,4.53
				C336.209,130.109,328.372,133.441,326.906,139.007z"/>
			<g>
				<g>
					<path style="fill:#F5C4C7;" d="M366.278,188.512l-0.499,17.573l-0.661,12.585c-6.96,2.32-18.559,0-18.559,0l1.322-11.263
						l2.158-18.896H366.278z"/>
					<path style="fill:#F4B8BD;" d="M366.278,188.512l-0.499,17.573c-2.123,0.8-4.419,1.311-6.623,1.763
						c-2.552,0.522-7.598,0.8-11.275-0.441l2.158-18.896H366.278z"/>
				</g>
				<g>
					<path style="fill:#F4B8BD;" d="M382.001,177.202c1.418-3.122,5.761-8.799,9.558-6.255c4.299,2.88,2.178,9.441-0.107,12.794
						c-1.602,2.35-6.574,8.635-9.992,5.264C378.361,185.948,380.832,179.498,382.001,177.202z"/>
					<path style="fill:#F4B8BD;" d="M338.935,175.365c-1.119-3.241-4.911-9.3-8.929-7.124c-4.55,2.464-3.054,9.196-1.093,12.748
						c1.374,2.49,5.736,9.214,9.454,6.178C341.74,184.414,339.885,177.761,338.935,175.365z"/>
					<path style="fill:#F5C4C7;" d="M335.879,148.212l-0.873,30.563c-0.043,1.494,0.055,2.985,0.312,4.457
						c1.085,6.229,5.354,20.613,21.681,21.52c0,0,23.814,2.268,27.714-21.227c0.089-0.535,0.141-1.084,0.172-1.625l1.88-32.898
						c0.304-5.325-2.147-10.447-6.526-13.491c-6.896-4.794-18.903-9.101-35.831-0.652
						C339.322,137.395,336.041,142.531,335.879,148.212z"/>
				</g>
			</g>
			<path style="fill:#282F39;" d="M343.285,123.786c-4.553,2.342-8.843,5.389-12.714,9.079c-3.453,3.292-9.123,9.924-8.369,15.795
				c0.926,7.212,10.227,1.161,13.573-0.307c-1.865,1.633-5.161,4.837-3.737,7.884c1.345,2.878,5.987,1.993,8.194,1.969
				c5.449-0.06,11.181-1.672,16.241-4.008c3.947-1.822,7.752-4.793,11.732-6.232c-3.959,8.755,12.784,6.971,16.003,3.439
				c1.58,5.313,10.622-1.364,12.185-3.997c7.961-13.41-7.16-24.156-16.952-27.169C367.353,116.519,354.519,118.008,343.285,123.786z
				"/>
			<g>
				<path style="fill:#282F39;" d="M349.667,161.902c-2.666-1.084-6.034-1.24-8.507,0.42c-0.91,0.61-0.351,2.031,0.749,1.777
					c2.499-0.575,4.674-0.866,7.117,0.127C350.462,164.81,351.087,162.479,349.667,161.902z"/>
				<path style="fill:#282F39;" d="M377.506,161.902c-2.666-1.084-6.034-1.24-8.507,0.42c-0.91,0.61-0.351,2.031,0.749,1.777
					c2.499-0.575,4.674-0.866,7.117,0.127C378.301,164.81,378.926,162.479,377.506,161.902z"/>
				<g>
					<path style="fill:#282F39;" d="M347.171,176.338c-0.018-0.83-0.128-1.654-0.371-2.48c-0.516-1.753-2.792-1.57-3.381,0
						c-0.191,0.51-0.292,1.024-0.328,1.537c-0.083,0.462-0.082,0.948-0.025,1.424c0.001,0.009,0.002,0.019,0.003,0.029
						c0.062,0.497,0.179,0.98,0.339,1.397c0.078,0.204,0.196,0.38,0.328,0.54c0.026,0.043,0.047,0.088,0.074,0.13
						c0.39,0.591,1.031,0.947,1.751,0.839c0.625-0.094,1.353-0.575,1.461-1.258c0.099-0.63,0.141-1.252,0.144-1.872
						C347.171,176.527,347.174,176.433,347.171,176.338z"/>
					<path style="fill:#282F39;" d="M375.01,176.338c-0.018-0.83-0.128-1.654-0.371-2.48c-0.516-1.753-2.792-1.57-3.381,0
						c-0.191,0.51-0.292,1.024-0.328,1.537c-0.083,0.462-0.082,0.948-0.025,1.424c0.001,0.009,0.002,0.019,0.003,0.029
						c0.062,0.497,0.179,0.98,0.339,1.397c0.078,0.204,0.196,0.38,0.328,0.54c0.026,0.043,0.047,0.088,0.074,0.13
						c0.39,0.591,1.031,0.947,1.751,0.839c0.625-0.094,1.353-0.575,1.461-1.258c0.099-0.63,0.141-1.252,0.144-1.872
						C375.01,176.527,375.013,176.433,375.01,176.338z"/>
					<path style="fill:#F4B8BD;" d="M362.765,183.197c-0.762,0.45-2.355,1.373-3.293,1.13c-3.369-0.872-1.471-2.818-0.783-3.917
						c0.63-1.007,1.174-2.071,1.57-3.194c0.779-2.211,1.071-4.63,0.564-6.927c-0.092-0.418-0.655-0.275-0.694,0.094
						c-0.344,3.21-0.764,6.052-2.463,8.871c-0.826,1.37-2.367,2.882-1.748,4.662c1.097,3.151,5.641,1.767,7.62,0.604
						C364.387,184.02,363.616,182.694,362.765,183.197z"/>
					<path style="fill:#FFFFFF;" d="M389.639,168.105c-1.412,0.048-2.775,0.748-4.072,1.267c-1.151,0.46-2.291,0.951-3.411,1.483
						c-3.007-5.601-11.856-6.824-16.065-1.903c-1.316,1.538-2.001,3.522-2.248,5.573c-2.736-0.363-5.672-0.561-8.357,0.057
						c-0.137-1.148-0.452-2.293-0.977-3.391c-2.821-5.896-11.962-7.259-16.257-2.238c-0.108,0.127-0.191,0.271-0.291,0.404
						c-0.026-0.048-0.046-0.097-0.088-0.143c-0.816-0.887-1.803-1.591-2.792-2.272c-1.005-0.693-1.953-1.783-3.056-2.276
						c-0.372-0.166-0.9,0.204-0.62,0.62c1.389,2.061,3.829,3.117,5.59,4.806c0.113,0.109,0.236,0.151,0.357,0.165
						c-1.568,2.725-1.754,6.286-1.133,9.268c1.274,6.125,7.522,8.876,13.1,6.245c4.011-1.892,6.337-5.958,6.243-10.146
						c2.759,0.051,5.432-0.125,8.183,0.204c-0.038,1.265,0.069,2.526,0.313,3.696c1.274,6.125,7.522,8.876,13.1,6.245
						c5.167-2.437,7.543-8.481,5.538-13.748c1.21-0.545,2.406-1.12,3.608-1.683c1.185-0.555,2.507-0.98,3.495-1.854
						C389.94,168.357,389.826,168.098,389.639,168.105z M349.706,184.059c-4.846,2.887-10.998,0.877-12.092-4.922
						c-0.488-2.584-0.218-6.116,1.071-8.49c0.87-1.603,2.421-2.551,4.084-3.252c3.854-1.135,8.022-0.288,10.274,3.655
						C355.593,175.516,354.137,181.419,349.706,184.059z M377.545,184.059c-4.846,2.887-10.998,0.877-12.092-4.922
						c-0.488-2.584-0.218-6.116,1.071-8.49c0.871-1.603,2.421-2.551,4.084-3.252c3.854-1.135,8.022-0.288,10.274,3.655
						c0.125,0.219,0.233,0.445,0.339,0.67c0.018,0.108,0.068,0.208,0.137,0.299C383.206,176.337,381.662,181.606,377.545,184.059z"
						/>
					<path style="fill:#FFFFFF;" d="M365.756,190.2c-4.308,3.076-8.838,2.373-12.832-0.812c-0.409-0.326-1.188,0.115-0.804,0.62
						c3.508,4.613,10.12,4.695,14.477,1.281C367.21,190.807,366.397,189.742,365.756,190.2z"/>
				</g>
			</g>
		</g>
		<g>
			<g>
				<g>
					<path style="fill:#FFE2A9;" d="M362.729,227.943c-1.261-2.054-2.672-4.102-4.313-5.868c-0.587-0.632-5.627-4.215-5.622-4.565
						c0.02-1.688-0.674-3.449-1.31-4.995c-0.486-1.181-1.221-3.66-2.348-4.429c-1.316-0.898-3.043,0.547-3.897,1.547
						c-0.975,1.142-2.03,2.463-2.719,3.789c-0.37,0.712-0.759,1.932-1.327,2.204c-3.73-2.871-11.196,0.333-13.092,4.196
						c-0.648-5.329-6.906,1.712-7.062,4.572c0.038-0.695,0.001-1.618-0.694-2.004c-0.724-0.401-1.616,0.075-2.122,0.598
						c-0.546,0.564-1.263,1.114-1.716,1.754c-0.507,0.714-0.908,1.499-1.25,2.304c-0.305,0.719-0.574,1.457-0.821,2.205
						c-1.499-0.661-3.03-1.044-4.692-1.446c-2.501-0.604-5.12-1.101-4.697,2.162c0.393,3.028,2.133,6.069,3.686,8.641
						c1.03,1.706,2.144,3.769,3.273,5.624c-0.149,6.721,1.104,13.536,5.177,18.315c7.855,9.218,22.977,8.177,33.217,4.161
						c4.622-1.813,9-4.56,11.963-8.543C368.716,249.626,368.139,236.752,362.729,227.943z"/>
					<path style="fill:#BF9794;" d="M312.485,238.39c-1.266-1.044-2.254-2.528-3.16-3.881c-0.612-0.914-1.176-1.86-1.689-2.834
						c-0.392-0.744-1.335-2.072-0.893-2.951c0.487-0.969,2.09-0.292,2.833-0.084c1.354,0.38,2.716,0.846,3.962,1.504
						c0.171,0.09,0.342,0.187,0.47,0.332c0.356,0.405,0.063,1.186-0.012,1.655c-0.11,0.69-0.235,1.377-0.374,2.062
						c-0.156,0.77-0.33,1.536-0.522,2.297C313.056,236.663,312.538,238.433,312.485,238.39z"/>
					<path style="fill:#BF9794;" d="M345.737,216.568c-0.104-0.3,0.017-0.654,0.046-0.957c0.056-0.595,0.119-1.21,0.249-1.798
						c0.238-1.078,0.412-2.224,0.866-3.236c0.348-0.776,1.174-2.82,2.175-1.563c0.671,0.842,0.983,1.858,1.351,2.85
						c0.429,1.156,0.861,2.285,1.133,3.493c0.088,0.389,0.145,0.791,0.169,1.189c0.008,0.137,0.051,0.5-0.061,0.61
						c-0.119,0.117-0.563,0.041-0.712,0.041c-0.556,0-1.129,0.044-1.679-0.047c-0.871-0.144-1.759-0.235-2.617-0.43
						C346.328,216.644,346.019,216.601,345.737,216.568z"/>
					<g>
						<path style="fill:#937876;" d="M324.288,223.368c-0.73,0.221-1.093,1.094-1.351,1.756c-0.324,0.83-0.445,1.665-0.229,2.534
							c0.123,0.497,0.954,0.54,1.048,0c0.121-0.69,0.189-1.398,0.387-2.072c0.18-0.612,0.664-1.183,0.661-1.825
							C324.803,223.503,324.544,223.291,324.288,223.368z"/>
						<path style="fill:#937876;" d="M327.557,222.813c-0.644,0.125-0.724,0.919-0.886,1.45c-0.223,0.731-0.401,1.441-0.464,2.204
							c-0.051,0.613,0.951,0.911,1.199,0.325C327.624,226.278,328.937,222.545,327.557,222.813z"/>
						<path style="fill:#937876;" d="M332.123,220.052c-0.728,0.185-1.126,1.067-1.338,1.724c-0.264,0.821-0.305,1.628,0.04,2.42
							c0.269,0.617,1.103,0.226,1.148-0.311c0.052-0.621-0.008-1.242,0.153-1.852c0.139-0.527,0.495-1.06,0.489-1.606
							C332.614,220.171,332.37,219.99,332.123,220.052z"/>
						<path style="fill:#937876;" d="M336.282,219.294c0.008-0.241-0.198-0.395-0.417-0.417c-0.689-0.068-1.247,0.8-1.491,1.345
							c-0.324,0.726-0.418,1.481-0.196,2.25c0.204,0.707,1.414,0.607,1.335-0.181c-0.055-0.546-0.049-1.104,0.14-1.624
							C335.824,220.196,336.266,219.801,336.282,219.294z"/>
					</g>
					<path style="fill:#282F39;" d="M346.076,247.437c-0.751-0.054-1.819,0.015-2.69,0.269c-0.708-1.493-1.451-2.996-2.273-4.447
						c0.56-0.447,0.792-1.19,1.025-1.843c0.213-0.598,0.487-1.354,0.312-1.989c-0.217-0.787-0.962-1.439-1.798-1.439
						c-0.801,0-1.687,0.335-2.415,0.636c-0.697,0.288-1.287,0.628-1.655,1.238c-0.111,0.152-0.204,0.315-0.249,0.487
						c-0.443,1.686,1.337,2.362,2.538,2.971c0.445,0.226,0.904,0.338,1.353,0.292c0.722,1.513,1.489,3.009,2.23,4.507
						c-0.83,0.56-1.371,1.743-1.552,2.681c-0.091,0.475,0.532,0.629,0.711,0.196c0.349-0.848,1.025-1.922,1.926-2.184
						c0.863-0.251,1.797-0.191,2.667-0.409C346.768,248.263,346.609,247.476,346.076,247.437z"/>
					<g>
						<g>
							<g>
								<path style="fill:#FFFFFF;" d="M332.074,243.389c-0.491,0.355-1.044,0.648-1.619,0.856
									c-0.512,0.199-1.055,0.324-1.609,0.376c-0.7,0.063-1.389,0.031-2.037-0.125c-1.358-0.303-2.559-1.065-3.395-2.277
									c-0.637-0.93,1.285-2.799,1.922-3.332c0.376-0.313,0.783-0.585,1.212-0.794c0.961-0.48,2.037-0.669,3.102-0.48
									c0.407,0.063,0.815,0.178,1.212,0.366c1.139,0.512,2.632,1.473,2.904,2.799
									C334.006,241.958,332.899,242.784,332.074,243.389z"/>
							</g>
							<path style="fill:#282F39;" d="M328.346,237.889c-0.421,0.001-0.715,0.176-0.914,0.462c-1.171,1.046-0.816,3.627-0.283,4.89
								c0.744,1.765,3.247,1.828,3.493-0.291C330.796,241.627,330.162,237.886,328.346,237.889z"/>
						</g>
						<g>
							<g>
								<path style="fill:#FFFFFF;" d="M351.292,233.387c-0.272,0.541-0.629,1.056-1.043,1.506
									c-0.363,0.412-0.787,0.773-1.255,1.074c-0.592,0.378-1.219,0.667-1.866,0.827c-1.345,0.356-2.762,0.233-4.062-0.458
									c-0.994-0.532-0.149-3.076,0.172-3.843c0.19-0.451,0.426-0.88,0.71-1.262c0.632-0.869,1.5-1.531,2.532-1.855
									c0.39-0.132,0.805-0.218,1.244-0.233c1.246-0.07,3.014,0.095,3.866,1.148C352.349,231.227,351.746,232.469,351.292,233.387z
									"/>
							</g>
							<path style="fill:#282F39;" d="M345.45,230.22c-0.374,0.194-0.553,0.486-0.599,0.831c-0.558,1.468,0.946,3.595,2,4.471
								c1.474,1.224,3.724,0.128,2.967-1.867C349.346,232.411,347.061,229.382,345.45,230.22z"/>
						</g>
					</g>
				</g>
				<g>
					<path style="fill:#FFE2A9;" d="M372.438,281.192c-2.018,0.128-3.863,0.162-4.895,0.383c-1.613,0.336-7.76,0.789-8.421,2.633
						c-1.079,3.039-1.16,4.779-1.984,8.12c-1.543,6.275-3.329,12.899-5.962,18.803c-2.146,4.814-4.013,9.86-6.565,14.476
						c-1.949,3.526-5.324,6.53-6.554,10.416c3.086,0.278,9.071,4.431,10.3,7.493c2.32,5.835-10.509,4.361-12.771,4.257
						c-15.775-0.789-31.887-1.438-46.41-8.038c-6.728-3.062-10.045-8.827-12.261-15.625c-1.16-3.561-1.38-7.25-1.009-10.927
						c0.603-6.125,2.819-12.238,5.069-17.782c2.668-6.589,6.531-12.771,11.182-18.211c2.842-3.318,5.985-6.38,9.338-9.082
						c2.819-2.273,5.521-4.675,8.259-7.029c0.974-0.835,1.937-1.67,2.923-2.482c0.058-0.046,0.116-0.093,0.174-0.139
						c2.564-2.076,5.881-3.491,8.189-5.765c2.447-2.401,5.463-0.534,7.864,0.151c6.171,1.751,12.597,3.178,19.104,3.48
						c5.115,0.244,9.987,0.847,15.033,0.093c0.383-0.058,0.731-0.116,1.067-0.162c0.359-0.046,0.684-0.093,0.997-0.139
						c2.25-0.313,3.433-0.406,5.927-0.615c0.394-0.035,0.835-0.07,1.322-0.104c5.197-0.452,7.841,0.394,8.468,3.248
						c0.557,2.517,0.441,5.243-1.856,6.82c-1.543,1.056-3.514,1.717-5.521,2.158c-1.485,0.336-3.004,0.545-4.361,0.707
						c-1.902,0.22-3.851,0.313-5.753,0.58c-1.45,0.197-2.865,0.487-4.234,1.009c0.951,0.522,2.273,0.707,3.642,0.754
						c1.38,0.058,2.796-0.023,3.874-0.046c2.053-0.035,4.095-0.151,6.136-0.174c0.464-0.012,0.939-0.023,1.404-0.012
						c2.192,0.035,5.127-0.116,6.357,2.111C384.501,279.765,377.831,280.832,372.438,281.192z"/>
					<g>
						<path style="fill:#937876;" d="M339.37,336.023c-4.309-1.344-9.004-1.696-13.651-1.501c4.659-7.419,6.301-17.821,2.698-25.903
							c-3.094-6.938-10.573-12.589-18.411-10.517c-0.311,0.082-0.26,0.616,0.078,0.579c7.817-0.854,14.725,4.516,17.346,11.68
							c2.912,7.961,0.772,17.201-3.496,24.266c-2.506,0.18-4.984,0.492-7.358,0.902c-0.412,0.071-0.309,0.727,0.098,0.721
							c5.728-0.091,11.485-0.487,17.189,0.246c2.724,0.35,5.469,0.94,7.929,2.205c1.902,0.979,6.915,4.309,5.537,7.143
							c-0.397,0.817,0.694,1.451,1.213,0.709C351.736,341.977,342.632,337.04,339.37,336.023z"/>
						<path style="fill:#937876;" d="M340.769,342.477c-0.354-0.012-0.501,0.509-0.183,0.676c0.903,0.474,1.699,0.99,2.264,1.869
							c0.558,0.867,0.624,1.719,0.863,2.682c0.161,0.649,1.148,0.646,1.311,0C345.632,345.287,343.132,342.557,340.769,342.477z"/>
						<path style="fill:#937876;" d="M337.093,346.134c-0.447-0.751-0.314-1.489-0.25-2.31c0.032-0.404-0.572-0.672-0.835-0.346
							c-0.72,0.892-0.729,2.184-0.252,3.202c0.385,0.823,1.306,1.836,2.287,1.807c0.562-0.016,0.854-0.697,0.458-1.106
							C338.041,346.905,337.455,346.742,337.093,346.134z"/>
					</g>
					<path style="fill:#FFE2A9;" d="M312.062,375.357c-9.709,3.932-20.427,2.656-28.848-3.573c-3.793-2.807-6.728-6.287-8.92-10.184
						c-4.118-7.273-5.66-15.984-5.417-24.405c0.162-5.498,0.719-11.112,3.457-16.007c1.728-3.086,5.475-7.853,9.152-8.781
						c6.357-1.102,5.568,6.53,4.303,9.129c-1.264,2.598-3.364,4.594-4.547,7.296c-1.357,3.097-1.635,6.229-1.786,9.57
						c-0.522,10.892,3.863,22.051,14.372,26.691c2.795,1.23,6.229,1.508,9.546,1.183c2.192-0.209,4.338-0.684,6.206-1.311
						c2.83-0.951,8.781-4.466,10.312-0.012C321.585,369.882,315.75,373.872,312.062,375.357z"/>
					<path style="fill:#FFFFFF;" d="M294.895,325.038c-5.556-0.232-7.18-3.874-9.894-7.772c-2.285-3.283-5.649-3.538-9.094-4.083
						c0.603-6.125,2.819-12.238,5.069-17.782c2.668-6.589,6.531-12.771,11.182-18.211c1.844,0.812,3.422,2.25,4.674,4.35
						c2.192,3.665,0.731,8.05,1.45,12.029c0.928,5.069,6.809,6.345,9.384,10.544C314.208,314.819,307.318,325.549,294.895,325.038z"
						/>
					<path style="fill:#FFFFFF;" d="M312.062,375.357c-9.709,3.932-20.427,2.656-28.848-3.573c-3.793-2.807-6.728-6.287-8.92-10.184
						c0.534-0.429,1.137-0.766,1.786-0.986c3.283-1.114,7.145-0.058,9.848,1.821c2.331,1.624,4.28,3.584,6.507,5.324
						c1.914,1.485,4.303,2.621,6.774,1.74c1.775-0.626,3.028-1.844,4.164-3.225c2.192-0.209,4.338-0.684,6.206-1.311
						c2.83-0.951,8.781-4.466,10.312-0.012C321.585,369.882,315.75,373.872,312.062,375.357z"/>
					<path style="fill:#FFFFFF;" d="M378.968,265.463c-1.543,1.056-3.514,1.717-5.521,2.158c0.081-0.232,0.116-0.487,0.081-0.766
						c-0.104-0.998-0.87-1.346-1.798-1.16c2.1-0.94,1.288-3.19-0.65-3.747c2.564,0.197,1.566-2.598,0-3.41
						c0.882,0.174,2.401,0.731,1.786-0.882c-0.336-0.87-1.055-1.612-1.832-2.158c0.394-0.035,0.835-0.07,1.322-0.104
						c5.197-0.452,7.841,0.394,8.468,3.248C381.381,261.159,381.265,263.885,378.968,265.463z"/>
					<path style="fill:#FFFFFF;" d="M372.438,281.192c0.081-0.313,0.081-0.661-0.07-1.044c-0.255-0.708-0.789-1.206-1.473-1.264
						c0.847-0.139,1.786-0.708,1.705-1.624c-0.093-0.94-1.392-1.972-2.239-2.111c0.731,0.07,2.053,0.638,2.482-0.232
						c0.476-0.951-0.893-2.25-1.763-2.308c0.684-0.012,2.517-0.313,2.471-1.148c-0.023-0.51-0.371-0.812-0.8-1.009
						c0.464-0.012,0.939-0.023,1.404-0.012c2.192,0.035,5.127-0.116,6.357,2.111C384.501,279.765,377.831,280.832,372.438,281.192z"
						/>
					<g>
						<path style="fill:#E76B6B;" d="M363.564,262.772c-0.058,0.406-0.116,0.812-0.197,1.218c-0.29,1.647-0.684,3.294-1.183,4.918
							c-0.174,0.592-0.359,1.183-0.58,1.763c-0.197,0.557-0.394,1.102-0.615,1.636c-0.151,0.383-0.302,0.766-0.475,1.137
							c-0.568,1.311-1.206,2.587-1.914,3.782c-0.603,1.056-1.264,2.053-1.984,2.993c-0.371,0.51-0.777,1.009-1.183,1.473
							c-2.471,2.83-6.171,1.404-9.222,0.267c-0.371-0.128-0.719-0.255-1.067-0.371c-0.093-0.035-0.186-0.058-0.278-0.104
							c-4.071-1.38-8.05-3.016-11.936-4.872c-0.406-0.197-1.137-0.568-2.123-1.09c-0.418-0.22-0.882-0.464-1.38-0.731
							c-2.737-1.496-6.577-3.689-10.242-6.125c-0.383-0.244-0.766-0.499-1.148-0.766c-3.329-2.25-6.415-4.651-8.282-6.82
							c0.348-0.302,1.021-0.94,1.728-1.624c0.232-0.22,0.464-0.452,0.696-0.684c0.986-0.94,1.867-1.798,1.902-1.821
							c2.517,1.531,4.988,3.178,7.516,4.466c0.278,0.151,0.557,0.29,0.835,0.418c1.694,0.824,3.422,1.462,5.197,1.798
							c1.589,0.302,3.248,0.522,4.941,0.661c0.429,0.047,0.87,0.07,1.311,0.105c3.979,0.232,8.085,0.035,11.89-0.615
							c0.557-0.093,1.102-0.197,1.647-0.313c0.615-0.128,1.276-0.313,1.972-0.545c2.517-0.847,5.498-2.273,8.108-3.654
							c0.371-0.197,0.731-0.383,1.079-0.568c2.935-1.601,5.185-2.993,5.324-3.086c0.012,0.162,0.023,0.325,0.023,0.499
							C364.028,258.236,363.9,260.487,363.564,262.772z"/>
						<path style="fill:#FFFFFF;" d="M363.564,262.772c-1.438,0.197-2.877,0.336-4.304,0.418c-0.127-1.52-0.348-3.027-0.684-4.489
							c-0.348,0.186-0.708,0.371-1.079,0.568c0.174,1.334,0.36,2.656,0.499,3.979c-2.877,0.104-5.753-0.012-8.607-0.325
							c-0.696,0.232-1.357,0.418-1.972,0.545c-0.545,0.116-1.09,0.22-1.647,0.313c0.093,0.023,0.174,0.035,0.267,0.046
							c0.267,2.83,0.429,5.649,0.267,8.537c-2.993-0.313-5.962-0.8-8.908-1.508c-1.52-0.36-3.004-0.777-4.466-1.229
							c0.441-1.728,0.766-3.491,0.951-5.231c-0.441-0.035-0.882-0.058-1.311-0.105c-0.232,1.636-0.557,3.26-0.997,4.884
							c-3.596-1.183-7.018-2.668-10.277-4.431c0.418-0.951,0.8-1.926,1.137-2.911c-0.278-0.128-0.557-0.267-0.835-0.418
							c-0.406,0.939-0.847,1.856-1.334,2.761c-2.784-1.578-5.475-3.376-8.085-5.405c-0.232,0.232-0.464,0.464-0.696,0.684
							c2.447,2.285,5.208,4.222,8.143,5.869c-0.499,0.87-1.032,1.728-1.589,2.575c0.383,0.267,0.766,0.522,1.148,0.766
							c0.568-0.882,1.079-1.798,1.543-2.737c3.352,1.786,6.913,3.225,10.509,4.361c-0.499,1.554-1.137,3.039-1.81,4.501
							c0.499,0.267,0.963,0.51,1.38,0.731c0.731-1.508,1.334-3.132,1.821-4.802c1.496,0.441,2.993,0.847,4.477,1.195
							c3.016,0.719,6.055,1.218,9.117,1.543c-0.22,2.761-0.719,5.405-1.357,8.027c0.093,0.046,0.186,0.07,0.278,0.104
							c0.348,0.116,0.696,0.244,1.067,0.371c0.708-2.691,1.172-5.521,1.392-8.375c3.445,0.29,6.913,0.325,10.37,0.081
							c-0.302,2.239-0.789,4.408-1.357,6.554c0.719-0.94,1.38-1.937,1.984-2.993c0.209-1.218,0.371-2.436,0.499-3.642
							c0.475-0.035,0.94-0.081,1.415-0.139c0.174-0.371,0.325-0.754,0.475-1.137c-0.592,0.07-1.195,0.128-1.786,0.185
							c0.046-0.487,0.081-0.963,0.116-1.427c0.128-2.146,0.162-4.408,0.035-6.67c1.345-0.093,2.691-0.232,4.013-0.406
							C363.448,263.584,363.506,263.178,363.564,262.772z M358.286,270.555c-0.035,0.673-0.093,1.346-0.162,2.018
							c-3.48,0.244-6.983,0.22-10.463-0.081c0.151-2.865,0.058-5.73-0.336-8.479c3.584,0.487,7.203,0.626,10.799,0.452
							C358.309,266.461,358.402,268.479,358.286,270.555z"/>
					</g>
				</g>
			</g>
			<path style="fill:#F5C4C7;" d="M290.266,340.328c-0.721,2.15,1.069,4.387,2.343,5.977c2.178,2.719,5.372,5.037,8.883,5.525
				c6.324,0.879,12.69-1.157,17.563-5.211c1.783-1.483,3.593-5.587-0.468-4.431c-1.757,0.5-3.575,1.406-5.22,2.207
				c-1.227,0.598-2.801,1.754-3.971,1.809c1.193-0.625,7.716-5.597,5.153-7.441c-1.216-0.875-4.644,1.822-5.555,2.376
				c-1.881,1.146-3.908,2.154-5.681,3.461c1.717-1.468,3.839-3.19,5.04-5.14c0.809-1.313,1.739-3.542-0.607-3.331
				c-2.078,0.188-4.14,2.316-5.682,3.577c-1.395,1.141-2.788,2.397-4.357,3.243c0.682-1.474,1.724-2.855,2.403-4.365
				c0.404-0.898,1.764-3.047,1.179-4.095c-1.185-2.123-3.73,1.639-4.461,2.45c-0.919,1.019-1.958,2.598-3.215,3.241
				C292.708,340.643,291.53,340.555,290.266,340.328z"/>
		</g>
		<g>
			<g>
				<path style="fill:#F5C4C7;" d="M328.899,282.62c-2.703-0.787-5.591-0.907-8.331-1.757c-2.836-0.88-5.747-1.643-8.609-2.472
					c-2.551-0.739-5.835-1.017-7.663-3.126c-2.544-2.934-4.53-6.97-5.958-10.556c-0.328-0.825-2.043-6.764,0.459-6.258
					c1.16,0.234,2.374,3.319,2.877,4.159c1.011,1.688,1.739,3.733,2.975,5.25c-1.109-2.204-2.057-4.679-2.7-7.064
					c-0.367-1.362-1.511-4.15-0.232-5.344c1.295-1.209,2.54,1.886,3.038,2.802c1.067,1.961,2.031,3.982,3.008,5.992
					c-0.918-1.862-1.603-4.604-2.23-6.745c-0.324-1.105-1.055-4.223,0.331-4.938c1.674-0.864,4.696,6.799,5.805,7.873
					c-0.485-1.792-1.175-3.576-1.771-5.34c-0.408-1.208-1.05-3.273,0.005-4.304c1.157-1.13,1.941,1.065,2.508,2.046
					c1.283,2.22,1.961,4.617,2.87,6.978c0.642,1.666,2.946,1.765,4.536,2.257c2.412,0.746,4.644,2.059,6.997,2.976
					c0.899,0.35,1.724,0.809,2.592,1.225c0.516,0.247,1.552,0.476,1.924,0.923c0.433,0.521,0.26,1.35,0.243,1.963
					c-0.045,1.652-1.408,3.557-1.834,5.191c-0.533,2.043,0.244,3.698-0.384,5.715C329.194,280.58,328.877,282.536,328.899,282.62z"
					/>
				<path style="fill:#73BACA;" d="M413.999,294.578c-0.51,6.577-2.935,12.841-5.139,19.046
					c-2.285,6.438-7.145,14.151-15.068,13.235c-3.225-0.383-6.635-2.204-9.72-3.213c-6.078-1.984-10.904-4.605-16.448-7.656
					c-17.666-9.744-50.655-35.251-51.131-35.842c1.995-2.865,4.419-7.714,7.203-10.057c1.995-1.682,4.57-2.749,7.052-3.851
					c10.289,4.338,21.517,7.969,32.026,11.658c6.403,2.25,15.462,5.603,20.937,9.697c-1.821-12.876-2.61-29.428,0.139-42.396
					c0.777-3.631,6.855-25.426,9.686-25.948c4.489-0.58,8.352,5.73,10.068,9.257c5.116,10.509,8.213,23.419,9.361,34.984
					C413.999,273.745,414.799,284.266,413.999,294.578z"/>
			</g>
			<path style="fill:#64B2BF;" d="M395.592,287.514c-2.616-0.652-5.234-1.305-7.848-1.971c0.399-10.432,0.569-20.855,1.237-31.279
				c0.684-10.667,1-21.498,4.036-31.793c0.169-0.573-0.663-0.921-0.961-0.405c-4.709,8.155-4.513,19.706-5.228,28.851
				c-0.884,11.313-1.465,22.746-1.145,34.095c-7.447-1.92-14.859-3.973-22.136-6.467c-10.631-3.644-20.652-9.982-31.457-12.842
				c-0.685-0.181-0.966,0.695-0.454,1.077c8.535,6.362,20.22,10.335,30.232,13.827c10.819,3.774,21.954,6.537,33.063,9.302
				C396.482,290.294,397.144,287.901,395.592,287.514z"/>
			<path style="fill:#64B2BF;" d="M399.418,325.57c-9.403,0.518-18.014-1.374-26.375-5.913c-7.099-3.854-12.99-9.525-19.916-13.578
				c-0.529-0.309-1.015,0.391-0.631,0.84c10.849,12.662,30.405,23.446,47.128,20.217C400.482,326.971,400.29,325.522,399.418,325.57
				z"/>
		</g>
	</g>
	<g>
		<g>
			<g>
				<path style="fill:#E76B6B;" d="M52.885,341.723c8.279-23.387,32.878-21.852,48.926-22.077
					c0.83,11.798,89.806,8.352,90.299-3.467c16.049-0.225,40.595-2.444,49.529,20.701c3.561,9.225,3.16,16.879-3.197,23.228
					c-12.898,12.881-32.197,15.896-48.034,18.432c-10.897,1.745-21.905,2.382-32.892,1.923c-2.723,0.672-5.509,1.138-8.308,1.476
					c-2.864,0.353-5.759,0.591-8.585,0.828c-1.279,0.111-2.558,0.198-3.828,0.274c-10.503,0.646-21.06,0.272-31.532-1.101
					c-15.902-2.097-35.283-4.575-48.531-17.081C50.194,358.686,49.581,351.05,52.885,341.723z"/>
				<path style="fill:#FFE2A9;" d="M145.681,360.647c8.287-0.054,18.554,1.357,26.267,6.191c5.033,3.155,9.115,9.43,6.792,16.12
					c-0.881,2.537-1.829,4.485-4.222,4.961c-3.241,0.645-5.806-0.768-8.81-2.077c-3.844-1.675-7.91-3.694-11.983-4.237
					c-1.774-0.236-3.54-0.179-5.331-0.151c-1.094,0.017-2.485,0.525-3.515-0.045c-3.051-1.69-2.279-10.366-1.788-13.418
					C143.502,365.43,144.205,363.098,145.681,360.647z"/>
				<path style="fill:#E76B6B;" d="M136.796,383.042c1.27-0.076,2.549-0.163,3.828-0.274c2.826-0.237,5.721-0.475,8.585-0.828
					c0.133-0.443,0.256-0.862,0.36-1.2c1.45-4.893,1.772-9.572,1.086-14.62c-0.4-3.022-1.814-6.193-1.935-9.184
					c0.576-0.716-0.708-0.941-1.207-1.108c-1.346-0.457-2.691-0.763-4.094-0.998c-2.816-0.494-4.265-1.17-4.819,1.773
					c-0.573,3.047-0.43,6.131-0.655,9.197c-0.217,2.961-0.702,5.891-0.878,8.852C136.906,377.448,136.767,380.246,136.796,383.042z"
					/>
				<path style="fill:#FFE2A9;" d="M145.086,348.908c-0.414,0.261-1.356-0.242-1.839-0.417c-3.671-1.331-7.462-2.993-11.363-2.774
					c-3.811,0.215-6.916,2.876-10.764,3.041c-2.84,0.122-5.667-0.915-8.48-0.551c-1.414,0.183-4.53,1.591-4.061,3.903
					c3.108,1.409,6.531,2.243,9.753,3.379c3.261,1.15,6.409,2.103,9.767,2.789c1.508,0.308,2.973,0.77,4.503,0.861
					c1.382,0.082,2.672,0.067,4.046,0.328c1.831,0.347,3.865,0.033,5.618,0.465c0.521-2.32,1.201-4.691,1.758-7.033
					c0.224-0.944,0.583-1.859,0.657-2.823C144.718,349.601,144.66,349.055,145.086,348.908z"/>
				<path style="fill:#D86060;" d="M85.133,335.984c16.421,17.837,42.108,22.366,63.599,23.846c1.094,0.075,1.148,2.02,0.028,2.012
					c-12.614-0.091-25.382-2.692-37.403-7.153c-9.634-3.575-20.623-8.241-26.741-18.225
					C84.39,336.094,84.864,335.691,85.133,335.984z"/>
				<path style="fill:#D86060;" d="M143.119,349.083c0.195-0.647,0.68-1.02,1.277-0.873c8.579,2.113,17.682,1.673,26.341,0.577
					c8.333-1.055,15.144-3.04,22.256-8.223c0.579-0.422,1.107,0.479,0.71,1.043c-4.689,6.66-13.19,8.248-20.084,9.379
					c-9.717,1.594-19.061,1.51-28.713-0.231c-0.705,2.989-1.16,5.951-1.262,9.095c-0.054,1.648-2.253,1.69-2.202,0.031
					C141.557,356.087,142.031,352.684,143.119,349.083z"/>
			</g>
			<g>
				<path style="fill:#E7ECFF;" d="M229.677,281.688c-5.765,9.024-17.04,10.103-26.505,12.98
					c-0.661,6.867,5.034,28.094-3.967,30.449c-15.555,4.072-30.913,8.584-46.63,11.808c-7.54,1.566-15.172,2.819-22.932,3.596
					c-14.36,1.45-44.333-4.292-45.215-24.881c-0.383-8.908,1.752-22.503,4.245-32.861c0.568-2.389,1.172-4.594,1.752-6.542
					c3.004-10.022,5.695-22.805,11.739-31.446c3.747-5.336,7.783-8.433,13.096-10.811c1.299-0.58,2.679-1.125,4.141-1.636
					c6.519-2.297,13.85-1.473,19.545-1.937c5.568,1.195,12.504-3.201,19-5.916c1.647-0.684,3.271-1.264,4.837-1.612
					c10.475-2.331,23.164-4.965,32.421,1.925c9.28,6.879,17.225,16.506,23.559,26.087
					C224.039,258.883,236.207,271.492,229.677,281.688z"/>
				<path style="fill:#F5C4C7;" d="M158.293,242.354c-1.148,6.971-5.104,10.01-11.402,12.052
					c-6.368,2.076-11.402,2.042-17.364-1.137c-3.387-1.809-6.287-4.582-8.375-7.806c-1.856-2.842-4.57-7.389-5.893-11.484
					c1.299-0.58,2.679-1.125,4.141-1.636c6.519-2.297,13.85-1.473,19.545-1.937c5.568,1.195,12.504-3.201,19-5.916
					C158.722,230.43,159.233,236.624,158.293,242.354z"/>
			</g>
		</g>
		<g>
			<g>
				<path style="fill:#F5C4C7;" d="M154.801,247.435c-6.02,5.023-20.079,6.032-20.079,6.032l-2.645-15.462l-3.376-19.673
					c8.027-4.025,15.056-4.025,15.056-4.025c1.183,2.761,3.143,8.456,5.092,14.372C151.843,237.807,154.801,247.435,154.801,247.435
					z"/>
				<path style="fill:#F4B8BD;" d="M148.851,228.678c-4.06,4.988-11.6,8.491-16.773,9.326l-3.376-19.673
					c8.027-4.025,15.056-4.025,15.056-4.025C144.942,217.067,146.902,222.762,148.851,228.678z"/>
			</g>
			<path style="fill:#E59117;" d="M143.492,152.689c0.31,0.505,1.588,1.26,2.462,1.876c2.38,1.675,3.848,3.483,5.372,5.954
				c2.837,4.598,4.184,8.86,4.674,14.24c0.58,6.38,1.803,21.095-5.532,24.842c-2.863-2.137-3.839-8.581-4.67-11.838
				c-1.578-6.186-3.531-12.28-4.901-18.52c-0.841-3.831-2.415-9.533-1.766-13.501C139.381,154.212,140.908,151.229,143.492,152.689z
				"/>
			<path style="fill:#E59117;" d="M111.303,148.05c-1.542,0.949-5.915,1.348-8.21,2.725c-3.184,1.91-5.877,5.064-7.593,8.28
				c-5.26,9.857-7.025,20.023-7.418,31.087c-0.281,7.92-0.143,17.441-2.912,24.919c-2.513,6.785-8.149,12.142-10.675,18.96
				c-1.471,3.97-2.572,9.923-0.635,13.949c1.209,2.515,4.063,4.226,5.52,6.447c-4.434,2.017-7.148,6.635-6.365,11.533
				c1.041,6.511,8.398,11.583,14.205,13.718c7.756,2.852,17.163,4.32,25.129,1.442c5.422-1.959,11.247-5.76,10.887-12.114
				c7.063-0.345,12.938-5.142,14.471-12.363c1.784-8.405-3.066-14.113-9.849-18.035c3.7-1.39,4.386-7.143,3.707-10.542
				c-0.69-3.453-3.469-6.249-5.318-9.067c-3.126-4.762-5.992-10.317-8.021-15.639c-5.429-14.241-4.301-27.166-3.212-41.913
				c0.225-3.048,0.401-6.416-0.957-9.162C113.366,150.878,111.997,149.818,111.303,148.05z"/>
			<g>
				<path style="fill:#F4B8BD;" d="M150.271,194.714c0.571-3.38,3.316-9.98,7.637-8.494c4.893,1.683,4.523,8.569,3.172,12.395
					c-0.947,2.682-4.144,10.031-8.311,7.647C148.992,204.1,149.729,197.232,150.271,194.714z"/>
				<path style="fill:#F4B8BD;" d="M108.171,203.966c-1.911-2.846-7.128-7.733-10.455-4.6c-3.768,3.547-0.597,9.671,2.208,12.603
					c1.966,2.055,7.904,7.438,10.721,3.551C113.199,211.995,109.702,206.038,108.171,203.966z"/>
				<path style="fill:#F5C4C7;" d="M98.264,178.5l6.981,29.767c0.341,1.455,0.817,2.871,1.442,4.229
					c2.644,5.743,10.454,18.554,26.469,15.251c0,0,23.601-3.905,21.355-27.615c-0.051-0.54-0.141-1.083-0.25-1.615l-6.606-32.283
					c-1.069-5.225-4.75-9.549-9.763-11.371c-7.893-2.869-20.603-3.957-34.803,8.544C98.822,167.162,96.966,172.966,98.264,178.5z"/>
			</g>
			<path style="fill:#E59117;" d="M128.944,155.623c0.511,9.079-3.886,20.986-8.351,25.239c-3.358,3.198-8.316,4.037-8.773-1.483
				c-1.414,3.684-1.067,7.49-3.671,11.252c-2.633,3.803-7.829,9.39-13.359,7.294c-8.796-3.333-6.201-18.067-4.821-25.038
				c2.568-12.974,13.018-26.506,26.811-28.417C125.235,143.299,128.549,148.62,128.944,155.623z"/>
			<path style="fill:#E59117;" d="M120.873,152.98c1.059,4.314,5.103,8.425,7.965,11.655c4.074,4.597,8.497,8.621,13.935,11.564
				c2.313,1.252,8.28,4.295,11.049,3.125c3.152-1.331,2.295-6.988,1.979-9.543c-1.209-9.756-8.065-20.757-17.926-23.541
				C134.345,145.243,120.307,144.021,120.873,152.98z"/>
			<g>
				<path style="fill:#282F39;" d="M118.843,202.51c-0.004-0.922-0.254-1.824-0.599-2.673c-0.395-0.973-0.857-1.951-1.97-2.242
					c-0.397-0.104-0.768-0.064-1.1,0.061c-0.714,0.158-1.209,0.846-1.297,1.615c-0.004,0.032-0.003,0.07-0.006,0.104
					c-0.007,0.053-0.023,0.104-0.026,0.158c-0.056,0.887,0.14,1.809,0.477,2.626c0.09,0.219,0.191,0.436,0.306,0.643
					c0.606,1.177,1.563,2.002,2.859,1.456c0.109-0.046,0.194-0.109,0.285-0.169C118.372,203.833,118.846,203.296,118.843,202.51z"/>
				<path style="fill:#282F39;" d="M116.719,192.379c-2.782-0.289-6.597,0.713-6.751,4.079c-0.017,0.373,0.497,0.618,0.721,0.268
					c1.35-2.105,3.442-3.029,5.902-2.944C117.491,193.812,117.627,192.474,116.719,192.379z"/>
			</g>
			<g>
				<path style="fill:#282F39;" d="M146.185,194.867c0.1-0.916-0.046-1.841-0.292-2.723c-0.282-1.011-0.63-2.036-1.703-2.451
					c-0.383-0.148-0.756-0.15-1.1-0.064c-0.728,0.076-1.297,0.704-1.471,1.457c-0.007,0.031-0.011,0.07-0.018,0.103
					c-0.013,0.052-0.034,0.101-0.044,0.154c-0.156,0.875-0.066,1.814,0.176,2.663c0.065,0.228,0.141,0.455,0.231,0.674
					c0.468,1.238,1.326,2.166,2.675,1.771c0.114-0.033,0.206-0.086,0.302-0.135C145.567,196.128,146.099,195.648,146.185,194.867z"
					/>
				<path style="fill:#282F39;" d="M145.223,184.561c-2.731-0.602-6.635-0.04-7.17,3.287c-0.059,0.369,0.424,0.67,0.686,0.348
					c1.58-1.938,3.764-2.619,6.198-2.256C145.828,186.072,146.115,184.757,145.223,184.561z"/>
			</g>
			<path style="fill:#F4B8BD;" d="M134.664,200.164c-0.324-1.409-2.23-2.903-3.107-3.962c-1.673-2.02-2.818-3.994-3.549-6.533
				c-0.153-0.533-1.011-0.447-0.988,0.134c0.09,2.313,1.131,4.278,2.499,6.11c0.72,0.964,1.632,1.811,2.307,2.797
				c0.38,0.555,1.418,1.717,1.096,2.468c-0.369,0.86-2.285,1.257-3.098,1.391c-0.902,0.148-0.518,1.517,0.378,1.372
				C131.853,203.673,135.185,202.428,134.664,200.164z"/>
			<path style="fill:#FFFFFF;" d="M125.768,210.3c0,0,8.385-5.408,16.496-5.024c0,0,0.829,7.007-6.233,8.994
				C136.031,214.27,128.969,216.258,125.768,210.3z"/>
		</g>
		<g>
			<g>
				<path style="fill:#A39899;" d="M147.068,315.083c-3.295,4.079-10.432,8.052-12.758,13.889c-0.786,1.971-3.169,7.795,0.722,6.885
					c0.135-0.147,0.128-0.156-0.021-0.028c-1.783,1.998-3.811,7.828-2.654,10.532c0.926,2.163,2.437,3.008,3.817,0.157
					c0.034,2.999-3.879,12.941,1.248,13.422c3.476,0.326,5.158-6.178,5.78-8.781c0.498,2.021,3.346,1.914,4.939,0.597
					c2.777-2.297,1.986-9.138,2.079-12.265c4.267,0.693,5.481-11.628,6.041-14.561c0.575-3.015,1.027-6.095-1.053-8.6
					C153.859,314.706,150.281,312.579,147.068,315.083z"/>
				<g>
					<path style="fill:#756B6C;" d="M196.734,265.762c-0.441,5.835-1.694,11.507-2.726,17.272
						c-1.195,6.647-3.318,14.233-6.241,20.334c-3.074,6.461-5.51,12.852-9.326,18.884c-1.694,2.68-3.422,5.521-4.732,8.294
						c-0.151,0.313-0.29,0.626-0.418,0.951l-0.012,0.012c-0.87,2.216-1.427,4.663-2.447,6.681c-1.16,2.274-3.781,1.438-5.997,0.615
						c-3.839-1.427-3.805-5.231-3.097-9.117c0.476-2.633,1.264-5.301,1.38-7.285c0.035-0.244-0.093,0.209-0.197,0.22
						c-2.842,0.313-6.357-0.696-9.106-1.357c-5.776-1.392-13.676-2.923-17.237-8.294c-1.926,1.659-2.958,3.584-4.222,5.753
						c-0.522,0.905-1.044,1.81-1.52,2.714c-1.102,2.007-2.065,4.048-2.726,6.333c-0.824,2.877-0.708,3.515-3.805,3.202
						c-4.825-0.464-7.192-2.935-6.67-7.923c0.139-1.311,0.325-2.622,0.557-3.932c1.728-9.581,6.032-19.116,11.089-27.201
						c4.895-7.783,9.709-15.242,16.077-21.981c3.167-3.364,6.623-6.879,10.057-9.964c1.659-1.496,4.048-3.596,6.148-4.431
						c1.949,0.313,3.793-0.476,5.707-0.209c3.213,0.452,6.426,1.427,9.523,2.401c5.406,1.705,10.695,1.288,16.17,2.355
						C196.687,260.809,197.024,261.922,196.734,265.762z"/>
					<path style="fill:#A39899;" d="M130.837,321.44c-1.102,2.007-2.065,4.048-2.726,6.333c-0.824,2.877-0.708,3.515-3.805,3.202
						c-4.825-0.464-7.192-2.935-6.67-7.923c0.139-1.311,0.325-2.622,0.557-3.932c1.415,0.684,3.666,0.394,4.86-1.114
						c0.186,1.195-0.696,2.529,0.905,3.051c1.45,0.476,2.529-1.264,3.213-2.227C126.185,321.834,128.876,322.774,130.837,321.44z"/>
					<path style="fill:#A39899;" d="M173.279,331.508c-0.87,2.216-1.427,4.663-2.447,6.681c-1.16,2.274-3.781,1.438-5.997,0.615
						c-3.839-1.427-3.805-5.231-3.097-9.117c1.369-0.708,2.494-2.517,3.074-3.561c-0.197,1.241-1.392,3.874,0.615,4.385
						c1.995,0.51,3.12-2.749,4.037-3.816c0.081,1.473-0.464,3.561,0.835,4.593C171.215,332.007,172.282,331.949,173.279,331.508z"/>
				</g>
				<path style="fill:#A39899;" d="M164.661,259.985c-3.198,3.174-7.247,5.447-10.513,8.57c-3.362,3.215-6.002,6.748-8.051,10.917
					c-1.061,2.158-2.647,7.567,1.73,5.085c-1.814,2.886-2.312,7.614-1.918,11.03c0.388,3.366,2.952,2.112,4.803,0.222
					c0.25,2.732-1.191,8.216,1.575,10.169c2.666,1.884,6.173-3.516,7.313-5.538c0.071,2.407,0.91,4.669,3.796,4.599
					c2.712-0.066,5.147-3.887,5.567-6.386c1.866,4.676,5.382,2.358,7.732-1.11c4.339-6.402,6.03-15.666,7.398-23.154
					c1.162-6.357,2.396-13.76-4.611-16.776c-2.86-1.231-6.361-1.764-9.462-1.495C167.561,256.333,166.839,257.448,164.661,259.985z"
					/>
				<g>
					<path style="fill:#756B6C;" d="M194.143,223.172c-0.752-1.386-3.295-5.604-5.145-3.959c-1.493,1.328-2.401,3.364-3.1,5.422
						c-0.597-0.155-1.196-0.309-1.829-0.423c-5.66-1.022-11.324,0.229-16.091,2.983c-1.23-2.09-2.672-4.212-4.644-5.296
						c-2.169-1.193-3.711,3.485-4.136,5.003c-1.081,3.863-1.65,7.813-2.336,11.756c-0.754,4.331-1.469,8.663-1.019,13.073
						c0.45,4.414,2.112,8.836,5.33,11.89c3.673,3.486,8.945,4.815,14.009,4.912c8.148,0.156,19.103-0.312,23.813-8.112
						c3.507-5.807,2.992-13.343,1.711-19.726c-0.714-3.554-1.76-7.046-3.072-10.424C196.68,227.818,195.397,225.483,194.143,223.172
						z"/>
					<path style="fill:#282F39;" d="M179.401,251.549c-0.037-1.241-0.015-2.65-0.23-3.937c0.382-0.093,0.752-0.274,1.083-0.556
						c0.792-0.675,1.545-1.702,1.214-2.795c-0.39-1.287-1.75-1.314-2.845-1.172c-0.858,0.111-2,0.249-2.508,0.975
						c-0.164,0.164-0.293,0.369-0.345,0.65c-0.059,0.315,0.026,0.648,0.181,0.972c0.088,0.321,0.226,0.631,0.398,0.894
						c0.096,0.146,0.194,0.262,0.296,0.357c0.342,0.4,0.811,0.689,1.289,0.763c0.047,1.32,0.285,2.687,0.367,3.966
						c-0.384,0.304-0.732,0.696-1.029,1.073c-0.261,0.331-0.611,0.656-0.464,1.101c0.025,0.075,0.088,0.162,0.174,0.174
						c0.724,0.102,1.291-0.804,1.867-1.317c0.109,0.112,0.218,0.225,0.326,0.337c0.241,0.249,0.482,0.499,0.722,0.749
						c0.563,0.585,1.466-0.318,0.891-0.891C180.433,252.543,179.942,251.852,179.401,251.549z"/>
					<g>
						<path style="fill:#E59117;" d="M162.998,243.404c0.242-0.758,1.019-1.403,1.818-1.83c1.535-0.82,3.268-1.271,4.951-0.654
							c0.909,0.333,1.738,0.875,2.402,1.567c0.554,0.578,1.515,1.719,1.203,2.572c-0.085,0.231-0.262,0.419-0.448,0.585
							c-2.336,2.091-7.512,1.901-9.541-0.596C162.913,244.469,162.836,243.911,162.998,243.404z"/>
						<path style="fill:#282F39;" d="M169.106,241.082c-0.447-0.562-1.212-0.317-1.59,0.17c-0.921,1.188-0.759,3.217-0.294,4.551
							c0.248,0.711,0.957,1.049,1.524,0.389C169.652,245.135,170.005,242.211,169.106,241.082z"/>
					</g>
					<g>
						<path style="fill:#E59117;" d="M183.889,243.267c0.089-0.791,0.724-1.576,1.424-2.151c1.344-1.105,2.956-1.887,4.727-1.611
							c0.957,0.149,1.876,0.518,2.663,1.066c0.657,0.458,1.822,1.389,1.683,2.287c-0.038,0.244-0.175,0.462-0.325,0.661
							c-1.881,2.508-6.993,3.336-9.472,1.285C184.015,244.329,183.83,243.797,183.889,243.267z"/>
						<path style="fill:#282F39;" d="M189.424,239.794c-0.549-0.463-1.251-0.074-1.526,0.479c-0.671,1.346-0.114,3.303,0.604,4.52
							c0.382,0.648,1.145,0.841,1.57,0.082C190.754,243.661,190.526,240.725,189.424,239.794z"/>
					</g>
					<path style="fill:#A39899;" d="M161.094,230.142c-0.172-0.099-0.223-0.309-0.217-0.677c0.028-1.723,0.081-3.674,0.819-5.264
						c0.876-1.895,3.002,0.711,3.574,1.551c0.364,0.535,0.979,1.179,1.059,1.849c0.045,0.371-0.16,0.54-0.432,0.81
						c-0.753,0.747-1.733,1.239-2.748,1.524c-0.499,0.14-1.012,0.23-1.529,0.271C161.379,230.225,161.209,230.208,161.094,230.142z"
						/>
					<path style="fill:#A39899;" d="M192.785,227.253c0.113-0.134,0.098-0.348-0.005-0.701c-0.483-1.654-1.047-3.522-2.071-4.889
						c-1.217-1.629-2.248,1.36-2.487,2.299c-0.153,0.598-0.479,1.357-0.366,2.02c0.063,0.367,0.275,0.484,0.567,0.683
						c0.811,0.551,1.738,0.804,2.637,0.85c0.443,0.022,0.883-0.006,1.314-0.082C192.576,227.396,192.709,227.342,192.785,227.253z"
						/>
					<path style="fill:#685E5F;" d="M187.576,232.059c-0.089,2.199-2.099,3.494-4.149,3.579c-0.816,0.033-1.498-0.14-2.047-0.472
						c0.523-0.384,0.975-0.845,1.316-1.38c0.981-1.542,0.926-4.188-1.041-4.958c-2.199-0.859-3.023,1.54-2.902,3.243
						c0.081,1.139,0.421,2.144,0.995,2.921c-0.578,0.249-1.188,0.416-1.764,0.499c-0.867,0.126-1.774,0.042-2.576-0.266
						c0.269-0.266,0.512-0.561,0.718-0.885c0.961-1.509,0.802-4.056-1.202-4.633c-2.016-0.581-3.108,1.295-2.787,3.06
						c0.218,1.202,0.82,2.092,1.636,2.702c-2.386,1.316-6,0.735-6.413-2.388c-0.045-0.337-0.576-0.354-0.544,0
						c0.372,4.065,4.853,4.71,7.712,2.848c1.744,0.845,4.084,0.716,5.921-0.2c0.758,0.614,1.757,0.949,2.978,0.893
						c2.594-0.118,4.995-1.8,5.013-4.566C188.444,231.501,187.599,231.505,187.576,232.059z M173.272,233.18
						c-0.404-1.016-0.419-2.84,1.186-2.638c1.18,0.148,1.56,1.484,1.306,2.48c-0.185,0.729-0.585,1.34-1.113,1.823
						C174.052,234.458,173.562,233.908,173.272,233.18z M179.721,232.072c-0.066-0.787-0.101-2.134,0.855-2.429
						c1.685-0.52,1.978,1.915,1.694,2.844c-0.266,0.869-0.881,1.543-1.639,2.036C180.11,233.901,179.804,233.057,179.721,232.072z"
						/>
					<path style="fill:#A58186;" d="M161.658,248.949c1.596-0.714,3.814-0.528,4.836,0.766c1.374,1.741-0.304,2.853-1.962,3.197
						c-0.748,0.155-1.512,0.276-2.273,0.209c-1.557-0.137-3.096-1.347-2.04-2.997C160.546,249.613,161.058,249.218,161.658,248.949z
						"/>
					<path style="fill:#A58186;" d="M194.137,247.789c1.596-0.714,3.814-0.528,4.836,0.766c1.374,1.741-0.303,2.853-1.962,3.197
						c-0.748,0.155-1.512,0.276-2.273,0.209c-1.557-0.137-3.096-1.346-2.04-2.997C193.025,248.453,193.537,248.058,194.137,247.789z
						"/>
				</g>
			</g>
			<g>
				<path style="fill:#F5C4C7;" d="M176.562,331.195c-1.902,1.635-5.568,2.587-7.389,3.143c-3.144,0.951-6.415,1.914-9.686,2.215
					c-2.819,0.255-5.8,0.603-8.676,0.406c-2.158-1.914-3.77-4.303-4.628-7.285c-0.661-2.32-1.079-4.918-1.102-7.342
					c0-0.592,0.093-1.287,0.174-1.972c2.853-0.766,5.939-2.401,8.479-3.77c0.789-0.418,3.317-2.297,4.338-1.589
					c2.111,1.473-2.83,5.579-3.654,6.472c3.236-0.012,6.832-2.447,9.558-3.944c1.473-0.789,3.677-2.97,5.649-3.596
					c0.765-0.244,1.485,0.383,1.369,1.183c-0.441,3.086-3.677,4.663-5.614,6.879c1.856-1.23,3.735-2.563,5.742-3.549
					c0.615-0.313,3.665-1.914,4.431-1.345c2.714,2.018-6.183,8.004-7.667,8.572c1.624-0.128,7.551-4.106,8.966-2.192
					c1.357,1.833-6.078,5.962-7.354,6.519c1.717-0.035,4.385-1.357,6.403-1.044C176.98,329.119,177.397,330.476,176.562,331.195z"/>
				<path style="fill:#E7ECFF;" d="M152.574,336.925c-7.54,1.566-15.172,2.819-22.932,3.596c-14.36,1.45-44.333-4.292-45.215-24.881
					c-0.383-8.908,1.752-22.503,4.245-32.861c0.348,0.046,0.777,0.093,1.322,0.128c4.582,0.313,8.874-0.139,13.432-0.278
					c2.946-0.093,6.299,0.592,8.456,2.297c1.148,0.905-0.36,9.314-0.452,10.753c-0.278,3.886-1.821,12.864,0.684,16.007
					c2.482,3.12,9.245,3.515,12.876,4.245c1.601,0.325,23.733,2.645,23.733,1.612C150.602,323.945,152.064,330.348,152.574,336.925z
					"/>
				<path style="fill:#D9E2FF;" d="M148.408,317.49c-13.817-0.668-27.196-3.396-40.623-6.497c1.776-8.865,3.39-17.759,3.714-26.816
					c0.029-0.822-1.301-1.031-1.46-0.198c-1.749,9.187-2.958,18.466-4.886,27.621c-0.14,0.663,0.19,1.318,0.862,1.518
					c13.766,4.101,28.103,5.62,42.393,6.384C149.701,319.571,149.7,317.552,148.408,317.49z"/>
			</g>
			<g>
				<path style="fill:#F5C4C7;" d="M150.893,264.237c-3.727-1.931-8.317-2.306-12.41-1.802c-3.589,0.442-6.536,4.153-8.613,6.823
					c-3.354,4.313-6.763,9.306-8.718,14.449c-0.452,1.19-0.578,3.974,1.264,3.164c1.061-0.467,1.859-2.261,2.43-3.181
					c1.142-1.84,2.526-3.571,3.577-5.458c-0.817,1.295-4.78,8.124-2.459,9.668c2.287,1.521,5.336-6.576,6.697-7.476
					c-0.559,1.622-3.702,7.016-1.116,8.308c1.237,0.617,1.988-0.946,2.55-1.877c0.866-1.432,2.225-3.209,2.626-4.816
					c-0.423,1.04-3.04,8.041,0.316,7.351c0.994-0.204,1.668-1.968,2.12-2.729c0.641-1.08,1.282-2.16,1.923-3.241
					c1.537-2.59,3.106-5.14,4.76-7.65c1.557-2.363,3.861-3.978,5.415-6.368C152.371,267.687,152.849,265.136,150.893,264.237z"/>
				<g>
					<path style="fill:#E7ECFF;" d="M140.302,271.005c0.626,3.764,3.263,7.751,6.132,9.938c5.627,4.29,11.662,7.887,18.353,10.221
						c10.985,3.832,22.879,5.005,34.393,3.62c4.101-0.493,9.818-0.921,11.89-5.365c2.711-5.816,0.684-16.457,0.526-22.675
						c-4.595-0.572-9.638,2.81-14.337,2.811c-8.966,0.001-17.346-1.008-26.028-3.205c-5.325-1.348-10.562-3.34-15.843-4.48
						c-3.277-0.707-5.772-1.251-8.388,0.994C143.79,265.621,142.781,268.177,140.302,271.005z"/>
					<path style="fill:#D9E2FF;" d="M210.816,266.961c-9.372,2.035-18.887,2.231-28.36,0.724c-8.47-1.347-16.278-4.737-24.595-6.496
						c-0.841-0.178-1.36,0.937-0.594,1.408c7.922,4.866,18.352,6.979,27.478,8.147c8.971,1.148,17.911,0.711,26.644-1.703
						C212.734,268.669,212.167,266.668,210.816,266.961z"/>
				</g>
				<g>
					<g>
						<path style="fill:#756B6C;" d="M161.954,261.145c-0.035-6.617-6.55-7.162-11.348-4.315
							c-4.51,2.676-10.054,7.627-11.181,13.044c-0.935,4.495,2,8.646,6.658,9.064c5.553,0.499,5.246-5.841,7.361-9.276
							C154.798,267.465,161.215,263.581,161.954,261.145z"/>
						<path style="fill:#282F39;" d="M141.36,269.867c-1.874,1.083-3.006,4.255-1.327,5.976c0.525,0.538,1.319-0.269,0.82-0.82
							c-1.161-1.282,0.137-3.472,1.039-4.465C142.221,270.195,141.805,269.609,141.36,269.867z"/>
						<path style="fill:#282F39;" d="M144.941,272.494c-2.234,1.158-3.523,5.142-1.436,6.986c0.643,0.568,1.518-0.302,0.942-0.942
							c-1.366-1.518-0.098-4.19,0.897-5.641C145.521,272.639,145.184,272.368,144.941,272.494z"/>
					</g>
					<g>
						<path style="fill:#756B6C;" d="M193.862,266.867c-2.331-6.193-8.629-4.442-12.141-0.105c-3.3,4.076-6.78,10.644-5.955,16.115
							c0.684,4.54,4.878,7.413,9.391,6.188c5.38-1.461,2.891-7.299,3.682-11.255C189.345,275.279,194.014,269.408,193.862,266.867z"
							/>
						<path style="fill:#282F39;" d="M177.578,282.198c-1.381,1.666-1.341,5.034,0.831,6.064c0.679,0.322,1.144-0.71,0.484-1.054
							c-1.534-0.799-1.077-3.303-0.576-4.548C178.5,282.207,177.907,281.802,177.578,282.198z"/>
						<path style="fill:#282F39;" d="M181.849,283.419c-1.693,1.862-1.518,6.046,1.079,7.05c0.8,0.309,1.319-0.81,0.556-1.21
							c-1.808-0.949-1.547-3.895-1.118-5.602C182.444,283.352,182.033,283.216,181.849,283.419z"/>
					</g>
				</g>
			</g>
		</g>
	</g>
	<g>
		<path style="fill:#FFBA1F;" d="M228.286,351.478c-16.185-0.687-30.217,12.924-29.364,29.505c0.183,3.552,0.934,6.742,2.126,9.576
			c-4.932,1.014-9.497,3.102-11.668,7.881c-1.143,2.516-1.255,5.629-0.042,8.145c1.68,3.484,5.395,4.446,8.898,5.178
			c10.09,2.109,20.562,1.187,30.616,3.493c1.608,0.369,3.543,0.691,4.792,1.84c2.696,2.481,1.53,5.39-1.576,6.27
			c-2.354,0.668-5.122,0.328-7.524,0.249c-5.919-0.196-11.859-1.195-17.769-1.195c-0.705,0-0.9,1.12-0.171,1.264
			c5.414,1.068,11.163,1.264,16.669,1.501c3.593,0.154,8.695,0.991,11.774-1.489c2.038-1.641,2.56-4.243,1.102-6.457
			c-2.274-3.454-7.808-3.94-11.494-4.489c-4.782-0.712-9.613-0.915-14.43-1.26c-3.074-0.22-6.152-0.479-9.194-0.993
			c-2.859-0.483-6.775-0.935-8.907-3.035c-4.352-4.286-0.545-10.606,3.644-13.104c1.85-1.104,3.886-1.767,5.989-2.245
			c11.298,22.522,52.139,19.866,54.812-10.077c0.082-0.914,0.117-1.818,0.109-2.71C256.542,363.991,243.504,352.124,228.286,351.478
			z"/>
		<g>
			<g>
				<path style="fill:#E59117;" d="M224.698,354.615c-5.558,0.805-10.803,4.667-14.608,8.618c-3.608,3.747-7.313,8.963-7.977,14.243
					c-0.064,0.507,0.733,0.689,0.952,0.258c2.527-4.997,4.363-9.656,8.361-13.779c3.935-4.059,8.578-6.272,13.46-8.895
					C225.15,354.919,224.952,354.578,224.698,354.615z"/>
				<path style="fill:#E59117;" d="M230.272,357.759c-5.437,1.902-10.338,5.755-14.306,9.86c-3.84,3.973-8.072,9.206-9.374,14.679
					c-0.126,0.529,0.57,0.815,0.866,0.365c3.171-4.823,5.475-9.764,9.534-14.018c4.01-4.201,8.7-7.136,13.57-10.197
					C230.91,358.23,230.692,357.612,230.272,357.759z"/>
				<path style="fill:#E59117;" d="M234.479,362.829c-9.778,3.14-19.209,13.268-22.235,23c-0.2,0.643,0.772,1.061,1.093,0.461
					c2.538-4.752,5.008-9.272,8.751-13.22c3.734-3.937,8.155-6.668,12.659-9.602C235.066,363.26,234.873,362.702,234.479,362.829z"
					/>
				<path style="fill:#E59117;" d="M237.428,402.931c-1.155-4.778-4.44-9.664-7.488-13.455c-2.725-3.39-6.807-7.692-11.27-8.552
					c-0.27-0.052-0.539,0.289-0.293,0.504c3.434,2.984,7.232,5.077,10.192,8.686c3.353,4.086,5.001,8.913,7.841,13.247
					C236.754,403.883,237.58,403.557,237.428,402.931z"/>
				<path style="fill:#E59117;" d="M236.876,385.318c-3.245-4.168-7.378-7.75-12.523-9.254c-0.529-0.155-0.917,0.687-0.386,0.915
					c4.754,2.038,8.604,5.134,11.766,9.221c3.02,3.903,6.253,8.76,7.487,13.571c0.179,0.699,1.372,0.579,1.294-0.175
					C243.995,394.582,239.884,389.182,236.876,385.318z"/>
				<path style="fill:#E59117;" d="M242.948,378.696c-3.012-3.355-7.882-8.099-12.543-8.711c-0.23-0.03-0.335,0.301-0.184,0.445
					c1.64,1.567,3.888,2.485,5.733,3.824c2.187,1.588,4.199,3.423,6,5.437c3.72,4.158,5.48,8.76,7.924,13.646
					c0.29,0.58,1.058,0.141,0.971-0.409C250.023,387.715,246.402,382.544,242.948,378.696z"/>
				<path style="fill:#E59117;" d="M253.63,380.052c-3.072-6.307-9.022-14.364-16.988-13.977c-0.178,0.009-0.282,0.272-0.098,0.362
					c3.42,1.663,6.692,2.609,9.576,5.273c2.743,2.533,4.554,5.795,6.328,9.032C252.876,381.522,254.012,380.836,253.63,380.052z"/>
			</g>
			<path style="fill:#E59117;" d="M220.891,386.486c-2.175-0.703-5.341,3.122-6.591,4.579c-2.081,2.427-4.008,5.431-4.578,8.62
				c-0.098,0.547,0.671,0.974,0.961,0.405c1.499-2.939,2.718-5.752,4.94-8.26c0.96-1.083,2.019-2.087,3.15-2.991
				c0.952-0.761,1.946-1.046,2.164-2.272C220.944,386.531,220.927,386.498,220.891,386.486z"/>
			<path style="fill:#E59117;" d="M223.933,390.133c-3.724,2.758-7.992,7.668-8.785,12.381c-0.1,0.593,0.638,0.953,0.989,0.417
				c1.284-1.958,2.105-4.181,3.46-6.122c1.474-2.111,3.267-3.886,5.128-5.649C225.25,390.661,224.539,389.684,223.933,390.133z"/>
			<path style="fill:#E59117;" d="M229.289,395.398c-1.575-0.182-2.959,2.2-3.783,3.327c-1.327,1.817-2.386,3.861-3.052,6.012
				c-0.258,0.833,0.974,1.13,1.28,0.353c0.789-2.005,1.698-3.915,2.946-5.679c0.766-1.084,2.771-2.497,2.716-3.906
				C229.394,395.442,229.349,395.405,229.289,395.398z"/>
			<path style="fill:#E59117;" d="M209.516,394.097c-0.824-1.499-2.451-2.717-3.766-3.775c-1.394-1.121-2.865-2.169-4.486-2.934
				c-0.546-0.258-0.976,0.466-0.474,0.811c1.551,1.067,3.133,2.066,4.582,3.276c1.214,1.014,2.24,2.341,3.537,3.229
				C209.292,394.968,209.718,394.464,209.516,394.097z"/>
			<path style="fill:#E59117;" d="M211.659,389.537c-1.167-1.687-2.836-3.067-4.496-4.253c-1.549-1.107-3.545-2.464-5.49-2.604
				c-0.247-0.018-0.404,0.344-0.21,0.506c1.35,1.124,3.132,1.755,4.594,2.758c1.801,1.235,3.193,2.757,4.767,4.237
				C211.246,390.576,212.016,390.052,211.659,389.537z"/>
			<path style="fill:#E59117;" d="M241.278,362.919c-2.459-3.328-6.643-6.506-10.512-7.967c-0.4-0.151-0.589,0.438-0.275,0.653
				c1.842,1.267,3.776,2.344,5.538,3.736c1.614,1.275,2.993,2.776,4.528,4.135C240.921,363.799,241.606,363.363,241.278,362.919z"/>
			<path style="fill:#E59117;" d="M244.388,360.106c-0.757-1.419-2.203-2.452-3.478-3.39c-1.354-0.996-2.919-2.121-4.577-2.506
				c-0.274-0.063-0.549,0.304-0.298,0.512c1.205,0.996,2.658,1.684,3.913,2.625c1.357,1.017,2.479,2.393,3.916,3.282
				C244.203,360.84,244.563,360.432,244.388,360.106z"/>
		</g>
	</g>
</g>
</svg>
