<?xml version="1.0"?>
<svg width="1200" height="1200" xmlns="http://www.w3.org/2000/svg" xmlns:svg="http://www.w3.org/2000/svg" enable-background="new 0 0 1200 1200" version="1.1" xml:space="preserve">
 <g class="layer">
  <title>Layer 1</title>
  <g id="svg_209">
   <g id="svg_210">
    <path d="m433.66,266.04c-19.07,-21.85 -26.73,-54.63 -49.65,-80.1c-22.92,-29.1 -49.65,-54.63 -68.71,-83.73c-11.46,-18.23 -22.92,-51 -45.85,-58.25c-64.91,-21.85 -76.37,105.58 -84.03,141.98c-7.66,58.25 -7.66,109.2 11.46,163.83c11.46,32.78 30.53,101.95 72.57,109.2l164.21,-192.93z" fill="#FFFFFF" id="svg_211"/>
    <path d="m438.11,261.8c-9.85,-11.79 -16.39,-25.68 -23.24,-39.16c-7.93,-15.67 -17.19,-29.41 -28.17,-43.24c-22.01,-27.62 -48.95,-52.33 -67.32,-82.5c-12.32,-20.12 -20.57,-46.05 -44.02,-57.13c-14.78,-6.99 -32.4,-5.31 -45.31,4.14c-29.89,21.8 -37.33,67.49 -43.6,100.37c-9.59,50.49 -16.5,102.06 -8.78,153.26c5.36,35.53 17.35,71.07 31.55,104.35c10.87,25.48 27.64,56.57 58.59,62.9c7.93,1.63 11.3,-9.96 3.32,-11.59c-25.07,-5.16 -38.35,-30.02 -47.93,-50.44c-10.66,-22.67 -18.53,-47.38 -25.49,-71.27c-16.6,-56.93 -11.03,-115.74 -1.07,-173.12c3.43,-19.5 7.44,-38.95 13.44,-57.95c5.3,-16.59 12.8,-36.25 27.8,-47.22c19.92,-14.5 41.29,0.66 52.49,17.46c6.86,10.31 11.89,21.65 18.1,32.32c8.41,14.5 20.03,27.62 31.06,40.43c18.16,21.14 38.51,41.4 53.29,64.94c12.85,20.37 20.67,43.14 36.42,61.93c5.09,6.08 13.93,-2.5 8.89,-8.47l0,0z" fill="#231F20" id="svg_212"/>
   </g>
   <g id="svg_213">
    <path d="m666.64,306.07c0,-32.78 7.66,-54.58 26.73,-83.73c42.04,-61.88 110.76,-141.98 175.72,-182.06c68.71,101.95 87.83,247.61 22.92,353.19c-30.58,54.58 -76.43,101.9 -145.14,101.9l-80.23,-189.31z" fill="#FFFFFF" id="svg_214"/>
    <path d="m672.96,306.07c0.27,-28.44 8.3,-52.69 23.51,-77.09c14.51,-23.13 31.97,-44.98 49.43,-66.11c36.15,-43.75 77.23,-86.59 126.34,-117.37c-2.89,-0.71 -5.73,-1.43 -8.62,-2.14c52,78.01 74.55,175.63 54.95,266.76c-9.1,42.63 -29.83,83.01 -56.88,117.93c-27.69,35.74 -67.32,60.75 -114.83,61.37c-8.14,0.1 -8.14,12.1 0,12c99.14,-1.28 161.21,-98.64 182.2,-180.93c24.37,-95.37 0.11,-201.2 -54.58,-283.2c-1.77,-2.65 -5.68,-3.98 -8.62,-2.14c-51.36,32.11 -93.67,76.63 -131.48,122.38c-18.21,22 -35.94,44.83 -50.99,68.97c-15.42,24.66 -22.76,50.95 -23.08,79.59c-0.05,7.76 12.59,7.76 12.64,0l0,0z" fill="#231F20" id="svg_215"/>
   </g>
   <g id="svg_216">
    <path d="m666.64,342.47c-68.71,51 -91.64,141.98 -34.38,207.53c48.15,55.09 125.97,53.56 192.65,30.07c-1.87,-6.38 -3.7,-12.76 -5.46,-19.15c-19.01,-76.02 -19.17,-162.81 -49.17,-235.36c-35.24,-8.58 -73.05,-5.51 -103.63,16.9z" fill="#444444" id="svg_217"/>
    <path d="m662.19,338.23c-62.02,46.97 -89.98,129.47 -48.36,197.43c44.56,72.75 137.8,76.12 212.78,50.24c3.21,-1.12 5.36,-4.08 4.39,-7.4c-18.75,-64.12 -22.01,-130.85 -36.53,-195.79c-3.59,-16.03 -8.14,-31.86 -13.71,-47.38c-1.5,-4.24 -2.84,-12.46 -7.34,-14.96c-4.98,-2.81 -13.28,-3.11 -18.96,-3.83c-32.51,-4.08 -64.43,2.04 -90.99,20.78c-6.48,4.54 -0.21,14.96 6.37,10.36c29.19,-20.52 64.06,-24.3 98.76,-16.29c-1.5,-1.43 -2.95,-2.81 -4.39,-4.24c32.99,81.48 30.15,170.98 54.63,254.5c1.45,-2.45 2.95,-4.9 4.39,-7.35c-70.96,24.51 -154.84,22.51 -198.48,-44.72c-40.6,-62.49 -10.02,-140.19 46.38,-182.87c6.32,-4.8 -2.62,-13.22 -8.94,-8.47z" fill="#231F20" id="svg_218"/>
   </g>
   <g id="svg_219">
    <path d="m824.9,580.07c-66.68,23.48 -144.5,25.02 -192.65,-30.07c-57.25,-65.55 -34.33,-156.53 34.38,-207.53c30.58,-22.41 68.39,-25.48 103.63,-16.9c-0.16,-0.41 -0.32,-0.87 -0.48,-1.28c-45.85,-97.05 -170.69,-123.86 -271.97,-116.4c-122.65,9.09 -200.09,46.46 -239.83,160.1c-34.38,98.28 -72.57,196.56 -103.15,294.89c-30.53,98.28 -34.33,200.23 26.78,291.26c53.45,83.73 145.09,141.98 248.24,156.53c171.87,21.85 431.57,-21.85 454.49,-218.46c10.77,-106.24 -29.19,-209.27 -59.45,-312.14z" fill="#FFFFFF" id="svg_220"/>
    <path d="m823.24,574.3c-40.65,14.04 -85.05,20.83 -127.25,9.14c-43.65,-12.1 -75.73,-48.19 -86.5,-89.55c-10.34,-39.52 2.95,-81.07 27.15,-113.49c13.87,-18.63 32.78,-35.13 54.52,-44.88c23.99,-10.77 52.27,-9.96 77.44,-4.14c4.28,0.97 9.48,-2.91 7.77,-7.4c-18.16,-46.46 -64.27,-80.97 -110.86,-99.4c-50.77,-20.01 -106.74,-26.14 -161.32,-23.13c-50.93,2.81 -103.42,11.54 -148.57,35.18c-43.27,22.67 -73.64,60.35 -93.03,102.98c-14.46,31.76 -24.37,65.6 -36.21,98.28c-13.44,37.22 -27.05,74.39 -40.22,111.71c-24.1,68.26 -50.5,137.44 -57.57,209.58c-6.53,66.42 7.07,133 42.74,190.58c31.81,51.41 76.32,93.99 130.25,124.27c91.69,51.46 204.27,55.44 307.26,41.05c91.05,-12.76 186.92,-47.02 242.35,-120.74c37.12,-49.47 44.24,-109.82 40.06,-169.04c-6,-84.65 -36.31,-165.72 -60.25,-246.79c-2.2,-7.45 -14.35,-4.29 -12.16,3.22c21.58,73.16 47.83,145.71 57.57,221.42c7.44,57.9 5.14,118.19 -25.81,169.81c-48.58,81.02 -150.5,116.35 -242.13,130.09c-107.49,16.08 -223.39,8.68 -316.58,-48.86c-56.18,-34.67 -100.96,-86.08 -127.9,-144.33c-29.94,-64.53 -29.08,-137.49 -13.87,-205.34c8.14,-36.3 20.73,-71.78 32.72,-107.06c12.64,-37.37 26.08,-74.54 39.53,-111.65c13.44,-37.22 26.99,-74.39 40.11,-111.71c9.16,-26.04 20.57,-50.95 37.06,-73.57c28.87,-39.52 72.73,-63 120.77,-75.1c53.93,-13.53 112.79,-16.44 167.9,-8.63c68.55,9.75 149.91,43.55 175.99,110.38c2.57,-2.45 5.14,-4.9 7.71,-7.35c-26.03,-6.02 -52.59,-6.38 -78.14,1.84c-24.26,7.81 -44.24,24.97 -60.47,43.34c-29.99,34 -44.56,78.47 -37.97,122.53c6.75,44.67 40.38,86.08 84.19,103.03c47.29,18.23 100.26,11.54 147.07,-4.65c7.55,-2.65 4.28,-14.24 -3.37,-11.59z" fill="#231F20" id="svg_221"/>
   </g>
   <g id="svg_222">
    <path d="m571.14,888.59c64.97,7.3 30.58,72.8 -3.8,98.28c-38.19,25.53 -91.64,40.08 -137.48,21.85c-35.88,-14.24 -103.58,-64.28 -55.7,-104.25c31.44,-26.24 157.94,-18.99 196.99,-15.88z" fill="#232323" id="svg_223"/>
    <path d="m569.48,894.41c23.46,3.06 36.31,15.27 30.1,38.19c-5.41,19.71 -21.1,39.77 -38.62,51.21c-29.03,18.94 -64.48,29.3 -99.67,26.45c-28.28,-2.35 -54.79,-18.02 -74.98,-36.25c-19.44,-17.56 -31.65,-41.97 -10.39,-62.9c13.93,-13.68 39.9,-15.62 58.49,-17.51c45.2,-4.59 91.53,-2.55 136.73,1.02c8.14,0.61 8.09,-11.39 0,-12.05c-45.31,-3.57 -91.37,-5.21 -136.73,-0.97c-37.12,3.47 -91.69,16.44 -81.84,63.66c4.55,21.75 25.23,39.06 42.9,51.56c21.8,15.42 46.65,24.61 73.86,25.99c53.24,2.65 110.44,-24.91 135.34,-70.25c7.34,-13.38 12.21,-29.46 7.5,-44.31c-5.14,-16.49 -23.03,-23.33 -39.31,-25.48c-7.98,-1.02 -11.41,10.57 -3.37,11.64z" fill="#231F20" id="svg_224"/>
   </g>
   <path d="m673.65,440.18c-7.55,7.86 -8.41,17.72 -5.46,27.67c0.75,2.45 3.32,4.65 6.11,4.44c17.41,-1.28 21.69,-19.4 17.51,-33.08c-1.55,-5.11 -8.62,-5.87 -11.51,-1.43c-10.6,16.29 -6.16,40.23 15.21,45.23c4.02,0.92 7.93,-1.84 7.98,-5.82c0.21,-16.03 2.79,-31.45 -9.48,-44.31c-1.93,-1.99 -5.25,-2.2 -7.61,-0.92c-14.73,7.71 -17.19,25.53 -12.85,39.72c3.86,12.46 17.25,21.8 28.12,9.75c5.3,-5.82 -3.59,-14.35 -8.94,-8.47c-5.09,5.67 -7.12,-4.34 -8.03,-8.47c-1.77,-8.02 0.05,-17.92 8.09,-22.11c-2.57,-0.36 -5.14,-0.66 -7.66,-0.97c9.32,9.75 5.94,23.79 5.78,35.79c2.68,-1.89 5.3,-3.83 7.98,-5.77c-13.44,-3.17 -13.98,-17.87 -7.71,-27.57c-3.8,-0.51 -7.66,-0.97 -11.51,-1.43c1.55,5 2.84,17.26 -5.36,17.87c2.04,1.48 4.07,2.91 6.05,4.39c-1.66,-5.67 -2.2,-11.39 2.2,-15.98c5.46,-5.77 -3.43,-14.3 -8.89,-8.53l0,0z" fill="#231F20" id="svg_225"/>
   <path d="m345.83,442.07c-3.8,0 -7.66,0 -11.46,0c-3.43,0 -6.32,2.71 -6.32,6.02c0,7.25 0,14.55 0,21.8c0,2.09 1.23,4.19 3.16,5.21c8.62,4.49 17.73,6.89 26.99,2.86c7.55,-3.32 11.25,-12 12.85,-19.2c0.96,-4.49 1.18,-9.14 1.07,-13.73c-0.16,-3.62 0.21,-11.28 -4.02,-13.07c-10.5,-4.49 -21.74,-3.93 -31.44,2.2c-9.32,5.92 -12.05,14.75 -12.75,24.81c-0.48,6.74 1.5,14.81 9.05,17c6.91,2.04 13.01,-3.83 16.66,-8.53c5.73,-7.4 7.44,-17.72 6.32,-26.65c-0.59,-4.8 -6.59,-8.47 -10.77,-4.24c-8.46,8.58 -9.48,18.38 -9.48,29.71c4.23,0 8.41,0 12.64,0c0,-3.62 0,-7.25 0,-10.93c0,-7.76 -12.64,-7.76 -12.64,0c0,3.62 0,7.3 0,10.93c0,7.76 12.64,7.76 12.64,0c0,-3.62 0,-7.25 0,-10.93c0,-7.76 -12.64,-7.76 -12.64,0c0,3.62 0,7.3 0,10.93c0,7.76 12.64,7.76 12.64,0c0,-7.86 -0.21,-15.16 5.78,-21.24c-3.59,-1.43 -7.18,-2.81 -10.77,-4.24c0.8,6.48 0.05,12.71 -3.27,18.53c-0.86,1.53 -2.09,3.22 -3.53,4.29c-2.41,1.74 -0.11,-0.15 0.59,1.43c-2.36,-5.41 -0.48,-13.99 3.37,-18.23c5.09,-5.67 14.14,-7.5 21.21,-4.49c-0.96,-1.17 -1.93,-2.4 -2.89,-3.57c1.23,7.5 1.39,16.13 -1.93,23.18c-3.96,8.53 -12.1,6.53 -19.33,2.81c1.02,1.74 2.09,3.42 3.11,5.16c0,-7.25 0,-14.55 0,-21.8c-2.09,1.99 -4.18,3.98 -6.32,5.97c3.86,0 7.66,0 11.46,0c8.14,0 8.14,-12 0,-12l0,0z" fill="#231F20" id="svg_226"/>
  </g>
 </g>
</svg>