<?xml version="1.0"?>
<svg width="500" height="500" xmlns="http://www.w3.org/2000/svg" xmlns:svg="http://www.w3.org/2000/svg" enable-background="new 0 0 500 500" version="1.1" xml:space="preserve">
 <g class="layer">
  <title>Layer 1</title>
  <g id="svg_7">
   <path d="m27.73,98.12l16.58,18.14l1.85,0l17.16,-18.14l16.57,18.14l1.85,0l17.16,-18.14l16.53,18.09c0.1,-2.32 3.61,-93.25 -58.17,-93.25c-25.31,0 -47,16.5 -47,93.3l0.33,0l17.16,-18.14z" fill="#A4BAB9" id="svg_8"/>
   <path d="m57.25,22.95c21.27,0 45.61,18.25 45.61,66.9s0,244.77 0,288.87c0,44.09 25.84,66.9 51.68,66.9c25.85,0 281.27,0 281.27,0s0,-305.59 0,-352.72c0,-47.13 -25.85,-69.93 -65.38,-69.93c-39.53,-0.01 -313.18,-0.01 -313.18,-0.01z" fill="#DDE8E8" id="svg_9"/>
   <text font-family="&#x27;CaviarDreams&#x27;" font-size="14.3px" id="svg_10" letter-spacing="1" transform="matrix(1.27547 0 0 1.27547 203.506 95.3607)" x="0.82" y="-9.9">ORDER 79274</text>
   <text font-family="&#x27;CaviarDreams-Bold&#x27;" font-size="40.8px" id="svg_11" letter-spacing="4" transform="matrix(1.27547 0 0 1.27547 151.055 162.412)" x="0.82" y="-9.9">RECEIPT</text>
   <text font-family="&#x27;CaviarDreams-Bold&#x27;" font-size="18.32px" id="svg_12" letter-spacing="1" transform="matrix(1.27547 0 0 1.27547 133.518 328.428)" x="0.82" y="-9.9">TOTAL</text>
   <line fill="none" id="svg_13" stroke="#000000" stroke-miterlimit="10" stroke-width="1.19" x1="134.57" x2="405.15" y1="98.62" y2="98.62"/>
   <line fill="none" id="svg_14" stroke="#000000" stroke-miterlimit="10" stroke-width="1.19" x1="134.57" x2="405.15" y1="161.61" y2="161.61"/>
   <line fill="none" id="svg_15" stroke="#000000" stroke-miterlimit="10" stroke-width="1.19" x1="134.57" x2="405.15" y1="285.04" y2="285.04"/>
   <rect fill="#B6C1BF" height="11.76" id="svg_16" width="140.16" x="134.57" y="176.31"/>
   <rect fill="#B6C1BF" height="11.76" id="svg_17" width="140.16" x="134.57" y="196.69"/>
   <rect fill="#B6C1BF" height="11.76" id="svg_18" width="140.16" x="134.57" y="217.07"/>
   <rect fill="#B6C1BF" height="11.76" id="svg_19" width="140.16" x="134.57" y="237.45"/>
   <rect fill="#B6C1BF" height="11.76" id="svg_20" width="140.16" x="134.57" y="257.82"/>
   <rect fill="#B6C1BF" height="11.76" id="svg_21" width="49.05" x="356.1" y="176.31"/>
   <rect fill="#B6C1BF" height="11.76" id="svg_22" width="49.05" x="356.1" y="196.69"/>
   <rect fill="#B6C1BF" height="11.76" id="svg_23" width="49.05" x="356.1" y="217.07"/>
   <rect fill="#B6C1BF" height="11.76" id="svg_24" width="49.05" x="356.1" y="237.45"/>
   <rect fill="#B6C1BF" height="11.76" id="svg_25" width="49.05" x="356.1" y="257.82"/>
   <rect fill="#B6C1BF" height="11.76" id="svg_26" width="49.05" x="356.1" y="304.67"/>
   <g id="svg_27">
    <path d="m288.36,186.25c0,1.33 -1.07,2.4 -2.4,2.4s-2.39,-1.07 -2.39,-2.4c0,-1.31 1.07,-2.39 2.39,-2.39s2.4,1.07 2.4,2.39z" id="svg_28"/>
    <path d="m300.1,186.25c0,1.33 -1.07,2.4 -2.4,2.4c-1.31,0 -2.39,-1.07 -2.39,-2.4c0,-1.31 1.07,-2.39 2.39,-2.39c1.33,0 2.4,1.07 2.4,2.39z" id="svg_29"/>
    <path d="m311.83,186.25c0,1.33 -1.07,2.4 -2.4,2.4c-1.33,0 -2.4,-1.07 -2.4,-2.4c0,-1.31 1.07,-2.39 2.4,-2.39c1.33,0 2.4,1.07 2.4,2.39z" id="svg_30"/>
    <path d="m323.55,186.25c0,1.33 -1.07,2.4 -2.39,2.4c-1.33,0 -2.4,-1.07 -2.4,-2.4c0,-1.31 1.07,-2.39 2.4,-2.39c1.31,0 2.39,1.07 2.39,2.39z" id="svg_31"/>
    <path d="m347.02,186.25c0,1.33 -1.07,2.4 -2.4,2.4s-2.39,-1.07 -2.39,-2.4c0,-1.31 1.07,-2.39 2.39,-2.39s2.4,1.07 2.4,2.39z" id="svg_32"/>
    <path d="m335.29,186.25c0,1.33 -1.07,2.4 -2.39,2.4c-1.33,0 -2.4,-1.07 -2.4,-2.4c0,-1.31 1.07,-2.39 2.4,-2.39c1.31,0 2.39,1.07 2.39,2.39z" id="svg_33"/>
   </g>
   <g id="svg_34">
    <path d="m288.36,206.49c0,1.31 -1.07,2.39 -2.4,2.39s-2.39,-1.07 -2.39,-2.39c0,-1.33 1.07,-2.4 2.39,-2.4s2.4,1.07 2.4,2.4z" id="svg_35"/>
    <path d="m300.1,206.49c0,1.31 -1.07,2.39 -2.4,2.39c-1.31,0 -2.39,-1.07 -2.39,-2.39c0,-1.33 1.07,-2.4 2.39,-2.4c1.33,0 2.4,1.07 2.4,2.4z" id="svg_36"/>
    <path d="m311.83,206.49c0,1.31 -1.07,2.39 -2.4,2.39c-1.33,0 -2.4,-1.07 -2.4,-2.39c0,-1.33 1.07,-2.4 2.4,-2.4c1.33,0 2.4,1.07 2.4,2.4z" id="svg_37"/>
    <path d="m323.55,206.49c0,1.31 -1.07,2.39 -2.39,2.39c-1.33,0 -2.4,-1.07 -2.4,-2.39c0,-1.33 1.07,-2.4 2.4,-2.4c1.31,0 2.39,1.07 2.39,2.4z" id="svg_38"/>
    <path d="m347.02,206.49c0,1.31 -1.07,2.39 -2.4,2.39s-2.39,-1.07 -2.39,-2.39c0,-1.33 1.07,-2.4 2.39,-2.4s2.4,1.07 2.4,2.4z" id="svg_39"/>
    <path d="m335.29,206.49c0,1.31 -1.07,2.39 -2.39,2.39c-1.33,0 -2.4,-1.07 -2.4,-2.39c0,-1.33 1.07,-2.4 2.4,-2.4c1.31,0 2.39,1.07 2.39,2.4z" id="svg_40"/>
   </g>
   <g id="svg_41">
    <path d="m227.31,313.42c0,1.31 -1.07,2.39 -2.39,2.39c-1.33,0 -2.4,-1.07 -2.4,-2.39s1.07,-2.4 2.4,-2.4c1.31,0 2.39,1.07 2.39,2.4z" id="svg_42"/>
    <path d="m239.04,313.42c0,1.31 -1.07,2.39 -2.4,2.39s-2.39,-1.07 -2.39,-2.39s1.07,-2.4 2.39,-2.4s2.4,1.07 2.4,2.4z" id="svg_43"/>
    <path d="m250.77,313.42c0,1.31 -1.07,2.39 -2.4,2.39c-1.31,0 -2.39,-1.07 -2.39,-2.39s1.07,-2.4 2.39,-2.4c1.33,0 2.4,1.07 2.4,2.4z" id="svg_44"/>
    <path d="m262.51,313.42c0,1.31 -1.07,2.39 -2.4,2.39c-1.31,0 -2.39,-1.07 -2.39,-2.39s1.07,-2.4 2.39,-2.4c1.33,0 2.4,1.07 2.4,2.4z" id="svg_45"/>
    <path d="m285.96,313.42c0,1.31 -1.07,2.39 -2.39,2.39c-1.33,0 -2.4,-1.07 -2.4,-2.39s1.07,-2.4 2.4,-2.4c1.31,0 2.39,1.07 2.39,2.4z" id="svg_46"/>
    <path d="m274.24,313.42c0,1.31 -1.07,2.39 -2.4,2.39s-2.4,-1.07 -2.4,-2.39s1.07,-2.4 2.4,-2.4s2.4,1.07 2.4,2.4z" id="svg_47"/>
   </g>
   <g id="svg_48">
    <path d="m300.1,313.42c0,1.31 -1.07,2.39 -2.4,2.39c-1.31,0 -2.39,-1.07 -2.39,-2.39s1.07,-2.4 2.39,-2.4c1.33,0 2.4,1.07 2.4,2.4z" id="svg_49"/>
    <path d="m311.83,313.42c0,1.31 -1.07,2.39 -2.4,2.39c-1.33,0 -2.4,-1.07 -2.4,-2.39s1.07,-2.4 2.4,-2.4c1.33,0 2.4,1.07 2.4,2.4z" id="svg_50"/>
    <path d="m323.55,313.42c0,1.31 -1.07,2.39 -2.39,2.39c-1.33,0 -2.4,-1.07 -2.4,-2.39s1.07,-2.4 2.4,-2.4c1.31,0 2.39,1.07 2.39,2.4z" id="svg_51"/>
    <path d="m335.29,313.42c0,1.31 -1.07,2.39 -2.39,2.39c-1.33,0 -2.4,-1.07 -2.4,-2.39s1.07,-2.4 2.4,-2.4c1.31,0 2.39,1.07 2.39,2.4z" id="svg_52"/>
    <path d="m347.02,313.42c0,1.31 -1.07,2.39 -2.4,2.39s-2.39,-1.07 -2.39,-2.39s1.07,-2.4 2.39,-2.4s2.4,1.07 2.4,2.4z" id="svg_53"/>
   </g>
   <g id="svg_54">
    <path d="m288.36,226.72c0,1.33 -1.07,2.4 -2.4,2.4s-2.39,-1.07 -2.39,-2.4c0,-1.31 1.07,-2.39 2.39,-2.39s2.4,1.07 2.4,2.39z" id="svg_55"/>
    <path d="m300.1,226.72c0,1.33 -1.07,2.4 -2.4,2.4c-1.31,0 -2.39,-1.07 -2.39,-2.4c0,-1.31 1.07,-2.39 2.39,-2.39c1.33,0 2.4,1.07 2.4,2.39z" id="svg_56"/>
    <path d="m311.83,226.72c0,1.33 -1.07,2.4 -2.4,2.4c-1.33,0 -2.4,-1.07 -2.4,-2.4c0,-1.31 1.07,-2.39 2.4,-2.39c1.33,0 2.4,1.07 2.4,2.39z" id="svg_57"/>
    <path d="m323.55,226.72c0,1.33 -1.07,2.4 -2.39,2.4c-1.33,0 -2.4,-1.07 -2.4,-2.4c0,-1.31 1.07,-2.39 2.4,-2.39c1.31,0 2.39,1.07 2.39,2.39z" id="svg_58"/>
    <path d="m347.02,226.72c0,1.33 -1.07,2.4 -2.4,2.4s-2.39,-1.07 -2.39,-2.4c0,-1.31 1.07,-2.39 2.39,-2.39s2.4,1.07 2.4,2.39z" id="svg_59"/>
    <path d="m335.29,226.72c0,1.33 -1.07,2.4 -2.39,2.4c-1.33,0 -2.4,-1.07 -2.4,-2.4c0,-1.31 1.07,-2.39 2.4,-2.39c1.31,0 2.39,1.07 2.39,2.39z" id="svg_60"/>
   </g>
   <g id="svg_61">
    <path d="m288.36,246.96c0,1.31 -1.07,2.39 -2.4,2.39s-2.39,-1.07 -2.39,-2.39s1.07,-2.4 2.39,-2.4s2.4,1.07 2.4,2.4z" id="svg_62"/>
    <path d="m300.1,246.96c0,1.31 -1.07,2.39 -2.4,2.39c-1.31,0 -2.39,-1.07 -2.39,-2.39s1.07,-2.4 2.39,-2.4c1.33,0 2.4,1.07 2.4,2.4z" id="svg_63"/>
    <path d="m311.83,246.96c0,1.31 -1.07,2.39 -2.4,2.39c-1.33,0 -2.4,-1.07 -2.4,-2.39s1.07,-2.4 2.4,-2.4c1.33,0 2.4,1.07 2.4,2.4z" id="svg_64"/>
    <path d="m323.55,246.96c0,1.31 -1.07,2.39 -2.39,2.39c-1.33,0 -2.4,-1.07 -2.4,-2.39s1.07,-2.4 2.4,-2.4c1.31,0 2.39,1.07 2.39,2.4z" id="svg_65"/>
    <path d="m347.02,246.96c0,1.31 -1.07,2.39 -2.4,2.39s-2.39,-1.07 -2.39,-2.39s1.07,-2.4 2.39,-2.4s2.4,1.07 2.4,2.4z" id="svg_66"/>
    <path d="m335.29,246.96c0,1.31 -1.07,2.39 -2.39,2.39c-1.33,0 -2.4,-1.07 -2.4,-2.39s1.07,-2.4 2.4,-2.4c1.31,0 2.39,1.07 2.39,2.4z" id="svg_67"/>
   </g>
   <g id="svg_68">
    <path d="m288.36,267.19c0,1.33 -1.07,2.4 -2.4,2.4s-2.39,-1.07 -2.39,-2.4s1.07,-2.4 2.39,-2.4s2.4,1.07 2.4,2.4z" id="svg_69"/>
    <path d="m300.1,267.19c0,1.33 -1.07,2.4 -2.4,2.4c-1.31,0 -2.39,-1.07 -2.39,-2.4s1.07,-2.4 2.39,-2.4c1.33,0.01 2.4,1.07 2.4,2.4z" id="svg_70"/>
    <path d="m311.83,267.19c0,1.33 -1.07,2.4 -2.4,2.4c-1.33,0 -2.4,-1.07 -2.4,-2.4s1.07,-2.4 2.4,-2.4c1.33,0.01 2.4,1.07 2.4,2.4z" id="svg_71"/>
    <path d="m323.55,267.19c0,1.33 -1.07,2.4 -2.39,2.4c-1.33,0 -2.4,-1.07 -2.4,-2.4s1.07,-2.4 2.4,-2.4c1.31,0.01 2.39,1.07 2.39,2.4z" id="svg_72"/>
    <path d="m347.02,267.19c0,1.33 -1.07,2.4 -2.4,2.4s-2.39,-1.07 -2.39,-2.4s1.07,-2.4 2.39,-2.4s2.4,1.07 2.4,2.4z" id="svg_73"/>
    <path d="m335.29,267.19c0,1.33 -1.07,2.4 -2.39,2.4c-1.33,0 -2.4,-1.07 -2.4,-2.4s1.07,-2.4 2.4,-2.4c1.31,0.01 2.39,1.07 2.39,2.4z" id="svg_74"/>
   </g>
   <g id="svg_75">
    <g id="svg_76">
     <rect height="61.34" id="svg_77" width="9.45" x="200.07" y="331.5"/>
     <rect height="61.34" id="svg_78" width="5.77" x="231.17" y="331.5"/>
     <rect height="61.34" id="svg_79" width="1.86" x="224.28" y="331.5"/>
     <rect height="61.34" id="svg_80" width="1.86" x="227.16" y="331.5"/>
     <rect height="61.34" id="svg_81" width="12.35" x="210.58" y="331.5"/>
     <rect height="61.34" id="svg_82" width="5.77" x="259.67" y="331.5"/>
     <rect height="61.34" id="svg_83" width="5.77" x="275.41" y="331.5"/>
     <rect height="61.34" id="svg_84" width="2.73" x="267.33" y="331.5"/>
     <rect height="61.34" id="svg_85" width="1.86" x="252.78" y="331.5"/>
     <rect height="61.34" id="svg_86" width="1.86" x="255.66" y="331.5"/>
     <rect height="61.34" id="svg_87" width="1.86" x="271.56" y="331.5"/>
     <rect height="61.34" id="svg_88" width="12.35" x="239.08" y="331.5"/>
    </g>
    <g id="svg_89">
     <rect height="61.34" id="svg_90" width="9.45" x="275.18" y="331.5"/>
     <rect height="61.34" id="svg_91" width="5.77" x="306.27" y="331.5"/>
     <rect height="61.34" id="svg_92" width="1.86" x="299.39" y="331.5"/>
     <rect height="61.34" id="svg_93" width="1.86" x="302.27" y="331.5"/>
     <rect height="61.34" id="svg_94" width="12.35" x="285.69" y="331.5"/>
     <rect height="61.34" id="svg_95" width="5.77" x="334.77" y="331.5"/>
     <rect height="61.34" id="svg_96" width="5.77" x="350.52" y="331.5"/>
     <rect height="61.34" id="svg_97" width="2.73" x="342.43" y="331.5"/>
     <rect height="61.34" id="svg_98" width="1.86" x="327.88" y="331.5"/>
     <rect height="61.34" id="svg_99" width="1.86" x="330.76" y="331.5"/>
     <rect height="61.34" id="svg_100" width="1.86" x="346.66" y="331.5"/>
     <rect height="61.34" id="svg_101" width="12.35" x="314.19" y="331.5"/>
    </g>
   </g>
   <path d="m475.66,385.65l-17.49,-19.13l-18.1,19.13l-17.49,-19.13l-18.1,19.13l-17.49,-19.13l-18.09,19.13l-17.5,-19.13l-18.09,19.13l-17.49,-19.13l-18.1,19.13l-17.49,-19.13l-18.1,19.13l-17.49,-19.13l-18.1,19.13l-18.14,-19.83l-0.73,0c0,49.07 -24.03,79.81 -53.17,79.81c0,0 221.97,0 281.27,0c53.03,0 56.2,-63.86 56.27,-77.33l-16.42,17.36z" fill="#FFFFFF" id="svg_102"/>
  </g>
  <g id="DESIGNED_BY_FREEPIK">
   <g id="svg_103">
    <g id="XMLID_319_">
     <g id="XMLID_338_">
      <path d="m260.1,465.46c-0.43,0.45 -0.8,0.94 -1.1,1.46l-0.47,-0.24c-0.07,-0.3 -0.35,-0.51 -0.66,-0.47c-0.33,0.04 -0.57,0.34 -0.53,0.67c0.04,0.33 0.34,0.57 0.67,0.53c0.07,-0.01 0.13,-0.03 0.19,-0.05l0.45,0.23c-0.25,0.56 -0.43,1.14 -0.54,1.75l0.75,0.13c0.23,-1.31 0.85,-2.51 1.79,-3.48l-0.55,-0.53z" fill="#F9FBFC" id="XMLID_346_"/>
      <path d="m265.59,463.16c-0.17,0 -0.34,0.01 -0.51,0.02l-0.07,-0.63c0.19,-0.14 0.29,-0.38 0.26,-0.64c-0.04,-0.39 -0.4,-0.67 -0.79,-0.63c-0.39,0.05 -0.67,0.4 -0.63,0.8c0.03,0.25 0.19,0.46 0.41,0.56l0.07,0.62c-0.72,0.12 -1.4,0.34 -2.06,0.65l0.33,0.68c0.93,-0.44 1.94,-0.67 2.99,-0.67c0.5,0 0.99,0.05 1.48,0.16l0.16,-0.74c-0.54,-0.12 -1.09,-0.18 -1.64,-0.18z" fill="#F9FBFC" id="XMLID_345_"/>
      <path d="m272.19,465.71c0.34,-0.04 0.57,-0.34 0.53,-0.67c-0.04,-0.33 -0.34,-0.57 -0.67,-0.53c-0.31,0.04 -0.54,0.31 -0.53,0.61l-0.42,0.36c-0.42,-0.43 -0.89,-0.81 -1.41,-1.13l-0.4,0.64c1.13,0.71 2.02,1.72 2.56,2.92l0.69,-0.31c-0.25,-0.55 -0.56,-1.07 -0.94,-1.55l0.4,-0.35c0.06,0.02 0.13,0.02 0.19,0.01z" fill="#F9FBFC" id="XMLID_344_"/>
      <path d="m265.04,473.37c-0.38,0.03 -0.77,0.04 -1.15,0.04c-0.88,0 -1.74,-0.06 -2.48,-0.18c-0.39,-0.06 -0.85,-0.16 -1.27,-0.29c1.05,1.86 3.07,3.12 5.39,3.12c2.85,0 5.26,-1.91 5.95,-4.5c-0.69,0.45 -1.51,0.82 -2.46,1.12c-1.18,0.37 -2.56,0.61 -3.98,0.69z" fill="#F9FBFC" id="XMLID_343_"/>
      <path d="m265.59,464.68c-3.35,0 -6.08,2.67 -6.08,5.94c0,0.43 0.05,0.85 0.14,1.26c0.67,0.49 2.71,0.89 5.35,0.74c2.88,-0.18 5.29,-0.96 6.67,-2.16c-0.01,-0.2 -0.02,-0.39 -0.05,-0.59c-0.38,-2.96 -2.97,-5.19 -6.03,-5.19zm-2.16,6.51c-1.02,0 -1.85,-0.83 -1.85,-1.85c0,-1.02 0.83,-1.85 1.85,-1.85c1.02,0 1.85,0.83 1.85,1.85c0,1.03 -0.83,1.85 -1.85,1.85zm4.74,-0.9c-0.75,0 -1.36,-0.61 -1.36,-1.36s0.61,-1.37 1.36,-1.37c0.75,0 1.36,0.62 1.36,1.37s-0.61,1.36 -1.36,1.36z" fill="#F9FBFC" id="XMLID_339_"/>
     </g>
     <path d="m281.6,466.55c-0.3,-0.12 -0.81,-0.31 -1.39,-0.24c-0.55,0.07 -0.84,0.34 -0.84,1.01l0,0.86l2.23,0l0,1.72l-2.23,0l0,5.45l-1.93,0l0,-5.45l-1.34,0l0,-1.72l1.34,0l0,-0.88c0,-1.68 0.89,-2.79 2.56,-2.79c0.65,0 1.16,0.12 1.59,0.31l0.01,1.73z" fill="#F9FBFC" id="XMLID_336_"/>
     <path d="m286.3,469.88c-0.18,-0.03 -0.36,-0.05 -0.53,-0.05c-0.89,0 -1.51,0.55 -1.51,1.62l0,3.91l-1.93,0l0,-7.18l1.87,0l0,0.79c0.45,-0.67 1.14,-0.98 2.02,-0.98c0.42,0 0.85,0.13 1.1,0.34l-1.02,1.55z" fill="#F9FBFC" id="XMLID_334_"/>
     <path d="m293.96,471.76c0,0.22 -0.01,0.49 -0.03,0.65l-5.09,0c0.21,1.03 0.94,1.49 1.85,1.49c0.62,0 1.29,-0.26 1.81,-0.69l1.13,1.24c-0.81,0.75 -1.85,1.09 -3.06,1.09c-2.19,0 -3.72,-1.5 -3.72,-3.75c0,-2.26 1.48,-3.8 3.63,-3.8c2.06,0 3.48,1.53 3.48,3.77zm-5.11,-0.67l3.18,0c-0.18,-0.92 -0.74,-1.43 -1.57,-1.43c-0.91,-0.01 -1.44,0.54 -1.61,1.43z" fill="#F9FBFC" id="XMLID_331_"/>
     <path d="m301.62,471.76c0,0.22 -0.02,0.49 -0.04,0.65l-5.08,0c0.2,1.03 0.93,1.49 1.84,1.49c0.62,0 1.29,-0.26 1.81,-0.69l1.13,1.24c-0.81,0.75 -1.85,1.09 -3.05,1.09c-2.2,0 -3.73,-1.5 -3.73,-3.75c0,-2.26 1.48,-3.8 3.63,-3.8c2.07,0 3.48,1.53 3.49,3.77zm-5.12,-0.67l3.18,0c-0.18,-0.92 -0.73,-1.43 -1.56,-1.43c-0.91,-0.01 -1.45,0.54 -1.62,1.43z" fill="#F9FBFC" id="XMLID_328_"/>
     <path d="m309.96,471.76c0,2.16 -1.49,3.78 -3.47,3.78c-0.96,0 -1.64,-0.38 -2.11,-0.93l0,3.7l-1.92,0l0,-10.13l1.89,0l0,0.79c0.46,-0.58 1.15,-0.98 2.14,-0.98c1.98,0 3.47,1.62 3.47,3.77zm-5.67,0c0,1.14 0.74,1.98 1.84,1.98c1.14,0 1.85,-0.88 1.85,-1.98c0,-1.09 -0.71,-1.97 -1.85,-1.97c-1.09,0 -1.84,0.84 -1.84,1.97z" fill="#F9FBFC" id="XMLID_325_"/>
     <path d="m313.07,465.84c0,0.69 -0.54,1.22 -1.24,1.22c-0.69,0 -1.23,-0.53 -1.23,-1.22c0,-0.7 0.54,-1.25 1.23,-1.25c0.7,0 1.24,0.55 1.24,1.25zm-0.26,9.51l-1.93,0l0,-7.17l1.93,0l0,7.17z" fill="#F9FBFC" id="XMLID_322_"/>
     <path d="m316.03,470.74l2.7,-2.56l2.37,0l-3.48,3.38l3.5,3.79l-2.37,0l-2.72,-2.9l0,2.9l-1.93,0l0,-10.65l1.93,0l0,6.04z" fill="#F9FBFC" id="XMLID_320_"/>
    </g>
    <g id="svg_104">
     <path d="m184.41,475.29l0,-1.06c-0.52,0.72 -1.39,1.23 -2.38,1.23c-1.85,0 -3.15,-1.4 -3.15,-3.7c0,-2.26 1.28,-3.72 3.15,-3.72c0.95,0 1.81,0.47 2.38,1.24l0,-3.76l1.1,0l0,9.77l-1.1,0zm0,-1.92l0,-3.21c-0.39,-0.61 -1.24,-1.14 -2.12,-1.14c-1.42,0 -2.27,1.17 -2.27,2.74c0,1.56 0.85,2.72 2.27,2.72c0.88,0 1.73,-0.49 2.12,-1.11z" fill="#F9FBFC" id="svg_105"/>
     <path d="m186.93,471.74c0,-2.05 1.47,-3.7 3.49,-3.7c2.14,0 3.4,1.67 3.4,3.79l0,0.28l-5.73,0c0.09,1.33 1.02,2.45 2.55,2.45c0.8,0 1.62,-0.32 2.18,-0.9l0.53,0.72c-0.71,0.7 -1.66,1.09 -2.82,1.09c-2.09,-0.01 -3.6,-1.51 -3.6,-3.73zm3.47,-2.79c-1.51,0 -2.25,1.27 -2.31,2.36l4.64,0c-0.01,-1.06 -0.72,-2.36 -2.33,-2.36z" fill="#F9FBFC" id="svg_106"/>
     <path d="m194.61,474.35l0.57,-0.79c0.47,0.54 1.36,1.01 2.33,1.01c1.08,0 1.67,-0.51 1.67,-1.21c0,-1.72 -4.38,-0.66 -4.38,-3.29c0,-1.09 0.95,-2.03 2.63,-2.03c1.2,0 2.05,0.45 2.63,1.02l-0.52,0.77c-0.42,-0.52 -1.2,-0.9 -2.11,-0.9c-0.96,0 -1.56,0.49 -1.56,1.12c0,1.55 4.38,0.52 4.38,3.28c0,1.18 -0.96,2.13 -2.79,2.13c-1.15,0 -2.14,-0.35 -2.85,-1.11z" fill="#F9FBFC" id="svg_107"/>
     <path d="m201.48,466.47c0,-0.41 0.33,-0.75 0.73,-0.75c0.41,0 0.75,0.34 0.75,0.75c0,0.41 -0.34,0.73 -0.75,0.73c-0.4,0 -0.73,-0.32 -0.73,-0.73zm0.19,8.82l0,-7.08l1.1,0l0,7.08l-1.1,0z" fill="#F9FBFC" id="svg_108"/>
     <path d="m204.58,477.11l0.56,-0.82c0.58,0.7 1.29,0.96 2.3,0.96c1.17,0 2.27,-0.57 2.27,-2.12l0,-1.01c-0.51,0.71 -1.38,1.26 -2.37,1.26c-1.85,0 -3.15,-1.38 -3.15,-3.67c0,-2.27 1.29,-3.67 3.15,-3.67c0.95,0 1.8,0.47 2.37,1.24l0,-1.07l1.1,0l0,6.87c0,2.35 -1.64,3.08 -3.37,3.08c-1.2,0 -2.02,-0.23 -2.86,-1.05zm5.13,-3.86l0,-3.09c-0.38,-0.61 -1.23,-1.14 -2.11,-1.14c-1.42,0 -2.27,1.13 -2.27,2.69c0,1.56 0.85,2.7 2.27,2.7c0.88,0 1.73,-0.54 2.11,-1.16z" fill="#F9FBFC" id="svg_109"/>
     <path d="m217.41,475.29l0,-4.63c0,-1.25 -0.63,-1.64 -1.58,-1.64c-0.86,0 -1.68,0.53 -2.09,1.1l0,5.17l-1.1,0l0,-7.08l1.1,0l0,1.03c0.49,-0.59 1.46,-1.2 2.52,-1.2c1.48,0 2.25,0.74 2.25,2.28l0,4.97l-1.1,0z" fill="#F9FBFC" id="svg_110"/>
     <path d="m219.93,471.74c0,-2.05 1.47,-3.7 3.49,-3.7c2.14,0 3.4,1.67 3.4,3.79l0,0.28l-5.73,0c0.09,1.33 1.02,2.45 2.55,2.45c0.8,0 1.62,-0.32 2.18,-0.9l0.53,0.72c-0.71,0.7 -1.66,1.09 -2.81,1.09c-2.1,-0.01 -3.61,-1.51 -3.61,-3.73zm3.47,-2.79c-1.5,0 -2.25,1.27 -2.31,2.36l4.64,0c-0.01,-1.06 -0.72,-2.36 -2.33,-2.36z" fill="#F9FBFC" id="svg_111"/>
     <path d="m233.35,475.29l0,-1.06c-0.53,0.72 -1.39,1.23 -2.39,1.23c-1.84,0 -3.15,-1.4 -3.15,-3.7c0,-2.26 1.29,-3.72 3.15,-3.72c0.95,0 1.82,0.47 2.39,1.24l0,-3.76l1.1,0l0,9.77l-1.1,0zm0,-1.92l0,-3.21c-0.4,-0.61 -1.25,-1.14 -2.12,-1.14c-1.42,0 -2.27,1.17 -2.27,2.74c0,1.56 0.84,2.72 2.27,2.72c0.87,0 1.72,-0.49 2.12,-1.11z" fill="#F9FBFC" id="svg_112"/>
     <path d="m239.69,475.29l0,-9.77l1.1,0l0,3.76c0.57,-0.77 1.42,-1.24 2.39,-1.24c1.84,0 3.15,1.46 3.15,3.72c0,2.3 -1.31,3.71 -3.15,3.71c-1,0 -1.86,-0.52 -2.39,-1.23l0,1.05l-1.1,0zm3.21,-0.81c1.44,0 2.29,-1.15 2.29,-2.72c0,-1.57 -0.85,-2.74 -2.29,-2.74c-0.86,0 -1.73,0.53 -2.11,1.14l0,3.21c0.38,0.62 1.25,1.11 2.11,1.11z" fill="#F9FBFC" id="svg_113"/>
     <path d="m247.53,477.06c0.16,0.07 0.42,0.12 0.6,0.12c0.48,0 0.8,-0.16 1.05,-0.75l0.47,-1.07l-2.96,-7.15l1.19,0l2.36,5.8l2.34,-5.8l1.2,0l-3.54,8.51c-0.43,1.03 -1.14,1.42 -2.08,1.44c-0.24,0 -0.6,-0.05 -0.81,-0.1l0.18,-1z" fill="#F9FBFC" id="svg_114"/>
    </g>
   </g>
  </g>
 </g>
</svg>