<?xml version="1.0"?>
<svg width="500" height="500" xmlns="http://www.w3.org/2000/svg" xmlns:svg="http://www.w3.org/2000/svg" enable-background="new 0 0 820 312" version="1.1" xml:space="preserve">
 <g class="layer">
  <title>Layer 1</title>
  <g id="svg_136">
   <g id="svg_6">
    <g id="svg_7">
     <g id="svg_8">
      <path d="m325.97,135.22l-73.85,25.71c-1.58,0.55 -3.09,-0.98 -2.54,-2.56l0,0c3.34,-9.48 10.81,-16.9 20.29,-20.2l56.95,-19.85l-0.85,16.9z" fill="#7f7f7f" id="svg_9"/>
     </g>
    </g>
    <path d="m329.46,138.39c-3.09,-3.06 -3.11,-8.08 -0.05,-11.15c3.06,-3.09 8.06,-3.11 11.15,-0.05c3.08,3.06 3.11,8.06 0.05,11.15c-3.06,3.08 -8.08,3.11 -11.15,0.05m-6.58,6.63c6.76,6.69 17.67,6.64 24.36,-0.11c6.69,-6.74 6.64,-17.65 -0.11,-24.34c-6.74,-6.69 -17.65,-6.64 -24.34,0.1c-6.69,6.76 -6.64,17.67 0.1,24.36l0,0z" fill="#7f7f7f" id="svg_10"/>
    <g id="svg_11">
     <path d="m302.4,111.84l-25.07,74.08c-0.54,1.58 0.99,3.09 2.57,2.52l0,0c9.44,-3.44 16.82,-10.96 20.04,-20.48l19.34,-57.1l-16.88,0.98z" fill="#7f7f7f" id="svg_12"/>
    </g>
    <g id="svg_13">
     <path d="m298.88,135.35c-0.99,1.09 -0.9,2.78 0.21,3.76s2.8,0.88 3.78,-0.23c0.98,-1.09 0.88,-2.78 -0.23,-3.76c-1.09,-0.98 -2.78,-0.88 -3.76,0.23z" fill="#7f7f7f" id="svg_14" stroke="#28185E" stroke-linecap="round" stroke-miterlimit="10" stroke-width="1.5"/>
    </g>
    <path d="m299.19,108.38c-3.08,-3.06 -3.11,-8.06 -0.03,-11.15c3.06,-3.08 8.06,-3.11 11.15,-0.05c3.08,3.06 3.09,8.08 0.03,11.15c-3.06,3.09 -8.06,3.11 -11.15,0.05m-6.56,6.63c6.76,6.69 17.65,6.64 24.34,-0.1c6.71,-6.76 6.66,-17.65 -0.1,-24.34c-6.76,-6.71 -17.65,-6.66 -24.34,0.1c-6.71,6.76 -6.66,17.65 0.1,24.34l0,0z" fill="#7f7f7f" id="svg_15"/>
   </g>
   <path d="m200.6,47.62l-6.63,-2.43l-2.43,-6.63c-0.63,-1.74 -3.09,-1.74 -3.73,0l-2.43,6.63l-6.63,2.43c-1.74,0.63 -1.74,3.09 0,3.73l6.63,2.44l2.43,6.63c0.63,1.73 3.09,1.73 3.73,0l2.43,-6.63l6.63,-2.44c1.74,-0.63 1.74,-3.09 0,-3.73z" fill="#FFFFFF" id="svg_16"/>
   <path d="m356.46,279.76l-6.63,-2.44l-2.43,-6.63c-0.63,-1.73 -3.09,-1.73 -3.73,0l-2.43,6.63l-6.63,2.44c-1.74,0.63 -1.74,3.08 0,3.71l6.63,2.44l2.43,6.63c0.63,1.73 3.09,1.73 3.73,0l2.43,-6.63l6.63,-2.44c1.74,-0.63 1.74,-3.08 0,-3.71z" fill="#FFFFFF" id="svg_17"/>
   <g id="svg_19">
    <path d="m275.3,416.63l-0.59,-43.36c-0.08,-0.05 -0.1,-0.05 -0.18,-0.1c-5.65,3.6 -12.99,4.74 -19.41,5.63c-9.13,1.27 -18.25,2.15 -27.34,3.68c-2.46,0.41 -4.93,0.85 -7.41,1.27l9.57,61.82l58.64,0l0,-3c0,-5.18 -2.47,-10.03 -6.66,-13.09l0,0c-4.12,-3 -6.58,-7.77 -6.64,-12.86z" fill="#F0C7AA" id="svg_20"/>
    <path d="m147.69,429.44l0,0c-4.17,-3.01 -6.63,-7.83 -6.64,-12.96l-0.07,-29.57c-17.76,5.68 -37.35,3.11 -55.93,5.62l10.63,53.09l58.63,-0.16l0,-3.06c-0.02,-5.13 -2.47,-9.95 -6.63,-12.96z" fill="#F0C7AA" id="svg_21"/>
    <path d="m97.89,390.52c-2.05,-0.21 -4.04,-0.41 -5.93,-0.57c-14.78,-1.22 -32.03,-1.11 -45.98,-7.49l3.45,63.12l58.64,0l0,-3.48c0,-4.87 -2.33,-9.44 -6.25,-12.31l0,0c-4.31,-3.14 -6.66,-8.32 -6.2,-13.63l2.26,-25.64z" fill="#F8E8DB" id="svg_22"/>
    <path d="m25.99,327.78c0.42,-0.57 0.86,-1.11 1.32,-1.64c7.23,-8.34 19.96,-9.12 29.58,-3.71c6.04,3.39 14.25,7.16 14.25,7.16l109.87,-21.98l91.6,18.38c4.56,22.76 12.99,44.68 -0.72,66.35c-17,26.88 -48.83,26 -77.01,25.94c-18.74,-0.07 -37.46,-0.11 -56.19,-0.16c-14.38,-0.03 -28.74,-0.08 -43.11,-0.11l-44.17,9.7l-10.52,-65.03c-4.07,-1.55 -7.9,-3.4 -11.48,-5.52c-9.23,-5.5 -9.83,-20.53 -3.52,-29.22c0.03,-0.05 0.07,-0.1 0.1,-0.15z" fill="#F8E8DB" id="svg_23"/>
    <path d="m209.98,376.03c-18.2,1.97 -36.52,3.03 -54.82,2.36l10.4,67.19l58.64,0l0,-1.94c0,-5.84 -2.78,-11.32 -7.49,-14.75l0,0c-4.82,-3.52 -7.62,-9.15 -7.49,-15.11l0.75,-37.76z" fill="#F8E8DB" id="svg_24"/>
    <line fill="none" id="svg_25" stroke="#28185E" stroke-linecap="round" stroke-miterlimit="10" stroke-width="1.5" x1="210.05" x2="209.17" y1="393.21" y2="419.55"/>
    <line fill="none" id="svg_26" stroke="#28185E" stroke-linecap="round" stroke-miterlimit="10" stroke-width="1.5" x1="157.04" x2="161.52" y1="394.78" y2="423.42"/>
    <line fill="none" id="svg_27" stroke="#28185E" stroke-linecap="round" stroke-miterlimit="10" stroke-width="1.5" x1="97.89" x2="95.19" y1="391.52" y2="418.86"/>
    <path d="m45.82,347.03c0,0 -6.72,8.14 -4.85,19.94" fill="none" id="svg_28" stroke="#28185E" stroke-linecap="round" stroke-miterlimit="10" stroke-width="1.5"/>
    <path d="m289.35,243.2c8.68,16.7 17.36,33.39 26.03,50.08c2.38,4.58 4.82,9.35 4.95,14.51c0.23,8.45 -5.81,15.89 -12.78,20.71c-8.22,5.7 -18.33,8.91 -28.3,8.03c-9.96,-0.86 -19.67,-6.06 -25.17,-14.43c-8.03,-12.18 -6.14,-28.12 -3.96,-42.53c1.47,-9.7 2.93,-19.39 4.4,-29.08c1.12,-7.49 0.54,-20.63 5.08,-26.93c10.18,-14.13 25.94,12.32 29.75,19.64z" fill="#F0C7AA" id="svg_29"/>
    <path d="m140.18,321.78l13.59,-56.85c8.01,-33.56 38.29,-57.03 72.79,-56.43l0,0c32.82,0.59 59.13,27.37 59.13,60.19l5.1,23.3c3.84,17.67 -3.89,35.83 -19.29,45.31l-39.68,24.39c-5.63,3.35 -12.62,3.48 -18.35,0.33l-73.3,-40.23z" fill="#F8E8DB" id="svg_30"/>
    <path d="m239.96,188.29c2.74,-1.2 5.55,-2.43 8.55,-2.62c3,-0.18 6.24,0.9 7.86,3.42c1.63,2.51 0.86,6.51 -1.92,7.62c5.47,0.99 10.31,4.92 12.41,10.08c2.08,5.14 1.37,11.35 -1.86,15.87c-5.8,8.11 -17.29,9.35 -27.22,8.55c-8.89,-0.72 -17.68,-2.49 -26.16,-5.24c-6.61,-2.17 -19.29,-4.36 -12.32,-12.49c10.42,-12.16 26.34,-18.9 40.67,-25.19z" fill="#F8E8DB" id="svg_31"/>
    <path d="m155.7,233.74c-12.68,13.89 -25.37,27.79 -38.05,41.68c-3.47,3.81 -7.05,7.8 -8.52,12.75c-2.39,8.12 1.53,16.87 7.02,23.3c6.5,7.62 15.43,13.33 25.28,15.04c9.87,1.73 20.58,-0.81 28.04,-7.47c10.89,-9.7 13.17,-25.58 14.78,-40.08c1.07,-9.74 2.15,-19.47 3.22,-29.22c0.83,-7.52 4.77,-20.07 2.02,-27.34c-6.2,-16.28 -28.25,5.26 -33.8,11.35z" fill="#F0C7AA" id="svg_32"/>
    <g id="svg_33">
     <g id="svg_34">
      <circle cx="264.76" cy="277.87" fill="#28185E" id="svg_35" r="4.73"/>
      <circle cx="209.86" cy="277.87" fill="#28185E" id="svg_36" r="4.73"/>
     </g>
     <path d="m231.03,281.16l16.23,0c2.04,0 2.96,2.51 1.43,3.84l-8.11,7.03c-0.83,0.7 -2.05,0.7 -2.87,0l-8.12,-7.03c-1.53,-1.34 -0.6,-3.84 1.43,-3.84z" fill="#28185E" id="svg_37"/>
     <g id="svg_38">
      <path d="m264.98,295.42c-3.78,4.4 -10.03,6.43 -15.68,5.32c-5.11,-1.01 -10.75,-4.49 -9.7,-10.45" fill="none" id="svg_39" stroke="#28185E" stroke-linecap="round" stroke-miterlimit="10" stroke-width="1.5"/>
      <path d="m213.84,295.42c3.78,4.4 10.01,6.43 15.66,5.32c5.11,-1.01 10.75,-4.49 9.7,-10.45" fill="none" id="svg_40" stroke="#28185E" stroke-linecap="round" stroke-miterlimit="10" stroke-width="1.5"/>
     </g>
    </g>
   </g>
   <path d="m149.51,115.21l-84.63,-37.66c-7.91,-3.52 -17.16,0.03 -20.69,7.93l0,0l-10.18,22.89c-0.68,1.55 0,3.34 1.53,4.02s3.32,-0.02 4.01,-1.55l10.19,-22.89l4.25,1.89l-10.19,22.89c-0.68,1.53 0,3.32 1.53,4.01c1.53,0.68 3.34,0 4.01,-1.53l10.19,-22.89l4.25,1.89l-10.19,22.89c-0.68,1.53 0,3.32 1.55,4.01c1.53,0.68 3.32,0 4.01,-1.55l10.19,-22.89l4.23,1.9l-10.19,22.89c-0.67,1.53 0.02,3.32 1.55,4.01c1.53,0.68 3.32,-0.02 4.01,-1.55l10.19,-22.89l4.25,1.89l-10.19,22.89c-0.68,1.53 0,3.34 1.53,4.01c1.53,0.68 3.34,0 4.01,-1.53l10.19,-22.89l4.25,1.89l-10.19,22.89c-0.68,1.53 0.02,3.32 1.55,4.01c1.53,0.68 3.32,0 4.01,-1.53l10.19,-22.89l4.25,1.89l-10.19,22.89c-0.68,1.53 0,3.32 1.53,4.01c1.53,0.68 3.32,-0.02 4.01,-1.55l10.19,-22.89l4.25,1.89l-10.19,22.89c-0.68,1.53 0,3.34 1.55,4.01c1.53,0.68 3.32,0 4.01,-1.53l10.19,-22.89l4.23,1.89l-10.19,22.89c-0.67,1.53 0.02,3.32 1.55,4.01c1.53,0.68 3.32,0 4.01,-1.53l10.19,-22.89l4.25,1.89l-10.19,22.89c-0.68,1.53 0,3.32 1.53,4.01c1.53,0.68 3.34,-0.02 4.01,-1.55l10.19,-22.89l4.25,1.89l-10.19,22.89c-0.68,1.55 0.02,3.34 1.55,4.02c1.53,0.67 3.32,-0.02 4.01,-1.55l10.19,-22.89l4.25,1.89l-10.19,22.89c-0.68,1.53 0,3.32 1.53,4.01c1.53,0.68 3.32,0 4.01,-1.53l10.19,-22.89l0,0c3.53,-7.91 -0.03,-17.18 -7.93,-20.69z" fill="#FFFFFF" id="svg_42"/>
   <path d="m187.78,146.14l-14.9,-5.46l-5.46,-14.9c-1.43,-3.92 -6.96,-3.92 -8.38,0l-5.46,14.9l-14.9,5.46c-3.92,1.46 -3.92,6.96 0,8.38l14.9,5.49l5.46,14.9c1.43,3.88 6.96,3.88 8.38,0l5.46,-14.9l14.9,-5.49c3.92,-1.43 3.92,-6.92 0,-8.38z" fill="#ff7f00" id="svg_44"/>
   <path d="m126.08,232.08l-9.52,-4.08l-3.49,-11.15c-0.94,-2.9 -4.45,-2.9 -5.36,0l-3.51,11.15l-9.52,4.08c-2.48,1.1 -2.48,5.21 0,6.28l9.52,4.11l3.51,11.15c0.91,2.9 4.42,2.9 5.36,0l3.49,-11.15l9.52,-4.11c2.5,-1.07 2.5,-5.18 0,-6.28z" fill="#ff7f00" id="svg_45"/>
   <g id="svg_53" transform="matrix(1.51998 0.583464 -0.583464 1.51998 185.434 -356.154)">
    <path d="m236.44,310.29l60.86,55.79c2.51,2.3 6.41,2.13 8.72,-0.38l0,0c2.3,-2.52 2.13,-6.42 -0.38,-8.72l-60.86,-55.79c-2.52,-2.3 -6.42,-2.13 -8.72,0.38l0,0c-2.31,2.51 -2.14,6.42 0.38,8.72zm62.19,46.06l3.14,2.87c0.77,0.71 0.82,1.92 0.11,2.69c-0.71,0.77 -1.91,0.82 -2.68,0.12l-3.13,-2.88c-0.78,-0.71 -0.83,-1.91 -0.12,-2.68c0.71,-0.78 1.91,-0.83 2.68,-0.12z" fill="#8FD2C2" id="svg_54"/>
    <path d="m242.1,298.72l27.9,25.57c2.88,2.65 3.07,7.12 0.43,10l-10.74,11.73c-2.64,2.88 -7.12,3.07 -10,0.43l-27.9,-25.57c-5.97,-5.47 -6.37,-14.74 -0.9,-20.7l0.51,-0.56c5.47,-5.96 14.73,-6.37 20.7,-0.9z" fill="#8FD2C2" id="svg_55"/>
    <path d="m214.12,318.59l13.32,-14.53c2.33,-2.53 6.27,-2.71 8.8,-0.38l24.44,22.4c2.53,2.32 2.7,6.26 0.38,8.8l-13.26,14.47c-0.76,0.8 -2.08,-0.1 -1.69,-1.12l0.1,-0.75c0.32,-0.81 -0.45,-1.62 -1.28,-1.36l-0.95,0.3c-0.76,0.24 -1.5,-0.44 -1.32,-1.22l0.28,-1.27c0.17,-0.79 -0.57,-1.46 -1.33,-1.22l-1.24,0.39c-0.77,0.24 -1.51,-0.43 -1.33,-1.22l0.28,-1.27c0.18,-0.78 -0.57,-1.46 -1.33,-1.22l-1.24,0.39c-0.77,0.25 -1.5,-0.43 -1.33,-1.21l0.28,-1.27c0.18,-0.79 -0.56,-1.47 -1.33,-1.22l-1.24,0.39c-0.76,0.24 -1.5,-0.44 -1.33,-1.22l0.28,-1.27c0.18,-0.79 -0.56,-1.46 -1.33,-1.22l-1.24,0.39c-0.76,0.24 -1.5,-0.43 -1.33,-1.22l0.28,-1.27c0.18,-0.78 -0.56,-1.46 -1.32,-1.22l-1.25,0.39c-0.76,0.25 -1.5,-0.43 -1.33,-1.21l0.29,-1.28c0.17,-0.78 -0.57,-1.45 -1.33,-1.21l-1.24,0.39c-0.77,0.24 -1.51,-0.44 -1.33,-1.22l0.28,-1.27c0.17,-0.79 -0.56,-1.46 -1.33,-1.22l-1.24,0.39c-0.77,0.24 -1.51,-0.43 -1.33,-1.22l0.17,-0.8c0.19,-0.85 -0.68,-1.54 -1.46,-1.16l-0.65,0.15c-0.99,0.48 -2,-0.75 -1.27,-1.58z" fill="#FFFFFF" id="svg_56"/>
    <path d="m216.72,315.76l5.23,-5.71c2.33,-2.54 6.27,-2.71 8.8,-0.38l24.44,22.4c2.53,2.32 2.71,6.26 0.38,8.8l-5.18,5.65c-0.76,0.8 -2.08,-0.1 -1.68,-1.13l0.1,-0.74c0.31,-0.81 -0.45,-1.62 -1.28,-1.36l-0.95,0.29c-0.76,0.24 -1.5,-0.43 -1.33,-1.21l0.29,-1.28c0.17,-0.78 -0.57,-1.46 -1.33,-1.22l-1.25,0.39c-0.76,0.25 -1.5,-0.43 -1.32,-1.21l0.28,-1.27c0.17,-0.78 -0.57,-1.46 -1.33,-1.22l-1.25,0.39c-0.76,0.24 -1.5,-0.43 -1.32,-1.22l0.28,-1.27c0.17,-0.78 -0.57,-1.46 -1.33,-1.22l-1.24,0.39c-0.77,0.24 -1.5,-0.43 -1.33,-1.21l0.28,-1.28c0.17,-0.78 -0.57,-1.45 -1.33,-1.21l-1.24,0.39c-0.77,0.24 -1.5,-0.44 -1.33,-1.22l0.28,-1.27c0.17,-0.78 -0.57,-1.46 -1.33,-1.22l-1.24,0.39c-0.76,0.24 -1.5,-0.44 -1.33,-1.22l0.28,-1.27c0.17,-0.78 -0.56,-1.46 -1.32,-1.22l-1.25,0.39c-0.76,0.25 -1.5,-0.43 -1.33,-1.21l0.28,-1.28c0.18,-0.78 -0.56,-1.45 -1.32,-1.21l-1.25,0.39c-0.76,0.24 -1.5,-0.44 -1.33,-1.22l0.18,-0.81c0.19,-0.84 -0.69,-1.54 -1.47,-1.15l-0.64,0.15c-1,0.48 -2,-0.75 -1.27,-1.58z" fill="#C5B7FA" id="svg_57"/>
    <path d="m219.31,312.93l5.24,-5.71c2.32,-2.53 6.26,-2.71 8.8,-0.38l24.43,22.4c2.54,2.32 2.71,6.26 0.39,8.8l-5.18,5.65c-0.76,0.8 -2.08,-0.1 -1.68,-1.13l0.09,-0.74c0.32,-0.81 -0.45,-1.62 -1.28,-1.36l-0.95,0.29c-0.76,0.24 -1.5,-0.43 -1.32,-1.21l0.28,-1.28c0.17,-0.78 -0.57,-1.45 -1.33,-1.22l-1.24,0.4c-0.77,0.24 -1.5,-0.44 -1.33,-1.22l0.28,-1.27c0.18,-0.78 -0.57,-1.46 -1.33,-1.22l-1.24,0.39c-0.76,0.24 -1.5,-0.43 -1.33,-1.22l0.28,-1.27c0.18,-0.78 -0.56,-1.46 -1.33,-1.22l-1.24,0.39c-0.76,0.25 -1.5,-0.43 -1.32,-1.21l0.28,-1.27c0.17,-0.79 -0.57,-1.46 -1.33,-1.22l-1.25,0.39c-0.76,0.24 -1.5,-0.44 -1.33,-1.22l0.29,-1.27c0.17,-0.78 -0.57,-1.46 -1.33,-1.22l-1.24,0.39c-0.77,0.24 -1.51,-0.44 -1.33,-1.22l0.28,-1.27c0.17,-0.78 -0.57,-1.46 -1.33,-1.22l-1.24,0.39c-0.76,0.25 -1.51,-0.43 -1.33,-1.22l0.28,-1.27c0.17,-0.78 -0.56,-1.45 -1.32,-1.21l-1.25,0.39c-0.76,0.24 -1.5,-0.44 -1.33,-1.22l0.18,-0.81c0.19,-0.84 -0.69,-1.54 -1.47,-1.15l-0.65,0.15c-1,0.48 -2,-0.75 -1.27,-1.58z" fill="#8660FA" id="svg_58"/>
    <path d="m222.21,309.77l5.23,-5.71c2.33,-2.54 6.27,-2.71 8.8,-0.38l24.44,22.4c2.54,2.32 2.71,6.26 0.38,8.8l-5.17,5.65c-0.76,0.8 -2.08,-0.1 -1.69,-1.13l0.1,-0.74c0.31,-0.81 -0.45,-1.62 -1.28,-1.36l-0.95,0.29c-0.76,0.24 -1.5,-0.43 -1.33,-1.21l0.29,-1.28c0.17,-0.78 -0.57,-1.45 -1.33,-1.22l-1.25,0.4c-0.76,0.24 -1.5,-0.44 -1.32,-1.22l0.28,-1.27c0.17,-0.78 -0.57,-1.46 -1.33,-1.22l-1.24,0.39c-0.77,0.24 -1.51,-0.43 -1.33,-1.22l0.28,-1.27c0.17,-0.78 -0.57,-1.46 -1.33,-1.22l-1.24,0.39c-0.77,0.25 -1.5,-0.43 -1.33,-1.21l0.28,-1.27c0.17,-0.79 -0.57,-1.46 -1.33,-1.22l-1.24,0.39c-0.77,0.24 -1.5,-0.44 -1.33,-1.22l0.28,-1.27c0.17,-0.78 -0.56,-1.46 -1.33,-1.22l-1.24,0.39c-0.76,0.24 -1.5,-0.44 -1.33,-1.22l0.28,-1.27c0.18,-0.78 -0.56,-1.46 -1.32,-1.22l-1.25,0.39c-0.76,0.25 -1.5,-0.43 -1.33,-1.21l0.29,-1.28c0.17,-0.78 -0.57,-1.45 -1.33,-1.21l-1.24,0.39c-0.77,0.24 -1.51,-0.44 -1.33,-1.22l0.17,-0.81c0.19,-0.84 -0.68,-1.54 -1.47,-1.15l-0.64,0.15c-1,0.48 -2,-0.76 -1.27,-1.58z" fill="#FFFFFF" id="svg_59"/>
    <line fill="#aaffff" id="svg_60" stroke="#28185E" stroke-linecap="round" stroke-miterlimit="10" stroke-width="1.5" x1="265.99" x2="237.95" y1="326.57" y2="300.86"/>
    <path d="m268.17,328.56l0.45,0.41c2,1.84 2.14,4.96 0.3,6.97l-4.34,4.74" fill="none" id="svg_61" stroke="#28185E" stroke-linecap="round" stroke-miterlimit="10" stroke-width="1.5"/>
   </g>
  </g>
 </g>
</svg>