<?xml version="1.0"?>
<svg width="500" height="500" xmlns="http://www.w3.org/2000/svg" xmlns:svg="http://www.w3.org/2000/svg" enable-background="new 0 0 1200 1200" version="1.1" xml:space="preserve">
 <g class="layer">
  <title>Layer 1</title>
  <g id="svg_83">
   <g id="svg_84">
    <path d="m319.19,101.99c12.83,-28.5 42.76,-55.58 68.41,-74.12c15.68,14.25 12.83,51.32 12.83,71.26c0,15.68 0,42.76 -12.83,54.17l-68.41,-51.32z" fill="#A86B29" id="svg_85"/>
    <path d="m321.45,103.32c13.95,-30.29 40.97,-53.93 67.47,-73.16c-1.07,-0.15 -2.13,-0.29 -3.2,-0.42c7.4,7.04 9.78,17.7 11.07,27.46c1.45,10.85 1.26,21.88 1.08,32.82c-0.15,9.99 0.06,20 -0.76,29.97c-0.89,10.9 -3.04,23.61 -11.4,31.45c-2.47,2.32 1.26,6.05 3.73,3.73c16.35,-15.36 13.38,-43.61 13.7,-63.94c0.19,-12.04 0.38,-24.17 -1.35,-36.12c-1.54,-10.5 -4.41,-21.56 -12.35,-29.11c-0.78,-0.76 -2.23,-1.1 -3.2,-0.42c-27.21,19.77 -55.03,43.96 -69.36,75.07c-1.41,3.06 3.14,5.75 4.55,2.66l0,0z" fill="#231F20" id="svg_86"/>
   </g>
   <g id="svg_87">
    <path d="m133.89,111.96c-1.43,-4.26 -4.28,-7.12 -7.12,-9.97c-12.84,-14.25 -28.52,-32.79 -42.78,-45.61c-19.94,-15.68 -17.11,17.11 -17.11,29.93c0,21.39 -4.26,44.18 0,65.57c1.43,8.54 8.56,34.19 17.11,34.19l49.89,-74.12z" fill="#A86B29" id="svg_88"/>
    <path d="m136.44,111.28c-1.98,-5.08 -5.35,-8.39 -8.92,-12.39c-4.74,-5.27 -9.42,-10.62 -14.14,-15.91c-9.06,-10.14 -18.23,-21.45 -29.11,-29.68c-4.64,-3.52 -11.44,-5.71 -15.7,-0.49c-4.28,5.21 -4.26,13.57 -4.41,19.94c-0.23,9.65 0.13,19.22 -0.44,28.87c-0.86,15.03 -2.44,30.27 -0.3,45.29c1.31,9.11 3.6,18.02 7.06,26.56c2.4,5.92 6.17,14.71 13.53,15.26c3.41,0.27 3.37,-5.02 0,-5.27c-5.69,-0.44 -9.21,-13.11 -10.62,-17.24c-2.64,-7.73 -4.38,-15.74 -5.21,-23.84c-2.21,-21.39 1.5,-43.16 1.24,-64.62c-0.08,-6.13 -0.1,-12.5 1.66,-18.44c2.42,-8.09 9.46,-2.59 13.53,1.18c8.43,7.8 16.17,16.33 23.82,24.85c4.01,4.47 7.99,8.98 11.99,13.47c3.82,4.32 8.83,8.39 10.94,13.85c1.24,3.14 6.32,1.77 5.1,-1.39l0,0z" fill="#231F20" id="svg_89"/>
   </g>
   <g id="svg_90">
    <path d="m236.51,254.5c-39.9,-17.11 -82.66,-32.79 -126.84,-32.79c-15.58,0.82 -35.87,5.9 -50.29,16.29c-2.74,65.04 30.85,127.83 78.8,174.72c29.93,28.5 71.26,66.98 115.45,61.29c44.18,-5.71 81.25,-52.75 108.33,-84.11c31.36,-37.05 64.14,-79.81 69.83,-129.7c1.16,-8.01 1.48,-16.14 1.1,-24.3c-54.9,-42.43 -140.32,-16.29 -196.37,18.59z" fill="#FFFFFF" id="svg_91"/>
    <path d="m237.84,252.22c-29.34,-12.54 -59.29,-23.98 -90.8,-29.68c-14.58,-2.63 -29.99,-4.55 -44.75,-2.78c-13,1.56 -25.76,5.4 -37.31,11.61c-2.44,1.31 -5.5,2.82 -7.46,4.78c-1.54,1.56 -0.88,5 -0.91,6.95c-0.13,7.33 0.29,14.63 1.05,21.9c1.41,13.66 4.43,27.12 8.58,40.21c8.58,27.02 22.62,52.16 39.6,74.78c16.55,22.03 36.46,41.39 57.45,59.16c20.02,16.92 43,32.73 69.38,37.09c52.14,8.6 92.76,-39.64 122.92,-74.84c36.88,-43.06 73.68,-88.77 79.56,-147.2c0.4,-4.03 0.51,-8.11 0.53,-12.16c0.02,-2.13 0.8,-6.26 -0.91,-7.97c-4.22,-4.22 -10.5,-7.34 -15.74,-10.09c-10.71,-5.61 -22.43,-9.08 -34.33,-10.98c-25.02,-4.01 -50.81,-0.53 -75.05,6.15c-26.22,7.21 -51.36,18.8 -74.46,33.09c-2.87,1.79 -0.23,6.36 2.66,4.57c54.35,-33.62 136.8,-61.9 193.71,-18.59c-0.44,-0.76 -0.88,-1.52 -1.29,-2.28c2.4,62.64 -36.99,113.33 -75.6,158.45c-31.59,36.92 -73.3,88.58 -128.27,75.22c-23.96,-5.82 -44.81,-21.6 -63.16,-37.41c-18.82,-16.21 -36.61,-33.76 -51.8,-53.47c-30.9,-40.15 -51.34,-89.45 -49.44,-140.7c-0.44,0.76 -0.86,1.52 -1.29,2.28c11.21,-7.86 24.24,-12.27 37.64,-14.67c14.92,-2.64 30.56,-0.76 45.38,1.67c31.7,5.21 62.03,16.92 91.45,29.49c3.1,1.31 5.78,-3.23 2.66,-4.57z" fill="#231F20" id="svg_92"/>
   </g>
   <g id="svg_93">
    <path d="m295.74,78.58c-24.85,-4.81 -48.64,5.37 -73.54,2c-26.6,-3.6 -58.13,2.76 -79.88,19.1c-27.02,20.3 -52.42,40.68 -66.87,72.14c-10.09,21.98 -15.17,44.2 -16.08,66.18c14.42,-10.39 34.71,-15.47 50.29,-16.29c44.18,0 86.94,15.68 126.84,32.79c56.04,-34.88 141.48,-61.04 196.37,-18.59c-1.48,-32.44 -14.23,-65.25 -32.46,-92.59c-24.49,-34.48 -63.52,-56.78 -104.68,-64.73z" fill="#A86B29" id="svg_94"/>
    <path d="m296.45,76.03c-14.12,-2.53 -28.05,-0.8 -42.13,0.95c-7.52,0.95 -15.01,1.69 -22.59,1.66c-6.93,-0.04 -13.8,-1.33 -20.72,-1.62c-26.01,-0.99 -52,6.79 -72.76,22.45c-20.89,15.77 -41.27,32.52 -55.91,54.52c-16.31,24.45 -24.22,54.9 -25.61,84.01c-0.08,1.9 2.36,3.43 3.98,2.28c11.65,-8.16 25.27,-12.63 39.22,-14.92c15.6,-2.55 32.2,-0.19 47.61,2.61c15.95,2.87 31.57,7.46 46.87,12.75c7.34,2.55 14.61,5.33 21.83,8.2c3.6,1.43 7.17,2.89 10.75,4.38c2.4,0.99 7.44,4.51 10.24,3.75c2.36,-0.65 4.83,-2.84 6.93,-4.07c2.59,-1.54 5.21,-3.01 7.86,-4.45c5.86,-3.23 11.85,-6.22 17.92,-9.06c12.31,-5.75 25.04,-10.52 38.04,-14.39c25.19,-7.46 52.19,-11.04 78.26,-6.53c16.5,2.84 32.01,9.5 45.33,19.64c1.6,1.2 4.07,-0.44 3.98,-2.28c-2.04,-38.99 -18.29,-79.5 -44.58,-108.48c-24.55,-27.06 -58.95,-44.34 -94.5,-51.4c-3.33,-0.67 -4.74,4.41 -1.41,5.08c34.48,6.85 66.75,23.21 91.05,48.85c12.86,13.57 22.23,30.01 29.76,47.02c8.22,18.57 13.34,38.65 14.4,58.93c1.31,-0.76 2.64,-1.52 3.96,-2.28c-58.4,-44.41 -143.19,-15.95 -199.04,18.59c0.89,0 1.79,0 2.66,0c-30.52,-13.03 -61.75,-24.93 -94.63,-30.33c-29.17,-4.8 -60.11,-3.73 -85.17,13.83c1.31,0.76 2.64,1.52 3.96,2.28c1.37,-28.45 9.32,-57.33 24.89,-81.37c13.78,-21.27 34.02,-37.49 54.02,-52.61c20.27,-15.32 44.77,-22.34 70.1,-21.71c6.32,0.15 12.54,1.26 18.84,1.54c6.91,0.32 13.85,-0.36 20.72,-1.14c14.82,-1.67 29.59,-4.26 44.47,-1.6c3.33,0.59 4.74,-4.49 1.41,-5.08z" fill="#231F20" id="svg_95"/>
   </g>
   <g id="svg_96">
    <path d="m207.3,256.5c-16.44,-32.86 40.97,-41.71 58.21,-22.55c16.9,18.78 -11.26,28.18 -26.3,31.93c-11.26,0 -26.28,0 -31.91,-9.38z" fill="#333333" id="svg_97"/>
    <path d="m209.56,255.17c-13.19,-27.46 29.3,-32.71 46.39,-24.87c5.48,2.53 11.46,7.67 12.12,14.02c0.7,6.62 -7.33,10.79 -12.24,13.19c-6.22,3.03 -13.7,5.78 -20.65,5.73c-8.54,-0.06 -20.34,-0.11 -25.63,-8.07c-1.86,-2.82 -6.43,-0.19 -4.55,2.66c5.73,8.64 16.35,10.12 25.95,10.58c9.53,0.46 17.77,-2.04 26.47,-5.86c6.74,-2.95 14.5,-7.86 15.77,-15.74c1.29,-7.97 -5.29,-15.36 -11.51,-19.37c-21.67,-14 -72.82,-3.23 -56.69,30.39c1.47,3.06 6.01,0.38 4.55,-2.66z" fill="#231F20" id="svg_98"/>
   </g>
   <path d="m318.2,177.09c-1.48,-1.45 -2.63,-2.15 -4.72,-2.19c-0.84,-0.04 -1.9,0.49 -2.26,1.29c-2.72,5.96 -4.15,19.94 3.98,22.72c10.87,3.71 13.68,-10.83 12.56,-18.25c-0.63,-4.15 -2,-8.81 -5.8,-11.11c-3.2,-1.92 -7.76,-2.02 -10.18,1.1c-5.16,6.64 0.49,17.87 8.14,19.39c1.41,0.29 2.82,-0.38 3.23,-1.85c1.81,-6.3 -1.62,-10.09 -7.54,-11.8c-1.29,-0.36 -2.99,0.44 -3.25,1.85c-1.43,7.67 -1.45,16.54 7.55,18.93c1.52,0.4 2.68,-0.51 3.23,-1.85c2.85,-6.85 0.29,-14.27 -5.48,-18.67c-1.5,-1.12 -3.31,0.19 -3.88,1.58c-1.39,3.43 -1.5,7.02 -1.52,10.67c0,3.41 5.27,3.41 5.29,0c0,-3.2 0.1,-6.26 1.31,-9.27c-1.27,0.51 -2.57,1.05 -3.86,1.58c4,3.04 4.93,8.22 3.06,12.69c1.08,-0.61 2.17,-1.22 3.23,-1.85c-5.75,-1.52 -4.72,-7.82 -3.86,-12.43c-1.07,0.61 -2.15,1.22 -3.23,1.85c3.12,0.89 4.81,1.92 3.86,5.31c1.08,-0.63 2.15,-1.24 3.23,-1.85c-4.36,-0.88 -6.85,-5.84 -5.88,-10.05c0.48,-2.17 3.01,-1.6 4.38,-0.49c2.07,1.71 2.61,5.48 2.89,7.97c0.3,2.76 0.06,5.52 -0.74,8.16c-0.7,2.28 -3.63,4.93 -5.82,2.76c-3.01,-2.97 -1.92,-11.06 -0.38,-14.46c-0.74,0.44 -1.5,0.88 -2.26,1.31c0.32,0.21 0.65,0.44 0.99,0.65c2.44,2.38 6.17,-1.35 3.73,-3.73l0,0z" fill="#231F20" id="svg_99"/>
   <path d="m158.85,176.41c-10.47,2.8 -7.38,18.76 -2.26,25.02c2.7,3.31 7.15,3.88 9.7,0.02c3.33,-5.04 4.09,-12.62 2.99,-18.44c-1.03,-5.33 -7.21,-10.87 -12.06,-5.5c-3.73,4.11 -2.47,13.05 -1.64,17.92c0.76,4.57 4.68,10.48 9.88,6.77c4.55,-3.25 5.19,-11.17 2.87,-15.87c-2.4,-4.91 -10.35,-8.87 -13.53,-2.45c-2.4,4.81 -0.55,12.96 2.87,16.9c1.56,1.77 4.51,0.32 4.51,-1.86c0,-3.81 0,-7.61 0,-11.42c0,-2.23 -2.91,-3.56 -4.51,-1.86c-2.57,2.76 -3.6,5.23 -3.62,9c-0.02,3.41 5.25,3.39 5.27,0c0.02,-2.3 0.46,-3.52 2.07,-5.27c-1.5,-0.61 -2.99,-1.24 -4.49,-1.86c0,3.81 0,7.61 0,11.4c1.5,-0.61 3.01,-1.24 4.49,-1.86c-1.48,-1.69 -3.96,-9.59 -1.58,-11.26c1.66,-1.14 3.88,3.03 4.19,4.01c0.63,2.04 0.36,4.55 -0.48,6.49c-2.09,4.85 -3.06,-3.27 -3.22,-4.87c-0.15,-1.75 -0.36,-12.77 2.4,-10.43c3.29,2.8 1.58,9.74 0.82,13.21c-0.36,1.6 -0.82,3.52 -1.98,4.76c-0.06,0.08 -0.61,-0.51 -0.95,-0.88c-2.78,-3.08 -6.26,-14.99 -0.36,-16.57c3.29,-0.88 1.88,-5.96 -1.39,-5.08l0,0z" fill="#231F20" id="svg_100"/>
   <path d="m234.64,265.46c-4.64,4.19 -2.57,13.34 -1.85,18.61c1.12,8.14 3.75,16.36 3.94,24.58c0.08,3.41 5.35,3.41 5.27,0c-0.15,-6.66 -1.98,-13.38 -3.14,-19.9c-0.72,-4.01 -1.33,-8.05 -1.62,-12.12c-0.13,-2.07 -0.61,-5.88 1.12,-7.44c2.53,-2.28 -1.2,-5.99 -3.73,-3.73l0,0z" fill="#231F20" id="svg_101"/>
   <path d="m191.47,298.59c4.36,6.49 12.63,9.74 19.58,12.52c8.94,3.54 17.66,5.25 27.27,4.85c20.4,-0.86 42.21,-9.72 55.66,-25.38c2.19,-2.57 -1.52,-6.32 -3.73,-3.73c-12.43,14.46 -31.7,22.21 -50.41,23.75c-8.24,0.69 -15.76,-0.53 -23.52,-3.16c-6.58,-2.23 -16.21,-5.42 -20.28,-11.51c-1.88,-2.8 -6.45,-0.17 -4.57,2.66l0,0z" fill="#231F20" id="svg_102"/>
   <path d="m143.02,325.86c-3.01,6.53 -3.23,13.62 -4.55,20.59c-0.63,3.33 4.45,4.74 5.08,1.41c1.2,-6.41 1.26,-13.34 4.01,-19.33c1.41,-3.06 -3.14,-5.75 -4.55,-2.66l0,0z" fill="#231F20" id="svg_103"/>
   <path d="m159.76,341.44c0,5 0.04,10.12 1.5,14.96c1.01,3.23 6.09,1.86 5.1,-1.41c-1.35,-4.38 -1.33,-8.98 -1.33,-13.55c0,-3.39 -5.27,-3.39 -5.27,0l0,0z" fill="#231F20" id="svg_104"/>
   <path d="m186.94,352.16c-1.47,6.81 1.73,12.08 6.37,16.82c2.38,2.42 6.11,-1.31 3.73,-3.73c-3.2,-3.27 -6.05,-6.87 -5.02,-11.7c0.7,-3.31 -4.38,-4.72 -5.08,-1.39l0,0z" fill="#231F20" id="svg_105"/>
   <path d="m222.48,365.69c0,4.01 0.78,7.4 3.62,10.41c2.34,2.47 6.07,-1.26 3.73,-3.73c-1.86,-1.96 -2.07,-4.09 -2.07,-6.68c-0.02,-3.41 -5.29,-3.41 -5.27,0l0,0z" fill="#231F20" id="svg_106"/>
   <path d="m289.82,342.77c1.58,3.25 2.68,6.72 4.28,9.97c1.48,3.06 6.03,0.4 4.55,-2.64c-1.58,-3.27 -2.68,-6.74 -4.28,-9.99c-1.48,-3.04 -6.03,-0.38 -4.55,2.66l0,0z" fill="#231F20" id="svg_107"/>
   <path d="m309.42,325.76c0,1.39 -0.04,2.89 0.48,4.19c0.7,1.75 2.02,2.93 3.67,3.81c3.01,1.56 5.69,-2.99 2.66,-4.57c-0.21,-0.1 -0.4,-0.19 -0.59,-0.3c0.02,0 -0.76,-0.55 -0.38,-0.25c-0.08,-0.06 -0.57,-0.63 -0.23,-0.15c-0.08,-0.1 -0.36,-0.7 -0.11,-0.13c-0.1,-0.19 -0.13,-0.42 -0.19,-0.63c-0.15,-0.72 0.06,0.55 -0.02,-0.25c-0.04,-0.57 -0.02,-1.14 -0.02,-1.71c0,-3.39 -5.27,-3.39 -5.27,0l0,0z" fill="#231F20" id="svg_108"/>
   <path d="m323.03,320.51c1.71,1.66 3.98,2.63 5.69,4.26c2.45,2.36 6.18,-1.37 3.73,-3.73c-1.73,-1.64 -4,-2.63 -5.71,-4.26c-2.45,-2.36 -6.18,1.37 -3.71,3.73l0,0z" fill="#231F20" id="svg_109"/>
   <path d="m339.15,298.48c2.84,0 5.69,0 8.54,0c3.41,0 3.41,-5.27 0,-5.27c-2.85,0 -5.71,0 -8.54,0c-3.41,0 -3.41,5.27 0,5.27l0,0z" fill="#231F20" id="svg_110"/>
   <path d="m262.39,354.27c0,4.17 0.25,8.13 1.52,12.12c1.03,3.22 6.11,1.85 5.08,-1.41c-1.14,-3.56 -1.33,-7 -1.33,-10.71c0,-3.39 -5.27,-3.39 -5.27,0l0,0z" fill="#231F20" id="svg_111"/>
  </g>
 </g>
</svg>