<?xml version="1.0"?>
<svg width="500" height="500" xmlns="http://www.w3.org/2000/svg" xmlns:svg="http://www.w3.org/2000/svg" enable-background="new 0 0 1200 1200" version="1.1" xml:space="preserve">
 <g class="layer">
  <title>Layer 1</title>
  <g id="svg_175">
   <g id="svg_176">
    <path d="m205.07,84.89c-12.88,-12.88 -23.17,-5.16 -30.91,7.72c-18.03,23.19 -41.21,46.37 -54.08,72.12c-7.74,15.46 -12.88,28.33 -25.75,38.63c-10.32,7.74 -28.33,10.32 -36.07,23.19c-7.72,10.3 -2.58,30.91 -5.14,46.37c-5.16,20.59 -15.46,33.47 -25.77,51.51c-15.44,30.91 0,69.54 2.58,100.45c0,30.91 36.07,51.51 66.98,38.63c25.75,-10.3 30.89,-51.51 51.51,-69.54c33.49,-25.75 43.79,-56.66 51.51,-95.29c20.61,-77.28 18.03,-141.66 7.74,-218.94l-2.58,5.16z" fill="#FFFFFF" id="svg_177"/>
    <path d="m206.89,83.08c-8.37,-7.94 -17.9,-9.83 -27,-1.97c-4.82,4.17 -7.92,10.22 -11.87,15.14c-4.84,6.03 -9.87,11.91 -14.84,17.83c-9.37,11.11 -18.63,22.36 -26.68,34.49c-7.61,11.47 -12.62,24.29 -19.59,36.11c-3.25,5.53 -7.22,10.45 -11.93,14.79c-4.4,4.04 -9.98,6.4 -15.38,8.81c-10.02,4.45 -19.09,9.24 -24.83,18.96c-5.64,9.57 -3.45,23.19 -3.43,33.75c0.04,14.71 -5.77,27.63 -13.01,40.17c-6.94,12.02 -15.2,22.99 -18.42,36.72c-3.06,13.1 -1.97,26.83 -0.15,40.02c1.95,14.19 5.38,28.15 7.12,42.36c0.65,5.21 0.61,10.33 1.91,15.46c1.28,5.01 3.77,9.72 6.79,13.88c12.36,17.11 35.33,23.58 55.31,18.65c21.28,-5.25 30.74,-24.96 39.76,-42.97c4.77,-9.52 9.65,-19.28 17.03,-27.07c4.14,-4.36 9.26,-7.79 13.64,-11.91c4.51,-4.27 8.68,-8.96 12.43,-13.93c14.56,-19.24 21.95,-42.06 27.07,-65.38c3.38,-15.42 7.38,-30.69 10.19,-46.24c2.69,-14.94 4.55,-30.02 5.71,-45.14c2.36,-30.5 1.3,-61.15 -1.45,-91.58c-1.32,-14.79 -3.1,-29.54 -5.07,-44.27c-0.43,-3.23 -5.57,-3.28 -5.14,0c8.29,62.43 11.61,125.02 -0.45,187.21c-2.89,14.95 -6.66,29.78 -10.11,44.62c-2.78,11.99 -6.35,23.86 -11.41,35.1c-5.03,11.17 -11.82,21.43 -20.06,30.5c-7.85,8.65 -17.79,14.88 -24.75,24.34c-12.54,17.03 -17.33,39.72 -33.47,54.12c-17.39,15.53 -46.79,10.37 -62.03,-5.36c-3.71,-3.84 -6.49,-8.53 -8.31,-13.54c-2.1,-5.81 -1.91,-11.99 -2.65,-18.03c-1.67,-13.58 -4.82,-26.94 -6.88,-40.47c-2.21,-14.53 -2.95,-29.54 1.17,-43.81c3.95,-13.62 14.03,-25.33 20.58,-37.79c5.38,-10.2 9.35,-20.98 9.74,-32.56c0.39,-10.98 -2.34,-24.05 2.78,-34.23c4.71,-9.44 15.12,-13.64 24.19,-17.66c9.83,-4.4 17.26,-10.02 23.8,-18.67c6.99,-9.26 11.28,-20.3 16.64,-30.5c6.46,-12.28 14.99,-23.43 23.71,-34.18c8.63,-10.65 17.7,-20.95 26.25,-31.67c3.71,-4.66 6.48,-10.04 11.28,-13.73c6.4,-4.92 12.95,-1.63 18.15,3.28c2.39,2.28 6.05,-1.35 3.64,-3.64l0,0z" fill="#231F20" id="svg_178"/>
   </g>
   <g id="svg_179">
    <path d="m292.65,82.32c-5.16,-10.3 18.02,-5.16 25.75,-5.16c36.05,10.32 46.37,38.65 54.08,72.12c10.3,33.49 38.63,54.1 54.08,85c15.46,33.49 12.88,72.12 28.33,105.61c12.88,30.91 33.49,59.24 15.46,92.71c-20.59,33.49 -69.54,54.08 -103.03,30.91c-28.33,-18.03 -20.59,-61.82 -23.17,-92.71c-5.14,-38.65 -12.88,-77.28 -10.3,-115.91c0,-48.95 0,-128.78 -33.49,-169.99l-7.72,-2.58z" fill="#FFFFFF" id="svg_180"/>
    <path d="m294.86,81.02c-1.41,-3.19 4.95,-2.58 6.81,-2.56c4.34,0.06 8.66,0.65 12.99,1.06c10.85,1.02 21.39,7.16 29.35,14.44c8.05,7.37 13.53,17.11 17.53,27.14c4.36,10.89 6.1,22.51 10.04,33.49c8.87,24.71 28.24,43.4 42.93,64.55c8.48,12.19 14.06,25.21 17.81,39.58c3.8,14.49 5.84,29.41 8.74,44.1c2.84,14.47 7.16,28.04 12.99,41.56c5.75,13.34 12.73,26.16 17.22,40.02c4.69,14.49 4.9,29.41 -1.39,43.47c-4.97,11.1 -14.82,20.47 -24.55,27.46c-18.93,13.6 -44.14,20.13 -66.46,11.52c-10.72,-4.12 -19.39,-11.82 -24.4,-22.12c-4.9,-10.07 -6.01,-21.86 -6.62,-32.88c-0.59,-11.19 -0.28,-22.41 -0.69,-33.62c-0.52,-14.77 -3.58,-29.5 -5.68,-44.1c-2.43,-17.01 -4.51,-34.08 -5.31,-51.26c-0.63,-13.79 0.28,-27.55 0.22,-41.36c-0.19,-46 -1.22,-95.98 -21.49,-138.26c-3.45,-7.2 -7.74,-13.93 -12.73,-20.17c-2.06,-2.6 -5.68,1.08 -3.64,3.64c14.62,18.26 21.54,41.52 25.94,64.14c4.68,24.16 6.05,48.89 6.57,73.44c0.59,27.59 -1.02,55.01 1.82,82.55c1.69,16.27 4.19,32.45 6.57,48.65c1.87,12.95 2.75,25.51 2.86,38.59c0.17,20.58 -0.19,44.25 12.75,61.53c12.9,17.24 36.44,22.45 56.7,19.33c21.89,-3.34 42.9,-16.74 56.18,-34.31c8.02,-10.59 12.15,-23.04 12.06,-36.35c-0.07,-13.06 -4.88,-25.64 -10.02,-37.44c-5.96,-13.67 -13.08,-26.88 -17.81,-41.06c-4.75,-14.21 -7.09,-29.13 -9.72,-43.82c-2.65,-14.73 -5.68,-29.43 -11.23,-43.4c-4.86,-12.26 -12.69,-23.1 -20.69,-33.49c-7.98,-10.37 -16.4,-20.39 -23.53,-31.37c-7.37,-11.37 -11.32,-23.08 -14.73,-36.05c-5.32,-20.21 -13.73,-39.85 -31.02,-52.56c-5.79,-4.25 -12.43,-7.22 -19.22,-9.5c-4.75,-1.6 -10.24,-1.54 -15.23,-1.99c-6.81,-0.59 -21.21,-0.85 -16.36,10.02c1.35,3.02 5.79,0.41 4.43,-2.6l0,0z" fill="#231F20" id="svg_181"/>
   </g>
   <g id="svg_182">
    <path d="m148.41,396.55c-54.08,-48.95 -30.91,-121.06 0,-172.57c18.03,-30.91 25.75,-59.24 33.47,-92.71c5.16,-30.91 15.46,-59.24 48.95,-64.4c92.71,-15.46 115.91,103.01 126.2,167.41c8,49.98 11.02,122.59 -27.68,161.61c-42.01,42.34 -136.28,36.38 -180.94,0.67z" fill="#FFFFFF" id="svg_183"/>
    <path d="m150.23,394.73c-18.87,-17.33 -30,-39.91 -31.52,-65.51c-1.45,-24.05 5.21,-48.17 14.53,-70.12c10.22,-24.12 25.27,-45.64 34.75,-70.13c5.2,-13.43 9.11,-27.31 12.62,-41.25c3.1,-12.34 4.95,-25.01 8.59,-37.2c3.1,-10.45 7.89,-20.48 15.57,-28.33c8.31,-8.5 19.54,-12.04 31.06,-13.47c18.29,-2.26 36.46,1.35 51.93,11.5c30.56,20.04 44.83,59.08 54.05,92.7c10.3,37.52 17.09,77.41 17.63,116.32c0.65,45.61 -9.65,97.82 -53.84,120.47c-24.31,12.47 -53.25,14.88 -80.06,12.38c-26.42,-2.47 -54.21,-10.71 -75.29,-27.35c-2.58,-2.04 -6.23,1.58 -3.64,3.64c33.23,26.24 80.6,33.69 121.66,27.92c20.43,-2.86 40.54,-10.04 56.76,-23.03c17.31,-13.86 27.55,-34.73 33.23,-55.75c11.47,-42.53 6.01,-88.04 -1.54,-130.71c-6.33,-35.77 -15.01,-72.45 -33.34,-104.16c-8.48,-14.69 -19.57,-28.05 -33.84,-37.4c-14.81,-9.72 -32.53,-13.32 -50.04,-12.02c-10.63,0.8 -21.1,3.14 -30.21,8.81c-8.42,5.25 -14.66,13.3 -19.13,22.04c-4.95,9.67 -7.68,20.39 -9.74,31c-2.71,13.95 -6.18,27.78 -10.22,41.41c-3.53,11.93 -7.81,23.66 -12.97,34.99c-4.82,10.65 -10.87,20.58 -16.53,30.78c-9.8,17.66 -17.81,36.46 -22.77,56.07c-4.75,18.91 -6.1,38.74 -2.1,57.91c4.25,20.32 15.6,38.2 30.78,52.14c2.43,2.23 6.09,-1.39 3.64,-3.64z" fill="#231F20" id="svg_184"/>
   </g>
   <g id="svg_185">
    <path d="m251.42,298.67c17.5,20.39 -15.85,37.76 -32.15,40.02c-72.66,10.06 -17.89,-98.37 32.15,-40.02z" fill="#333333" id="svg_186"/>
    <path d="m249.6,300.47c15.23,18.65 -16.57,33.84 -31.47,35.79c-11.39,1.5 -27.07,0.39 -30.76,-12.78c-2.89,-10.24 2.88,-21.69 9.72,-29c8.46,-9.04 20.65,-12.84 32.51,-8.89c8.02,2.67 14.58,8.65 20,14.88c2.19,2.5 5.81,-1.13 3.64,-3.62c-9.46,-10.87 -22.6,-19.8 -37.65,-17.79c-11.6,1.56 -21.34,9.15 -27.61,18.76c-5.49,8.44 -8.63,20.02 -4.66,29.7c4.81,11.74 17.94,14.77 29.46,14.34c20.54,-0.74 60.78,-20.13 40.45,-45.01c-2.1,-2.58 -5.71,1.08 -3.64,3.62z" fill="#231F20" id="svg_187"/>
   </g>
   <path d="m292.65,223.98c-12.41,0.59 -13.12,14.56 -10.2,23.86c0.43,1.37 1.76,2.13 3.15,1.8c12.99,-3.08 16.74,-19.89 5.77,-27.89c-1.06,-0.76 -2.99,-0.26 -3.53,0.93c-2.75,6.1 -2.91,12.73 -2.93,19.33c0,2.1 2.89,3.58 4.4,1.82c2.49,-2.95 3.28,-5.71 3.32,-9.56c0.04,-3.3 -5.1,-3.3 -5.14,0c-0.02,2.39 -0.13,3.9 -1.82,5.92c1.47,0.59 2.93,1.21 4.4,1.82c0,-5.58 -0.11,-11.54 2.21,-16.74c-1.17,0.32 -2.34,0.61 -3.51,0.93c7.61,5.53 3.71,16.51 -4.55,18.48c1.06,0.59 2.12,1.19 3.17,1.8c-1.76,-5.6 -3.25,-16.96 5.25,-17.37c3.3,-0.15 3.3,-5.29 0,-5.14l0,0z" fill="#231F20" id="svg_188"/>
   <path d="m172.35,219.58c-4.66,4.82 -8.26,10.39 -8.48,17.27c-0.06,1.58 1.71,3.04 3.27,2.49c3.51,-1.28 6.53,-3.15 8.16,-6.64c1.6,-3.47 1.45,-7.57 1.45,-11.3c0,-1.39 -1.17,-2.56 -2.58,-2.56c-1.71,0 -3.43,0 -5.14,0c-0.85,0 -1.86,0.46 -2.23,1.26c-2.49,5.42 -2.91,10.87 -2.93,16.75c0,1.37 1.17,2.62 2.58,2.58c5.34,-0.19 9.82,-2.5 11.71,-7.66c1.95,-5.27 -1.22,-11.04 -4.75,-14.77c-0.93,-0.98 -2.69,-1 -3.62,0c-3.75,4.06 -5.7,9.24 -5.92,14.71c-0.13,3.3 5.01,3.3 5.14,0c0.17,-4.08 1.61,-8.05 4.4,-11.08c-1.21,0 -2.41,0 -3.62,0c4.79,5.07 5.4,13.36 -3.34,13.66c0.85,0.85 1.71,1.71 2.56,2.56c0.02,-4.88 0.15,-9.63 2.23,-14.16c-0.74,0.43 -1.48,0.85 -2.21,1.28c1.71,0 3.43,0 5.14,0c-0.85,-0.85 -1.71,-1.73 -2.56,-2.58c0,5.58 0.2,10.78 -5.84,12.97c1.09,0.83 2.17,1.67 3.25,2.49c0.19,-5.47 3.28,-9.83 6.98,-13.64c2.3,-2.37 -1.32,-6.01 -3.64,-3.64l0,0z" fill="#231F20" id="svg_189"/>
   <path d="m207.65,345.02c-0.13,18.11 -2.84,39.04 15.92,49.08c12.88,6.9 32.73,5.57 42.56,-6.05c2.12,-2.5 -1.5,-6.16 -3.64,-3.62c-8.55,10.11 -25.07,10.71 -36.33,5.23c-17,-8.26 -13.49,-29.15 -13.38,-44.62c0.02,-3.32 -5.12,-3.32 -5.14,-0.02l0,0z" fill="#231F20" id="svg_190"/>
   <g id="svg_191">
    <path d="m285.65,113.86c0,5.47 0,9.13 -1.84,13.69c-9.13,15.53 -25.59,8.24 -35.62,0.93c-8.22,-5.49 -8.22,-2.75 -15.53,3.66c-5.49,3.64 -10.97,8.22 -17.37,8.22c-7.29,-0.93 -37.44,-21.02 -24.66,-28.33c-13.69,-0.91 -25.57,-7.29 -24.66,-21.91c0,-10.06 8.22,-27.4 21,-21.93c0,-15.53 2.75,-32.88 21.02,-34.71c12.78,-1.82 27.4,13.71 36.53,5.49c6.4,-6.4 10.06,-15.53 21,-11.87c9.15,2.75 8.24,8.22 10.97,15.53c2.75,8.22 5.49,1.82 13.71,-1.84c5.47,-2.73 13.69,-3.66 19.18,0c11.87,6.4 7.29,27.4 2.73,37.46l0,-0.91c10.06,-2.75 18.28,12.78 15.53,21c-3.66,13.69 -26.48,15.53 -38.37,11.87c0,1.82 -1.82,4.56 -1.82,6.4l-1.82,-2.75z" fill="#FFFFFF" id="svg_192"/>
    <path d="m282.85,113.86c-0.02,7.89 -0.85,16.03 -9.24,19.31c-5.34,2.08 -11.52,-0.07 -16.38,-2.43c-4.73,-2.3 -8.65,-6.12 -13.69,-7.76c-4.1,-1.34 -7.46,2.13 -10.13,4.66c-3.97,3.79 -12.95,11.39 -18.94,9.63c-3.53,-1.04 -6.85,-3.27 -9.91,-5.27c-3.14,-2.02 -19.3,-13.25 -12.51,-17.55c2.47,-1.56 1.34,-4.99 -1.41,-5.21c-11.48,-0.95 -22.26,-6.12 -21.86,-19.13c0.28,-8.94 6.33,-23.38 17.46,-19.22c1.74,0.65 3.54,-1 3.54,-2.71c0.06,-8.33 0.59,-17.07 5.07,-24.34c5.34,-8.65 16.16,-8.65 24.62,-5.58c7.11,2.58 13.92,6.9 21.75,5.55c8.16,-1.41 10.24,-12.38 18.07,-14.6c4.95,-1.43 10.65,2.25 12.26,6.75c1.26,3.51 1.91,7.14 3.58,10.5c3.41,6.9 11.17,-0.41 15.01,-2.54c9.13,-5.05 20.97,-3.1 23.56,7.92c1.87,8 -0.76,17.64 -3.99,24.99c1.74,0.46 3.49,0.93 5.21,1.41c0,-0.32 0,-0.61 0,-0.93c-0.69,0.91 -1.37,1.82 -2.06,2.71c5.97,-1.21 9.93,4.92 11.65,9.76c1.93,5.38 0.41,10.8 -4.14,14.29c-8,6.12 -21.1,6.1 -30.34,3.45c-1.35,-0.39 -3.21,0.45 -3.45,1.95c-0.35,2.23 -1.47,4.17 -1.84,6.4c-0.56,3.53 4.84,5.03 5.4,1.48c0.35,-2.23 1.48,-4.17 1.84,-6.4c-1.15,0.65 -2.3,1.3 -3.45,1.97c12.82,3.67 31.12,2.56 39.65,-9.04c8.22,-11.17 -2.49,-32.15 -16.81,-29.26c-1.21,0.24 -2.06,1.52 -2.06,2.71c0,0.3 0,0.61 0,0.91c0,2.6 4.04,4.06 5.21,1.41c6.27,-14.25 10.33,-39.37 -10.09,-43.71c-4.62,-0.98 -10.07,-0.11 -14.34,1.84c-2.28,1.04 -4.43,2.19 -6.53,3.58c-2.37,1.56 -3.21,3.58 -4.38,0.52c-1.5,-4.03 -2.04,-8.39 -4.47,-12.02c-2.52,-3.75 -7.27,-5.42 -11.52,-6.2c-9.74,-1.8 -14.9,7.35 -20.65,13.32c-3.69,3.86 -10.93,0.28 -14.84,-1.34c-4.66,-1.91 -9.3,-4.16 -14.34,-4.84c-9.24,-1.22 -18.05,2.6 -23.36,10.2c-5.31,7.63 -5.77,18.24 -5.83,27.18c1.19,-0.89 2.36,-1.8 3.54,-2.69c-14.27,-5.32 -22.95,10.56 -24.44,22.45c-2.15,17.22 12.15,25.64 27.35,26.88c-0.46,-1.74 -0.95,-3.47 -1.41,-5.21c-9.59,6.09 -1.26,16.1 4.66,21.32c7.77,6.88 18.16,14.81 28.81,10.58c4.14,-1.65 7.72,-4.49 11.37,-6.96c2.97,-2.02 5.58,-7.4 9.63,-5.51c6.55,3.04 11.58,7.66 18.74,9.65c6.16,1.71 12.65,0.87 17.85,-2.88c7.35,-5.31 8.13,-13.58 8.15,-21.95c0.02,-3.62 -5.58,-3.62 -5.58,0l0,0z" fill="#231F20" id="svg_193"/>
   </g>
  </g>
 </g>
</svg>